<svg xmlns="http://www.w3.org/2000/svg" xmlns:xlink="http://www.w3.org/1999/xlink" viewBox="0 0 500 376"><defs><clipPath id="a" transform="translate(0 -62)"><rect x="242.95" y="62" width="257.05" height="376" style="fill:none"/></clipPath></defs><title>burger-flag-fr</title><path d="M16.76,0H243a0,0,0,0,1,0,0V56a0,0,0,0,1,0,0H16.76A16.76,16.76,0,0,1,0,39.24V16.76A16.76,16.76,0,0,1,16.76,0Z"/><path d="M16.76,160H243a0,0,0,0,1,0,0v56a0,0,0,0,1,0,0H16.76A16.76,16.76,0,0,1,0,199.24V176.76A16.76,16.76,0,0,1,16.76,160Z"/><path d="M16.76,320H243a0,0,0,0,1,0,0v56a0,0,0,0,1,0,0H16.76A16.76,16.76,0,0,1,0,359.24V336.76A16.76,16.76,0,0,1,16.76,320Z"/><g style="clip-path:url(#a)"><path d="M414.32,0h57.13A28.55,28.55,0,0,1,500,28.55V347.45A28.55,28.55,0,0,1,471.45,376H414.32a0,0,0,0,1,0,0V0A0,0,0,0,1,414.32,0Z" style="fill:#e80c20"/><rect x="328.63" width="85.68" height="376" style="fill:#fff"/><rect x="242.95" width="85.68" height="376" style="fill:#002a94"/></g></svg>