<svg xmlns="http://www.w3.org/2000/svg" xmlns:xlink="http://www.w3.org/1999/xlink" viewBox="0 0 618.53 515.67"><defs><clipPath id="a" transform="translate(59.21 7.83)"><path d="M243,62H469.47A30.53,30.53,0,0,1,500,92.53V407.47A30.53,30.53,0,0,1,469.47,438H243a0,0,0,0,1,0,0V62A0,0,0,0,1,243,62Z" style="fill:none"/></clipPath><clipPath id="b" transform="translate(59.21 7.83)"><rect x="0.1" y="62" width="499.9" height="376" style="fill:none"/></clipPath></defs><title>burger-flag-en</title><path d="M76,69.83H302.16a0,0,0,0,1,0,0v56a0,0,0,0,1,0,0H76a16.76,16.76,0,0,1-16.76-16.76V86.59A16.76,16.76,0,0,1,76,69.83Z"/><path d="M76,229.83H302.16a0,0,0,0,1,0,0v56a0,0,0,0,1,0,0H76a16.76,16.76,0,0,1-16.76-16.76V246.59A16.76,16.76,0,0,1,76,229.83Z"/><path d="M76,389.83H302.16a0,0,0,0,1,0,0v56a0,0,0,0,1,0,0H76a16.76,16.76,0,0,1-16.76-16.76V406.59A16.76,16.76,0,0,1,76,389.83Z"/><g style="clip-path:url(#a)"><rect x="59.31" y="69.83" width="499.9" height="376" style="fill:#002173"/><g style="clip-path:url(#b)"><polygon points="596.17 515.67 0 67.26 22.36 0 618.53 448.4 596.17 515.67" style="fill:#fff"/><polygon points="3.73 56.05 301.81 280.25 309.26 257.83 11.18 33.63 3.73 56.05" style="fill:#c61018"/><polygon points="316.71 235.41 309.26 257.83 607.35 482.04 614.8 459.62 316.71 235.41" style="fill:#c61018"/><polygon points="618.53 67.26 22.36 515.67 0 448.4 596.17 0 618.53 67.26" style="fill:#fff"/><polygon points="18.63 504.46 316.71 280.25 309.26 257.83 11.18 482.04 18.63 504.46" style="fill:#c61018"/><polygon points="301.81 235.41 309.26 257.83 607.35 33.63 599.89 11.21 301.81 235.41" style="fill:#c61018"/><polygon points="600.87 195.17 350.92 195.17 350.92 7.17 267.6 7.17 267.6 195.17 17.65 195.17 17.65 320.5 267.6 320.5 267.6 508.5 350.92 508.5 350.92 320.5 600.87 320.5 600.87 195.17" style="fill:#fff"/><polygon points="600.87 220.23 334.26 220.23 334.26 7.17 284.27 7.17 284.27 220.23 17.65 220.23 17.65 295.43 284.27 295.43 284.27 508.5 334.26 508.5 334.26 295.43 600.87 295.43 600.87 220.23" style="fill:#c61018"/></g></g></svg>