<svg xmlns="http://www.w3.org/2000/svg" xmlns:xlink="http://www.w3.org/1999/xlink" viewBox="0 0 485.99 376.09"><defs><clipPath id="a" transform="translate(-6.86 -61.91)"><path d="M266.76,382H492.95a0,0,0,0,1,0,0v56a0,0,0,0,1,0,0H266.76A16.76,16.76,0,0,1,250,421.24V398.76A16.76,16.76,0,0,1,266.76,382Z" transform="translate(742.95 820) rotate(180)" style="fill:none"/></clipPath><clipPath id="b" transform="translate(-6.86 -61.91)"><path d="M266.76,222H492.95a0,0,0,0,1,0,0v56a0,0,0,0,1,0,0H266.76A16.76,16.76,0,0,1,250,261.24V238.76A16.76,16.76,0,0,1,266.76,222Z" transform="translate(742.95 500) rotate(180)" style="fill:none"/></clipPath><clipPath id="c" transform="translate(-6.86 -61.91)"><path d="M266.76,62H492.95a0,0,0,0,1,0,0v56a0,0,0,0,1,0,0H266.76A16.76,16.76,0,0,1,250,101.24V78.76A16.76,16.76,0,0,1,266.76,62Z" transform="translate(742.95 180) rotate(180)" style="fill:none"/></clipPath></defs><title>burger-flag-fr2</title><path d="M16.76.09H243a0,0,0,0,1,0,0v56a0,0,0,0,1,0,0H16.76A16.76,16.76,0,0,1,0,39.33V16.85A16.76,16.76,0,0,1,16.76.09Z"/><path d="M16.76,160.09H243a0,0,0,0,1,0,0v56a0,0,0,0,1,0,0H16.76A16.76,16.76,0,0,1,0,199.33V176.85a16.76,16.76,0,0,1,16.76-16.76Z"/><path d="M16.76,320.09H243a0,0,0,0,1,0,0v56a0,0,0,0,1,0,0H16.76A16.76,16.76,0,0,1,0,359.33V336.85a16.76,16.76,0,0,1,16.76-16.76Z"/><g style="clip-path:url(#a)"><rect x="405.04" width="80.95" height="376" style="fill:#e80c20"/><rect x="324.09" width="80.95" height="376" style="fill:#fff"/><rect x="243.14" width="80.95" height="376" style="fill:#002a94"/></g><g style="clip-path:url(#b)"><rect x="405.04" width="80.95" height="376" style="fill:#e80c20"/><rect x="324.09" width="80.95" height="376" style="fill:#fff"/><rect x="243.14" width="80.95" height="376" style="fill:#002a94"/></g><g style="clip-path:url(#c)"><rect x="405.04" width="80.95" height="376" style="fill:#e80c20"/><rect x="324.09" width="80.95" height="376" style="fill:#fff"/><rect x="243.14" width="80.95" height="376" style="fill:#002a94"/></g></svg>