<svg xmlns="http://www.w3.org/2000/svg" viewBox="0 0 500 500"><title>burger-flag-fr</title><path d="M31.28,0H250a0,0,0,0,1,0,0V62.56a0,0,0,0,1,0,0H31.28A31.28,31.28,0,0,1,0,31.28v0A31.28,31.28,0,0,1,31.28,0Z"/><path d="M31.28,218.72H250a0,0,0,0,1,0,0v62.56a0,0,0,0,1,0,0H31.28A31.28,31.28,0,0,1,0,250v0a31.28,31.28,0,0,1,31.28-31.28Z"/><path d="M31.28,437.44H250a0,0,0,0,1,0,0V500a0,0,0,0,1,0,0H31.28A31.28,31.28,0,0,1,0,468.72v0a31.28,31.28,0,0,1,31.28-31.28Z"/><path d="M250,0h0V500h.49V0Z" style="fill:none"/><path d="M416.83,63.82V436.18A249.36,249.36,0,0,0,500,250h0A249.36,249.36,0,0,0,416.83,63.82Z" style="fill:#e80c20"/><path d="M333.66,14.36V485.64a250,250,0,0,0,83.17-49.46V63.82A250,250,0,0,0,333.66,14.36Z" style="fill:#fff"/><path d="M250.49,0V500a249.25,249.25,0,0,0,83.17-14.35V14.36A249.25,249.25,0,0,0,250.49,0Z" style="fill:#002a94"/></svg>