<svg xmlns="http://www.w3.org/2000/svg" viewBox="0 0 500 500"><title>burger-flag-en</title><path d="M31.28,0H250a0,0,0,0,1,0,0V62.56a0,0,0,0,1,0,0H31.28A31.28,31.28,0,0,1,0,31.28v0A31.28,31.28,0,0,1,31.28,0Z"/><path d="M31.28,218.72H250a0,0,0,0,1,0,0v62.56a0,0,0,0,1,0,0H31.28A31.28,31.28,0,0,1,0,250v0a31.28,31.28,0,0,1,31.28-31.28Z"/><path d="M31.28,437.44H250a0,0,0,0,1,0,0V500a0,0,0,0,1,0,0H31.28A31.28,31.28,0,0,1,0,468.72v0a31.28,31.28,0,0,1,31.28-31.28Z"/><path d="M454.27,394.16A249.48,249.48,0,0,0,489,323.72H383.83Z" style="fill:#00247d"/><path d="M323.86,488.9a248.94,248.94,0,0,0,70.3-34.63L323.86,384Z" style="fill:#00247d"/><path d="M394.16,45.73a248.94,248.94,0,0,0-70.3-34.63V116Z" style="fill:#00247d"/><polygon points="323.87 132.29 403.49 52.67 403.49 52.67 323.87 132.29 323.87 132.29" style="fill:#00247d"/><path d="M489,176.28a249.48,249.48,0,0,0-34.68-70.44l-70.44,70.44Z" style="fill:#00247d"/><path d="M323.86,176.13,426.78,73.22a252.51,252.51,0,0,0-23.29-20.55l-79.63,79.62Z" style="fill:#cf142b"/><path d="M326.75,323.72,428.28,425.24a252.68,252.68,0,0,0,20.37-23.46l-78.06-78.06Z" style="fill:#cf142b"/><path d="M293.93,206.16H496.16A248.79,248.79,0,0,0,489,176.28H383.83l70.44-70.44a253,253,0,0,0-27.49-32.62L323.86,176.13V132.29h0l79.63-79.62q-4.58-3.57-9.33-6.94L323.86,116V11.1a247.35,247.35,0,0,0-29.93-7.25Z" style="fill:#fff"/><path d="M293.93,293.84V496.15a247.35,247.35,0,0,0,29.93-7.25V384l70.3,70.3a252.25,252.25,0,0,0,34.12-29L326.75,323.72h43.84l78.06,78.06c1.92-2.51,3.79-5,5.62-7.62l-70.44-70.44H489a248.79,248.79,0,0,0,7.21-29.88Z" style="fill:#fff"/><path d="M496.16,206.16H293.93V3.85A251.32,251.32,0,0,0,250,0h0V500h0a251.32,251.32,0,0,0,43.93-3.85V293.84H496.16A251.26,251.26,0,0,0,500,250h0A251.26,251.26,0,0,0,496.16,206.16Z" style="fill:#cf142b"/></svg>