<svg xmlns="http://www.w3.org/2000/svg" xmlns:xlink="http://www.w3.org/1999/xlink" viewBox="0 0 618.53 515.67"><defs><clipPath id="a" transform="translate(66.07 7.92)"><path d="M266.95,382.38H493.14a0,0,0,0,1,0,0v56a0,0,0,0,1,0,0H266.95a16.76,16.76,0,0,1-16.76-16.76V399.14A16.76,16.76,0,0,1,266.95,382.38Z" transform="translate(743.33 820.77) rotate(180)" style="fill:none"/></clipPath><clipPath id="b" transform="translate(66.07 7.92)"><rect x="-6.76" y="61.91" width="499.9" height="376" style="fill:none"/></clipPath><clipPath id="c" transform="translate(66.07 7.92)"><path d="M266.95,222.38H493.14a0,0,0,0,1,0,0v56a0,0,0,0,1,0,0H266.95a16.76,16.76,0,0,1-16.76-16.76V239.14A16.76,16.76,0,0,1,266.95,222.38Z" transform="translate(743.33 500.77) rotate(180)" style="fill:none"/></clipPath><clipPath id="e" transform="translate(66.07 7.92)"><path d="M476.38,62.38H250.19v56H476.38a16.75,16.75,0,0,0,16.76-16.75V79.14A16.76,16.76,0,0,0,476.38,62.38Z" style="fill:none"/></clipPath></defs><title>burger-flag-en2</title><path d="M89.69,69.92H315.88a0,0,0,0,1,0,0v56a0,0,0,0,1,0,0H89.69a16.76,16.76,0,0,1-16.76-16.76V86.68A16.76,16.76,0,0,1,89.69,69.92Z"/><path d="M89.69,229.92H315.88a0,0,0,0,1,0,0v56a0,0,0,0,1,0,0H89.69a16.76,16.76,0,0,1-16.76-16.76V246.68a16.76,16.76,0,0,1,16.76-16.76Z"/><path d="M89.69,389.92H315.88a0,0,0,0,1,0,0v56a0,0,0,0,1,0,0H89.69a16.76,16.76,0,0,1-16.76-16.76V406.68a16.76,16.76,0,0,1,16.76-16.76Z"/><g style="clip-path:url(#a)"><rect x="59.31" y="69.83" width="499.9" height="376" style="fill:#002173"/><g style="clip-path:url(#b)"><polygon points="596.17 515.67 0 67.26 22.36 0 618.53 448.4 596.17 515.67" style="fill:#fff"/><polygon points="3.73 56.05 301.81 280.25 309.26 257.83 11.18 33.63 3.73 56.05" style="fill:#c61018"/><polygon points="316.71 235.41 309.26 257.83 607.35 482.04 614.8 459.62 316.71 235.41" style="fill:#c61018"/><polygon points="618.53 67.26 22.36 515.67 0 448.4 596.17 0 618.53 67.26" style="fill:#fff"/><polygon points="18.63 504.46 316.71 280.25 309.26 257.83 11.18 482.04 18.63 504.46" style="fill:#c61018"/><polygon points="301.81 235.41 309.26 257.83 607.35 33.63 599.89 11.21 301.81 235.41" style="fill:#c61018"/><polygon points="600.87 195.17 350.92 195.17 350.92 7.17 267.6 7.17 267.6 195.17 17.65 195.17 17.65 320.5 267.6 320.5 267.6 508.5 350.92 508.5 350.92 320.5 600.87 320.5 600.87 195.17" style="fill:#fff"/><polygon points="600.87 220.23 334.26 220.23 334.26 7.17 284.27 7.17 284.27 220.23 17.65 220.23 17.65 295.43 284.27 295.43 284.27 508.5 334.26 508.5 334.26 295.43 600.87 295.43 600.87 220.23" style="fill:#c61018"/></g></g><g style="clip-path:url(#c)"><rect x="59.31" y="69.83" width="499.9" height="376" style="fill:#002173"/><g style="clip-path:url(#b)"><polygon points="596.17 515.67 0 67.26 22.36 0 618.53 448.4 596.17 515.67" style="fill:#fff"/><polygon points="3.73 56.05 301.81 280.25 309.26 257.83 11.18 33.63 3.73 56.05" style="fill:#c61018"/><polygon points="316.71 235.41 309.26 257.83 607.35 482.04 614.8 459.62 316.71 235.41" style="fill:#c61018"/><polygon points="618.53 67.26 22.36 515.67 0 448.4 596.17 0 618.53 67.26" style="fill:#fff"/><polygon points="18.63 504.46 316.71 280.25 309.26 257.83 11.18 482.04 18.63 504.46" style="fill:#c61018"/><polygon points="301.81 235.41 309.26 257.83 607.35 33.63 599.89 11.21 301.81 235.41" style="fill:#c61018"/><polygon points="600.87 195.17 350.92 195.17 350.92 7.17 267.6 7.17 267.6 195.17 17.65 195.17 17.65 320.5 267.6 320.5 267.6 508.5 350.92 508.5 350.92 320.5 600.87 320.5 600.87 195.17" style="fill:#fff"/><polygon points="600.87 220.23 334.26 220.23 334.26 7.17 284.27 7.17 284.27 220.23 17.65 220.23 17.65 295.43 284.27 295.43 284.27 508.5 334.26 508.5 334.26 295.43 600.87 295.43 600.87 220.23" style="fill:#c61018"/></g></g><g style="clip-path:url(#e)"><rect x="59.31" y="69.83" width="499.9" height="376" style="fill:#002173"/><g style="clip-path:url(#b)"><polygon points="596.17 515.67 0 67.26 22.36 0 618.53 448.4 596.17 515.67" style="fill:#fff"/><polygon points="3.73 56.05 301.81 280.25 309.26 257.83 11.18 33.63 3.73 56.05" style="fill:#c61018"/><polygon points="316.71 235.41 309.26 257.83 607.35 482.04 614.8 459.62 316.71 235.41" style="fill:#c61018"/><polygon points="618.53 67.26 22.36 515.67 0 448.4 596.17 0 618.53 67.26" style="fill:#fff"/><polygon points="18.63 504.46 316.71 280.25 309.26 257.83 11.18 482.04 18.63 504.46" style="fill:#c61018"/><polygon points="301.81 235.41 309.26 257.83 607.35 33.63 599.89 11.21 301.81 235.41" style="fill:#c61018"/><polygon points="600.87 195.17 350.92 195.17 350.92 7.17 267.6 7.17 267.6 195.17 17.65 195.17 17.65 320.5 267.6 320.5 267.6 508.5 350.92 508.5 350.92 320.5 600.87 320.5 600.87 195.17" style="fill:#fff"/><polygon points="600.87 220.23 334.26 220.23 334.26 7.17 284.27 7.17 284.27 220.23 17.65 220.23 17.65 295.43 284.27 295.43 284.27 508.5 334.26 508.5 334.26 295.43 600.87 295.43 600.87 220.23" style="fill:#c61018"/></g></g></svg>