<svg xmlns="http://www.w3.org/2000/svg" xmlns:xlink="http://www.w3.org/1999/xlink" viewBox="0 0 1232.34 682.98"><defs><clipPath id="a" transform="translate(366.17 91.49)"><circle cx="250" cy="250" r="248" style="fill:none"/></clipPath><clipPath id="b" transform="translate(366.17 91.49)"><rect x="-248" y="1" width="996" height="498" style="fill:none"/></clipPath></defs><title>flag-en</title><g style="clip-path:url(#a)"><rect x="118.17" y="92.49" width="996" height="498" style="fill:#002173"/><g style="clip-path:url(#b)"><rect x="-414" y="200.2" width="1328" height="99.6" transform="translate(504.37 6.08) rotate(26.56)" style="fill:#fff"/><rect x="-70.97" y="-215.63" width="33.2" height="664" transform="translate(232.03 107.19) rotate(-63.44)" style="fill:#c61018"/><rect x="537.77" y="51.63" width="33.2" height="664" transform="translate(329.5 799.4) rotate(-63.44)" style="fill:#c61018"/><rect x="-414" y="200.2" width="1328" height="99.6" transform="translate(280.76 229.69) rotate(-26.56)" style="fill:#fff"/><rect x="-371.53" y="396.72" width="664" height="33.2" transform="translate(177.16 117.45) rotate(-26.56)" style="fill:#c61018"/><rect x="207.53" y="70.08" width="664" height="33.2" transform="translate(384.37 341.93) rotate(-26.56)" style="fill:#c61018"/><polygon points="1197.17 258.49 699.17 258.49 699.17 9.49 533.17 9.49 533.17 258.49 35.17 258.49 35.17 424.49 533.17 424.49 533.17 673.49 699.17 673.49 699.17 424.49 1197.17 424.49 1197.17 258.49" style="fill:#fff"/><polygon points="1197.17 291.69 665.97 291.69 665.97 9.49 566.37 9.49 566.37 291.69 35.17 291.69 35.17 391.29 566.37 391.29 566.37 673.49 665.97 673.49 665.97 391.29 1197.17 391.29 1197.17 291.69" style="fill:#c61018"/></g></g></svg>