<svg xmlns="http://www.w3.org/2000/svg" xmlns:xlink="http://www.w3.org/1999/xlink" viewBox="0 0 1689.04 1022.42"><defs><linearGradient id="a" x1="115.48" y1="555.31" x2="1804.52" y2="555.31" gradientUnits="userSpaceOnUse"><stop offset="0" stop-color="#0ea5e9"/><stop offset="1" stop-color="#f59e0b"/></linearGradient><linearGradient id="b" x1="181.29" y1="524.34" x2="1804.51" y2="524.34" xlink:href="#a"/><linearGradient id="c" x1="377.35" y1="691.83" x2="642.18" y2="691.83" gradientUnits="userSpaceOnUse"><stop offset="0" stop-color="#0ea5e9"/><stop offset="1" stop-color="#7dd3fc"/></linearGradient><linearGradient id="d" x1="279.51" y1="783.64" x2="575.83" y2="783.64" gradientUnits="userSpaceOnUse"><stop offset="0" stop-color="#7dd3fc"/><stop offset="1" stop-color="#0ea5e9"/></linearGradient><linearGradient id="e" x1="1286.88" y1="691.83" x2="1551.71" y2="691.83" xlink:href="#c"/><linearGradient id="f" x1="1353.23" y1="783.64" x2="1649.55" y2="783.64" xlink:href="#d"/><linearGradient id="g" x1="505.49" y1="757.07" x2="1414.51" y2="757.07" gradientUnits="userSpaceOnUse"><stop offset="0" stop-color="#fbbf24"/><stop offset="1" stop-color="#d97706"/></linearGradient><linearGradient id="h" x1="941.93" y1="66.29" x2="986.69" y2="1129.5" gradientUnits="userSpaceOnUse"><stop offset="0" stop-color="#fdf53f"/><stop offset="1" stop-color="#d93c65"/></linearGradient><clipPath id="i" transform="translate(-115.48 -28.79)"><polygon points="543.22 518.14 960.57 770.06 1354.11 533.03 1354.11 166.05 575.99 166.05 543.22 518.14" style="fill:none"/></clipPath><linearGradient id="j" x1="1242.94" y1="318.85" x2="1333.68" y2="318.85" gradientUnits="userSpaceOnUse"><stop offset="0" stop-color="#38bdf8"/><stop offset="1" stop-color="#0ea5e9"/></linearGradient><linearGradient id="k" x1="794.82" y1="563.22" x2="1125.03" y2="563.22" gradientUnits="userSpaceOnUse"><stop offset="0" stop-color="#0ea5e9"/><stop offset="1" stop-color="#0284c7"/></linearGradient><linearGradient id="l" x1="1597.3" y1="531.78" x2="1599.34" y2="531.78" gradientUnits="userSpaceOnUse"><stop offset="0" stop-color="#9cfffb"/><stop offset="1" stop-color="#7dd3fc"/></linearGradient><linearGradient id="m" x1="1598.1" y1="547.77" x2="1599.91" y2="547.77" xlink:href="#l"/><linearGradient id="n" x1="1597.13" y1="563.75" x2="1599.49" y2="563.75" xlink:href="#l"/><linearGradient id="o" x1="1594.83" y1="579.62" x2="1597.75" y2="579.62" xlink:href="#l"/><linearGradient id="p" x1="1591.27" y1="595.28" x2="1594.73" y2="595.28" xlink:href="#l"/><linearGradient id="q" x1="1586.5" y1="610.63" x2="1590.49" y2="610.63" xlink:href="#l"/><linearGradient id="r" x1="1580.57" y1="625.59" x2="1585.07" y2="625.59" xlink:href="#l"/><linearGradient id="s" x1="1573.53" y1="640.08" x2="1578.52" y2="640.08" xlink:href="#l"/><linearGradient id="t" x1="1565.45" y1="654.03" x2="1570.91" y2="654.03" xlink:href="#l"/><linearGradient id="u" x1="1556.35" y1="667.35" x2="1562.28" y2="667.35" xlink:href="#l"/><linearGradient id="v" x1="1546.29" y1="679.97" x2="1552.68" y2="679.97" xlink:href="#l"/><linearGradient id="w" x1="1535.32" y1="691.82" x2="1542.14" y2="691.82" xlink:href="#l"/><linearGradient id="x" x1="1523.47" y1="702.81" x2="1530.71" y2="702.81" xlink:href="#l"/><linearGradient id="y" x1="1510.8" y1="712.84" x2="1518.46" y2="712.84" xlink:href="#l"/><linearGradient id="z" x1="1497.4" y1="721.82" x2="1505.41" y2="721.82" xlink:href="#l"/><linearGradient id="aa" x1="1483.32" y1="729.67" x2="1491.62" y2="729.67" xlink:href="#l"/><linearGradient id="ab" x1="1468.63" y1="736.3" x2="1477.21" y2="736.3" xlink:href="#l"/><linearGradient id="ac" x1="1453.45" y1="741.67" x2="1462.25" y2="741.67" xlink:href="#l"/><linearGradient id="ad" x1="1437.91" y1="745.83" x2="1446.9" y2="745.83" xlink:href="#l"/><linearGradient id="ae" x1="1422.11" y1="748.81" x2="1431.26" y2="748.81" xlink:href="#l"/><linearGradient id="af" x1="1406.15" y1="750.63" x2="1415.43" y2="750.63" xlink:href="#l"/><linearGradient id="ag" x1="1390.11" y1="751.34" x2="1399.5" y2="751.34" xlink:href="#l"/><linearGradient id="ah" x1="1374.08" y1="750.98" x2="1383.55" y2="750.98" xlink:href="#l"/><linearGradient id="ai" x1="1358.1" y1="749.63" x2="1367.64" y2="749.63" xlink:href="#l"/><linearGradient id="aj" x1="1342.24" y1="747.35" x2="1351.82" y2="747.35" xlink:href="#l"/><linearGradient id="ak" x1="1326.54" y1="744.17" x2="1336.16" y2="744.17" xlink:href="#l"/><linearGradient id="al" x1="1311.03" y1="740.16" x2="1320.69" y2="740.16" xlink:href="#l"/><linearGradient id="am" x1="1295.75" y1="735.36" x2="1305.43" y2="735.36" xlink:href="#l"/><linearGradient id="an" x1="1280.74" y1="729.81" x2="1290.42" y2="729.81" xlink:href="#l"/><linearGradient id="ao" x1="1266.02" y1="723.54" x2="1275.7" y2="723.54" xlink:href="#l"/><linearGradient id="ap" x1="1251.6" y1="716.58" x2="1261.29" y2="716.58" xlink:href="#l"/><linearGradient id="aq" x1="1237.57" y1="708.97" x2="1247.19" y2="708.97" xlink:href="#l"/><linearGradient id="ar" x1="1223.86" y1="700.78" x2="1233.41" y2="700.78" xlink:href="#l"/><linearGradient id="as" x1="1210.46" y1="692.08" x2="1219.95" y2="692.08" xlink:href="#l"/><linearGradient id="at" x1="1197.38" y1="682.91" x2="1206.8" y2="682.91" xlink:href="#l"/><linearGradient id="au" x1="1184.6" y1="673.33" x2="1193.96" y2="673.33" xlink:href="#l"/><linearGradient id="av" x1="1172.1" y1="663.36" x2="1181.41" y2="663.36" xlink:href="#l"/><linearGradient id="aw" x1="1159.88" y1="653.07" x2="1169.13" y2="653.07" xlink:href="#l"/><linearGradient id="ax" x1="1147.9" y1="642.48" x2="1157.11" y2="642.48" xlink:href="#l"/><linearGradient id="ay" x1="1136.16" y1="631.63" x2="1145.33" y2="631.63" xlink:href="#l"/><linearGradient id="az" x1="1124.61" y1="620.57" x2="1133.76" y2="620.57" xlink:href="#l"/><linearGradient id="ba" x1="1113.24" y1="609.32" x2="1122.36" y2="609.32" xlink:href="#l"/><linearGradient id="bb" x1="1102.01" y1="597.91" x2="1111.12" y2="597.91" xlink:href="#l"/><linearGradient id="bc" x1="1090.91" y1="586.37" x2="1100.02" y2="586.37" xlink:href="#l"/><linearGradient id="bd" x1="1079.9" y1="574.75" x2="1089.01" y2="574.75" xlink:href="#l"/><linearGradient id="be" x1="1068.96" y1="563.05" x2="1078.08" y2="563.05" xlink:href="#l"/><linearGradient id="bf" x1="1058.05" y1="551.32" x2="1067.2" y2="551.32" xlink:href="#l"/><linearGradient id="bg" x1="1047.15" y1="539.59" x2="1056.33" y2="539.59" xlink:href="#l"/><linearGradient id="bh" x1="1036.22" y1="527.88" x2="1045.44" y2="527.88" xlink:href="#l"/><linearGradient id="bi" x1="1025.23" y1="516.22" x2="1034.5" y2="516.22" xlink:href="#l"/><linearGradient id="bj" x1="1014.15" y1="504.65" x2="1023.48" y2="504.65" xlink:href="#l"/><linearGradient id="bk" x1="1002.95" y1="493.18" x2="1012.35" y2="493.18" xlink:href="#l"/><linearGradient id="bl" x1="991.6" y1="481.85" x2="1001.09" y2="481.85" xlink:href="#l"/><linearGradient id="bm" x1="980.08" y1="470.7" x2="989.65" y2="470.7" xlink:href="#l"/><linearGradient id="bn" x1="968.38" y1="459.76" x2="978.02" y2="459.76" xlink:href="#l"/><linearGradient id="bo" x1="956.46" y1="449.05" x2="966.14" y2="449.05" xlink:href="#l"/><linearGradient id="bp" x1="944.3" y1="438.62" x2="954.03" y2="438.62" xlink:href="#l"/><linearGradient id="bq" x1="931.87" y1="428.52" x2="941.66" y2="428.52" xlink:href="#l"/><linearGradient id="br" x1="919.15" y1="418.77" x2="929.01" y2="418.77" xlink:href="#l"/><linearGradient id="bs" x1="906.14" y1="409.42" x2="916.06" y2="409.42" xlink:href="#l"/><linearGradient id="bt" x1="892.8" y1="400.51" x2="902.81" y2="400.51" xlink:href="#l"/><linearGradient id="bu" x1="879.15" y1="392.1" x2="889.23" y2="392.1" xlink:href="#l"/><linearGradient id="bv" x1="865.21" y1="384.19" x2="875.35" y2="384.19" xlink:href="#l"/><linearGradient id="bw" x1="850.99" y1="376.8" x2="861.19" y2="376.8" xlink:href="#l"/><linearGradient id="bx" x1="836.52" y1="369.92" x2="846.76" y2="369.92" xlink:href="#l"/><linearGradient id="by" x1="821.81" y1="363.57" x2="832.1" y2="363.57" xlink:href="#l"/><linearGradient id="bz" x1="806.88" y1="357.75" x2="817.22" y2="357.75" xlink:href="#l"/><linearGradient id="ca" x1="791.76" y1="352.46" x2="802.13" y2="352.46" xlink:href="#l"/><linearGradient id="cb" x1="776.47" y1="347.71" x2="786.86" y2="347.71" xlink:href="#l"/><linearGradient id="cc" x1="761.01" y1="343.49" x2="771.43" y2="343.49" xlink:href="#l"/><linearGradient id="cd" x1="745.42" y1="339.83" x2="755.85" y2="339.83" xlink:href="#l"/><linearGradient id="ce" x1="729.72" y1="336.71" x2="740.16" y2="336.71" xlink:href="#l"/><linearGradient id="cf" x1="713.92" y1="334.14" x2="724.36" y2="334.14" xlink:href="#l"/><linearGradient id="cg" x1="698.04" y1="332.14" x2="708.48" y2="332.14" xlink:href="#l"/><linearGradient id="ch" x1="682.1" y1="330.69" x2="692.53" y2="330.69" xlink:href="#l"/><linearGradient id="ci" x1="666.13" y1="329.82" x2="676.55" y2="329.82" xlink:href="#l"/><linearGradient id="cj" x1="650.14" y1="329.51" x2="660.54" y2="329.51" xlink:href="#l"/><linearGradient id="ck" x1="634.15" y1="329.77" x2="644.52" y2="329.77" xlink:href="#l"/><linearGradient id="cl" x1="618.19" y1="330.62" x2="628.53" y2="330.62" xlink:href="#l"/><linearGradient id="cm" x1="602.27" y1="332.06" x2="612.57" y2="332.06" xlink:href="#l"/><linearGradient id="cn" x1="586.42" y1="334.08" x2="596.68" y2="334.08" xlink:href="#l"/><linearGradient id="co" x1="570.66" y1="336.71" x2="580.87" y2="336.71" xlink:href="#l"/><linearGradient id="cp" x1="555.04" y1="340.01" x2="565.18" y2="340.01" xlink:href="#l"/><linearGradient id="cq" x1="539.58" y1="344.01" x2="549.64" y2="344.01" xlink:href="#l"/><linearGradient id="cr" x1="524.37" y1="348.76" x2="534.31" y2="348.76" xlink:href="#l"/><linearGradient id="cs" x1="509.44" y1="354.3" x2="519.22" y2="354.3" xlink:href="#l"/><linearGradient id="ct" x1="494.86" y1="360.69" x2="504.45" y2="360.69" xlink:href="#l"/><linearGradient id="cu" x1="480.72" y1="367.98" x2="490.1" y2="367.98" xlink:href="#l"/><linearGradient id="cv" x1="467.12" y1="376.21" x2="476.26" y2="376.21" xlink:href="#l"/><linearGradient id="cw" x1="454.18" y1="385.42" x2="463.03" y2="385.42" xlink:href="#l"/><linearGradient id="cx" x1="442.02" y1="395.63" x2="450.55" y2="395.63" xlink:href="#l"/><linearGradient id="cy" x1="430.79" y1="406.84" x2="438.96" y2="406.84" xlink:href="#l"/><linearGradient id="cz" x1="420.63" y1="419.03" x2="428.39" y2="419.03" xlink:href="#l"/><linearGradient id="da" x1="411.76" y1="432.18" x2="419.03" y2="432.18" xlink:href="#l"/><linearGradient id="db" x1="404.24" y1="446.16" x2="411.03" y2="446.16" xlink:href="#l"/><linearGradient id="dc" x1="398.1" y1="460.83" x2="404.4" y2="460.83" xlink:href="#l"/><linearGradient id="dd" x1="393.34" y1="476.02" x2="399.15" y2="476.02" xlink:href="#l"/><linearGradient id="de" x1="389.95" y1="491.6" x2="395.27" y2="491.6" xlink:href="#l"/><linearGradient id="df" x1="387.92" y1="507.44" x2="392.76" y2="507.44" xlink:href="#l"/><linearGradient id="dg" x1="387.24" y1="523.41" x2="391.6" y2="523.41" xlink:href="#l"/><linearGradient id="dh" x1="387.56" y1="539.4" x2="392.11" y2="539.4" xlink:href="#l"/><linearGradient id="di" x1="389.15" y1="555.31" x2="394.04" y2="555.31" xlink:href="#l"/><linearGradient id="dj" x1="392.09" y1="571" x2="397.31" y2="571" xlink:href="#l"/><linearGradient id="dk" x1="396.36" y1="586.37" x2="401.92" y2="586.37" xlink:href="#l"/><linearGradient id="dl" x1="401.98" y1="601.28" x2="407.87" y2="601.28" xlink:href="#l"/><linearGradient id="dm" x1="408.95" y1="615.6" x2="415.18" y2="615.6" xlink:href="#l"/><linearGradient id="dn" x1="417.27" y1="629.16" x2="423.78" y2="629.16" xlink:href="#l"/><linearGradient id="do" x1="426.9" y1="641.83" x2="433.68" y2="641.83" xlink:href="#l"/><linearGradient id="dp" x1="437.79" y1="653.44" x2="444.81" y2="653.44" xlink:href="#l"/><linearGradient id="dq" x1="449.83" y1="663.87" x2="457.03" y2="663.87" xlink:href="#l"/><linearGradient id="dr" x1="462.85" y1="673.06" x2="470.2" y2="673.06" xlink:href="#l"/><linearGradient id="ds" x1="476.71" y1="680.97" x2="484.15" y2="680.97" xlink:href="#l"/><linearGradient id="dt" x1="491.26" y1="687.58" x2="498.74" y2="687.58" xlink:href="#l"/><linearGradient id="du" x1="506.34" y1="692.87" x2="513.84" y2="692.87" xlink:href="#l"/><linearGradient id="dv" x1="521.86" y1="696.85" x2="529.33" y2="696.85" xlink:href="#l"/><linearGradient id="dw" x1="537.66" y1="699.51" x2="545.08" y2="699.51" xlink:href="#l"/><linearGradient id="dx" x1="553.65" y1="700.84" x2="560.97" y2="700.84" xlink:href="#l"/><linearGradient id="dy" x1="569.72" y1="700.84" x2="576.91" y2="700.84" xlink:href="#l"/><linearGradient id="dz" x1="585.74" y1="699.47" x2="592.78" y2="699.47" xlink:href="#l"/><linearGradient id="ea" x1="601.61" y1="696.7" x2="608.44" y2="696.7" xlink:href="#l"/><linearGradient id="eb" x1="617.18" y1="692.54" x2="623.76" y2="692.54" xlink:href="#l"/><linearGradient id="ec" x1="632.31" y1="686.97" x2="638.61" y2="686.97" xlink:href="#l"/><linearGradient id="ed" x1="646.86" y1="679.97" x2="652.83" y2="679.97" xlink:href="#l"/><linearGradient id="ee" x1="660.67" y1="671.87" x2="665.4" y2="671.87" xlink:href="#l"/><linearGradient id="ef" x1="144.66" y1="531.52" x2="201.57" y2="531.52" gradientUnits="userSpaceOnUse"><stop offset="0" stop-color="#0ea5e9"/><stop offset="1" stop-color="#0ea5e9"/></linearGradient><linearGradient id="eg" x1="-6114.6" y1="824.38" x2="-5889.31" y2="824.38" gradientTransform="matrix(-1, -0.02, -0.02, 1, -5436.04, -99.41)" gradientUnits="userSpaceOnUse"><stop offset="0" stop-color="#2b3582"/><stop offset="1" stop-color="#150e42"/></linearGradient><linearGradient id="eh" x1="-5943.8" y1="734.82" x2="-6407.81" y2="1328.4" gradientTransform="matrix(-1, -0.02, -0.02, 1, -5436.04, -99.41)" gradientUnits="userSpaceOnUse"><stop offset="0" stop-color="#53d8ff"/><stop offset="1" stop-color="#3840f7"/></linearGradient><linearGradient id="ei" x1="544.8" y1="702.45" x2="548.39" y2="948.88" gradientTransform="translate(757.74 -139.19) rotate(45)" xlink:href="#eh"/><linearGradient id="ej" x1="1584.58" y1="1014.68" x2="1441.09" y2="1170.75" gradientTransform="translate(-1198.53)" xlink:href="#eg"/><linearGradient id="ek" x1="1538.01" y1="1026.27" x2="1550.75" y2="1026.27" gradientTransform="translate(-1198.53)" gradientUnits="userSpaceOnUse"><stop offset="0" stop-color="#f9b776"/><stop offset="1" stop-color="#f47960"/></linearGradient><linearGradient id="el" x1="1514.92" y1="1014.94" x2="1543.08" y2="851.32" gradientTransform="translate(-1198.53)" xlink:href="#eg"/><linearGradient id="em" x1="1552.39" y1="985.09" x2="1408.9" y2="1141.16" gradientTransform="translate(-1198.53)" xlink:href="#eg"/><linearGradient id="en" x1="1492.07" y1="1025.62" x2="1503.08" y2="1025.62" xlink:href="#ek"/><linearGradient id="eo" x1="1483.07" y1="1009.46" x2="1511.23" y2="845.84" gradientTransform="translate(-1198.53)" xlink:href="#eg"/><linearGradient id="ep" x1="281.81" y1="773.49" x2="406.19" y2="773.49" gradientUnits="userSpaceOnUse"><stop offset="0" stop-color="#0ea5e9"/><stop offset="1" stop-color="#0369a1"/></linearGradient><linearGradient id="eq" x1="1590.45" y1="693.76" x2="1655.57" y2="693.76" xlink:href="#ek"/><linearGradient id="er" x1="7016.72" y1="682.84" x2="7060.41" y2="782.26" gradientTransform="matrix(-1, 0, 0, 1, 7459.25, 0)" xlink:href="#ek"/><linearGradient id="es" x1="1655.25" y1="649.74" x2="1673.49" y2="621.71" xlink:href="#ek"/><linearGradient id="et" x1="250.16" y1="744.44" x2="299.69" y2="744.44" xlink:href="#j"/><linearGradient id="eu" x1="1511.24" y1="697.9" x2="1543.82" y2="697.9" xlink:href="#ek"/><linearGradient id="ev" x1="1515.23" y1="832.06" x2="1448.15" y2="778.4" xlink:href="#ek"/><linearGradient id="ew" x1="-3162.8" y1="-3234.97" x2="-3203.92" y2="-3180.58" gradientTransform="matrix(0.88, -0.47, 0.47, 0.88, 4621, 2040)" xlink:href="#ek"/><linearGradient id="ex" x1="-3194.2" y1="-3221.91" x2="-3145.09" y2="-3221.91" gradientTransform="matrix(0.88, -0.47, 0.47, 0.88, 4621, 2040)" xlink:href="#eg"/><linearGradient id="ey" x1="-3222.09" y1="-3192.53" x2="-3189.8" y2="-3225.66" gradientTransform="matrix(0.88, -0.47, 0.47, 0.88, 4621, 2040)" xlink:href="#ek"/><linearGradient id="ez" x1="-8537.23" y1="353.45" x2="-8554.34" y2="371.54" gradientTransform="matrix(0.96, 0.29, -0.37, 1.22, 8616.79, 2828.34)" xlink:href="#eg"/><linearGradient id="fa" x1="293.17" y1="808.16" x2="280.74" y2="817.44" gradientTransform="matrix(1, 0, 0, 1, 0, 0)" xlink:href="#ek"/></defs><title>contact</title><g style="isolation:isolate"><path d="M134.34,514.5c19.59,34.68,50.73,63.84,74.73,96.25,69.33,93.68-2.81,203.3,28.83,304.29,27.57,88,142.24,111.57,226.06,115.14,141.23,6,282.31-3,418.48-41.3,94.49-26.58,189.1-61.39,288.7-63.49,101.82-2.16,197.59,38.72,295.95,58.05,108,21.23,237.19-1.82,263.23-122.43,16.13-74.73-27.3-143.54-31.36-217.11-5.39-97.39,91.71-150.84,104.27-241.89,7.92-57.41-21.67-108.7-60.29-150.23-40.74-43.83-95.53-82.55-158.4-86.15-65.7-3.76-124.34,30.74-185.76,47.21C1226.2,259.13,1128.24,104.76,969.42,83.23c-71.62-9.71-159.65-5.1-224.68,28.24-60.48,31-89.82,99.88-157.66,120.1-71.79,21.41-137.49-21.37-205.71-35-70.61-14.14-137.39,11-181.58,66-42.85,53.39-89.21,123.7-83.89,194.19C117.51,478.14,124.46,497,134.34,514.5Z" transform="translate(-115.48 -28.79)" style="opacity:0.30000000000000004;fill:url(#a)"/><path d="M1786.39,481.9c-18.83,36.05-48.76,66.37-71.81,100.08-66.64,97.41,2.69,211.39-27.72,316.4-26.5,91.49-136.69,116-217.24,119.73-135.74,6.26-271.31-3.12-402.18-43-90.81-27.64-181.73-63.83-277.45-66-97.85-2.24-189.89,40.27-284.41,60.37-103.8,22.07-227.95-1.9-253-127.31C237.1,764.5,278.84,693,282.75,616.45c5.17-101.27-88.14-156.85-100.22-251.52-7.61-59.69,20.83-113,57.94-156.22,39.16-45.57,91.82-85.83,152.23-89.57,63.14-3.91,119.5,32,178.52,49.09,165.85,48.13,260-112.38,412.63-134.78,68.83-10.1,153.43-5.3,215.93,29.37,58.12,32.24,86.32,103.86,151.51,124.89,69,22.25,132.13-22.23,197.69-36.44,67.86-14.71,132,11.4,174.51,68.65,41.18,55.51,85.73,128.62,80.62,201.92C1802.56,444.09,1795.89,463.73,1786.39,481.9Z" transform="translate(-115.48 -28.79)" style="opacity:0.5;fill:url(#b)"/><path d="M566.43,1009c-42.1,8.42-95.87-37.48-113.19-87.62-17.82-51.61,14.86-73.23,14.61-144.84-.29-81.34-42.61-93.6-70.59-203.25-6.32-24.74-42.86-167.9,2.43-194.73C441.57,353.79,559.2,425,579.82,516.13c14.7,65-30.75,92.27-13.39,168,15.23,66.42,55.25,67.38,70.59,131.45C655.69,893.53,621.71,998,566.43,1009Z" transform="translate(-115.48 -28.79)" style="fill:url(#c)"/><path d="M563.37,1028.75C574.72,941.11,552.58,805.9,532,707.9c-22.28-106.1-47.55-192.64-47.81-193.5l-3.5,1c.25.87,25.5,87.29,47.74,193.26C549,806.39,571,941.15,559.75,1028.28Z" transform="translate(-115.48 -28.79)" style="fill:#fff"/><path d="M517.94,999.26c55.23-28.78,74.13-127.59,42.74-159.7-21.21-21.7-51.63,1.12-81-21.37-37.46-28.72-9.9-82.81-39.36-153C415.27,605.54,355.14,549.05,320,560.64,283.22,572.77,263.84,662.79,295.26,717c20.43,35.23,51.7,37,58.48,69.73,7.87,38-30.16,55.36-30.37,92.22C323,945.13,444.88,1037.33,517.94,999.26Z" transform="translate(-115.48 -28.79)" style="fill:url(#d)"/><path d="M488.14,1024.57a2.3,2.3,0,0,0,1-.23,2.25,2.25,0,0,0,1-3C417,870.46,395.48,695.44,395.27,693.69a2.25,2.25,0,0,0-4.47.53c.21,1.76,21.77,177.54,95.31,329.08A2.27,2.27,0,0,0,488.14,1024.57Z" transform="translate(-115.48 -28.79)" style="fill:#fff"/><path d="M337.93,739a1.1,1.1,0,0,0,.66-.23,1.07,1.07,0,0,0,.18-1.51c-23.11-29.66-48.72-74.23-39.5-118.09,5.49-26.12,21-39.74,21.1-39.87a1.08,1.08,0,0,0,.11-1.52,1.07,1.07,0,0,0-1.51-.11c-.66.57-16.16,14.24-21.8,41.06C292,643.4,294.7,684.21,337.08,738.6A1.08,1.08,0,0,0,337.93,739Z" transform="translate(-115.48 -28.79)" style="fill:#f0f0f0"/><path d="M522.92,986.08a1.09,1.09,0,0,0,.89-.46c35.51-51.84,47.63-91.89,36-119-10.34-24.14-36.45-28.64-36.72-28.68a1.07,1.07,0,1,0-.34,2.12c.25,0,25.23,4.37,35.09,27.43,11.3,26.43-.74,65.78-35.8,116.95a1.08,1.08,0,0,0,.27,1.5A1.14,1.14,0,0,0,522.92,986.08Z" transform="translate(-115.48 -28.79)" style="fill:#f0f0f0"/><path d="M1362.63,1009c42.1,8.42,95.87-37.48,113.19-87.62,17.82-51.61-14.86-73.23-14.61-144.84.29-81.34,42.6-93.6,70.59-203.25,6.32-24.74,42.86-167.9-2.43-194.73-41.88-24.81-159.51,46.39-180.13,137.53-14.7,65,30.75,92.27,13.39,168-15.23,66.42-55.26,67.38-70.59,131.45C1273.37,893.53,1307.35,998,1362.63,1009Z" transform="translate(-115.48 -28.79)" style="fill:url(#e)"/><path d="M1365.69,1028.75c-11.35-87.64,10.79-222.85,31.36-320.85,22.27-106.1,47.55-192.64,47.81-193.5l3.5,1c-.25.87-25.5,87.29-47.74,193.26-20.51,97.71-42.6,232.47-31.31,319.6Z" transform="translate(-115.48 -28.79)" style="fill:#fff"/><path d="M1411.12,999.26c-55.23-28.78-74.13-127.59-42.74-159.7,21.21-21.7,51.63,1.12,81-21.37,37.46-28.72,9.9-82.81,39.36-153,25.07-59.69,85.2-116.18,120.34-104.59,36.78,12.13,56.15,102.15,24.74,156.33-20.43,35.23-51.7,37-58.48,69.73-7.87,38,30.16,55.36,30.36,92.22C1606.06,945.13,1484.18,1037.33,1411.12,999.26Z" transform="translate(-115.48 -28.79)" style="fill:url(#f)"/><path d="M1440.92,1024.57a2.27,2.27,0,0,1-1-.23,2.24,2.24,0,0,1-1-3c73.21-150.87,94.68-325.89,94.89-327.64a2.25,2.25,0,1,1,4.47.53c-.21,1.76-21.77,177.54-95.32,329.08A2.24,2.24,0,0,1,1440.92,1024.57Z" transform="translate(-115.48 -28.79)" style="fill:#fff"/><path d="M1591.13,739a1.1,1.1,0,0,1-.66-.23,1.08,1.08,0,0,1-.19-1.51c23.11-29.66,48.73-74.23,39.51-118.09-5.49-26.12-21-39.74-21.11-39.87a1.09,1.09,0,0,1-.1-1.52,1.06,1.06,0,0,1,1.51-.11c.66.57,16.16,14.24,21.8,41.06,5.18,24.65,2.47,65.46-39.91,119.85A1.08,1.08,0,0,1,1591.13,739Z" transform="translate(-115.48 -28.79)" style="fill:#f0f0f0"/><path d="M1406.14,986.08a1.07,1.07,0,0,1-.89-.46c-35.52-51.84-47.63-91.89-36-119,10.34-24.14,36.45-28.64,36.71-28.68a1.07,1.07,0,1,1,.35,2.12c-.25,0-25.23,4.37-35.09,27.43-11.3,26.43.74,65.78,35.8,116.95a1.07,1.07,0,0,1-.88,1.68Z" transform="translate(-115.48 -28.79)" style="fill:#f0f0f0"/><path d="M505.49,495.34V957.26c0,34,29.86,61.55,66.69,61.55h775.64c36.83,0,66.69-27.56,66.69-61.55V495.34Z" transform="translate(-115.48 -28.79)" style="fill:url(#g)"/><path d="M1187.73,357.8,990.57,238.51a58,58,0,0,0-61.14,0L732.27,357.77,504.55,495.52,732.27,632.93,960,770.34l227.73-137.56,227.72-137.26Z" transform="translate(-115.48 -28.79)" style="fill:url(#h)"/><g style="mix-blend-mode:soft-light"><path d="M523.3,998.85a1.6,1.6,0,0,1-1.19-2.66l284-319.55a1.59,1.59,0,1,1,2.38,2.12l-284,319.55A1.56,1.56,0,0,1,523.3,998.85Z" transform="translate(-115.48 -28.79)" style="fill:#fff"/><path d="M1396.7,998.85a1.56,1.56,0,0,1-1.19-.54l-284-319.55a1.59,1.59,0,1,1,2.38-2.12l284,319.55a1.6,1.6,0,0,1-1.19,2.66Z" transform="translate(-115.48 -28.79)" style="fill:#fff"/></g><g style="clip-path:url(#i)"><path d="M1242.76,271.81H606.48c-11.23,0-20.52,9.74-20.52,21V809.13H1334V364.54Z" transform="translate(-115.48 -28.79)" style="fill:#fff"/><path d="M1333.68,364.54l-83.49.72a7.43,7.43,0,0,1-5.52-2.4c-1.57-1.57-1.73-3.69-1.73-5.9V272.45Z" transform="translate(-115.48 -28.79)" style="fill:url(#j)"/><path d="M1125,545.33q0,29.11-9.3,53.28t-26.29,37.91A60.81,60.81,0,0,1,1050,650.27a49.13,49.13,0,0,1-26.49-7.17,41.22,41.22,0,0,1-16.58-18.91h-3.24q-21.83,26.09-55.6,26.08-35.79,0-56.42-21.53T871.06,569.8q0-42.67,27.09-68.76T968.92,475a244.24,244.24,0,0,1,38.32,3.34q20.94,3.33,34.48,8l-4.65,98.88q0,28.11,15.37,28.11,12.93,0,20.62-18.91t7.69-49.44q0-32.55-13.55-57.52a91.91,91.91,0,0,0-38.12-38.12q-24.57-13.14-56.11-13.14-40.85,0-71,16.78t-46.2,48.43q-16.08,31.64-16.08,73.1,0,55.8,29.83,85.63T956,689.91a261.28,261.28,0,0,0,47.12-4.75,312.09,312.09,0,0,0,50.55-13.86v38.83q-43.28,18.4-96.05,18.4-76.85,0-119.81-40.44t-43-112.43q0-49.95,21.94-90.69a159.32,159.32,0,0,1,62.48-63.9q40.54-23.15,93.32-23.15,44.49,0,79.47,18.2t54,51.76Q1125,501.45,1125,545.33ZM918,570.6q0,42.67,34.78,42.67,18.19,0,27.7-12.84T992,558.67L994.61,514a110.31,110.31,0,0,0-23.26-2.23q-25.27,0-39.33,15.77T918,570.6Z" transform="translate(-115.48 -28.79)" style="fill:url(#k)"/></g><path d="M1432.59,364.08c-.91-78.43,62.17-143,140.6-143.89a141.37,141.37,0,0,1,80.77,24l8.09-8.2a4.17,4.17,0,0,1,7,1.82l14.15,51.41a4.16,4.16,0,0,1-5.07,5.13l-51.6-13.45a4.18,4.18,0,0,1-1.91-7l9.11-9.24a114,114,0,0,0-172.92,98.92c.73,62.81,52.48,113.33,115.37,112.6a114.41,114.41,0,0,0,112.73-113.1c0-2.16,1.71-4.6,4.1-4.63l19.88-.23a4.15,4.15,0,0,1,2.83,1.56l.16.17a5.44,5.44,0,0,1,1.24,3.49,142.43,142.43,0,0,1-140.61,141.2C1498.05,505.59,1433.5,442.52,1432.59,364.08Zm247.65-73.74a1.27,1.27,0,0,0,0-.28l-14.15-51.41a1.08,1.08,0,0,0-1.81-.48l-9.9,10-1.06-.72a138.33,138.33,0,0,0-80.06-24.21c-76.74.89-138.45,64-137.56,140.78s64,138.44,140.78,137.56A139.36,139.36,0,0,0,1714,363.47h0a2.5,2.5,0,0,0-.35-1.31l-.17-.17a5.08,5.08,0,0,0-.7-.64l-19.77.23c-.42,0-1.06.84-1.06,1.59a117.5,117.5,0,0,1-115.78,116.14c-64.58.75-117.74-51.13-118.48-115.65S1508.9,246,1573.48,245.24A116.71,116.71,0,0,1,1637,263.1l1.62,1-11.82,12a1.1,1.1,0,0,0,.5,1.82l51.6,13.45a1.08,1.08,0,0,0,1-.28A1,1,0,0,0,1680.24,290.34Z" transform="translate(-115.48 -28.79)" style="fill:#fff"/><path d="M1531.38,390.42h-41V381.8l14.72-14.88q6.54-6.69,8.54-9.28a20.54,20.54,0,0,0,2.89-4.8,12.14,12.14,0,0,0,.88-4.57,6.68,6.68,0,0,0-1.94-5.25,7.56,7.56,0,0,0-5.2-1.73,14.83,14.83,0,0,0-6.61,1.57,33.6,33.6,0,0,0-6.7,4.45l-6.74-8a44.33,44.33,0,0,1,7.18-5.22,26.68,26.68,0,0,1,6.22-2.34,31.71,31.71,0,0,1,7.54-.83,22.24,22.24,0,0,1,9.7,2,15.53,15.53,0,0,1,6.54,5.61,15,15,0,0,1,2.33,8.27,20.22,20.22,0,0,1-1.43,7.6,29.43,29.43,0,0,1-4.41,7.28,108.16,108.16,0,0,1-10.53,10.63l-7.54,7.1V380h25.55Z" transform="translate(-115.48 -28.79)" style="fill:#fff"/><path d="M1579.59,378.27h-7.06v12.15h-12.11V378.27h-25v-8.62l25.71-37.86h11.43v36.86h7.06Zm-19.17-9.62V358.7c0-1.66.07-4.06.2-7.22s.24-5,.32-5.5h-.32a44.17,44.17,0,0,1-3.57,6.42l-10.75,16.25Z" transform="translate(-115.48 -28.79)" style="fill:#fff"/><path d="M1614.4,331.79l-21.85,58.63h-11.11l21.85-58.63Z" transform="translate(-115.48 -28.79)" style="fill:#fff"/><path d="M1623.91,390.42l22-48.12H1617V331.87h42.07v7.78l-22.17,50.77Z" transform="translate(-115.48 -28.79)" style="fill:#fff"/><path d="M1597.3,529.46l.4,4.76v0a.84.84,0,0,0,.89.76.83.83,0,0,0,.75-.89h0l-.44-4.8a.8.8,0,0,0-1.6.13Z" transform="translate(-115.48 -28.79)" style="fill:url(#l)"/><path d="M1598.12,545.36l0,4.78v0a.91.91,0,0,0,1.81,0h0l0-4.82a.89.89,0,0,0-1.77,0Z" transform="translate(-115.48 -28.79)" style="fill:url(#m)"/><path d="M1597.56,561.27l-.43,4.76v0a1,1,0,1,0,2,.18h0l.39-4.81a1,1,0,0,0-1.93-.16Z" transform="translate(-115.48 -28.79)" style="fill:url(#n)"/><path d="M1595.67,577.08l-.82,4.7v0a1.07,1.07,0,1,0,2.11.36h0l.78-4.76a1,1,0,0,0-2.06-.35Z" transform="translate(-115.48 -28.79)" style="fill:url(#o)"/><path d="M1592.51,592.67l-1.19,4.62v0a1.15,1.15,0,1,0,2.23.57h0l1.15-4.68a1.13,1.13,0,1,0-2.19-.55Z" transform="translate(-115.48 -28.79)" style="fill:url(#p)"/><path d="M1588.12,608l-1.54,4.52v0a1.24,1.24,0,1,0,2.34.8h0l1.52-4.58a1.21,1.21,0,0,0-2.3-.78Z" transform="translate(-115.48 -28.79)" style="fill:url(#q)"/><path d="M1582.57,622.87l-1.88,4.39v0a1.32,1.32,0,1,0,2.42,1h0l1.87-4.46a1.3,1.3,0,0,0-2.39-1Z" transform="translate(-115.48 -28.79)" style="fill:url(#r)"/><path d="M1575.91,637.31l-2.2,4.23,0,0a1.4,1.4,0,0,0,2.49,1.3v0l2.19-4.3a1.38,1.38,0,0,0-2.44-1.27Z" transform="translate(-115.48 -28.79)" style="fill:url(#s)"/><path d="M1568.2,651.21l-2.51,4,0,0a1.48,1.48,0,1,0,2.52,1.56h0l2.5-4.13a1.46,1.46,0,0,0-2.48-1.53Z" transform="translate(-115.48 -28.79)" style="fill:url(#t)"/><path d="M1559.48,664.49l-2.81,3.86,0,0a1.56,1.56,0,0,0,2.53,1.84v0l2.81-3.93a1.54,1.54,0,0,0-2.5-1.8Z" transform="translate(-115.48 -28.79)" style="fill:url(#u)"/><path d="M1549.8,677.09l-3.09,3.63,0,0a1.65,1.65,0,1,0,2.51,2.14v0l3.09-3.72a1.62,1.62,0,0,0-2.48-2.08Z" transform="translate(-115.48 -28.79)" style="fill:url(#v)"/><path d="M1539.2,688.9l-3.36,3.39,0,0a1.73,1.73,0,1,0,2.45,2.43h0l3.37-3.48a1.7,1.7,0,0,0-2.43-2.38Z" transform="translate(-115.48 -28.79)" style="fill:url(#w)"/><path d="M1527.73,699.88l-3.6,3.11,0,0a1.82,1.82,0,0,0,2.37,2.75l0,0,3.63-3.2a1.79,1.79,0,0,0-2.35-2.69Z" transform="translate(-115.48 -28.79)" style="fill:url(#x)"/><path d="M1515.45,709.9l-3.83,2.81,0,0a1.89,1.89,0,1,0,2.24,3h0l3.88-2.9a1.87,1.87,0,0,0-2.23-3Z" transform="translate(-115.48 -28.79)" style="fill:url(#y)"/><path d="M1502.42,718.91l-4.05,2.49,0,0a2,2,0,1,0,2.05,3.32h0l4.11-2.57a1.94,1.94,0,0,0-2-3.3Z" transform="translate(-115.48 -28.79)" style="fill:url(#z)"/><path d="M1488.7,726.82l-4.24,2.14,0,0a2,2,0,0,0,1.8,3.57h0l4.31-2.21a2,2,0,0,0-1.8-3.54Z" transform="translate(-115.48 -28.79)" style="fill:url(#aa)"/><path d="M1474.37,733.51l-4.41,1.77,0,0a2,2,0,0,0,1.51,3.8h0l4.49-1.83a2,2,0,0,0-1.52-3.77Z" transform="translate(-115.48 -28.79)" style="fill:url(#ab)"/><path d="M1459.51,739l-4.54,1.4h0a2.09,2.09,0,1,0,1.24,4h0l4.62-1.46a2.08,2.08,0,0,0-1.23-4Z" transform="translate(-115.48 -28.79)" style="fill:url(#ac)"/><path d="M1444.26,743.22l-4.64,1h0a2.14,2.14,0,0,0,.94,4.17h0l4.72-1.1a2.12,2.12,0,0,0-.94-4.14Z" transform="translate(-115.48 -28.79)" style="fill:url(#ad)"/><path d="M1428.72,746.3l-4.7.69h0a2.18,2.18,0,1,0,.64,4.32h0l4.79-.74a2.17,2.17,0,0,0-.65-4.29Z" transform="translate(-115.48 -28.79)" style="fill:url(#ae)"/><path d="M1413,748.22l-4.74.36h0a2.23,2.23,0,0,0,.34,4.44h0l4.83-.39a2.22,2.22,0,0,0-.34-4.42Z" transform="translate(-115.48 -28.79)" style="fill:url(#af)"/><path d="M1397.17,749l-4.75,0h-.05a2.28,2.28,0,1,0,0,4.55h0l4.85-.06a2.27,2.27,0,0,0,0-4.53Z" transform="translate(-115.48 -28.79)" style="fill:url(#ag)"/><path d="M1381.32,748.81l-4.75-.27h0a2.32,2.32,0,1,0-.26,4.64h0l4.84.25a2.31,2.31,0,0,0,.25-4.61Z" transform="translate(-115.48 -28.79)" style="fill:url(#ah)"/><path d="M1365.51,747.57l-4.72-.55h0a2.37,2.37,0,0,0-.56,4.71h0l4.81.54a2.36,2.36,0,0,0,.54-4.68Z" transform="translate(-115.48 -28.79)" style="fill:url(#ai)"/><path d="M1349.8,745.4l-4.69-.83h0a2.42,2.42,0,1,0-.84,4.76h0l4.77.81a2.4,2.4,0,0,0,.82-4.73Z" transform="translate(-115.48 -28.79)" style="fill:url(#aj)"/><path d="M1334.23,742.33l-4.63-1.08h0a2.46,2.46,0,1,0-1.12,4.79h0l4.72,1.07a2.45,2.45,0,0,0,1.1-4.77Z" transform="translate(-115.48 -28.79)" style="fill:url(#ak)"/><path d="M1318.85,738.43l-4.58-1.32,0,0a2.51,2.51,0,0,0-1.39,4.82h0l4.66,1.32a2.5,2.5,0,0,0,1.38-4.8Z" transform="translate(-115.48 -28.79)" style="fill:url(#al)"/><path d="M1303.68,733.74l-4.5-1.56h0a2.56,2.56,0,1,0-1.67,4.83h0l4.58,1.56a2.54,2.54,0,0,0,1.65-4.81Z" transform="translate(-115.48 -28.79)" style="fill:url(#am)"/><path d="M1288.76,728.3l-4.42-1.78h0a2.6,2.6,0,0,0-1.94,4.83h0l4.5,1.78a2.59,2.59,0,0,0,1.91-4.81Z" transform="translate(-115.48 -28.79)" style="fill:url(#an)"/><path d="M1274.13,722.14l-4.33-2,0,0a2.64,2.64,0,0,0-2.2,4.81h0l4.41,2a2.63,2.63,0,0,0,2.17-4.79Z" transform="translate(-115.48 -28.79)" style="fill:url(#ao)"/><path d="M1259.8,715.3l-4.24-2.19,0,0a2.69,2.69,0,1,0-2.47,4.79h0l4.32,2.19a2.68,2.68,0,0,0,2.45-4.77Z" transform="translate(-115.48 -28.79)" style="fill:url(#ap)"/><path d="M1245.79,707.8l-4.13-2.36h0a2.71,2.71,0,0,0-2.69,4.71h0l4.19,2.38a2.71,2.71,0,0,0,2.68-4.7Z" transform="translate(-115.48 -28.79)" style="fill:url(#aq)"/><path d="M1232.1,699.74l-4-2.53h0a2.72,2.72,0,1,0-2.89,4.62h0l4.1,2.55a2.72,2.72,0,0,0,2.87-4.63Z" transform="translate(-115.48 -28.79)" style="fill:url(#ar)"/><path d="M1218.72,691.15l-4-2.67,0,0a2.74,2.74,0,0,0-3.07,4.55h0l4,2.7a2.74,2.74,0,0,0,3.06-4.55Z" transform="translate(-115.48 -28.79)" style="fill:url(#as)"/><path d="M1205.64,682.09l-3.86-2.8,0,0a2.76,2.76,0,1,0-3.24,4.46h0l3.92,2.82a2.75,2.75,0,1,0,3.22-4.46Z" transform="translate(-115.48 -28.79)" style="fill:url(#at)"/><path d="M1192.86,672.6l-3.77-2.92,0,0a2.78,2.78,0,0,0-3.4,4.39h0l3.82,3a2.77,2.77,0,0,0,3.38-4.39Z" transform="translate(-115.48 -28.79)" style="fill:url(#au)"/><path d="M1180.37,662.73l-3.69-3,0,0a2.79,2.79,0,0,0-3.54,4.31h0l3.73,3a2.78,2.78,0,1,0,3.52-4.31Z" transform="translate(-115.48 -28.79)" style="fill:url(#av)"/><path d="M1168.15,652.51l-3.62-3.12,0,0a2.8,2.8,0,0,0-3.66,4.25h0l3.66,3.14a2.8,2.8,0,0,0,3.65-4.24Z" transform="translate(-115.48 -28.79)" style="fill:url(#aw)"/><path d="M1156.17,642l-3.54-3.2,0,0a2.82,2.82,0,1,0-3.78,4.18h0l3.58,3.22a2.81,2.81,0,1,0,3.76-4.18Z" transform="translate(-115.48 -28.79)" style="fill:url(#ax)"/><path d="M1144.43,631.21l-3.48-3.28h0a2.83,2.83,0,0,0-3.88,4.13h0l3.51,3.29a2.83,2.83,0,1,0,3.87-4.12Z" transform="translate(-115.48 -28.79)" style="fill:url(#ay)"/><path d="M1132.89,620.21l-3.43-3.35h0a2.85,2.85,0,1,0-4,4.08h0l3.45,3.35a2.84,2.84,0,1,0,4-4.08Z" transform="translate(-115.48 -28.79)" style="fill:url(#az)"/><path d="M1121.52,609l-3.38-3.4h0a2.86,2.86,0,1,0-4.06,4h0l3.41,3.4a2.86,2.86,0,1,0,4-4Z" transform="translate(-115.48 -28.79)" style="fill:url(#ba)"/><path d="M1110.3,597.63l-3.34-3.45h0a2.88,2.88,0,0,0-4.14,4h0l3.36,3.45a2.87,2.87,0,0,0,4.12-4Z" transform="translate(-115.48 -28.79)" style="fill:url(#bb)"/><path d="M1099.21,586.12l-3.3-3.48a2.9,2.9,0,0,0-4.21,4h0l3.33,3.49a2.89,2.89,0,1,0,4.17-4Z" transform="translate(-115.48 -28.79)" style="fill:url(#bc)"/><path d="M1088.22,574.51l-3.28-3.5a2.91,2.91,0,0,0-4.25,4h0l3.3,3.5a2.9,2.9,0,1,0,4.23-4Z" transform="translate(-115.48 -28.79)" style="fill:url(#bd)"/><path d="M1077.3,562.82l-3.27-3.51a2.92,2.92,0,0,0-4.29,4h0l3.28,3.51a2.92,2.92,0,1,0,4.27-4Z" transform="translate(-115.48 -28.79)" style="fill:url(#be)"/><path d="M1066.42,551.09l-3.27-3.53a2.94,2.94,0,1,0-4.31,4h0l3.27,3.52a2.94,2.94,0,0,0,4.31-4Z" transform="translate(-115.48 -28.79)" style="fill:url(#bf)"/><path d="M1055.54,539.34l-3.27-3.52a3,3,0,1,0-4.33,4h0l3.27,3.52a3,3,0,1,0,4.32-4Z" transform="translate(-115.48 -28.79)" style="fill:url(#bg)"/><path d="M1044.64,527.61l-3.28-3.51a3,3,0,1,0-4.34,4h0l3.28,3.5a3,3,0,0,0,4.33-4Z" transform="translate(-115.48 -28.79)" style="fill:url(#bh)"/><path d="M1033.69,515.92l-3.31-3.49a3,3,0,0,0-4.34,4.1h0l3.3,3.48a3,3,0,1,0,4.34-4.1Z" transform="translate(-115.48 -28.79)" style="fill:url(#bi)"/><path d="M1022.64,504.3l-3.33-3.46A3,3,0,1,0,1015,505h0l3.33,3.44h0a3,3,0,1,0,4.31-4.16Z" transform="translate(-115.48 -28.79)" style="fill:url(#bj)"/><path d="M1011.49,492.78l-3.38-3.43a3,3,0,0,0-4.3,4.23h0l3.37,3.41h0a3,3,0,1,0,4.29-4.23Z" transform="translate(-115.48 -28.79)" style="fill:url(#bk)"/><path d="M1000.19,481.4,996.76,478a3,3,0,0,0-4.26,4.31h0l3.41,3.36h0a3,3,0,0,0,4.26-4.3Z" transform="translate(-115.48 -28.79)" style="fill:url(#bl)"/><path d="M988.71,470.17l-3.48-3.33a3,3,0,0,0-4.21,4.4h0l3.46,3.31h0a3,3,0,0,0,4.2-4.4Z" transform="translate(-115.48 -28.79)" style="fill:url(#bm)"/><path d="M977,459.15l-3.55-3.27a3,3,0,1,0-4.11,4.48h0l3.52,3.24v0a3,3,0,1,0,4.12-4.48Z" transform="translate(-115.48 -28.79)" style="fill:url(#bn)"/><path d="M965.11,448.36l-3.62-3.18a3,3,0,0,0-4,4.55h0l3.59,3.16h0a3,3,0,0,0,4-4.54Z" transform="translate(-115.48 -28.79)" style="fill:url(#bo)"/><path d="M953,437.85l-3.7-3.09a3,3,0,1,0-3.87,4.62v0l3.66,3.06,0,0a3,3,0,0,0,3.88-4.63Z" transform="translate(-115.48 -28.79)" style="fill:url(#bp)"/><path d="M940.52,427.65l-3.78-3a3,3,0,0,0-3.73,4.71l0,0,3.74,3,0,0a3,3,0,0,0,3.73-4.71Z" transform="translate(-115.48 -28.79)" style="fill:url(#bq)"/><path d="M927.8,417.8l-3.87-2.87a3,3,0,0,0-3.57,4.8h0l3.82,2.85,0,0a3,3,0,1,0,3.58-4.8Z" transform="translate(-115.48 -28.79)" style="fill:url(#br)"/><path d="M914.78,408.35l-4-2.76a3,3,0,0,0-3.39,4.9h0l3.91,2.73h0a3,3,0,1,0,3.41-4.89Z" transform="translate(-115.48 -28.79)" style="fill:url(#bs)"/><path d="M901.44,399.32l-4.06-2.61a3,3,0,1,0-3.22,5h0l4,2.59,0,0a3,3,0,0,0,3.23-5Z" transform="translate(-115.48 -28.79)" style="fill:url(#bt)"/><path d="M887.78,390.78l-4.16-2.46a3,3,0,0,0-3,5.08l0,0,4.1,2.43,0,0a3,3,0,0,0,3-5.09Z" transform="translate(-115.48 -28.79)" style="fill:url(#bu)"/><path d="M873.81,382.75l-4.25-2.31a2.95,2.95,0,0,0-2.81,5.18h0l4.19,2.28,0,0a2.95,2.95,0,0,0,2.82-5.18Z" transform="translate(-115.48 -28.79)" style="fill:url(#bv)"/><path d="M859.56,375.24l-4.33-2.15a2.93,2.93,0,0,0-2.61,5.25l0,0,4.27,2.12,0,0a2.94,2.94,0,0,0,2.62-5.26Z" transform="translate(-115.48 -28.79)" style="fill:url(#bw)"/><path d="M845.05,368.25l-4.41-2a2.92,2.92,0,0,0-2.41,5.32h0l4.34,2h0a2.92,2.92,0,1,0,2.42-5.32Z" transform="translate(-115.48 -28.79)" style="fill:url(#bx)"/><path d="M830.29,361.79,825.82,360a2.91,2.91,0,0,0-2.21,5.38h0l4.41,1.82h0a2.91,2.91,0,1,0,2.22-5.38Z" transform="translate(-115.48 -28.79)" style="fill:url(#by)"/><path d="M815.32,355.87l-4.53-1.68a2.9,2.9,0,1,0-2,5.44h0l4.48,1.66h0a2.9,2.9,0,1,0,2-5.44Z" transform="translate(-115.48 -28.79)" style="fill:url(#bz)"/><path d="M800.14,350.47,795.55,349a2.88,2.88,0,1,0-1.8,5.48h0l4.53,1.5h0a2.89,2.89,0,0,0,1.82-5.49Z" transform="translate(-115.48 -28.79)" style="fill:url(#ca)"/><path d="M784.78,345.62l-4.64-1.35a2.87,2.87,0,1,0-1.6,5.52h0l4.58,1.34h0a2.88,2.88,0,1,0,1.62-5.52Z" transform="translate(-115.48 -28.79)" style="fill:url(#cb)"/><path d="M769.26,341.31l-4.68-1.19a2.86,2.86,0,0,0-1.41,5.55h0l4.62,1.18h0a2.86,2.86,0,1,0,1.42-5.55Z" transform="translate(-115.48 -28.79)" style="fill:url(#cc)"/><path d="M753.6,337.55l-4.72-1a2.85,2.85,0,0,0-1.21,5.58h0l4.66,1h0a2.86,2.86,0,0,0,1.22-5.58Z" transform="translate(-115.48 -28.79)" style="fill:url(#cd)"/><path d="M737.82,334.34l-4.76-.86a2.84,2.84,0,1,0-1,5.59h0l4.7.85h0a2.84,2.84,0,1,0,1-5.59Z" transform="translate(-115.48 -28.79)" style="fill:url(#ce)"/><path d="M721.93,331.68l-4.78-.68a2.83,2.83,0,0,0-.81,5.6h0l4.72.68h0a2.83,2.83,0,0,0,.81-5.61Z" transform="translate(-115.48 -28.79)" style="fill:url(#cf)"/><path d="M706,329.59l-4.8-.52a2.82,2.82,0,1,0-.61,5.6h0l4.74.51h0a2.82,2.82,0,0,0,.61-5.61Z" transform="translate(-115.48 -28.79)" style="fill:url(#cg)"/><path d="M689.93,328.07l-4.82-.35a2.8,2.8,0,1,0-.4,5.59h0l4.76.35h0a2.81,2.81,0,1,0,.41-5.6Z" transform="translate(-115.48 -28.79)" style="fill:url(#ch)"/><path d="M673.85,327.11l-4.83-.18a2.79,2.79,0,1,0-.2,5.58h0l4.76.18h0a2.8,2.8,0,0,0,.22-5.59Z" transform="translate(-115.48 -28.79)" style="fill:url(#ci)"/><path d="M657.75,326.73h-4.83a2.79,2.79,0,0,0,0,5.57h4.83a2.78,2.78,0,1,0,0-5.56Z" transform="translate(-115.48 -28.79)" style="fill:url(#cj)"/><path d="M641.65,326.92l-4.83.17a2.77,2.77,0,0,0,.2,5.54h0l4.77-.17h0a2.77,2.77,0,0,0-.19-5.54Z" transform="translate(-115.48 -28.79)" style="fill:url(#ck)"/><path d="M625.57,327.7l-4.82.35a2.76,2.76,0,0,0,.4,5.5h0l4.76-.34h0a2.76,2.76,0,0,0-.39-5.51Z" transform="translate(-115.48 -28.79)" style="fill:url(#cl)"/><path d="M609.52,329.06l-4.8.53a2.75,2.75,0,0,0,.6,5.46h0l4.75-.52h0a2.75,2.75,0,0,0-.59-5.47Z" transform="translate(-115.48 -28.79)" style="fill:url(#cm)"/><path d="M593.54,331l-4.78.7a2.73,2.73,0,1,0,.8,5.41h0l4.72-.69h0a2.74,2.74,0,1,0-.79-5.42Z" transform="translate(-115.48 -28.79)" style="fill:url(#cn)"/><path d="M577.63,333.59l-4.75.89a2.73,2.73,0,0,0,1,5.36h0l4.69-.88h0a2.73,2.73,0,1,0-1-5.36Z" transform="translate(-115.48 -28.79)" style="fill:url(#co)"/><path d="M561.84,336.82l-4.71,1.1a2.71,2.71,0,0,0,1.24,5.28h0l4.64-1.09h0a2.72,2.72,0,0,0-1.24-5.29Z" transform="translate(-115.48 -28.79)" style="fill:url(#cp)"/><path d="M546.2,340.76l-4.65,1.32a2.7,2.7,0,1,0,1.47,5.19h0l4.58-1.29h0a2.71,2.71,0,0,0-1.48-5.21Z" transform="translate(-115.48 -28.79)" style="fill:url(#cq)"/><path d="M530.76,345.45,526.18,347a2.67,2.67,0,0,0,1.72,5.05h0l4.51-1.52h0a2.68,2.68,0,1,0-1.71-5.08Z" transform="translate(-115.48 -28.79)" style="fill:url(#cr)"/><path d="M515.58,351l-4.49,1.81a2.63,2.63,0,0,0,2,4.88h0l4.42-1.76,0,0a2.64,2.64,0,1,0-2-4.91Z" transform="translate(-115.48 -28.79)" style="fill:url(#cs)"/><path d="M500.73,357.31l-4.38,2.08a2.59,2.59,0,1,0,2.22,4.69l0,0,4.3-2,0,0a2.61,2.61,0,1,0-2.21-4.73Z" transform="translate(-115.48 -28.79)" style="fill:url(#ct)"/><path d="M486.28,364.56,482,366.92a2.56,2.56,0,0,0,2.49,4.48l0,0,4.17-2.29,0,0a2.57,2.57,0,0,0-2.48-4.5Z" transform="translate(-115.48 -28.79)" style="fill:url(#cu)"/><path d="M472.34,372.77l-4.07,2.65a2.53,2.53,0,1,0,2.76,4.23l0,0,4-2.58.05,0a2.54,2.54,0,0,0-2.75-4.26Z" transform="translate(-115.48 -28.79)" style="fill:url(#cv)"/><path d="M459,382l-3.86,3a2.49,2.49,0,1,0,3,3.95l0,0L462,386l0,0a2.5,2.5,0,0,0-3-4Z" transform="translate(-115.48 -28.79)" style="fill:url(#cw)"/><path d="M446.43,392.18l-3.6,3.26a2.45,2.45,0,0,0,3.29,3.64l0,0,3.53-3.17.05,0a2.47,2.47,0,0,0-3.3-3.67Z" transform="translate(-115.48 -28.79)" style="fill:url(#cx)"/><path d="M434.75,403.41,431.44,407a2.42,2.42,0,1,0,3.54,3.29l0,0,3.24-3.45,0,0a2.43,2.43,0,1,0-3.54-3.32Z" transform="translate(-115.48 -28.79)" style="fill:url(#cy)"/><path d="M424.09,415.64l-3,3.87a2.39,2.39,0,0,0,3.79,2.9l0-.05,2.9-3.73,0-.06a2.39,2.39,0,1,0-3.78-2.94Z" transform="translate(-115.48 -28.79)" style="fill:url(#cz)"/><path d="M414.66,428.87,412.11,433a2.35,2.35,0,1,0,4,2.47l0-.05,2.5-4,0-.06a2.36,2.36,0,1,0-4-2.49Z" transform="translate(-115.48 -28.79)" style="fill:url(#da)"/><path d="M406.62,443l-2.14,4.37a2.31,2.31,0,1,0,4.15,2l0-.05,2.1-4.24,0-.06a2.33,2.33,0,0,0-4.17-2.07Z" transform="translate(-115.48 -28.79)" style="fill:url(#db)"/><path d="M400,457.75l-1.72,4.55a2.28,2.28,0,0,0,4.26,1.62l0-.05,1.69-4.43,0-.06a2.29,2.29,0,0,0-4.28-1.64Z" transform="translate(-115.48 -28.79)" style="fill:url(#dc)"/><path d="M394.72,473.09l-1.3,4.67a2.24,2.24,0,1,0,4.32,1.21l0-.05,1.28-4.56,0-.06a2.25,2.25,0,1,0-4.34-1.22Z" transform="translate(-115.48 -28.79)" style="fill:url(#dd)"/><path d="M390.87,488.81l-.88,4.78a2.21,2.21,0,1,0,4.34.81v0l.88-4.66v-.06a2.22,2.22,0,0,0-4.36-.83Z" transform="translate(-115.48 -28.79)" style="fill:url(#de)"/><path d="M388.4,504.81l-.47,4.84a2.17,2.17,0,1,0,4.32.42v0l.48-4.73v-.05a2.19,2.19,0,1,0-4.35-.44Z" transform="translate(-115.48 -28.79)" style="fill:url(#df)"/><path d="M387.3,521l-.06,4.86a2.14,2.14,0,1,0,4.27,0v0l.09-4.75V521a2.15,2.15,0,1,0-4.3-.08Z" transform="translate(-115.48 -28.79)" style="fill:url(#dg)"/><path d="M387.56,537.14l.35,4.84a2.1,2.1,0,1,0,4.19-.3v0l-.32-4.74v0a2.11,2.11,0,0,0-4.22.28Z" transform="translate(-115.48 -28.79)" style="fill:url(#dh)"/><path d="M389.18,553.23l.75,4.8a2.06,2.06,0,1,0,4.08-.64v0l-.71-4.7v0a2.08,2.08,0,0,0-4.11.62Z" transform="translate(-115.48 -28.79)" style="fill:url(#di)"/><path d="M392.15,569.13l1.15,4.72a2,2,0,1,0,3.95-1v0l-1.11-4.62v-.05a2,2,0,0,0-4,1Z" transform="translate(-115.48 -28.79)" style="fill:url(#dj)"/><path d="M396.47,584.72l1.56,4.6a2,2,0,0,0,2.54,1.25,2,2,0,0,0,1.24-2.53v0l-1.51-4.5,0,0a2,2,0,1,0-3.8,1.27Z" transform="translate(-115.48 -28.79)" style="fill:url(#dk)"/><path d="M402.15,599.87l2,4.43a2,2,0,0,0,3.59-1.59l0-.05-1.91-4.34,0-.05a2,2,0,1,0-3.61,1.59Z" transform="translate(-115.48 -28.79)" style="fill:url(#dl)"/><path d="M409.2,614.43l2.37,4.23a1.93,1.93,0,1,0,3.36-1.88l0,0-2.31-4.15,0-.05a1.94,1.94,0,0,0-3.39,1.88Z" transform="translate(-115.48 -28.79)" style="fill:url(#dm)"/><path d="M417.61,628.26l2.78,4a1.86,1.86,0,0,0,3.06-2.13l0,0-2.69-3.91,0,0a1.88,1.88,0,0,0-3.1,2.13Z" transform="translate(-115.48 -28.79)" style="fill:url(#dn)"/><path d="M427.34,641.18l3.17,3.68a1.8,1.8,0,0,0,2.74-2.34l0,0-3.06-3.62,0,0a1.82,1.82,0,0,0-2.78,2.35Z" transform="translate(-115.48 -28.79)" style="fill:url(#do)"/><path d="M438.34,653.05l3.53,3.34a1.74,1.74,0,0,0,2.4-2.52l0,0-3.43-3.29,0,0a1.76,1.76,0,0,0-2.43,2.54Z" transform="translate(-115.48 -28.79)" style="fill:url(#dp)"/><path d="M450.49,663.74l3.84,3a1.68,1.68,0,0,0,2.06-2.65l0,0-3.74-2.93,0,0a1.7,1.7,0,1,0-2.09,2.67Z" transform="translate(-115.48 -28.79)" style="fill:url(#dq)"/><path d="M463.62,673.16l4.11,2.57a1.61,1.61,0,0,0,1.72-2.72l0,0-4-2.56,0,0a1.63,1.63,0,0,0-1.75,2.75Z" transform="translate(-115.48 -28.79)" style="fill:url(#dr)"/><path d="M477.58,681.28l4.32,2.18a1.55,1.55,0,0,0,1.41-2.76l0,0L479,678.5h0a1.56,1.56,0,0,0-2.11.67,1.58,1.58,0,0,0,.68,2.12Z" transform="translate(-115.48 -28.79)" style="fill:url(#ds)"/><path d="M492.21,688.09l4.5,1.78a1.49,1.49,0,0,0,1.1-2.76l0,0-4.41-1.78,0,0a1.51,1.51,0,0,0-1.13,2.79Z" transform="translate(-115.48 -28.79)" style="fill:url(#dt)"/><path d="M507.37,693.56,512,695a1.43,1.43,0,0,0,.83-2.73h0l-4.55-1.4h0a1.44,1.44,0,0,0-.85,2.76Z" transform="translate(-115.48 -28.79)" style="fill:url(#du)"/><path d="M523,697.71l4.73,1a1.36,1.36,0,0,0,.57-2.66h0l-4.66-1h0a1.38,1.38,0,0,0-.59,2.7Z" transform="translate(-115.48 -28.79)" style="fill:url(#dv)"/><path d="M538.82,700.53l4.8.58a1.29,1.29,0,1,0,.32-2.57h0l-4.73-.61h0a1.32,1.32,0,0,0-.34,2.62Z" transform="translate(-115.48 -28.79)" style="fill:url(#dw)"/><path d="M554.86,702l4.83.18A1.23,1.23,0,0,0,561,701a1.24,1.24,0,0,0-1.18-1.28h0L555,699.5h0a1.25,1.25,0,1,0-.12,2.5Z" transform="translate(-115.48 -28.79)" style="fill:url(#dx)"/><path d="M571,702.13l4.82-.23a1.17,1.17,0,1,0-.1-2.34h0l-4.77.19h0a1.18,1.18,0,0,0-1.14,1.23,1.2,1.2,0,0,0,1.24,1.15Z" transform="translate(-115.48 -28.79)" style="fill:url(#dy)"/><path d="M587,700.89l4.79-.65a1.11,1.11,0,0,0,1-1.24,1.12,1.12,0,0,0-1.24-1h0l-4.74.59h0a1.13,1.13,0,0,0,.28,2.24Z" transform="translate(-115.48 -28.79)" style="fill:url(#dz)"/><path d="M602.91,698.26l4.71-1.07a1,1,0,0,0,.8-1.25,1.06,1.06,0,0,0-1.25-.79h0l-4.66,1h0a1.07,1.07,0,0,0,.45,2.09Z" transform="translate(-115.48 -28.79)" style="fill:url(#ea)"/><path d="M618.49,694.22l4.59-1.48a1,1,0,0,0-.6-1.88h0l-4.54,1.43h0a1,1,0,0,0,.61,1.91Z" transform="translate(-115.48 -28.79)" style="fill:url(#eb)"/><path d="M633.62,688.77l4.44-1.92a.92.92,0,1,0-.73-1.69h0l-4.4,1.86h0a.94.94,0,1,0,.74,1.73Z" transform="translate(-115.48 -28.79)" style="fill:url(#ec)"/><path d="M648.17,681.89l4.22-2.34a.86.86,0,0,0-.83-1.51h0l-4.2,2.29h0a.88.88,0,0,0,.84,1.54Z" transform="translate(-115.48 -28.79)" style="fill:url(#ed)"/><path d="M662,673.6l3.11-2.15a.8.8,0,0,0-.91-1.32h0l-3.1,2.1h0a.82.82,0,0,0-.22,1.13.81.81,0,0,0,1.13.22Z" transform="translate(-115.48 -28.79)" style="fill:url(#ee)"/><path d="M435.77,407.73a4.91,4.91,0,0,1-4.63-3.26l-6.85-19.36a99.8,99.8,0,0,1-26.88-10.89L379,383.37a4.9,4.9,0,0,1-5.63-.9l-19-18.7a4.91,4.91,0,0,1-1-5.61l8.85-18.54a100,100,0,0,1-11.33-26.7l-19.47-6.53a4.91,4.91,0,0,1-3.34-4.61l-.22-26.67a4.9,4.9,0,0,1,3.27-4.67l19.36-6.85a99.78,99.78,0,0,1,10.88-26.88l-9.15-18.4a4.9,4.9,0,0,1,.9-5.62l18.7-19a4.89,4.89,0,0,1,5.61-1L396,201.54a99.56,99.56,0,0,1,26.69-11.33l6.54-19.47a4.9,4.9,0,0,1,4.61-3.34l26.67-.22h0a4.91,4.91,0,0,1,4.63,3.27L472,189.81a99.84,99.84,0,0,1,26.87,10.88l18.4-9.15a5,5,0,0,1,5.63.89l19,18.71a4.91,4.91,0,0,1,1,5.61l-8.85,18.55A99.54,99.54,0,0,1,545.4,262l19.47,6.54a4.91,4.91,0,0,1,3.35,4.61l.22,26.67a4.92,4.92,0,0,1-3.27,4.66l-19.36,6.85a99.67,99.67,0,0,1-10.89,26.88l9.15,18.4a4.93,4.93,0,0,1-.89,5.63l-18.7,19a4.91,4.91,0,0,1-5.62,1l-18.54-8.84a99.92,99.92,0,0,1-26.7,11.32l-6.53,19.47a4.93,4.93,0,0,1-4.61,3.35l-26.67.21ZM397.7,367.2l1.45.88a93.72,93.72,0,0,0,28.16,11.41l1.66.37,7.68,21.71,24.88-.21,7.33-21.82,1.65-.41a93.59,93.59,0,0,0,28-11.86l1.44-.91,20.79,9.92,17.45-17.74L527.9,337.91l.88-1.45a93.62,93.62,0,0,0,11.41-28.16l.37-1.65L562.27,299l-.21-24.88-21.83-7.33-.4-1.65a93.39,93.39,0,0,0-11.86-28l-.91-1.44L537,214.9l-17.74-17.45-20.62,10.27-1.46-.89A93.64,93.64,0,0,0,469,195.43l-1.66-.38-7.69-21.7-24.88.2-7.32,21.83-1.66.4a93.91,93.91,0,0,0-28,11.86l-1.44.91-20.79-9.92-17.45,17.74L368.42,237l-.89,1.45a93.59,93.59,0,0,0-11.4,28.16l-.38,1.66L334.05,276l.2,24.88,21.83,7.33.4,1.65a93.62,93.62,0,0,0,11.87,28l.9,1.44L359.33,360l17.74,17.45Zm27.38-174.41h0Zm22.7,162.53a67.43,67.43,0,0,1-.54-134.86,68.5,68.5,0,0,1,14.29,1.4,3.08,3.08,0,0,1-1.25,6,60,60,0,0,0-13-1.27A61.23,61.23,0,1,0,500.12,256a3.08,3.08,0,0,1,5.26-3.21,67.44,67.44,0,0,1-57,102.53Z" transform="translate(-115.48 -28.79)" style="fill:#fff"/><path d="M448.11,314.23a26.77,26.77,0,0,1-6.72-52.67h0a26.76,26.76,0,1,1,6.72,52.67ZM443,267.53a20.59,20.59,0,1,0,25.14,14.72A20.49,20.49,0,0,0,443,267.53Z" transform="translate(-115.48 -28.79)" style="fill:#fff"/><path d="M331.77,507.88a3.21,3.21,0,0,1-2.57-1.29l-5.59-7.6a48.74,48.74,0,0,1-13.24-1.19l-6.87,6.47a3.18,3.18,0,0,1-3.67.51l-11.36-5.95a3.2,3.2,0,0,1-1.67-3.3l1.41-9.34a48.68,48.68,0,0,1-8.52-10.2l-9.43-.28a3.2,3.2,0,0,1-2.95-2.23l-3.82-12.24a3.17,3.17,0,0,1,1.15-3.52l7.59-5.6a48.39,48.39,0,0,1,1.2-13.24L267,432a3.18,3.18,0,0,1-.51-3.66l6-11.37a3.18,3.18,0,0,1,3.3-1.67l9.33,1.41a48.94,48.94,0,0,1,10.2-8.52l.28-9.42a3.2,3.2,0,0,1,2.23-3L310,392a3.19,3.19,0,0,1,3.52,1.15l5.59,7.59a49.15,49.15,0,0,1,13.24,1.2l6.87-6.48a3.2,3.2,0,0,1,3.66-.51l11.37,6a3.18,3.18,0,0,1,1.67,3.3l-1.41,9.33a48.94,48.94,0,0,1,8.52,10.2l9.43.28a3.18,3.18,0,0,1,2.95,2.24l3.83,12.24a3.2,3.2,0,0,1-1.16,3.52l-7.59,5.59a48.36,48.36,0,0,1-1.2,13.24l6.48,6.87a3.2,3.2,0,0,1,.51,3.67l-5.95,11.36a3.18,3.18,0,0,1-3.3,1.67L357.68,483a48.68,48.68,0,0,1-10.2,8.52L347.2,501a3.18,3.18,0,0,1-2.23,3l-12.25,3.83A3.08,3.08,0,0,1,331.77,507.88Zm-.42-4.55h0Zm-5.52-9.12,6.49,8.81,10.29-3.21.32-10.94,1.1-.65A44.15,44.15,0,0,0,355,479l.83-1,10.83,1.64,5-9.55-7.51-8,.32-1.23a44.41,44.41,0,0,0,1.29-14.29l-.1-1.27,8.81-6.49-3.22-10.29-10.93-.32-.65-1.1a44.14,44.14,0,0,0-9.2-11l-1-.84,1.64-10.82-9.55-5-8,7.52-1.23-.32a43.86,43.86,0,0,0-14.29-1.29l-1.27.09-6.49-8.81-10.29,3.22-.32,10.93-1.1.65a44.37,44.37,0,0,0-11,9.2l-.83,1L276,420l-5,9.56,7.51,8-.31,1.24a44.07,44.07,0,0,0-1.29,14.28l.09,1.27-8.81,6.49,3.22,10.3,10.93.31.65,1.1a44.19,44.19,0,0,0,9.2,11l1,.83-1.64,10.83,9.56,5,8-7.51,1.23.32a44.44,44.44,0,0,0,14.29,1.29ZM302,500.68Zm-11.37-5.95h0Zm81.79-23.84ZM371,427.63h0Zm-96-7.75ZM352.09,405h0Zm-52-6.09Zm-2.31-.07h0Zm13.55-2.43h0Zm9.9,87a33.26,33.26,0,0,1-9.94-65,33.86,33.86,0,0,1,6.94-1.38,2.31,2.31,0,0,1,.42,4.6,28.61,28.61,0,1,0,21.64,7.16,2.31,2.31,0,0,1,3.07-3.45,33.27,33.27,0,0,1-22.13,58.08Z" transform="translate(-115.48 -28.79)" style="fill:#fff"/><path d="M536.23,528.06v63.69c0,5.19-3.17,9.4-7.07,9.4h-232c-3.24,0-6.06,2.93-6.85,7.12l-4.17,22.17c-.55,2.94-3.62,3.19-4.43.35l-5.36-18.73c-1.05-3.65-3.67-6-6.61-6h-10c-3.9,0-7.06-4.21-7.06-9.4V531.14c0-5.16,3.12-9.35,7-9.4l269.41-3.07C533,518.62,536.23,522.84,536.23,528.06Z" transform="translate(-115.48 -28.79)" style="fill:#fff"/><ellipse cx="173.12" cy="531.52" rx="28.46" ry="29.21" style="fill:url(#ef)"/><path d="M295.59,550.55c0,4-3.28,8.4-7.32,8.4s-7.32-4.36-7.32-8.4,3.28-6.91,7.32-6.91S295.59,546.51,295.59,550.55Z" transform="translate(-115.48 -28.79)" style="fill:#fff"/><path d="M279.19,574.51h17.86a4.33,4.33,0,0,0,4.12-3l1-3a4.32,4.32,0,0,0-2.61-5.37c-7.27-2.66-14.78-2.32-22.48.24a4.3,4.3,0,0,0-2.76,5.22l.74,2.73A4.32,4.32,0,0,0,279.19,574.51Z" transform="translate(-115.48 -28.79)" style="fill:#fff"/><path d="M513.6,565.61a5.64,5.64,0,0,1-5.76,5.52H338.5a5.64,5.64,0,0,1-5.76-5.52h0a5.65,5.65,0,0,1,5.76-5.52H507.84a5.65,5.65,0,0,1,5.76,5.52Z" transform="translate(-115.48 -28.79)" style="fill:#a8a29e"/><path d="M513.6,585.69a5.64,5.64,0,0,1-5.76,5.52H338.5a5.64,5.64,0,0,1-5.76-5.52h0a5.64,5.64,0,0,1,5.76-5.52H507.84a5.64,5.64,0,0,1,5.76,5.52Z" transform="translate(-115.48 -28.79)" style="fill:#a8a29e"/><rect x="217.27" y="504.74" width="99.59" height="14.67" rx="7.05" style="fill:#57534e"/><path d="M916.72,164.5c-7.3-10.44-18.19-14.73-28.85-11.61-11.63,3.41-18.2,16.42-29,21.63-18.87,9.08-45-8.86-59.31,14.55-17.54,28.63-31.09,7.16-31.09,26.59s121.15,5.11,180.93,6.13c8.63.15,46.13-.59,30-21.59-5-6.52-12.17-7.61-18.83-9.14-8.7-2-29.36-3.08-35.66-11-3.39-4.27-4.69-10.39-7.75-15Z" transform="translate(-115.48 -28.79)" style="fill:#fff;opacity:0.58"/><path d="M1135.6,124c-4.39-6.27-10.93-8.85-17.33-7-7,2-10.94,9.87-17.44,13-11.34,5.45-27-5.33-35.63,8.74-10.54,17.2-18.68,4.3-18.68,16s72.79,3.07,108.7,3.69c5.19.09,27.71-.36,18-13-3-3.92-7.3-4.58-11.31-5.49-5.22-1.2-17.64-1.86-21.42-6.62-2-2.56-2.82-6.24-4.66-9Z" transform="translate(-115.48 -28.79)" style="fill:#fff;opacity:0.58"/><path d="M658.93,702.14c-.06,56-.48,249.11-3.83,317.48-.36,7.24-5.45,12.95-11.65,13.05-30.67.49-143.05,1-193.11-2.59-10.42-.75-18.51-10.82-18.45-23,.26-58.77,1.62-224,8.75-299.59.86-9.05,7.1-16.14,14.86-16.88,33.46-3.16,146.47-10.21,189.69-6C653,685.37,658.94,693,658.93,702.14Z" transform="translate(-115.48 -28.79)" style="fill:url(#eg)"/><path d="M644.88,719c.65,45.21,2.52,195.59-.36,251.12-.42,8.12-6,14.56-13,14.89-28.6,1.32-126.11,3.47-167.9-1.38-7.53-.87-13.29-8.14-13.5-17-1.1-46.12-4.1-186.18-1.3-241.09.45-8.76,6.41-15.79,13.89-16.41,31-2.56,134.65-8,170.19-4.93C639.59,704.8,644.76,711.19,644.88,719Z" transform="translate(-115.48 -28.79)" style="fill:url(#eh)"/><g style="opacity:0.30000000000000004"><path d="M633.66,732.17c.58,40,2.24,173.2-.32,222.38-.37,7.19-5.34,12.89-11.49,13.18-25.33,1.17-111.68,3.08-148.69-1.22-6.66-.77-11.76-7.21-12-15-1-40.85-3.63-164.88-1.15-213.5.4-7.76,5.68-14,12.3-14.53,27.42-2.27,119.24-7.07,150.71-4.36C629,719.58,633.56,725.24,633.66,732.17Z" transform="translate(-115.48 -28.79)" style="fill:#fff"/></g><path d="M583.37,693h0a3,3,0,0,1-2.68,3.17c-7.24.28-27.66,1.08-36.78,1.5-1.8.08-3.17-1.84-2.78-3.9l.07-.35a3,3,0,0,1,2.51-2.55c6.17-.52,24.79-1.94,37.09-1.15A3,3,0,0,1,583.37,693Z" transform="translate(-115.48 -28.79)" style="fill:#fff;opacity:0.5"/><circle cx="546.88" cy="845.08" r="71.84" transform="translate(-552.86 605.43) rotate(-45)" style="fill:url(#ei)"/><path d="M591.07,863.85a12.8,12.8,0,0,0-7.6-8.42l-5.17-2a9.92,9.92,0,0,0-11.59,3.28l-4.6,6.15c-7.22.2-15.56-2.49-23-8-6.95-5.2-11.74-11.9-13.81-18.48a.23.23,0,0,1,.08-.26.24.24,0,0,1,.27,0l4.15-5.54a11.33,11.33,0,0,0-.21-13.84l-3.43-4.31a13,13,0,0,0-20.51.3,16.77,16.77,0,0,0-2.73,5.56c-3.8,13.47,7,33.82,27,48.79s42.56,19.63,54.4,12.2A16.79,16.79,0,0,0,589,875,12.79,12.79,0,0,0,591.07,863.85Z" transform="translate(-115.48 -28.79)" style="fill:#fff"/><path d="M461.38,1020.13a22.1,22.1,0,0,1-22.1-21.93V960.72a.77.77,0,1,1,1.54,0V998.2a20.53,20.53,0,0,0,20.53,20.34.8.8,0,0,1,.81.79A.79.79,0,0,1,461.38,1020.13Z" transform="translate(-115.48 -28.79)" style="fill:#fff"/><path d="M340.69,1026.3s-1.48,8.42-2.21,16.75a5.73,5.73,0,0,0,5.49,6.21c11.09.46,34.81,1.36,43.32,1a1.87,1.87,0,0,0,1.64-2.56h0a4.19,4.19,0,0,0-2.13-2.25l-39.19-18Z" transform="translate(-115.48 -28.79)" style="fill:url(#ej)"/><path d="M339.48,1021.36l1.19,10.06s6.86,3.2,11.55-.4l-2.84-11.21Z" transform="translate(-115.48 -28.79)" style="fill:url(#ek)"/><path d="M340.37,832.18c-.51,2.63-2.76,131.14,11,188.72a2,2,0,0,1-1.14,2.28,34.21,34.21,0,0,1-11.19,2.27,3.37,3.37,0,0,1-3.34-2.42c-3.93-13.36-22.74-80.3-25.2-144.25-2.74-71.46,0-2.43,0-2.43l1.61-44.17Z" transform="translate(-115.48 -28.79)" style="fill:url(#el)"/><path d="M295.62,1030.69s-2.37,4.25-4.66,15.54a3.51,3.51,0,0,0,3.08,4.19c3.67.36,9.3.82,13.82.79a3.48,3.48,0,0,0,3.45-3.89c-.5-4.12-2.05-10.88-6.87-16.15Z" transform="translate(-115.48 -28.79)" style="fill:url(#em)"/><path d="M293.54,1017.75l2.79,15.22s2.76,2,8.22.56l-1.33-16.37Z" transform="translate(-115.48 -28.79)" style="fill:url(#en)"/><path d="M286,836.13c-11.24,67.8,2.43,167.57,7,187.1a3.06,3.06,0,0,0,2.46,2.31,20.48,20.48,0,0,0,8.79-.35,2.79,2.79,0,0,0,2-2.57c.61-15.79-.5-112.71,10-151a8.65,8.65,0,0,1,3.36-4.8L340,852.36,341.51,829Z" transform="translate(-115.48 -28.79)" style="fill:url(#eo)"/><path d="M357.59,707.66c-33.67-.56-70.81,8.84-70.81,8.84-10,58.56-1.76,126.1-1.76,126.1,26.07,6.83,55.47-4.18,55.47-4.18,4.33-24.48,24.54-93.36,24.54-93.36,16.45-2,30-6.79,41.16-13.06-8.51-9.87-12.52-22.42-14.27-29.84C380,705.85,368,707.83,357.59,707.66Z" transform="translate(-115.48 -28.79)" style="fill:url(#ep)"/><path d="M457,658.07a6.47,6.47,0,0,0-7.5-2.11c-5,20.93-30.93,37.9-57.62,46.2,1.75,7.42,5.76,20,14.27,29.84C450.48,707.1,457,658.07,457,658.07Z" transform="translate(-115.48 -28.79)" style="fill:url(#eq)"/><path d="M456.24,659.09c.34,1.1-3.67,2.77-6-1.73-.08-2.15-1.39-11.39-.1-13.15,6.86-9.36,20.17-21.09,20.17-21.09a3.16,3.16,0,0,1,.39,4.4l-6.45,6.73c1.35,2.44,3,4.5,3.77,7.45a9.09,9.09,0,0,1-.9,6.65c-1.14,2-2.68,4.7-4.14,6.78A8.94,8.94,0,0,1,456.24,659.09Z" transform="translate(-115.48 -28.79)" style="fill:url(#er)"/><path d="M461.4,638.61l-5.89,5-1.84,5,5.24,5.82s1.76-9.85,3.08-12S462.62,639.23,461.4,638.61Z" transform="translate(-115.48 -28.79)" style="fill:url(#es)"/><path d="M299.69,749.1l-12.91-32.6S255.33,737.87,250.16,765a71.4,71.4,0,0,1,26.48,7.42C281.42,761.64,299.69,749.1,299.69,749.1Z" transform="translate(-115.48 -28.79)" style="fill:url(#et)"/><path d="M323.49,680.33l-10.71,31a1.1,1.1,0,0,0,.51,1.34c2.92,1.62,13.44,6.28,26.11-1.76a5.21,5.21,0,0,0,2.42-3.75l3.47-26.81Z" transform="translate(-115.48 -28.79)" style="fill:url(#eu)"/><path d="M250.38,765.22s-21.5,49,31,56.12l7.17-6s-26.27-14.33-11.95-43C276.64,772.38,261.12,759.25,250.38,765.22Z" transform="translate(-115.48 -28.79)" style="fill:url(#ev)"/><path d="M343,647.9c.26.48,5.43,35.92,5.43,35.92l-20.17,2.42-9.87-32.89S338.74,639.88,343,647.9Z" transform="translate(-115.48 -28.79)" style="fill:url(#ew)"/><path d="M325.8,656.73a3,3,0,0,0-.61,2.51L329,676.7a3,3,0,0,0,.28.75c.71,1.32,3.29,5.33,7.3,2.46,3.41-2.44,6.58-4.64,9.32-5a2.93,2.93,0,0,1,3.32,2.52,108.81,108.81,0,0,1,1.19,16.13,2.89,2.89,0,0,1-2.74,2.84c-4,.22-11.81.4-18.26-.87a3,3,0,0,1-2.24-2c-1.42-4.56-5.47-17.31-7.17-20.74-1.57-3.19-6.24-3.8-8.41-3.91a3,3,0,0,1-2.11-1.06c-1.59-1.9-4.07-6.11.83-10.1a3,3,0,0,0,.42-4.07c-1.74-2.24-3.23-5.84.58-9.52s8.16-2.7,10.89-1.37a3,3,0,0,0,3.58-.64,1.92,1.92,0,0,1,1.81-.64A2.81,2.81,0,0,0,330.8,639c.36-2.74,1.86-5.94,6.7-6.78,8.87-1.55,13.17,7.44,12.93,13.69s-10,7.39-15.45,6.24C330.94,651.31,327.4,654.81,325.8,656.73Z" transform="translate(-115.48 -28.79)" style="fill:url(#ex)"/><path d="M322.16,678.28s-.76-10-5.14-11.16-9.17,2-5.5,8.6C316.09,683.94,322.16,678.28,322.16,678.28Z" transform="translate(-115.48 -28.79)" style="fill:url(#ey)"/><path d="M288.11,791l18.5,6.23c2.24.68,3.78,2.94,4,5.81l-1,30.87c.3,4.83-3.69,9.09-7.45,8l-14.83-5.05a3.8,3.8,0,0,1-2.42-3.82l-.33-38.44C284.56,792.33,286.4,790.48,288.11,791Z" transform="translate(-115.48 -28.79)" style="fill:url(#ez)"/><path d="M283.32,827.59c-.5-.55-3.95-6.88-3.06-15.34s-.76-12.29,3.18-12,7.21,1,6.77,5.16S291,836.08,283.32,827.59Z" transform="translate(-115.48 -28.79)" style="fill:url(#fa)"/></g></svg>