<svg xmlns="http://www.w3.org/2000/svg" xmlns:xlink="http://www.w3.org/1999/xlink" viewBox="0 0 1795.46 1071"><defs><clipPath id="a" transform="translate(-62.27 -9)"><path d="M1384.56,884.74c42.74-40,98.26-50.22,124-22.81S1643.74,1065,1601,1105s-221.46-70.77-247.21-98.18S1341.82,924.75,1384.56,884.74Z" style="fill:none"/></clipPath></defs><title>error-404</title><path d="M281.46,364.25c-.25-.45.35-.9.78-.58,3.18,2.33,10.7,5.74,27.51,5.82,18.93.09,27.27-2.19,30.34-3.38a.48.48,0,0,1,.63.68c-2.44,3.46-10.37,12.32-28.64,14.43C294.24,383.28,284.77,370.13,281.46,364.25Z" transform="translate(-62.27 -9)" style="fill:#1e0502"/><ellipse cx="1490.65" cy="146.56" rx="91.6" ry="77.75" transform="translate(1222.39 1621.17) rotate(-87.71)" style="fill:#d6d3d1"/><path d="M1544.74,149.11c-2.21,46.06-32.93,82.68-70.82,87.15a67.13,67.13,0,0,0,12.34,1.8c42.88,2.19,79.61-37,82-87.53S1537.93,57.26,1495,55.07a66.45,66.45,0,0,0-11.22.37C1520.47,64.33,1546.92,103.55,1544.74,149.11Z" transform="translate(-62.27 -9)" style="fill:#a8a29e"/><ellipse cx="933.48" cy="1000.94" rx="91.58" ry="44.43" transform="translate(-155.39 86.76) rotate(-5.59)" style="fill:#d6d3d1"/><path d="M934.22,1031.94c-45.93,3.62-84.21-10-90.94-31a23.42,23.42,0,0,0-1,7.2c.41,24.6,41.59,41.32,92,37.36s90.91-27.12,90.5-51.72a22.21,22.21,0,0,0-1.05-6.34C1017.06,1009.19,979.65,1028.36,934.22,1031.94Z" transform="translate(-62.27 -9)" style="fill:#a8a29e"/><ellipse cx="243.7" cy="855.59" rx="60.51" ry="71.29" transform="translate(-554.82 347.23) rotate(-39.95)" style="fill:#d6d3d1"/><path d="M211.59,882.89c23.27,27.32,59.6,35.28,85.07,20a52.12,52.12,0,0,1-6.74,7c-25.38,21.75-66.64,15.07-92.17-14.9s-25.64-71.91-.26-93.65a51.06,51.06,0,0,1,7.09-5.11C186.22,819.12,188.58,855.86,211.59,882.89Z" transform="translate(-62.27 -9)" style="fill:#a8a29e"/><ellipse cx="170.24" cy="547.17" rx="46.49" ry="31.78" transform="translate(-441.64 700.34) rotate(-89.16)" style="fill:#d6d3d1"/><path d="M148.12,546.41c-.5,23.39,10.9,43.1,26.2,46.8a22,22,0,0,1-5.08.44c-17.54-.52-31.32-21.75-30.76-47.42s15.22-46.06,32.77-45.54a21.67,21.67,0,0,1,4.56.61C160.6,504.41,148.62,523.26,148.12,546.41Z" transform="translate(-62.27 -9)" style="fill:#a8a29e"/><path d="M1661,755.62c-13.31,25.12-6.79,54.58,14.57,65.81s49.45,0,62.75-25.14,6.79-54.58-14.56-65.81S1674.31,730.51,1661,755.62Z" transform="translate(-62.27 -9)" style="fill:#d6d3d1"/><path d="M1726.53,790.22c12.13-22.89,7.78-49.39-9.25-62.41a38.14,38.14,0,0,1,6.48,2.67c21.35,11.23,27.87,40.69,14.56,65.81s-41.4,36.37-62.75,25.14a36.76,36.76,0,0,1-5.32-3.4C1690.51,824.24,1714.53,812.87,1726.53,790.22Z" transform="translate(-62.27 -9)" style="fill:#a8a29e"/><ellipse cx="488.29" cy="125.58" rx="71.29" ry="60.51" transform="matrix(0.33, -0.94, 0.94, 0.33, 145.9, 535.79)" style="fill:#d6d3d1"/><path d="M443.94,109.63c-11.61,34,.11,69.26,26.25,83.35a51.84,51.84,0,0,1-9.45-2.23c-31.65-10.71-47-49.59-34.26-86.85s48.72-58.77,80.37-48.06a50.89,50.89,0,0,1,8,3.49C485.8,55.24,455.42,76,443.94,109.63Z" transform="translate(-62.27 -9)" style="fill:#a8a29e"/><path d="M1314.23,122.33l10.41,6.19a2,2,0,0,1-.19,3.52l-11,5.52a2.08,2.08,0,0,0-.84.77l-6.45,10.53a2,2,0,0,1-3.51-.11l-5.29-10.9a1.91,1.91,0,0,0-.75-.82l-10.4-6.19a2,2,0,0,1,.19-3.52l11-5.52a2,2,0,0,0,.84-.77l6.45-10.53a2,2,0,0,1,3.52.11l5.28,10.89A2,2,0,0,0,1314.23,122.33Z" transform="translate(-62.27 -9)" style="fill:#d6d3d1"/><path d="M307.12,1018l10.4,6.19a2,2,0,0,1-.19,3.52l-11,5.52a2.08,2.08,0,0,0-.84.77L299,1044.57a2,2,0,0,1-3.52-.11l-5.28-10.89a1.89,1.89,0,0,0-.76-.82l-10.4-6.2a2,2,0,0,1,.19-3.51l11-5.53a2.05,2.05,0,0,0,.83-.77l6.45-10.53a2,2,0,0,1,3.52.11l5.28,10.9A2,2,0,0,0,307.12,1018Z" transform="translate(-62.27 -9)" style="fill:#d6d3d1"/><path d="M1225.75,1010.69l10.4,6.2a2,2,0,0,1-.19,3.51l-11,5.53a2,2,0,0,0-.84.77l-6.45,10.53a2,2,0,0,1-3.52-.11l-5.28-10.9a2,2,0,0,0-.76-.82l-10.4-6.19a2,2,0,0,1,.19-3.52l11.05-5.52a2.12,2.12,0,0,0,.83-.77l6.45-10.53a2,2,0,0,1,3.52.11l5.28,10.89A1.89,1.89,0,0,0,1225.75,1010.69Z" transform="translate(-62.27 -9)" style="fill:#d6d3d1"/><path d="M1679.08,1001.76l10.41,6.2a2,2,0,0,1-.19,3.51l-11,5.53a2.14,2.14,0,0,0-.84.77L1671,1028.3a2,2,0,0,1-3.51-.11l-5.28-10.9a1.94,1.94,0,0,0-.76-.82l-10.4-6.2a2,2,0,0,1,.19-3.51l11-5.53a2,2,0,0,0,.84-.77l6.45-10.53a2,2,0,0,1,3.52.11l5.28,10.9A2,2,0,0,0,1679.08,1001.76Z" transform="translate(-62.27 -9)" style="fill:#d6d3d1"/><path d="M568.46,242.24l10.41,6.19a2,2,0,0,1-.19,3.52l-11,5.52a2.08,2.08,0,0,0-.84.77l-6.45,10.53a2,2,0,0,1-3.52-.11l-5.28-10.9a1.91,1.91,0,0,0-.75-.82l-10.41-6.19a2,2,0,0,1,.2-3.52l11-5.52a2,2,0,0,0,.84-.77l6.45-10.53a2,2,0,0,1,3.52.11l5.28,10.9A2,2,0,0,0,568.46,242.24Z" transform="translate(-62.27 -9)" style="fill:#d6d3d1"/><path d="M634.91,33.23l10.41,6.2a2,2,0,0,1-.19,3.51l-11,5.53a2.08,2.08,0,0,0-.84.77l-6.45,10.53a2,2,0,0,1-3.52-.11L618,48.76a1.91,1.91,0,0,0-.75-.82l-10.41-6.19a2,2,0,0,1,.2-3.52l11-5.52a2.08,2.08,0,0,0,.84-.77l6.45-10.53a2,2,0,0,1,3.52.11l5.28,10.89A1.86,1.86,0,0,0,634.91,33.23Z" transform="translate(-62.27 -9)" style="fill:#d6d3d1"/><path d="M297.86,124.3l5.28,3.14a1,1,0,0,1-.1,1.78l-5.6,2.81a1,1,0,0,0-.43.39l-3.27,5.34a1,1,0,0,1-1.79,0l-2.68-5.53a1,1,0,0,0-.38-.42l-5.28-3.14a1,1,0,0,1,.1-1.79l5.6-2.8a1.08,1.08,0,0,0,.43-.39L293,118.3a1,1,0,0,1,1.78,0l2.68,5.53A1.05,1.05,0,0,0,297.86,124.3Z" transform="translate(-62.27 -9)" style="fill:#d6d3d1"/><path d="M886.47,93.81,891.75,97a1,1,0,0,1-.1,1.79l-5.6,2.8a1,1,0,0,0-.43.39l-3.27,5.35a1,1,0,0,1-1.79-.06l-2.68-5.53a1,1,0,0,0-.38-.42l-5.28-3.14a1,1,0,0,1,.1-1.78l5.6-2.81a1,1,0,0,0,.43-.39l3.27-5.34a1,1,0,0,1,1.79.06l2.68,5.52A.91.91,0,0,0,886.47,93.81Z" transform="translate(-62.27 -9)" style="fill:#d6d3d1"/><path d="M1376.11,59l5.28,3.14a1,1,0,0,1-.09,1.79l-5.61,2.8a1.05,1.05,0,0,0-.42.39L1372,72.48a1,1,0,0,1-1.78,0l-2.68-5.53a1,1,0,0,0-.38-.42l-5.28-3.14a1,1,0,0,1,.1-1.78l5.6-2.81a1.15,1.15,0,0,0,.43-.39l3.27-5.34a1,1,0,0,1,1.78,0l2.68,5.53A1,1,0,0,0,1376.11,59Z" transform="translate(-62.27 -9)" style="fill:#d6d3d1"/><path d="M1714.26,76.22l5.28,3.15a1,1,0,0,1-.1,1.78l-5.6,2.8a1.08,1.08,0,0,0-.43.39l-3.27,5.35a1,1,0,0,1-1.79-.06l-2.68-5.53a.89.89,0,0,0-.38-.41L1700,80.54a1,1,0,0,1,.1-1.78l5.6-2.81a1,1,0,0,0,.43-.39l3.27-5.34a1,1,0,0,1,1.79.06l2.68,5.53A.94.94,0,0,0,1714.26,76.22Z" transform="translate(-62.27 -9)" style="fill:#d6d3d1"/><path d="M1109.84,1063.64l6.2,3.62a1.19,1.19,0,0,1-.1,2.08l-6.51,3.33a1.31,1.31,0,0,0-.5.46l-3.76,6.28a1.2,1.2,0,0,1-2.09-.05l-3.18-6.43a1.12,1.12,0,0,0-.46-.48l-6.19-3.62a1.19,1.19,0,0,1,.09-2.08l6.52-3.33a1.35,1.35,0,0,0,.49-.46l3.77-6.27a1.18,1.18,0,0,1,2.08,0l3.19,6.43A1.16,1.16,0,0,0,1109.84,1063.64Z" transform="translate(-62.27 -9)" style="fill:#d6d3d1"/><path d="M1757.09,615l6.2,3.62a1.19,1.19,0,0,1-.1,2.08l-6.51,3.33a1.17,1.17,0,0,0-.5.46l-3.76,6.27a1.19,1.19,0,0,1-2.09-.05l-3.18-6.42a1.14,1.14,0,0,0-.46-.49l-6.19-3.61a1.2,1.2,0,0,1,.09-2.09l6.52-3.33a1.2,1.2,0,0,0,.49-.46l3.77-6.27a1.19,1.19,0,0,1,2.08,0l3.19,6.43A1.16,1.16,0,0,0,1757.09,615Z" transform="translate(-62.27 -9)" style="fill:#d6d3d1"/><path d="M159.67,670.05l5,3a1,1,0,0,1-.09,1.68l-5.29,2.65a.9.9,0,0,0-.4.37l-3.09,5a1,1,0,0,1-1.69,0l-2.53-5.22a.9.9,0,0,0-.36-.39l-5-3a1,1,0,0,1,.09-1.69l5.29-2.64a1,1,0,0,0,.4-.37l3.09-5a1,1,0,0,1,1.69.05l2.53,5.22A.9.9,0,0,0,159.67,670.05Z" transform="translate(-62.27 -9)" style="fill:#d6d3d1"/><path d="M686,1038.12l5,3a1,1,0,0,1-.09,1.69l-5.3,2.64a1,1,0,0,0-.4.37l-3.09,5a1,1,0,0,1-1.68,0l-2.53-5.22a1,1,0,0,0-.36-.39l-5-3a1,1,0,0,1,.09-1.68l5.29-2.65a1,1,0,0,0,.41-.37l3.09-5a1,1,0,0,1,1.68,0l2.53,5.22A1,1,0,0,0,686,1038.12Z" transform="translate(-62.27 -9)" style="fill:#d6d3d1"/><path d="M1634.93,917l5,3a1,1,0,0,1-.09,1.68l-5.29,2.65a.9.9,0,0,0-.4.37l-3.09,5a1,1,0,0,1-1.69,0l-2.53-5.22a.9.9,0,0,0-.36-.39l-5-3a1,1,0,0,1,.09-1.68l5.29-2.65a.9.9,0,0,0,.4-.37l3.09-5a1,1,0,0,1,1.69,0l2.53,5.22A.9.9,0,0,0,1634.93,917Z" transform="translate(-62.27 -9)" style="fill:#d6d3d1"/><path d="M1529.64,1034.6l5,3a1,1,0,0,1-.09,1.68l-5.29,2.65a.9.9,0,0,0-.4.37l-3.09,5a1,1,0,0,1-1.69,0l-2.53-5.22a.9.9,0,0,0-.36-.39l-5-3a1,1,0,0,1,.09-1.69l5.29-2.64a.9.9,0,0,0,.4-.37l3.09-5a1,1,0,0,1,1.69,0l2.53,5.22A.9.9,0,0,0,1529.64,1034.6Z" transform="translate(-62.27 -9)" style="fill:#d6d3d1"/><path d="M1636.09,277.37l5.4,3.22a1,1,0,0,1-.1,1.82l-5.73,2.87a1.06,1.06,0,0,0-.44.4l-3.35,5.46a1,1,0,0,1-1.82-.05l-2.74-5.66a1.08,1.08,0,0,0-.39-.43l-5.4-3.21a1,1,0,0,1,.1-1.82l5.73-2.87a1,1,0,0,0,.43-.4l3.35-5.47a1,1,0,0,1,1.82.06l2.75,5.66A1,1,0,0,0,1636.09,277.37Z" transform="translate(-62.27 -9)" style="fill:#d6d3d1"/><path d="M1463.36,371.54l2.57,1.59a.49.49,0,0,1,0,.86l-2.64,1.26a.44.44,0,0,0-.19.19l-1.49,2.52a.49.49,0,0,1-.85-.06l-1.37-2.7a.55.55,0,0,0-.19-.21l-2.57-1.59a.49.49,0,0,1,0-.86l2.63-1.26a.39.39,0,0,0,.2-.18l1.49-2.52a.48.48,0,0,1,.85.05l1.37,2.7A.48.48,0,0,0,1463.36,371.54Z" transform="translate(-62.27 -9)" style="fill:#f59e0b"/><path d="M1465.38,745.69l2.57,1.59a.49.49,0,0,1,0,.86l-2.63,1.26a.39.39,0,0,0-.2.18l-1.49,2.52a.48.48,0,0,1-.85-.05l-1.37-2.7a.48.48,0,0,0-.19-.21l-2.57-1.59a.49.49,0,0,1,0-.86l2.64-1.26a.41.41,0,0,0,.19-.18l1.49-2.52a.48.48,0,0,1,.85,0l1.37,2.7A.48.48,0,0,0,1465.38,745.69Z" transform="translate(-62.27 -9)" style="fill:#f59e0b"/><path d="M1568.17,574.24l5,3a1,1,0,0,1-.1,1.68l-5.28,2.65a.9.9,0,0,0-.4.37l-3.09,5a1,1,0,0,1-1.68-.06l-2.53-5.21a.91.91,0,0,0-.36-.39l-5-3a1,1,0,0,1,.09-1.68l5.29-2.65a1.06,1.06,0,0,0,.4-.36l3.08-5a1,1,0,0,1,1.69,0l2.53,5.21A.87.87,0,0,0,1568.17,574.24Z" transform="translate(-62.27 -9)" style="fill:#f59e0b"/><path d="M1435.74,399.54l5,3.1a1,1,0,0,1,0,1.67l-5.14,2.46a.94.94,0,0,0-.39.35l-2.88,4.91a1,1,0,0,1-1.67-.11l-2.66-5.25a1,1,0,0,0-.37-.41l-5-3.1a.94.94,0,0,1,0-1.66l5.14-2.46a.88.88,0,0,0,.38-.36l2.89-4.9a1,1,0,0,1,1.66.1l2.66,5.26A1,1,0,0,0,1435.74,399.54Z" transform="translate(-62.27 -9)" style="fill:#f59e0b"/><path d="M259.84,545.14l3.79,2.41a.73.73,0,0,1-.05,1.27l-3.93,1.81a.66.66,0,0,0-.3.27l-2.25,3.7a.72.72,0,0,1-1.27-.09l-2-4a.68.68,0,0,0-.27-.31l-3.79-2.41a.73.73,0,0,1,0-1.27l3.93-1.82a.7.7,0,0,0,.3-.26l2.25-3.71a.73.73,0,0,1,1.27.1l2,4A.8.8,0,0,0,259.84,545.14Z" transform="translate(-62.27 -9)" style="fill:#f59e0b"/><path d="M341.83,630.79l3.65,2.09a.69.69,0,0,1,0,1.2L341.89,636a.62.62,0,0,0-.27.26l-1.94,3.58a.69.69,0,0,1-1.2,0l-2-3.69a.8.8,0,0,0-.27-.28l-3.66-2.09a.68.68,0,0,1,0-1.19l3.61-1.88a.7.7,0,0,0,.27-.27l1.94-3.57a.68.68,0,0,1,1.19,0l2,3.69A.75.75,0,0,0,341.83,630.79Z" transform="translate(-62.27 -9)" style="fill:#f59e0b"/><path d="M451.47,347l3.66,2.09a.69.69,0,0,1,0,1.2l-3.61,1.88a.68.68,0,0,0-.27.26L449.32,356a.68.68,0,0,1-1.19,0l-2-3.69a.83.83,0,0,0-.28-.28l-3.65-2.09a.68.68,0,0,1,0-1.19l3.61-1.88a.59.59,0,0,0,.27-.27L448,343a.68.68,0,0,1,1.2,0l2,3.69A.61.61,0,0,0,451.47,347Z" transform="translate(-62.27 -9)" style="fill:#f59e0b"/><path d="M736,286.89l3.66,2.1a.68.68,0,0,1,0,1.19L736,292.06a.62.62,0,0,0-.27.26l-2,3.58a.68.68,0,0,1-1.19,0l-2-3.7a.7.7,0,0,0-.27-.27l-3.66-2.1a.68.68,0,0,1,0-1.19l3.61-1.88a.62.62,0,0,0,.26-.27l2-3.57a.68.68,0,0,1,1.19,0l2,3.69A.66.66,0,0,0,736,286.89Z" transform="translate(-62.27 -9)" style="fill:#f59e0b"/><path d="M315.08,644.57l7.26,4.16a1.34,1.34,0,0,1,0,2.36l-7.17,3.74a1.27,1.27,0,0,0-.53.52l-3.86,7.11a1.35,1.35,0,0,1-2.37-.07l-4-7.33a1.5,1.5,0,0,0-.54-.55l-7.27-4.16a1.35,1.35,0,0,1,0-2.37l7.17-3.74a1.27,1.27,0,0,0,.53-.52l3.87-7.1a1.34,1.34,0,0,1,2.36.06l4,7.34A1.36,1.36,0,0,0,315.08,644.57Z" transform="translate(-62.27 -9)" style="fill:#f59e0b"/><path d="M787.26,248.88l7.26,4.16a1.35,1.35,0,0,1,0,2.37l-7.17,3.74a1.21,1.21,0,0,0-.53.52l-3.86,7.1a1.35,1.35,0,0,1-2.37-.07l-4-7.33a1.36,1.36,0,0,0-.54-.55l-7.26-4.16a1.35,1.35,0,0,1,0-2.37l7.17-3.74a1.21,1.21,0,0,0,.53-.52l3.86-7.1a1.35,1.35,0,0,1,2.37.07l4,7.33A1.43,1.43,0,0,0,787.26,248.88Z" transform="translate(-62.27 -9)" style="fill:#f59e0b"/><path d="M683.48,955.14l7.27,4.16a1.36,1.36,0,0,1,0,2.37l-7.17,3.74a1.16,1.16,0,0,0-.53.52l-3.87,7.1a1.34,1.34,0,0,1-2.36-.07l-4-7.33a1.36,1.36,0,0,0-.54-.55L665,960.92a1.35,1.35,0,0,1,0-2.37l7.17-3.74a1.26,1.26,0,0,0,.53-.52l3.86-7.1a1.35,1.35,0,0,1,2.37.07l4,7.33A1.5,1.5,0,0,0,683.48,955.14Z" transform="translate(-62.27 -9)" style="fill:#f59e0b"/><path d="M1359.17,826.11l7.26,4.16a1.34,1.34,0,0,1,0,2.36l-7.17,3.74a1.27,1.27,0,0,0-.53.52L1354.9,844a1.35,1.35,0,0,1-2.37-.07l-4-7.33a1.5,1.5,0,0,0-.54-.55l-7.27-4.16a1.35,1.35,0,0,1,0-2.37l7.17-3.74a1.27,1.27,0,0,0,.53-.52l3.87-7.11a1.34,1.34,0,0,1,2.36.07l4,7.34A1.36,1.36,0,0,0,1359.17,826.11Z" transform="translate(-62.27 -9)" style="fill:#f59e0b"/><path d="M1259.3,288.58l4.73,2.71a.88.88,0,0,1,0,1.54l-4.67,2.43a.92.92,0,0,0-.34.34l-2.52,4.63a.88.88,0,0,1-1.54-.05l-2.62-4.77a1,1,0,0,0-.36-.36l-4.73-2.71a.88.88,0,0,1,0-1.54l4.66-2.43a.88.88,0,0,0,.35-.34l2.51-4.63a.88.88,0,0,1,1.54,0l2.63,4.78A.93.93,0,0,0,1259.3,288.58Z" transform="translate(-62.27 -9)" style="fill:#f59e0b"/><ellipse cx="727.2" cy="147.25" rx="56.23" ry="28.67" transform="translate(-73.27 212.88) rotate(-17.22)" style="fill:#1c1917"/><path d="M720.23,128.51c26.93-8.72,52.85-5.91,61.34,5.93a14.92,14.92,0,0,0-.88-4.52c-5.43-14.89-33.78-19.2-63.31-9.64s-49.09,29.4-43.66,44.29a15.14,15.14,0,0,0,2,3.7C675.09,154.1,693.6,137.14,720.23,128.51Z" transform="translate(-62.27 -9)" style="fill:#44403c"/><ellipse cx="1431.68" cy="935.24" rx="106" ry="68.1" transform="translate(-315.28 1219.87) rotate(-43.04)" style="fill:#1c1917"/><path d="M1464.33,969.64c-39,36.46-88.53,48.17-116.5,29.2a44.54,44.54,0,0,0,6.46,8.84c25.75,27.42,81.27,17.21,124-22.8s56.51-94.67,30.77-122.08a45.25,45.25,0,0,0-7.52-6.4C1517.85,885.59,1502.87,933.56,1464.33,969.64Z" transform="translate(-62.27 -9)" style="fill:#44403c"/><ellipse cx="502.96" cy="932.66" rx="71.83" ry="111.82" transform="translate(-574.03 618.43) rotate(-44.92)" style="fill:#1c1917"/><path d="M467.83,968.28C428,928.47,414,876.61,433,846.47a47.2,47.2,0,0,0-9.1,7.11c-28,28.1-15.32,86.28,28.33,129.95S554,1039.83,582,1011.74a47.19,47.19,0,0,0,6.48-8.14C558.29,1021.79,507.19,1007.65,467.83,968.28Z" transform="translate(-62.27 -9)" style="fill:#44403c"/><path d="M512.34,914.6l35.27-37.54,4.19,4.19S522,915.9,521.49,924.17Z" transform="translate(-62.27 -9)" style="fill:#375a64"/><polygon points="392.61 883.99 344.32 956.08 417.49 1029.27 490.21 973.79 392.61 883.99" style="fill:#ff735d"/><path d="M480.23,1037.86c-6.61,6.49-28.17-4.79-48.16-25.18S401.23,970.5,407.84,964,436,968.81,456,989.21,486.85,1031.38,480.23,1037.86Z" transform="translate(-62.27 -9)" style="fill:#ff735d"/><g style="opacity:0.30000000000000004"><path d="M480.23,1037.86c-6.61,6.49-28.17-4.79-48.16-25.18S401.23,970.5,407.84,964,436,968.81,456,989.21,486.85,1031.38,480.23,1037.86Z" transform="translate(-62.27 -9)"/></g><path d="M554.65,988.31c-6,5.5-36.6.81-70-29.88s-52.27-53.79-35.25-71.78c14-14.79,41.9-3.54,75.26,27.15S574.5,970.26,554.65,988.31Z" transform="translate(-62.27 -9)" style="fill:#ff735d"/><path d="M479.76,1038.27a11.15,11.15,0,0,1,1.17-1l3.51-2.85,13.37-10.63,47.52-37.35-.07.06c1.51-1.67,1.52-4.35,1-6.77a32.17,32.17,0,0,0-2.52-7.31,85.81,85.81,0,0,0-8.51-14A206.39,206.39,0,0,0,481.7,909,92.38,92.38,0,0,0,466,901.11a35.93,35.93,0,0,0-8-2.1c-2.61-.33-5.5-.15-7.17,1.57l.06-.07-31.9,46.87-9,13.12c-1,1.45-1.83,2.59-2.42,3.44a9.43,9.43,0,0,1-.88,1.14,8.06,8.06,0,0,1,.73-1.24l2.28-3.53,8.78-13.3,31.51-47.13,0,0,0,0a6.82,6.82,0,0,1,3.87-1.91,14.49,14.49,0,0,1,4.26,0,37.08,37.08,0,0,1,8.31,2.14,94,94,0,0,1,16,8,205.67,205.67,0,0,1,53.95,49.73,87.51,87.51,0,0,1,8.59,14.19,32.78,32.78,0,0,1,2.58,7.6c.47,2.55.58,5.58-1.36,7.77l0,0,0,0-47.8,37-13.58,10.38-3.62,2.71A9.28,9.28,0,0,1,479.76,1038.27Z" transform="translate(-62.27 -9)" style="fill:#1a2e35"/><path d="M701.46,716.79h-133V651.65L695.13,343.54h76V651.65h32.93v65.14H771.13v82.72H701.46Zm0-65.14V473.82H700.2L631.8,651.65Z" transform="translate(-62.27 -9)" style="fill:#075985"/><g style="opacity:0.30000000000000004"><path d="M701.46,716.79h-133V651.65L695.13,343.54h76V651.65h32.93v65.14H771.13v82.72H701.46Zm0-65.14V473.82H700.2L631.8,651.65Z" transform="translate(-62.27 -9)"/></g><path d="M669.74,716.78h-133V651.64l126.67-308.1h76v308.1h32.94v65.14H739.41v82.73H669.74Zm0-65.14V473.82h-1.26l-68.4,177.82Z" transform="translate(-62.27 -9)" style="fill:#0ea5e9"/><path d="M859.74,776.06q-27.24-29.94-27.24-84.68V451.67q0-54.72,27.24-84.68t78.53-30q51.3,0,78.54,30T1044,451.67V691.38q0,54.72-27.23,84.68t-78.54,30Q887,806,859.74,776.06Zm114.63-80.12V447.11q0-44.94-36.1-44.94t-36.1,44.94V695.94q0,45,36.1,44.95T974.37,695.94Z" transform="translate(-62.27 -9)" style="fill:#075985"/><g style="opacity:0.30000000000000004"><path d="M1016.81,367q-27.24-30-78.54-30t-78.53,30q-27.24,30-27.24,84.68V691.38q0,54.72,27.24,84.68t78.53,30q51.3,0,78.54-30T1044,691.38V451.67Q1044,397,1016.81,367Zm-42.44,329q0,45-36.1,44.95c-24.06,0-36.1-18.8-36.1-44.95V447.11c0-27.17,12-44.94,36.1-44.94s36.1,15,36.1,44.94Z" transform="translate(-62.27 -9)"/></g><path d="M828,776.06q-27.24-30-27.23-84.68V451.67Q800.79,397,828,367t78.53-30q51.3,0,78.54,30t27.23,84.68V691.38q0,54.72-27.23,84.68t-78.54,30Q855.27,806,828,776.06Zm114.63-80.12V447.11q0-44.94-36.1-44.94t-36.09,44.94V695.94q0,45,36.09,44.95T942.65,695.94Z" transform="translate(-62.27 -9)" style="fill:#0ea5e9"/><path d="M1199.6,716.79h-133V651.65l126.67-308.11h76V651.65h32.93v65.14h-32.93v82.73H1199.6Zm0-65.14V473.82h-1.26l-68.41,177.83Z" transform="translate(-62.27 -9)" style="fill:#075985"/><g style="opacity:0.30000000000000004"><path d="M1199.6,716.79h-133V651.65l126.67-308.11h76V651.65h32.93v65.14h-32.93v82.73H1199.6Zm0-65.14V473.82h-1.26l-68.41,177.83Z" transform="translate(-62.27 -9)"/></g><path d="M1167.88,716.79h-133V651.65l126.67-308.11h76V651.65h32.93v65.14h-32.93v82.72h-69.67Zm0-65.14V473.82h-1.26l-68.4,177.83Z" transform="translate(-62.27 -9)" style="fill:#0ea5e9"/><ellipse cx="1383.73" cy="541.19" rx="60.37" ry="189.15" transform="translate(-141.97 275.34) rotate(-11.41)" style="fill:#1c1917"/><path d="M1425,533.31C1406.2,440,1368.61,367.2,1337.35,360a21.35,21.35,0,0,1,9-4.27c32.68-6.59,75.92,71.08,96.58,173.48S1453.82,720,1421.13,726.6a21.09,21.09,0,0,1-8.9-.2C1437.56,706.54,1443.66,625.64,1425,533.31Z" transform="translate(-62.27 -9)" style="fill:#44403c"/><path d="M1751.63,356.82l35-51.1s63.7,18.42,71.09,9.61l-96.65-71.44-57.82,77.38Z" transform="translate(-62.27 -9)" style="fill:#1c1917"/><path d="M1753.66,287.81a4.91,4.91,0,0,1,.6-6.52,4.72,4.72,0,0,1,6.47.54c1.52,1.87,1.32,5.55-.67,6.9s-5.64.88-6.67-1.3" transform="translate(-62.27 -9)" style="fill:#e1e1e1"/><path d="M1761.08,243.88l-5.52,8,94.73,65.5s5.69,1.31,7.44-2.08Z" transform="translate(-62.27 -9)" style="fill:#44403c"/><path d="M1787.84,307.37c.33-.49-1.87-2.44-3.07-5.68s-1-6.13-1.54-6.26-1.89,3.11-.36,7S1787.62,307.88,1787.84,307.37Z" transform="translate(-62.27 -9)" style="fill:#fff"/><path d="M1801.08,310.67c.44-.38-1-2.69-1.13-5.87s1-5.64.48-6-2.76,2.12-2.52,6.07S1800.73,311.11,1801.08,310.67Z" transform="translate(-62.27 -9)" style="fill:#fff"/><path d="M1815.8,302.79c-.35-.41-2.75,1.46-3.45,4.94s.75,6.14,1.24,5.89.14-2.63.76-5.48S1816.24,303.19,1815.8,302.79Z" transform="translate(-62.27 -9)" style="fill:#fff"/><path d="M1778.57,318.13c.12-.58-2.53-1.53-5.06-3.68s-4-4.53-4.54-4.31.21,3.39,3.23,5.88S1778.53,318.67,1778.57,318.13Z" transform="translate(-62.27 -9)" style="fill:#fff"/><path d="M1718.05,564.53l35.31-50.9s63.59,18.81,71,10l-96.22-72-58.27,77Z" transform="translate(-62.27 -9)" style="fill:#1c1917"/><path d="M1720.49,495.54a4.91,4.91,0,0,1,.64-6.52,4.71,4.71,0,0,1,6.46.58c1.52,1.87,1.29,5.55-.71,6.89s-5.64.84-6.66-1.34" transform="translate(-62.27 -9)" style="fill:#e1e1e1"/><path d="M1728.17,451.65l-5.57,8,94.34,66.05s5.68,1.35,7.45-2Z" transform="translate(-62.27 -9)" style="fill:#44403c"/><path d="M1754.55,515.29c.34-.48-1.85-2.45-3-5.69s-.93-6.14-1.51-6.28-1.9,3.1-.4,7S1754.33,515.8,1754.55,515.29Z" transform="translate(-62.27 -9)" style="fill:#fff"/><path d="M1767.77,518.67c.45-.37-1-2.7-1.1-5.88s1-5.63.52-6-2.77,2.11-2.56,6.06S1767.43,519.11,1767.77,518.67Z" transform="translate(-62.27 -9)" style="fill:#fff"/><path d="M1782.54,510.88c-.35-.42-2.76,1.44-3.48,4.92s.71,6.14,1.2,5.9.17-2.64.8-5.48S1783,511.28,1782.54,510.88Z" transform="translate(-62.27 -9)" style="fill:#fff"/><path d="M1745.22,526c.12-.58-2.52-1.54-5-3.71s-4-4.56-4.51-4.34.19,3.39,3.2,5.9S1745.17,526.54,1745.22,526Z" transform="translate(-62.27 -9)" style="fill:#fff"/><path d="M1353.54,601.41c3.29,0,296.78-84.55,317.2-102.92s103.79-163.81,103.79-163.81l-59.22-48.28L1612.39,420.52l-180.73,16.31s-76.2-5.19-89.48,22.05l-1.25,40.79Z" transform="translate(-62.27 -9)" style="fill:#1c1917"/><path d="M1353.54,601.41c4.34.13,135.45,146,176.52,154.31s61.74-20,75.76-37c17.87-21.64,139.55-176.91,139.55-176.91l-61-50.49L1550.5,633.71,1470,522.89l-70.15-6.58-42.66,37.79Z" transform="translate(-62.27 -9)" style="fill:#1c1917"/><path d="M1538.59,647.33a2.87,2.87,0,0,1,.46-.6l1.46-1.68,5.69-6.35,21.1-23.21,31.44-34.3,18.62-20.2,20.28-21.41,46.25-48.68.39-.41.42.36,44,36.71L1741.07,538l3.23,2.79a8.57,8.57,0,0,1,1.07,1,8.65,8.65,0,0,1-1.19-.87l-3.35-2.65-12.56-10.17L1684,491.76l.81-.05-46.14,48.79-20.3,21.39L1599.64,582,1568,616.14l-21.42,22.91-5.87,6.18-1.56,1.59C1538.8,647.17,1538.61,647.35,1538.59,647.33Z" transform="translate(-62.27 -9)" style="fill:#44403c"/><path d="M1536.91,547.17a26,26,0,0,1-3.8,1.36l-10.49,3.28c-8.86,2.75-21.14,6.43-34.59,10.8l-9.81,3.28a74.64,74.64,0,0,0-8.94,3.32,23,23,0,0,0-11,11,42.89,42.89,0,0,0-3.13,10.39,29.9,29.9,0,0,1-.79,4,3.5,3.5,0,0,1,0-1.05c0-.68.13-1.69.29-3a39.37,39.37,0,0,1,2.8-10.7,23.66,23.66,0,0,1,11.36-11.71,74.17,74.17,0,0,1,9.07-3.45l9.79-3.3c13.49-4.39,25.81-7.93,34.74-10.46,4.47-1.25,8.09-2.24,10.61-2.88A23.31,23.31,0,0,1,1536.91,547.17Z" transform="translate(-62.27 -9)" style="fill:#44403c"/><path d="M1314,475.88a5.15,5.15,0,0,1,.6-1.17c.24-.41.51-.87.82-1.38l1.31-1.75a47.88,47.88,0,0,1,10.29-9.34c9.63-6.81,24.72-13.27,42-18a232.13,232.13,0,0,1,45-7.89,115.34,115.34,0,0,1,13.88-.18c1.64.09,2.9.21,3.76.34a4.73,4.73,0,0,1,1.3.24c0,.12-1.82-.07-5.08-.08s-8,.08-13.79.59a256.1,256.1,0,0,0-44.77,8.22c-17.13,4.74-32.14,11-41.78,17.55a51.15,51.15,0,0,0-10.41,8.9l-1.39,1.65-.91,1.3C1314.33,475.55,1314.05,475.91,1314,475.88Z" transform="translate(-62.27 -9)" style="fill:#44403c"/><path d="M1435.51,682.76a4.49,4.49,0,0,1-1-.68l-2.78-2.14-10.12-8c-8.55-6.72-20.69-15.54-34.19-25.22a386.12,386.12,0,0,1-33.23-26.6c-4-3.67-7.23-6.68-9.39-8.84-1-1-1.8-1.81-2.48-2.48s-.83-.89-.8-.93a4.77,4.77,0,0,1,1,.74l2.64,2.31c2.26,2,5.57,4.94,9.66,8.52,8.19,7.14,19.89,16.55,33.38,26.23s25.58,18.64,34,25.56c4.22,3.44,7.59,6.27,9.87,8.29l2.63,2.33C1435.25,682.42,1435.54,682.73,1435.51,682.76Z" transform="translate(-62.27 -9)" style="fill:#44403c"/><ellipse cx="469.06" cy="557.87" rx="199.01" ry="63.51" transform="translate(-280.11 792.59) rotate(-69.48)" style="fill:#1c1917"/><path d="M427.47,542.8c35.12-93.82,86.29-163.15,120-165.39a22.44,22.44,0,0,0-8.61-5.92C506,359.19,448.1,432.67,409.58,535.6S366.44,732,399.29,744.25a22,22,0,0,0,9.29,1.27C385.57,720.67,392.73,635.61,427.47,542.8Z" transform="translate(-62.27 -9)" style="fill:#44403c"/><path d="M83.56,311.12S74.8,288.77,71,280.69s-3-32.79-.44-37.27a7.67,7.67,0,0,0,.19-7.89s-12.93-24.08-6.88-30l3.53-.39S80.34,231,80.78,231.46s3.27.65,4.17-3.86-1.28-17.86-1.28-17.86-4.9-8.52-5.26-14.35c-.13-2.19,1.84-5.3,3.59-6.63l1.77-1.34s10.86,19.65,11.46,24.45,2.6,15.22,2.6,15.22l1.52-1.22.12-24.09s-5.43-20.4-1.3-24.87,4.53-.72,4.53-.72S110.46,197,111,202.3c.24,2.15.48,22.85.48,22.85l3.34-1.38L116,204.41S112.1,185.2,118,183.25l4.69-.15s4.46,25.27,4.94,26.45-3.41,30-3.41,30l1.18,2.73,3.38-4.62s1.51-4.42,8.26-8.13,9.69-1,9.69-1l-8.47,15s-7.7,17.59-10.85,21.65-13.92,13.55-15.61,14.48.2,8.74.2,8.74l2.67,5.45Z" transform="translate(-62.27 -9)" style="fill:#ffc19d"/><path d="M117.44,252.22c0,.25-2.72.19-6.92,1.2A32.35,32.35,0,0,0,87,275.14c-1.35,4.1-1.5,6.82-1.75,6.8s-.37-2.78.76-7.1A31.26,31.26,0,0,1,94.9,260.1c7-5.55,12.64-7.68,15.41-7.69C114.7,251.63,117.46,252.07,117.44,252.22Z" transform="translate(-62.27 -9)" style="fill:#ff9c6a"/><path d="M118.61,224.6c0,.49-10.17-1.17-22.13,2s-20.12,9.33-20.37,8.9c-.1-.13,1.76-1.87,5.25-4.06a53.58,53.58,0,0,1,30.7-7.86C116.16,223.8,118.63,224.43,118.61,224.6Z" transform="translate(-62.27 -9)" style="fill:#ff9c6a"/><path d="M83.56,311.12c.85,2,43.47,131,61.89,144.89S285.6,505.63,285.6,505.63l19.13-64.85L185.67,403.42,111.76,279.73Z" transform="translate(-62.27 -9)" style="fill:#ffc19d"/><polygon points="250.32 413.98 158.38 398.29 138.74 478.24 245.09 502.57 250.32 413.98" style="fill:#0ea5e9"/><path d="M370.32,429.34l-5.4-141c-.2-35.12-20.8-64.28-55.91-63.11l-3.24.3a62.8,62.8,0,0,0-57,63.22c.35,30.45,1.11,64.08,2.81,80.27,3.5,33.52,37.54,35.66,37.54,35.66s10.44,41.72,10.44,41.72l11.88,3.95h0Z" transform="translate(-62.27 -9)" style="fill:#ffc19d"/><path d="M289.07,404.65s21.27-.71,42.51-16.94c0,0-6.17,27-39.94,27.07Z" transform="translate(-62.27 -9)" style="fill:#ff9c6a"/><path d="M265.65,316a4.82,4.82,0,0,0,5.07,4.42,4.61,4.61,0,0,0,4.54-4.78,4.82,4.82,0,0,0-5.06-4.42A4.63,4.63,0,0,0,265.65,316Z" transform="translate(-62.27 -9)" style="fill:#1c1917"/><path d="M257.22,302.89c.65.57,4-2.45,9.2-2.91s9.17,1.77,9.67,1.08c.25-.3-.46-1.37-2.21-2.42a13.19,13.19,0,0,0-7.82-1.65,12.76,12.76,0,0,0-7.25,3.1C257.34,301.46,256.9,302.63,257.22,302.89Z" transform="translate(-62.27 -9)" style="fill:#1c1917"/><path d="M306.42,315.1c.65.57,4-2.45,9.2-2.91s9.17,1.77,9.68,1.09c.24-.31-.46-1.38-2.22-2.43a13.27,13.27,0,0,0-7.82-1.64,12.63,12.63,0,0,0-7.25,3.1C306.54,313.67,306.11,314.85,306.42,315.1Z" transform="translate(-62.27 -9)" style="fill:#1c1917"/><path d="M293,340.77c0-.3-3.26-.56-8.51-.75-1.33,0-2.6-.16-2.91-1s0-2.39.52-4q1.42-5,3-10.39c4.1-14.77,6.94-26.87,6.34-27s-4.4,11.68-8.5,26.46q-1.45,5.46-2.8,10.43c-.36,1.54-1.06,3.32-.21,5.23a3.32,3.32,0,0,0,2.34,1.73,9.09,9.09,0,0,0,2.27.11C289.79,341.34,293,341.06,293,340.77Z" transform="translate(-62.27 -9)" style="fill:#1c1917"/><path d="M302.11,301.52c.82,1.25,5.69-.59,11.77-1.28s11.25-.22,11.74-1.63c.21-.67-.92-1.76-3.17-2.63a20.56,20.56,0,0,0-17.91,2.22C302.57,299.59,301.74,300.92,302.11,301.52Z" transform="translate(-62.27 -9)" style="fill:#1c1917"/><path d="M256,289.8c1.17,1.09,5.28-.46,10.33-.9,5-.6,9.4.07,10.29-1.24.38-.62-.38-1.75-2.34-2.71a17.29,17.29,0,0,0-16.61,1.71C256,288,255.48,289.26,256,289.8Z" transform="translate(-62.27 -9)" style="fill:#1c1917"/><path d="M364.47,313.42c.55-.3,22.43-8.94,23.81,14.07s-22,19.65-22.09,19S364.47,313.42,364.47,313.42Z" transform="translate(-62.27 -9)" style="fill:#ffc19d"/><path d="M372.7,337.34c.09-.08.41.26,1.11.53a4,4,0,0,0,3-.12c2.38-1,4.19-5,4.06-9.18a13.36,13.36,0,0,0-1.47-5.67c-.8-1.64-2-2.75-3.2-2.89a2,2,0,0,0-2.3,1.24c-.27.66-.09,1.11-.21,1.16s-.52-.36-.39-1.32a2.55,2.55,0,0,1,.82-1.5,3,3,0,0,1,2.18-.72c1.78,0,3.47,1.56,4.4,3.32a13.63,13.63,0,0,1,1.77,6.33c.13,4.65-2,9.13-5.25,10.29a4.3,4.3,0,0,1-3.7-.39C372.77,337.89,372.62,337.39,372.7,337.34Z" transform="translate(-62.27 -9)" style="fill:#ff9c6a"/><path d="M309.43,343.15c-.8,0-.56,5.28-4.92,9.24s-10,3.64-10,4.38c-.06.33,1.3,1,3.68.92a13.17,13.17,0,0,0,8.38-3.35,11.51,11.51,0,0,0,3.78-7.74C310.44,344.38,309.79,343.1,309.43,343.15Z" transform="translate(-62.27 -9)" style="fill:#1a2e35"/><path d="M200.73,260.78a5.4,5.4,0,0,1,2.36-3.34c2.54-1.72,5.59-1.71,8.52-1.93a48.7,48.7,0,0,0,20.73-6.59,24,24,0,0,1-6.46-4c-3.95-3.48-6.44-9-5-14.1a3.25,3.25,0,0,1,1.67-2.31c1.47-.55,2.87.83,4,1.93,3.67,3.62,6.93,5.07,12,4.24a20.46,20.46,0,0,0,8.59-3.13c.09-.11.17-.23.27-.34,1.12-1.31,2.21-2.56,3.29-3.77v0h0c8.12-9.12,15.2-15.53,22.67-19.09,11-5.22,29.63-8.21,41.53-5.86s23,11.2,25.39,23.1c6.22-6,16.09-6.53,24.29-3.81l.19-.1c9.11,2.63,14.75,11.73,17.94,20.65.18.49.33,1,.5,1.48a35.45,35.45,0,0,0,12.71,11c.9.44,1.92,1,2.09,2a2.92,2.92,0,0,1-1.38,2.47,17.84,17.84,0,0,1-7,3.44,40,40,0,0,0,3.34,6.08c1.11,1.64,2.43,3.61,1.67,5.43a3.77,3.77,0,0,1-3.83,2,11.08,11.08,0,0,1-4.27-1.62c1.15,2.32,2.29,4.63,3.43,6.95a21.18,21.18,0,0,1-9.73,0c-1.37,8.61-1.82,24.43-3.65,30.33-6.1.48-7.63-.09-10.65,1.12-3.9,1.57-1.94,8.53-7.25,6.85-2.7-.86-7.38-10.61-8.43-13.25a131.76,131.76,0,0,1-9.13-55.26,42.29,42.29,0,0,0-13.62-8.6l.42.33c-9.61-2.68-20.45-5.24-29.1-.27C292,246.55,288.41,254,283.59,260c-9.14,11.48-19.89,18-34.48,19.5-.69,10.24-.05,26.87,0,36.38l-9.27-18.47v.08c-.72-1.07-1.33-2.16-1.92-3.25l-.2-.33v0a58.92,58.92,0,0,0-3-5.23l-.08.09c-4.86,4.84-12.85-1.61-9.14-7.39a13.21,13.21,0,0,1,2.68-3.05,9.37,9.37,0,0,1-8.78,2.86,7.35,7.35,0,0,1-5.65-6.94A6.26,6.26,0,0,1,217.2,269,21.14,21.14,0,0,1,205,267.1C202.57,265.89,200.11,263.81,200.73,260.78Z" transform="translate(-62.27 -9)" style="fill:#1c1917"/><path d="M329.88,230.13a29,29,0,0,1,3.57,2.88,24.29,24.29,0,0,1,5.86,10.86,42.39,42.39,0,0,1,1.39,8.5c.2,3.1.16,6.44.14,10a89.2,89.2,0,0,0,.43,11.05,38,38,0,0,0,1.12,5.78,12.11,12.11,0,0,0,2.72,5.51A5.1,5.1,0,0,0,350,286a7.56,7.56,0,0,0,4.12-2.68c2-2.66,2.36-5.9,2.72-8.76l-.7.13a28.3,28.3,0,0,0,4.53,6.8,10.06,10.06,0,0,0,6.77,3.16,6.61,6.61,0,0,0,3.44-.82,5.81,5.81,0,0,0,2.74-5.5,4.2,4.2,0,0,0-1.24-2.55l-.34.34a22,22,0,0,0,7.57,5,21.13,21.13,0,0,0,2.3.73,4.15,4.15,0,0,0,.81.15,3.08,3.08,0,0,0-.78-.28c-.51-.17-1.27-.43-2.23-.84a22.49,22.49,0,0,1-7.32-5.08l-.34.34a4.32,4.32,0,0,1,.53,5,5,5,0,0,1-2,2.19,6,6,0,0,1-3.12.71,9.4,9.4,0,0,1-6.29-3,28.07,28.07,0,0,1-4.37-6.65l-.55-1.05-.15,1.18c-.37,2.85-.75,6-2.59,8.37a6.77,6.77,0,0,1-3.69,2.39,4.27,4.27,0,0,1-4.12-1.1,11.5,11.5,0,0,1-2.53-5.15,39,39,0,0,1-1.1-5.66,87.56,87.56,0,0,1-.47-11c0-3.51,0-6.86-.22-10a41.76,41.76,0,0,0-1.51-8.61,23.8,23.8,0,0,0-6.18-10.93A13.59,13.59,0,0,0,329.88,230.13Z" transform="translate(-62.27 -9)" style="fill:#44403c"/><path d="M227.73,269.34s.09.08.28.21l.88.57a11.31,11.31,0,0,0,1.49.82,17.9,17.9,0,0,0,2.11.95,29.83,29.83,0,0,0,14.58,1.7,38.18,38.18,0,0,0,19.85-8.76c6.43-5.25,11.9-12.74,16.22-21.2,2.2-4.23,3.93-8.54,5.9-12.53a44.5,44.5,0,0,1,6.89-10.72,23.07,23.07,0,0,1,9.34-6.49,16.66,16.66,0,0,1,5.08-.91,18.65,18.65,0,0,1,4.74.61,19.61,19.61,0,0,1,7.28,3.8,19.33,19.33,0,0,1,4.11,4.69,23.58,23.58,0,0,1,2,4.94,1.85,1.85,0,0,0,0-.35c-.06-.28-.14-.61-.23-1a17.09,17.09,0,0,0-1.51-3.72,19,19,0,0,0-4.09-4.88,19.61,19.61,0,0,0-7.41-4,18.41,18.41,0,0,0-4.9-.68,16.78,16.78,0,0,0-5.29.89,23.57,23.57,0,0,0-9.66,6.62,45,45,0,0,0-7.05,10.87c-2,4-3.72,8.32-5.9,12.51-4.29,8.39-9.67,15.8-16,21A38,38,0,0,1,247,273a30.34,30.34,0,0,1-14.4-1.43A46.19,46.19,0,0,1,227.73,269.34Z" transform="translate(-62.27 -9)" style="fill:#44403c"/><path d="M223.75,254.73a5,5,0,0,0,1.26.77,25.94,25.94,0,0,0,3.69,1.59,34.69,34.69,0,0,0,5.77,1.51,39.29,39.29,0,0,0,7.3.51,39.9,39.9,0,0,0,7.26-.94,35.11,35.11,0,0,0,5.68-1.85,26.55,26.55,0,0,0,3.59-1.81,5.85,5.85,0,0,0,1.21-.84c-.08-.13-1.88.94-5,2.13a38.88,38.88,0,0,1-5.63,1.66,39.26,39.26,0,0,1-14.28.43,39.9,39.9,0,0,1-5.72-1.33C225.68,255.56,223.81,254.6,223.75,254.73Z" transform="translate(-62.27 -9)" style="fill:#44403c"/><path d="M474.84,687.44l2.32-11.15a244.88,244.88,0,0,1-75-51.76L278.28,499.2l3.21-36,61-57.11s29.09-19.29,66.79-4.35c42.81,17,60.94,41,110.94,99.28,19.81,23.09,8.68,3.8,28,16.31,0,0-12.14,66-35.12,106.94C496.31,654.26,474.84,687.44,474.84,687.44Z" transform="translate(-62.27 -9)" style="fill:#0ea5e9"/><path d="M291.1,512.53c-.14.09-2-2.3-4.57-6.37a170.67,170.67,0,0,1-16.58-34c-1.6-4.57-2.37-7.46-2.21-7.52s1.27,2.72,3.1,7.18,4.44,10.58,7.67,17.19,6.44,12.43,8.83,16.61S291.27,512.42,291.1,512.53Z" transform="translate(-62.27 -9)" style="fill:#1a2e35"/><g style="opacity:0.30000000000000004"><path d="M506.81,595.28s3.64-20.34-4.13-40.57S474.84,506,474.84,506l-6.9,6.51Z" transform="translate(-62.27 -9)"/></g><path d="M399.62,719.74,444.24,603l-23.53-29.37-44.34-54.5s-31.67-16.44-46.82-40.68c-4.74-7.58-5.65-20.38-.7-29.72C342.7,422.55,371.41,412.16,400,420l25.14,16.48s83,130.07,81.66,155.13c-.94,17.71-70.93,137.56-70.93,137.56Z" transform="translate(-62.27 -9)" style="fill:#ffc19d"/><path d="M402.75,714.78l-49.52,4.27a16.77,16.77,0,0,0-12.73,7.73l-22.15,35s8.83,4.09,14.68-2.44c6-6.73,15.3-20.29,15.3-20.29l-4.21,39s11.42,1.11,13.35-7.58c2.2-10,2.37-23,2.37-23l11.15,37s12.1-4,8.21-18c-2.45-8.85-5.11-17.94-5.11-17.94l13.6,24.1s9.88-.87,7.31-9.83c-1.71-6-7-17.79-7-17.79s28.52,2.15,34.19.1c7.72-2.8,15.62-19.19,15.62-19.19Z" transform="translate(-62.27 -9)" style="fill:#ffc19d"/><path d="M358.83,413.21s-41.55,22.33-37,53.58,40.29,47.51,40.29,47.51l46.46,49.8,73-63.43-66.43-82.53" transform="translate(-62.27 -9)" style="fill:#0ea5e9"/><path d="M415.15,418.14s.13.11.35.35l.95,1.11,3.64,4.38,13.66,16.71L482,500.3l.36.44-.43.38-72.59,63.17-.36.32-.49.42-.44-.47-46.43-49.83.2.14a91.89,91.89,0,0,1-23.08-16.28c-6.43-6.35-11.68-13.48-14.6-21.15-.61-1.95-1.42-3.81-1.84-5.75s-.9-3.84-1.1-5.75a34,34,0,0,1,.55-11.09,45.68,45.68,0,0,1,8.43-17.62,87.77,87.77,0,0,1,20.15-18.88c2.64-1.84,4.77-3.12,6.21-4l1.67-.92a2.76,2.76,0,0,1,.58-.26,4,4,0,0,1-.53.36l-1.61,1c-1.4.9-3.48,2.23-6.08,4.12a90.19,90.19,0,0,0-19.77,19A45.15,45.15,0,0,0,322.7,455a33.33,33.33,0,0,0-.47,10.78c.2,1.86.75,3.71,1.11,5.61s1.22,3.71,1.83,5.62c6,14.94,20,28,37.21,36.67l.13.07.07.08,46.49,49.78-.93,0,.36-.32,72.7-63-.07.81-47.92-59.92-13.4-16.91-3.5-4.49c-.37-.48-.65-.87-.88-1.17A2.3,2.3,0,0,1,415.15,418.14Z" transform="translate(-62.27 -9)" style="fill:#1a2e35"/><path d="M364,724.35c0,.21-1.62.17-4.05.86a15.82,15.82,0,0,0-11.71,14.06c-.24,2.51.09,4.09-.12,4.14s-.8-1.51-.79-4.19a15.29,15.29,0,0,1,12.41-14.9C362.42,723.83,364.06,724.21,364,724.35Z" transform="translate(-62.27 -9)" style="fill:#ff9c6a"/><path d="M368.6,730.16c.08.16-1,.89-2.65,2.1-.82.62-1.81,1.35-2.81,2.23a8.5,8.5,0,0,0-2.51,3.24,19.55,19.55,0,0,0-.58,7.76c.19,2,.52,3.27.34,3.33s-.81-1.11-1.24-3.2a16.37,16.37,0,0,1,.27-8.33,8.73,8.73,0,0,1,3-3.7,24.06,24.06,0,0,1,3.08-2.09C367.29,730.46,368.52,730,368.6,730.16Z" transform="translate(-62.27 -9)" style="fill:#ff9c6a"/><path d="M389.32,734.81c0,.18-1.5.63-4,.91s-6.1.55-8.33,3.42a11.46,11.46,0,0,0-2.16,8.73c.46,2.36,1.26,3.74,1.06,3.84s-1.2-1.13-2-3.64a11.49,11.49,0,0,1,2-9.74,8.66,8.66,0,0,1,4.8-3,21.24,21.24,0,0,1,4.46-.53C387.76,734.76,389.28,734.64,389.32,734.81Z" transform="translate(-62.27 -9)" style="fill:#ff9c6a"/><path d="M427.8,724.33c-.13.34-6.08-1.67-13.29-4.42-3.61-1.38-6.86-2.69-9.19-3.67a24.92,24.92,0,0,1-3.71-1.72c.12-.52,6.15,1.43,13.36,4.18S427.93,724,427.8,724.33Z" transform="translate(-62.27 -9)" style="fill:#ff9c6a"/><g style="opacity:0.30000000000000004"><path d="M539.09,503.94s-8.89,77.74-26.3,109.42-31.72,58.81-31.72,58.81l-1.25,6s35.35-55.76,41.75-69.63,18-41.77,24.45-68.83,7.4-31.61,7.21-31.61C553.23,508.09,543.12,500.68,539.09,503.94Z" transform="translate(-62.27 -9)"/></g><path d="M310,367c-10.46.19-24.46-2.83-24.46-2.83s1.9,5.62,4.84,7.38a18.17,18.17,0,0,0,3.44,1.58c-2.81.21-4.93.45-4.93.45,9.21,8.66,29.33,9.47,41.82,1a27.48,27.48,0,0,0-5.51-1.37,13,13,0,0,0,4.64-1.76c2.21-1.76,6.44-6,6.44-6S323.46,366.76,310,367Z" transform="translate(-62.27 -9)" style="fill:#fff"/><path d="M366,322.08l-1.73-.48C348.93,368.08,324,343,324,343l-29.95-.89S264.57,369,251.31,320.85l-2.09.21a31.73,31.73,0,0,1,.15,8.5c-3.62,11-11.16,36.69-8.3,52.47,6.18,28.21,48.26,40.8,51.24,41.9a102.8,102.8,0,0,0,14.76,4.34,26.59,26.59,0,0,0,4.29.56,7.54,7.54,0,0,0,1.53-.06c16.89-.3,45.2-23.58,54.7-41.1C379.91,364.93,362.11,330.69,366,322.08Zm-107,83.62c-7.25-5.75-14.3-14.54-15.78-24.17-1-6.47,0-14.26,1.29-20.8-.92,8.33-.92,16.83,1.75,24.79,3.61,10.75,18.77,23.15,34.42,31.92A76.42,76.42,0,0,1,258.93,405.7Zm67.75-22.91s-11.41,6.34-17.63,6.32c-5.6,0-19.47-8.4-19.47-8.4-2-1.77-6.23-17.29-6.23-17.29,14.24,2.11,22-1.89,25.58-6.15h0c2.06,1.85,10.75,9,25.81,6.92C334.75,364.19,328.76,380.43,326.68,382.79Z" transform="translate(-62.27 -9)" style="fill:#282421"/><path d="M373.76,352.54c-1.13-5.12-4.46-13.93-8.2-21.5-.39-.79-.93-6.38,0-8.73l-1.75-.48C358.25,338.54,351.43,346,345,348.7c3.92,5,12.29,24.5,2.69,48.64,3.2-11.73-1.15-25.42-1.15-25.42s1.26,12.58-.92,22.13C340.54,416.34,331.87,422,331.87,422c14.52-8.44,29.78-22.93,36.19-34.63.23-.42.43-.85.64-1.29a47.62,47.62,0,0,0,2.39-4.76A46,46,0,0,0,373.76,352.54Zm-.62,18.63a19.09,19.09,0,0,1-2.24,7.11,55.52,55.52,0,0,0,1.83-16.51,66.84,66.84,0,0,0-2.43-13.51,42,42,0,0,1,2,5.43,39,39,0,0,1,1.18,5.82A40.44,40.44,0,0,1,373.14,371.17Z" transform="translate(-62.27 -9)" style="fill:#1c1917"/><path d="M276,362.18l5.59.67,2.67.26,3,.22,1.56.07c.52,0,1.05,0,1.59,0,1.06,0,2.14,0,3.21-.11.53,0,1.06-.1,1.59-.14s1.07-.17,1.59-.25l1.47-.32c.49-.12,1-.27,1.46-.4.93-.32,1.85-.64,2.69-1s1.62-.76,2.33-1.15a28.27,28.27,0,0,0,4.55-3.05,10,10,0,0,1-.83,1.29,16.31,16.31,0,0,1-2.82,3,18.44,18.44,0,0,1-2.27,1.62c-.42.26-.88.51-1.34.77s-1,.45-1.47.67a21.45,21.45,0,0,1-3.29,1c-.57.11-1,.22-1.7.31s-1.17.16-1.76.21c-1.17.06-2.34.06-3.48,0s-2.26-.19-3.33-.33a38.44,38.44,0,0,1-5.72-1.29A28.67,28.67,0,0,1,276,362.18Z" transform="translate(-62.27 -9)" style="fill:#1c1917"/><ellipse cx="1007.83" cy="243.2" rx="50.04" ry="130.65" transform="translate(551.58 1193.19) rotate(-81.23)" style="fill:#1c1917"/><path d="M1016.52,209.31c64.79,11,113.57,38.25,116.3,63.3a21.81,21.81,0,0,0,3.7-7.48c7.14-26.83-44.69-58.41-115.77-70.52s-134.48-.17-141.62,26.67a19.74,19.74,0,0,0-.53,7.22C894.6,207,952.44,198.39,1016.52,209.31Z" transform="translate(-62.27 -9)" style="fill:#44403c"/><path d="M1002.32,239c16.28,8.5,27.22,24.59,42.31,35.07,10,6.93,22.1,11.71,28.83,21.84-.67-5.92-4.72-10.85-8.77-15.22a222.9,222.9,0,0,0-38.08-32.77c-7.12-4.85-15-9.44-23.65-9.38" transform="translate(-62.27 -9)" style="fill:#65a30d"/><g style="opacity:0.2"><path d="M1002.32,239c16.28,8.5,27.22,24.59,42.31,35.07,10,6.93,22.1,11.71,28.83,21.84-.67-5.92-4.72-10.85-8.77-15.22a222.9,222.9,0,0,0-38.08-32.77c-7.12-4.85-15-9.44-23.65-9.38" transform="translate(-62.27 -9)"/></g><path d="M1079.79,19.17c-.29-2.64-.77-5.44-2.57-7.4-2.45-2.68-6.56-3-10.19-2.69-15.49,1.16-35.19,24.12-44.67,36.43l1.59,68.34C1066.37,91.62,1083.43,52,1079.79,19.17Z" transform="translate(-62.27 -9)" style="fill:#65a30d"/><g style="opacity:0.2"><path d="M1079.79,19.17c-.29-2.64-.77-5.44-2.57-7.4-2.45-2.68-6.56-3-10.19-2.69-15.49,1.16-35.19,24.12-44.67,36.43l1.59,68.34C1066.37,91.62,1083.43,52,1079.79,19.17Z" transform="translate(-62.27 -9)"/></g><path d="M1012.71,159.5A157.5,157.5,0,0,1,1037,153c8.07-1.31,16.19-4.69,24.15-6.56,10.32-2.43,19.95-7.09,29.85-10.88s20.45-6.79,31-5.64c-7.77-3.94-16.64-5.35-25.36-5.34s-17.37,1.39-26,2.76c-12,1.9-24.12,3.87-34.94,9.29s-20.77,11-23,22.87" transform="translate(-62.27 -9)" style="fill:#65a30d"/><g style="opacity:0.2"><path d="M1012.71,159.5A157.5,157.5,0,0,1,1037,153c8.07-1.31,16.19-4.69,24.15-6.56,10.32-2.43,19.95-7.09,29.85-10.88s20.45-6.79,31-5.64c-7.77-3.94-16.64-5.35-25.36-5.34s-17.37,1.39-26,2.76c-12,1.9-24.12,3.87-34.94,9.29s-20.77,11-23,22.87" transform="translate(-62.27 -9)"/></g><path d="M957.7,161.83c-10.48-15.37-31.47-19.84-49.52-24.32,24,20.69,48.81,46.84,67.34,72.54C979.69,197.56,970.94,181.23,957.7,161.83Z" transform="translate(-62.27 -9)" style="fill:#65a30d"/><g style="opacity:0.2"><path d="M957.7,161.83c-10.48-15.37-31.47-19.84-49.52-24.32,24,20.69,48.81,46.84,67.34,72.54C979.69,197.56,970.94,181.23,957.7,161.83Z" transform="translate(-62.27 -9)"/></g><path d="M971.22,257.18c-21.59-6.24-39.4-30.9-60.69-37.87,24.57-1.16,55.29,13.59,60.69,37.87" transform="translate(-62.27 -9)" style="fill:#65a30d"/><g style="opacity:0.2"><path d="M971.22,257.18c-21.59-6.24-39.4-30.9-60.69-37.87,24.57-1.16,55.29,13.59,60.69,37.87" transform="translate(-62.27 -9)"/></g><path d="M992.72,207.34c12.09-1,24.23,2.12,35.31,7.06s21.24,11.68,31.34,18.39c.93-7.83-3.62-15.14-8-21.7-3.28-4.94-6.59-9.91-10.75-14.14s-9.26-7.71-15.05-9a26.66,26.66,0,0,0-20.45,4.18,30.9,30.9,0,0,0-12.41,15.23" transform="translate(-62.27 -9)" style="fill:#65a30d"/><path d="M972.86,286.9s10.71-73.23,22.59-113.62S1018.85,87,1018.85,87l4.68,1.27S998.46,168,988.7,217.55s-6.53,71.77-6.53,71.77l-9.31-2.42" transform="translate(-62.27 -9)" style="fill:#3f6212"/><path d="M1075.43,14a3.39,3.39,0,0,1-.49.76l-1.55,2.05c-1.36,1.77-3.3,4.35-5.66,7.56-4.71,6.43-11,15.52-17.18,26s-11.2,20.3-14.59,27.52c-1.7,3.61-3,6.55-3.94,8.59L1031,88.82a3.68,3.68,0,0,1-.43.79,4.11,4.11,0,0,1,.28-.85l.92-2.4c.82-2.08,2.08-5.06,3.71-8.71a278.46,278.46,0,0,1,31.84-53.58c2.42-3.18,4.43-5.72,5.87-7.42l1.66-2A4.81,4.81,0,0,1,1075.43,14Z" transform="translate(-62.27 -9)" style="fill:#3f6212"/><path d="M1011,124.14c-14-15.45-18-36.87-12.14-56.87,4.06-14,12.93-26,22.15-37.28a5.48,5.48,0,0,1,3-2.25c1.73-.32,3.29,1,4.45,2.35,10.07,11.44,13,27.65,12.27,42.88-.48,10.13-2.43,20.32-6.94,29.4s-13.51,17.57-22.74,21.77" transform="translate(-62.27 -9)" style="fill:#84cc16"/><path d="M1011,124.14a3.37,3.37,0,0,1,.22-.85c.2-.64.46-1.43.77-2.4.7-2.06,1.65-5.08,2.75-8.82a252.94,252.94,0,0,0,6.64-29.73c1.9-11.76,3-22.5,3.76-30.27.37-3.8.67-6.92.89-9.21.11-1,.19-1.84.26-2.5a3.49,3.49,0,0,1,.15-.87,3.75,3.75,0,0,1,0,.88c0,.66-.07,1.5-.12,2.52-.12,2.18-.33,5.33-.63,9.23-.62,7.79-1.63,18.56-3.54,30.35a221.23,221.23,0,0,1-6.89,29.76c-1.17,3.73-2.2,6.73-3,8.77l-.91,2.34A3.67,3.67,0,0,1,1011,124.14Z" transform="translate(-62.27 -9)" style="fill:#3f6212"/><g style="opacity:0.2"><path d="M992.72,207.34c12.09-1,24.23,2.12,35.31,7.06s21.24,11.68,31.34,18.39c.93-7.83-3.62-15.14-8-21.7-3.28-4.94-6.59-9.91-10.75-14.14s-9.26-7.71-15.05-9a26.66,26.66,0,0,0-20.45,4.18,30.9,30.9,0,0,0-12.41,15.23" transform="translate(-62.27 -9)" style="fill:#65a30d"/></g><path d="M1045.68,267a3,3,0,0,1-.61-.48l-1.63-1.5c-1.39-1.31-3.39-3.24-5.94-5.52-1.25-1.17-2.65-2.42-4.18-3.72s-3.16-2.7-4.93-4.11a85.23,85.23,0,0,0-12.09-8.28,29.81,29.81,0,0,0-13.81-4.13,41.38,41.38,0,0,0-6.37.16,31.11,31.11,0,0,0-5.42,1.15,31.61,31.61,0,0,0-7.33,3.32c-1.62,1-2.45,1.66-2.5,1.6a3.42,3.42,0,0,1,.57-.53,18.64,18.64,0,0,1,1.77-1.34,28.89,28.89,0,0,1,7.31-3.59,30.6,30.6,0,0,1,5.51-1.27,41.42,41.42,0,0,1,6.48-.24,29.94,29.94,0,0,1,14.17,4.17,80.88,80.88,0,0,1,12.17,8.41c1.77,1.43,3.42,2.82,4.91,4.18s2.9,2.61,4.13,3.8c2.51,2.35,4.44,4.34,5.77,5.72l1.52,1.6A2.6,2.6,0,0,1,1045.68,267Z" transform="translate(-62.27 -9)" style="fill:#3f6212"/><path d="M958,242a5.52,5.52,0,0,1,1.25.77,30.83,30.83,0,0,1,3.11,2.49,44.36,44.36,0,0,1,13.39,22.33,31.91,31.91,0,0,1,.74,3.92,5.14,5.14,0,0,1,.08,1.47c-.14,0-.45-2-1.37-5.24A49.74,49.74,0,0,0,962,245.72C959.55,243.4,957.88,242.15,958,242Z" transform="translate(-62.27 -9)" style="fill:#3f6212"/><path d="M929.51,154.61a4.18,4.18,0,0,1,.85.52l2.35,1.63,3.69,2.63c1.44,1,2.94,2.38,4.67,3.78a129.81,129.81,0,0,1,23.34,25.65,142.78,142.78,0,0,1,9.64,16.54,152.88,152.88,0,0,1,6.13,14.38c1.52,4.18,2.6,7.61,3.34,10l.85,2.73a5.77,5.77,0,0,1,.26,1,4.29,4.29,0,0,1-.41-.92c-.24-.6-.59-1.51-1-2.68-.83-2.34-2-5.74-3.58-9.88s-3.68-9-6.26-14.25a149.17,149.17,0,0,0-9.64-16.41,137,137,0,0,0-23-25.68c-1.7-1.42-3.17-2.8-4.58-3.86s-2.58-2-3.6-2.72l-2.26-1.76A4.74,4.74,0,0,1,929.51,154.61Z" transform="translate(-62.27 -9)" style="fill:#3f6212"/><path d="M1028.57,204a7.48,7.48,0,0,1-1.67-.69l-1.89-.91c-.74-.36-1.64-.61-2.6-1a27.89,27.89,0,0,0-23.85,2.08,31.75,31.75,0,0,0-5.82,4.21,47.19,47.19,0,0,0-4.53,4.87,6.67,6.67,0,0,1,.9-1.57,26.22,26.22,0,0,1,3.24-3.72,29.84,29.84,0,0,1,5.84-4.43,27.38,27.38,0,0,1,24.42-2c1,.41,1.86.7,2.58,1.1l1.86,1A7.81,7.81,0,0,1,1028.57,204Z" transform="translate(-62.27 -9)" style="fill:#3f6212"/><path d="M1071.71,132.82a5,5,0,0,1-1,.28l-2.78.66c-2.41.56-5.89,1.41-10.16,2.58s-9.3,2.73-14.78,4.76a108.45,108.45,0,0,0-17.22,7.94,37.16,37.16,0,0,0-7.75,5.87c-2.16,2.34-4.24,4.61-6.17,6.8a148.89,148.89,0,0,0-9.75,12.08,86.45,86.45,0,0,0-5.56,8.86c-1.18,2.17-1.74,3.42-1.81,3.39a4.07,4.07,0,0,1,.35-.94c.24-.6.63-1.49,1.19-2.6a75,75,0,0,1,5.36-9,138.93,138.93,0,0,1,9.66-12.24c1.93-2.21,4-4.49,6.15-6.84a37.15,37.15,0,0,1,7.92-6,105,105,0,0,1,17.38-7.94c5.52-2,10.6-3.48,14.88-4.62s7.81-1.87,10.25-2.34l2.81-.5A4.5,4.5,0,0,1,1071.71,132.82Z" transform="translate(-62.27 -9)" style="fill:#3f6212"/><path d="M992.09,196.07a8.42,8.42,0,0,1-.07-1.94c0-1.41,0-3.18.07-5.29a144.64,144.64,0,0,0-.83-17.36,146.15,146.15,0,0,0-3.09-17.12q-.7-3.08-1.19-5.15a9.08,9.08,0,0,1-.35-1.91,9.36,9.36,0,0,1,.65,1.83c.37,1.2.87,2.93,1.44,5.09a110.93,110.93,0,0,1,3.94,34.64c-.1,2.23-.2,4-.32,5.28A9.47,9.47,0,0,1,992.09,196.07Z" transform="translate(-62.27 -9)" style="fill:#3f6212"/><path d="M1000.61,145.64a60.92,60.92,0,0,0-2.36-25.22A80,80,0,0,0,953.06,70q17.22,41.67,34.43,83.36l3.72,14.39C997,161.5,999.49,154.07,1000.61,145.64Z" transform="translate(-62.27 -9)" style="fill:#65a30d"/><g style="opacity:0.2"><path d="M1000.61,145.64a60.92,60.92,0,0,0-2.36-25.22A80,80,0,0,0,953.06,70q17.22,41.67,34.43,83.36l3.72,14.39C997,161.5,999.49,154.07,1000.61,145.64Z" transform="translate(-62.27 -9)"/></g><g style="clip-path:url(#a)"><g style="opacity:0.30000000000000004"><ellipse cx="1375.26" cy="860.53" rx="71.83" ry="15.94" transform="translate(-291.66 1090.16) rotate(-40.49)" style="fill:#1c1917"/></g><path d="M1349,954.12c-.23-1.21-.4-2.47-.52-3.78-1.33-14.05,9.87-26,21.43-33.41a6.53,6.53,0,0,1,8.78,1.31,6.64,6.64,0,0,1-1.23,9c-5.28,4.56-12.85,12.66-13.17,21.81a16.6,16.6,0,0,0,0,1.86c.7,9.29,9.38,14.48,15.84,17.08a6.74,6.74,0,0,1,3.29,9.48,7.7,7.7,0,0,1-1.92,2.41,7.43,7.43,0,0,1-6.84,1.53C1366.47,979,1352.38,972.28,1349,954.12Z" transform="translate(-62.27 -9)" style="fill:#fff"/><path d="M1349,954.12c4.53-5.54,11.46-6.66,15.29-5.09a16.6,16.6,0,0,0,0,1.86c.7,9.29,9.38,14.48,15.84,17.08a6.74,6.74,0,0,1,3.29,9.48,7.7,7.7,0,0,1-1.92,2.41,7.43,7.43,0,0,1-6.84,1.53C1366.47,979,1352.38,972.28,1349,954.12Z" transform="translate(-62.27 -9)" style="fill:#0369a1"/><g style="opacity:0.30000000000000004"><path d="M1374.73,981.39a7.43,7.43,0,0,0,6.84-1.53,7.66,7.66,0,0,0,1.23-1.31,7.12,7.12,0,0,1-2.59-.25c-8.26-2.4-22.35-9.12-25.7-27.28-.22-1.2-.39-2.46-.52-3.77-1.2-12.78,8-23.82,18.33-31.29a7.16,7.16,0,0,0-2.38,1c-11.56,7.41-22.76,19.36-21.43,33.41.12,1.31.29,2.57.52,3.78C1352.38,972.28,1366.47,979,1374.73,981.39Z" transform="translate(-62.27 -9)" style="fill:#0c4a6e"/></g><path d="M1361.8,921.29a67.07,67.07,0,0,1,7.42-5.5,7.82,7.82,0,0,1,10.58,1.64h0a8,8,0,0,1-1.42,10.81c-5,4.36-13.39,13.08-12.67,22.55.64,8.43,8.5,13.32,15,15.92a7.82,7.82,0,0,1,4.44,4.54,8.53,8.53,0,0,1-.44,6.81,9,9,0,0,1-10.35,4.63c-9.28-2.7-25.15-10.47-27.19-32.22C1346,937.76,1354.36,927.64,1361.8,921.29Zm18.94,57.5a6.47,6.47,0,0,0,1.55-2,5.78,5.78,0,0,0,.31-4.63,5.07,5.07,0,0,0-2.91-3c-7.2-2.9-15.94-8.41-16.68-18.24-.81-10.65,8.17-20.11,13.6-24.8a5.29,5.29,0,0,0,1-7.13h0a5.14,5.14,0,0,0-7-1c-6.77,4.33-22.33,16.14-20.83,32.15,1.9,20.15,16.64,27.36,25.26,29.87A6.12,6.12,0,0,0,1380.74,978.79Zm-2-60.55Z" transform="translate(-62.27 -9)" style="fill:#1c1917"/><path d="M1397.19,1002.85c2.61-11.93,6-23.87,3.92-36.74-.18-1.15-.42-2.3-.7-3.46-2.26-9.35-7.66-19.22-18.53-29.94-1.35-1.32-2.77-2.66-4.29-4a22.41,22.41,0,0,0-5.14-3.41,23.45,23.45,0,0,0-2.64-1.06,47.55,47.55,0,0,1-21.87-15.31s-6.71,4.82-14.9-1.86c-.35-.29-.71-.6-1.07-.93s-.46-.43-.68-.66a7.23,7.23,0,0,1-.32-9.9,107.51,107.51,0,0,1,23-19.39s7.2-2.64,14.55,4.17,32,1.82,24.55-22.57c0,0-10.06-16.84,20.35-36.32a7.24,7.24,0,0,1,8,.1,15.74,15.74,0,0,1,1.79,1.41,13.15,13.15,0,0,1,2,2.29c2.1,3,3.22,7.55,1.09,14a60,60,0,0,1,5.93,7.45c2.3,3.42,4.44,7.53,4.71,11.21.2,2.77,2.39,6.1,5.2,9.31a94.68,94.68,0,0,0,12.78,11.56l.83.62h0s34.34,25.93-21.74,116.88c0,0-7.49,15.82-10.85,20.59,0,0,1.17,10.6-10.23,13.84a17.46,17.46,0,0,1-3.16.62h0C1399.82,1032.42,1392.55,1024.1,1397.19,1002.85Z" transform="translate(-62.27 -9)" style="fill:#f0f9ff"/><path d="M1431.7,873.19a20.15,20.15,0,0,1,.46-26.44c2.3,3.42,4.44,7.53,4.71,11.21.53,7.2,14.42,18.17,18,20.87A20.15,20.15,0,0,1,1431.7,873.19Z" transform="translate(-62.27 -9)" style="fill:#0369a1"/><g style="opacity:0.30000000000000004"><path d="M1331,895.56a107.51,107.51,0,0,1,23-19.39s7.2-2.64,14.55,4.17,32,1.82,24.55-22.57c0,0-10.06-16.84,20.35-36.32a7.24,7.24,0,0,1,8,.1,15.74,15.74,0,0,1,1.79,1.41,13.15,13.15,0,0,1,2,2.29A37.26,37.26,0,0,0,1404.56,839a19.89,19.89,0,0,0-3.35,17.09c2,7.86,3.26,20.75-7,29.39S1373.12,891.1,1367,888a20,20,0,0,0-21.17,2c-4.25,3.3-8.77,8.58-12.8,17-.35-.29-.71-.6-1.07-.93s-.46-.43-.68-.66A7.23,7.23,0,0,1,1331,895.56Z" transform="translate(-62.27 -9)" style="fill:#0c4a6e"/></g><g style="opacity:0.30000000000000004"><path d="M1409.7,1031.38c-.3-.17-12.19-7.19-6.7-23.18,5.55-16.19-2.78-66.75,60.28-104.91,0,0-21.8-.92-42.76,24.12a21.71,21.71,0,0,1-31.6,1.65c-3.63-3.46-7.27-6.31-10.42-7.61-11.41-4.7-15-3.77-30.56-12.54a47.55,47.55,0,0,0,21.87,15.31,23.45,23.45,0,0,1,2.64,1.06,22.41,22.41,0,0,1,5.14,3.41c1.52,1.36,2.94,2.7,4.29,4,10.87,10.72,16.27,20.59,18.53,29.94.28,1.16.52,2.31.7,3.46h.39a36.7,36.7,0,0,0,.09,3.92c1,11.4-2.06,22.12-4.4,32.83C1392.55,1024.1,1399.82,1032.42,1409.7,1031.38Z" transform="translate(-62.27 -9)" style="fill:#0c4a6e"/></g><path d="M1403.59,827a83.35,83.35,0,0,1,9.07-6.66,8.6,8.6,0,0,1,9.46.11c3.5,2.38,8.79,7.9,5.64,18.53,2.17,2.38,9.91,11.33,10.46,18.91.46,6.26,13.34,16.92,18.26,20.5h0c.37.28,9.08,7,10.69,25.29.93,10.54-.72,22.8-4.9,36.43C1457.1,957,1448,976.16,1435.13,997c-.59,1.24-7.26,15.26-10.67,20.33.06,2.34-.41,11.68-11.23,14.76-5.52,1.57-10.42.68-13.82-2.51-3.57-3.36-7.09-10.77-3.54-27,.33-1.48.66-3,1-4.46,4.68-20.6,9.51-41.9-20.18-68.39a20.84,20.84,0,0,0-7.31-4.2,49.06,49.06,0,0,1-21.77-14.86c-2.66,1.27-9.65,3.41-17.28-4.22a8.6,8.6,0,0,1-.37-11.76A108.41,108.41,0,0,1,1353.21,875a1.23,1.23,0,0,1,.26-.12c.33-.12,8.07-2.84,15.94,4.45,3.18,2.95,10.92,3.6,16.94-.18,3.7-2.32,9.3-8.11,5.43-20.87a18,18,0,0,1-1.3-11.64C1391.79,839.88,1396.19,833.29,1403.59,827Zm51.28,53.57c-2-1.44-18.71-13.86-19.35-22.48-.56-7.67-10.17-17.72-10.26-17.82a1.36,1.36,0,0,1-.32-1.36c2.94-9-.74-13.77-4.34-16.21a5.89,5.89,0,0,0-6.48-.08c-15.17,9.72-19.76,18.62-20.94,24.38-1.25,6.12,1,10.07,1,10.11a1.51,1.51,0,0,1,.13.29c3.27,10.65.89,19.43-6.54,24.1-6.49,4.07-15.75,4-20.22-.13-6.19-5.74-12.1-4.23-13-3.94A105.73,105.73,0,0,0,1332,896.45a5.9,5.9,0,0,0,.25,8.06c8.07,8.06,14.85,3.35,14.91,3.3a1.35,1.35,0,0,1,1.85.26,46.16,46.16,0,0,0,21.25,14.86,23.65,23.65,0,0,1,8.24,4.75c30.89,27.55,25.87,49.65,21,71-.33,1.48-.67,3-1,4.44-2.56,11.7-1.58,20.39,2.75,24.45,2.67,2.51,6.65,3.18,11.22,1.88,10.18-2.9,9.3-12,9.25-12.39a1.39,1.39,0,0,1,.24-.93c3.25-4.62,10.66-20.23,10.73-20.39l.08-.13c28.77-46.67,33.12-75.64,31.7-91.72C1463,887.05,1455.14,880.74,1454.87,880.54Z" transform="translate(-62.27 -9)" style="fill:#1c1917"/><path d="M1411,1030.1l1.5-1.95c.5-.67,1-1.34,1.48-2s.93-1.4,1.37-2.13a24.5,24.5,0,0,0,1.17-2.35,9,9,0,0,1,0,2.74,15.09,15.09,0,0,1-.7,2.66,18.16,18.16,0,0,1-1.15,2.49c-.22.41-.46.79-.71,1.18a11.67,11.67,0,0,1-.84,1.12,1.35,1.35,0,0,1-2.1-1.71Z" transform="translate(-62.27 -9)" style="fill:#1c1917"/><path d="M1405.31,1017.64a13.85,13.85,0,0,1-.34,3.08,23.31,23.31,0,0,1-.86,3,28,28,0,0,1-1.22,2.81,17.94,17.94,0,0,1-1.6,2.63,1.35,1.35,0,0,1-2.29-1.42v0c.43-.83.93-1.69,1.42-2.52l1.49-2.5,1.52-2.52c.5-.84,1-1.7,1.54-2.57h0a.17.17,0,0,1,.24-.06A.18.18,0,0,1,1405.31,1017.64Z" transform="translate(-62.27 -9)" style="fill:#1c1917"/><path d="M1433.17,922c32.25-28.62,57.66-21.82,57.66-21.82a5.62,5.62,0,0,1-.14,3.9s4.21,0,5.82,1.77,1.21,3.69,3.28,6.29,8.8,8.41,10.83,14.12c0,0,5.27,3.39,11.87,8.68,9.21,7.37,21,18.43,24.9,29.13.08.2.15.41.22.61,0,0,2.63,6.42-34.76,12.43-1.78.29-3.64.57-5.6.85h0c.24.17,7.39,5.17,7.73,11.9l-14.7,3.9s3.69,3.42,3.4,7.33l-10,2.37-8,1.89a280.74,280.74,0,0,1-8,31.64,5.77,5.77,0,0,1-7.32,3.7h0a5.75,5.75,0,0,1-2.21-1.37,241.71,241.71,0,0,1-30.82-37.94h0c-.56-.83-1.12-1.68-1.68-2.53l-1-.89-3.75-3.2c-2.63-2.26-5.91-5.11-8.71-7.62,0,0-3.75-2.15-5.49-2.42s-2-5.11-2-5.11a9.92,9.92,0,0,1-3.43.82C1409.44,980.44,1400.91,950.58,1433.17,922Z" transform="translate(-62.27 -9)" style="fill:#f0f9ff"/><path d="M1453.88,1023.71a272.36,272.36,0,0,1-18.28-24.88l-1-.89a33.36,33.36,0,0,1,59.12,5.5l-8,1.89a280.74,280.74,0,0,1-8,31.64,5.77,5.77,0,0,1-7.32,3.7h0a5.75,5.75,0,0,1-2.21-1.37A204.08,204.08,0,0,1,1453.88,1023.71Z" transform="translate(-62.27 -9)" style="fill:#0369a1"/><path d="M1453,1004.83a54,54,0,0,0,17.82-2.47s3.44,12.46,2.57,18.45l-7.71,5.46s-3-3.2-2.27-9.79C1463.42,1016.48,1454.73,1015.35,1453,1004.83Z" transform="translate(-62.27 -9)" style="fill:#fff"/><path d="M1510.62,926.23s4.93,9.66,5.58,17c0,0,9.86,1.68,11.18,11.5,0,0,6.12-1.86,9.7,1.54l-4.94,7.64s11,.8,15.26.12C1547.4,964,1540.51,945.77,1510.62,926.23Z" transform="translate(-62.27 -9)" style="fill:#fda4af"/><path d="M1435.6,998.83s9.81,4.59,17.41,6c0,0,2,10.62,10.41,11.65,0,0-1.07,5.55,2.27,9.79l7.71-5.46s.39,14.76-3.09,19.86h0a5.75,5.75,0,0,1-2.21-1.37C1461,1032.29,1448.79,1019,1435.6,998.83Z" transform="translate(-62.27 -9)" style="fill:#fda4af"/><g style="opacity:0.30000000000000004"><path d="M1433.17,922c32.25-28.62,57.66-21.82,57.66-21.82a5.62,5.62,0,0,1-.14,3.9s4.21,0,5.82,1.77,1.21,3.69,3.28,6.29c0,0-3.49-2.26-8.73,3.53-4.93,5.44-3.21,39.09-28.12,42.74,0,0-8.86,2.31-12.36-5.8-2.53-5.88,1.93-23,4.57-32a2,2,0,0,0-3.12-2.14c-6.7,5.21-18.76,15.9-26.2,30.34-8.65,16.78-3.41,34.93,5,46-2.63-2.26-5.91-5.11-8.71-7.62,0,0-3.75-2.15-5.49-2.42s-2-5.11-2-5.11a9.92,9.92,0,0,1-3.43.82C1409.44,980.44,1400.91,950.58,1433.17,922Z" transform="translate(-62.27 -9)" style="fill:#0c4a6e"/></g><g style="opacity:0.30000000000000004"><path d="M1487.63,974.61c.16-.13,10.58-8.8,25.22,2.47-1.78.29-3.64.57-5.6.85C1507.25,977.93,1499.54,971.59,1487.63,974.61Z" transform="translate(-62.27 -9)" style="fill:#0c4a6e"/></g><g style="opacity:0.30000000000000004"><path d="M1513.34,960.82l.29-4s14.95,3.66,26.59,4a1.08,1.08,0,0,0,1-1.63,134,134,0,0,0-18.68-24.23c9.21,7.37,21,18.43,24.9,29.13C1547.18,964.07,1533.46,966,1513.34,960.82Z" transform="translate(-62.27 -9)" style="fill:#000072"/></g><g style="opacity:0.30000000000000004"><path d="M1453.88,1023.71c5.08,4,10.68,7.73,13.33,9.46a1.17,1.17,0,0,0,1.81-.84,66.51,66.51,0,0,0-3.3-30.06l5.11.09c6.78,28.56-.52,38.31-.52,38.31h0a5.75,5.75,0,0,1-2.21-1.37A204.08,204.08,0,0,1,1453.88,1023.71Z" transform="translate(-62.27 -9)" style="fill:#0c4a6e"/></g><path d="M1434,919.42c16.18-13.82,30.51-18.74,39.82-20.42,10.56-1.91,17.06-.23,17.33-.16a1.41,1.41,0,0,1,.91.81,7,7,0,0,1,.32,3.16c1.58.19,3.85.71,5.11,2.11a8.48,8.48,0,0,1,1.69,3.17,9.44,9.44,0,0,0,1.64,3.17c.49.62,1.31,1.48,2.27,2.48,2.93,3.07,6.9,7.24,8.61,11.59,3.73,2.46,31.2,21,37.16,38.88a2.92,2.92,0,0,1-.37,2.39c-2.64,4.6-15.78,8.82-38.07,12.23,2.37,2.22,5.64,6.14,5.88,10.94a1.36,1.36,0,0,1-1,1.38l-12.59,3.34a10.34,10.34,0,0,1,2.3,6.68,1.35,1.35,0,0,1-1,1.21l-17.17,4.06a282.13,282.13,0,0,1-7.91,31,7.11,7.11,0,0,1-11.76,2.89c-7.73-7.6-19.65-20.79-32.57-40.55-1.11-.94-8.06-6.81-13.28-11.5a22.68,22.68,0,0,0-4.91-2.19c-1.89-.29-2.67-2.68-3-4.62a9.15,9.15,0,0,1-2.24.34c-1.29,0-1.88-1.5-2.14-2.15-1.24-3.19-2.66-11.47-.1-22.22,3.1-13,11.17-25.65,23.34-36.44Zm55.68-18.12a44.19,44.19,0,0,0-15.56.4c-9.26,1.7-23.75,6.79-40.09,21.28-15.89,14.1-21.3,28.21-23,37.56-1.82,9.78-.17,16.71.68,18.47a9.2,9.2,0,0,0,2.29-.65,1.35,1.35,0,0,1,1.92,1.15,8.5,8.5,0,0,0,1,3.87,26.06,26.06,0,0,1,5.87,2.57,1.31,1.31,0,0,1,.24.17c5.64,5.07,13.4,11.61,13.48,11.67a1.48,1.48,0,0,1,.26.3c12.83,19.64,24.65,32.73,32.31,40.26a4.41,4.41,0,0,0,7.29-1.79,280.84,280.84,0,0,0,8-31.48,1.32,1.32,0,0,1,1-1.07l17-4c-.35-2.81-2.91-5.24-2.94-5.27a1.35,1.35,0,0,1-.39-1.32,1.37,1.37,0,0,1,1-1l13.56-3.6c-1-5.56-7-9.73-7-9.78a1.34,1.34,0,0,1-.55-1.42,1.32,1.32,0,0,1,1.12-1c36.86-5.32,39.11-11.09,39.24-11.63-6-17.87-36.1-37.41-36.4-37.61a1.34,1.34,0,0,1-.54-.68c-1.42-4-5.49-8.24-8.19-11.07-1-1-1.86-2-2.43-2.66a12.24,12.24,0,0,1-2.07-4,6.15,6.15,0,0,0-1.15-2.25c-.91-1-3.63-1.33-4.81-1.32a1.36,1.36,0,0,1-1.26-1.87A4.27,4.27,0,0,0,1489.71,901.3Zm56.64,63.86Zm0,0Z" transform="translate(-62.27 -9)" style="fill:#1c1917"/><path d="M1509.42,926.85l2.4-1.24c.22.4,4.93,9.63,5.57,16.66,4,1,10,4.2,10.91,10.9,2.41-.47,6.88-.78,9.88,2.31a1.37,1.37,0,0,1,.15,1.7l-5.17,7.67-2.24-1.52,4.48-6.66c-3.1-2.09-7.86-.53-7.91-.51a1.34,1.34,0,0,1-1.78-1.28c0-8.42-9.73-10.15-9.83-10.17a1.35,1.35,0,0,1-1.13-1.29C1514.56,936.9,1509.47,927,1509.42,926.85Z" transform="translate(-62.27 -9)" style="fill:#1c1917"/><path d="M1513.66,959.5c20.39,4.82,33.43,3.22,33.56,3.2l.35,2.69c-.54.07-13.61,1.69-34.54-3.25Z" transform="translate(-62.27 -9)" style="fill:#1c1917"/><path d="M1506.4,979l-.21-.16-.23-.17-.49-.34c-.32-.23-.67-.44-1-.65s-.7-.4-1.06-.6-.72-.37-1.09-.54l-1.13-.5-1.15-.43c-.78-.24-1.56-.49-2.37-.66l-.6-.15-.61-.1c-.41-.06-.81-.15-1.22-.18a20.76,20.76,0,0,0-2.49-.12h-.63a3.19,3.19,0,0,0-.62,0c-.42,0-.84.06-1.26.08s-.84.08-1.27.12-.86.08-1.3.09h0a.09.09,0,0,1-.1-.1.1.1,0,0,1,0-.1c.39-.2.79-.37,1.2-.54a8.11,8.11,0,0,1,1.25-.45c.42-.11.85-.22,1.29-.31a4.66,4.66,0,0,1,.65-.12l.66-.07a21.51,21.51,0,0,1,2.67-.17c.44,0,.89,0,1.34,0l.67,0,.67.09a22.59,22.59,0,0,1,5.23,1.28l1.26.51c.41.2.82.39,1.22.6s.81.42,1.2.66l.59.37.29.2.32.23a1.35,1.35,0,0,1-1.66,2.14h0Z" transform="translate(-62.27 -9)" style="fill:#1c1917"/><path d="M1484.33,1005.07a14.81,14.81,0,0,1,.46-2c.19-.65.4-1.3.64-1.94s.47-1.28.74-1.91.54-1.27.85-1.9a.18.18,0,0,1,.24-.07.18.18,0,0,1,.09.13c.06.7.09,1.39.1,2.08s0,1.37,0,2.06-.06,1.36-.12,2a19.32,19.32,0,0,1-.31,2,1.36,1.36,0,0,1-2.66-.51Z" transform="translate(-62.27 -9)" style="fill:#1c1917"/><path d="M1469.35,1002.47l2.64-.6c6.58,28.7-.27,39.14-.57,39.57l-2.23-1.53,1.11.76-1.12-.75C1469.25,1039.82,1475.62,1029.8,1469.35,1002.47Z" transform="translate(-62.27 -9)" style="fill:#1c1917"/><path d="M1434.72,997.8a1.34,1.34,0,0,1,1.53-.16,60.16,60.16,0,0,0,16.76,5.87,1.35,1.35,0,0,1,1.09,1c2.25,9.61,9.33,10.66,9.63,10.7a1.35,1.35,0,0,1,1,.58,1.32,1.32,0,0,1,.19,1.09,11.59,11.59,0,0,0,1.14,7.53l6.6-4.72a1.35,1.35,0,1,1,1.57,2.2l-7.83,5.61a1.32,1.32,0,0,1-1,.23,1.3,1.3,0,0,1-.88-.58c-.13-.2-3-4.62-2.43-9.57-2.6-.79-8.07-3.38-10.31-11.59a63,63,0,0,1-16.73-6,1.36,1.36,0,0,1-.55-1.84A1.47,1.47,0,0,1,1434.72,997.8Z" transform="translate(-62.27 -9)" style="fill:#1c1917"/><path d="M1513.77,956.78a4.69,4.69,0,0,1,.76,2.19,6.53,6.53,0,0,1-.16,2.24,6.35,6.35,0,0,1-.94,2.09,4.27,4.27,0,0,1-1.81,1.49c.08-.82.21-1.48.3-2.14s.22-1.28.33-1.91.26-1.26.44-1.91a10.77,10.77,0,0,1,.79-2h0a.16.16,0,0,1,.22-.07A.1.1,0,0,1,1513.77,956.78Z" transform="translate(-62.27 -9)" style="fill:#1c1917"/><path d="M1475,1000.7a5.48,5.48,0,0,1-1.89,1.76,7.4,7.4,0,0,1-2.42.92c-.21,0-.42.08-.64.1l-.66,0c-.22,0-.44,0-.65,0l-.33,0-.32-.06a5.07,5.07,0,0,1-2.36-1.09,0,0,0,0,1,0,0h0c.87-.16,1.63-.21,2.38-.35.37,0,.74-.13,1.1-.18s.72-.13,1.08-.22c.72-.16,1.43-.32,2.17-.51s1.5-.37,2.34-.52h0a.16.16,0,0,1,.19.13A.17.17,0,0,1,1475,1000.7Z" transform="translate(-62.27 -9)" style="fill:#1c1917"/><path d="M1450.54,939.14a7.68,7.68,0,0,0-1.78,8.12,1.19,1.19,0,0,0,1.35.79,10.85,10.85,0,0,0,9-9.52,1.2,1.2,0,0,0-.83-1.29c-1.3-.4-3.92-.7-7.3,1.53A2.76,2.76,0,0,0,1450.54,939.14Z" transform="translate(-62.27 -9)" style="fill:#1c1917"/><path d="M1450.59,938.84a3.55,3.55,0,0,1,.31-.23c3.46-2.28,6.16-2,7.46-1.55a1.37,1.37,0,0,1,1,1.49,11,11,0,0,1-9.16,9.68,1.38,1.38,0,0,1-1.57-.91,7.88,7.88,0,0,1,1.83-8.31h0Zm4.84,6.49a10.37,10.37,0,0,0,3.51-6.83,1,1,0,0,0-.69-1.08c-1.24-.39-3.81-.7-7.15,1.5a3.47,3.47,0,0,0-.43.35,7.52,7.52,0,0,0-1.74,7.93,1,1,0,0,0,1.14.67A12,12,0,0,0,1455.43,945.33Z" transform="translate(-62.27 -9)" style="fill:#000072"/><path d="M1451,940.89l-.46-.36-.49-.37c-.33-.25-.68-.47-1-.69a12.78,12.78,0,0,0-2.12-1.07,9.15,9.15,0,0,0-1.07-.31,5.58,5.58,0,0,0-1.05-.13,4.8,4.8,0,0,0-2,.36,5.68,5.68,0,0,0-.93.51l-.23.15-.25.19-.49.39a17.39,17.39,0,0,0-1.81,1.72,21,21,0,0,0-3.11,4.19.08.08,0,0,1-.1,0,.07.07,0,0,1,0,0,5.72,5.72,0,0,1,0-3,8.76,8.76,0,0,1,1.22-2.76,15,15,0,0,1,1.91-2.29c.17-.17.36-.33.54-.5l.28-.25.31-.26a8,8,0,0,1,1.42-.9,7.42,7.42,0,0,1,3.34-.75,8.63,8.63,0,0,1,3.22.68,13.1,13.1,0,0,1,1.41.68,14.2,14.2,0,0,1,1.28.85,13.54,13.54,0,0,1,1.16,1c.18.17.36.34.53.53s.33.35.53.59a1.35,1.35,0,0,1-1.89,1.92Z" transform="translate(-62.27 -9)" style="fill:#1c1917"/><path d="M1450.21,940.32c-.2-.22-.33-.39-.48-.58s-.28-.38-.41-.58a11.26,11.26,0,0,1-.71-1.21,11.15,11.15,0,0,1-1-2.7,9.42,9.42,0,0,1-.21-3,9,9,0,0,1,.77-2.93,9.94,9.94,0,0,1,1.65-2.45,10.86,10.86,0,0,1,2.2-1.85,6.13,6.13,0,0,1,5.45-.74.15.15,0,0,1,.08.19.13.13,0,0,1,0,.07h0c-.78.55-1.48,1-2.12,1.4s-1.24.84-1.8,1.29a8.8,8.8,0,0,0-1.5,1.55,7.4,7.4,0,0,0-1,1.8,7,7,0,0,0-.33,4c.07.35.16.69.26,1a7.93,7.93,0,0,0,.37,1c.14.34.28.69.45,1l.26.49.24.45.08.13a1.35,1.35,0,0,1-2.19,1.56Z" transform="translate(-62.27 -9)" style="fill:#1c1917"/><path d="M1452.29,926.56s-8.14-2.54-15,.17c0,0-2,7.48,1.75,12.72,0,0,4.36-5.35,10.4-2C1449.4,937.47,1447.34,930,1452.29,926.56Z" transform="translate(-62.27 -9)" style="fill:#292524"/><path d="M1437.1,926.6l.08,0c6.88-2.7,15.08-.2,15.17-.17l.36.11-.32.22c-4.77,3.27-2.83,10.63-2.81,10.7l.11.43-.38-.22c-5.83-3.25-10,1.72-10.17,1.93l-.15.19-.14-.2c-3.76-5.24-1.8-12.79-1.78-12.86Zm14.77,0c-1.64-.44-8.54-2-14.46.23-.21.85-1.66,7.49,1.61,12.28.83-.89,4.83-4.71,10.11-2C1448.8,935.54,1447.89,929.69,1451.87,926.64Z" transform="translate(-62.27 -9)" style="fill:#000072"/><path d="M1446.24,925.54s-2,7.37-9.2,9.22a17.7,17.7,0,0,1,.21-8A23.32,23.32,0,0,1,1446.24,925.54Z" transform="translate(-62.27 -9)" style="fill:#dc2626"/><path d="M1437.1,926.59l.09,0a23.38,23.38,0,0,1,9.07-1.2h.22l-.06.22c0,.07-2.08,7.49-9.34,9.35l-.18,0,0-.18a17.93,17.93,0,0,1,.22-8.12Zm8.9-.88a23.69,23.69,0,0,0-8.6,1.16,17.35,17.35,0,0,0-.22,7.66C1443.39,932.84,1445.61,926.92,1446,925.71Z" transform="translate(-62.27 -9)" style="fill:#000072"/><path d="M1436.37,925.7a1.67,1.67,0,0,1,.39-.23c7.25-2.85,15.58-.31,15.93-.2a1.35,1.35,0,0,1,.37,2.41c-4.08,2.79-2.37,9.37-2.35,9.44a1.36,1.36,0,0,1-2,1.54c-5-2.76-8.55,1.47-8.7,1.65a1.37,1.37,0,0,1-1.09.49,1.34,1.34,0,0,1-1-.57c-4.08-5.69-2-13.52-2-13.85A1.47,1.47,0,0,1,1436.37,925.7Zm13.19,1.62a23.2,23.2,0,0,0-11.14.43c-.31,1.63-.88,5.94.86,9.53a9.43,9.43,0,0,1,8.4-2C1447.49,933.11,1447.64,929.86,1449.56,927.32Z" transform="translate(-62.27 -9)" style="fill:#1c1917"/><path d="M1446.07,957a6.2,6.2,0,0,1,2.36,2.3,8.27,8.27,0,0,1,1.15,3.24,8.47,8.47,0,0,1,.07.88c0,.14,0,.29,0,.44l0,.43c0,.3,0,.59-.07.88s-.11.57-.17.86l-.1.42c0,.14-.09.28-.13.41s-.19.55-.28.82c-.21.53-.48,1-.73,1.53a11.3,11.3,0,0,1-4.87,4.73,8.55,8.55,0,0,1-3.34.79,6.14,6.14,0,0,1-3.22-.76.15.15,0,0,1,0-.2.13.13,0,0,1,.09-.07h0a11.45,11.45,0,0,0,4.78-2.51,15.81,15.81,0,0,0,3.06-4c.18-.38.4-.74.58-1.12.08-.19.16-.38.25-.57s.09-.19.13-.29l.1-.28c.07-.2.14-.39.22-.58l.17-.59.08-.29.06-.3c0-.2.1-.4.12-.61a10.31,10.31,0,0,0,.08-2.56,12.6,12.6,0,0,0-.57-2.82v0a.16.16,0,0,1,.11-.21A.17.17,0,0,1,1446.07,957Z" transform="translate(-62.27 -9)" style="fill:#1c1917"/><path d="M1482.32,923a6.88,6.88,0,0,1,1.85,3.09,9.07,9.07,0,0,1,.3,3.75,7.89,7.89,0,0,1-.17,1c0,.16-.07.31-.1.47l-.15.46c-.11.3-.21.61-.33.9s-.27.58-.42.86l-.22.43-.25.39c-.17.27-.35.52-.53.78-.37.51-.79.95-1.2,1.42s-.9.84-1.36,1.24a17.58,17.58,0,0,1-1.55,1.05,10.85,10.85,0,0,1-1.72.82,6.92,6.92,0,0,1-.91.3l-.93.22a9.14,9.14,0,0,1-3.76-.1,6.69,6.69,0,0,1-3.19-1.7.17.17,0,0,1,0-.23.19.19,0,0,1,.12,0h0a12.72,12.72,0,0,0,5.76-1.32,17.27,17.27,0,0,0,4.34-3.33l.47-.52c.15-.17.33-.33.46-.51s.28-.36.43-.53l.22-.26.18-.28c.13-.19.26-.37.4-.55l.34-.57.17-.29.14-.3c.1-.2.22-.4.3-.61a10.8,10.8,0,0,0,.8-2.69,13.85,13.85,0,0,0,.19-3.14v0a.17.17,0,0,1,.17-.19A.17.17,0,0,1,1482.32,923Z" transform="translate(-62.27 -9)" style="fill:#000072"/><path d="M1457.36,933.25c3.68-11.84,6.3-32.66,6.61-35.15l0-.25c-7.1,7.68-11.39,6-11.39,6-10.49-8.24-2.6-19.75-2.6-19.75h0c19.37-14.22,33.06-16.84,41.59-1.28,2.82,5.14,3.17,12.72,2.36,20.56-1.62,15.88-7.94,32.84-7.94,32.84a24.34,24.34,0,0,1-9.27,18c-5.92,4.56-13.48,5.69-19,2.51C1447.71,950.88,1457.36,933.25,1457.36,933.25Z" transform="translate(-62.27 -9)" style="fill:#f0f9ff"/><g style="opacity:0.30000000000000004"><path d="M1457.36,933.25c3.68-11.84,6.3-32.66,6.61-35.15,6.29,2.36,3.06,19.28.45,29.58a62.89,62.89,0,0,1-3.77,10.64c-1.28,2.8-2.57,7.4-.37,12.11,3,6.42,13.5,4.46,16.5,3.75-5.92,4.56-13.48,5.69-19,2.51C1447.71,950.88,1457.36,933.25,1457.36,933.25Z" transform="translate(-62.27 -9)" style="fill:#0c4a6e"/></g><g style="opacity:0.30000000000000004"><path d="M1450,884.09c19.37-14.22,33.06-16.84,41.59-1.28,2.82,5.14,3.17,12.72,2.36,20.56-1.17-10.23-2.62-17.4-11.17-24.09C1473.76,872.19,1450.77,883.7,1450,884.09Z" transform="translate(-62.27 -9)" style="fill:#0c4a6e"/></g><path d="M1464,897.85c.8,3.13.43,6.13,0,9.11s-.86,6-1.36,8.95-1,6-1.64,8.92-1.33,5.92-2.21,8.86a.92.92,0,0,1-.09.23l0,.05c-.29.55-.59,1.18-.86,1.79s-.54,1.23-.79,1.86a37.7,37.7,0,0,0-1.28,3.8,28,28,0,0,0-.8,3.87,16.2,16.2,0,0,0-.09,3.8,9.19,9.19,0,0,0,1,3.4,7,7,0,0,0,2.27,2.49,8,8,0,0,0,.76.45,6.21,6.21,0,0,0,.82.4,11.84,11.84,0,0,0,1.73.61,13.44,13.44,0,0,0,3.7.44,17.74,17.74,0,0,0,7.36-1.87,21.17,21.17,0,0,0,3.29-2c.53-.38,1-.81,1.51-1.24s.94-.89,1.37-1.38a21.08,21.08,0,0,0,2.38-3.1,22,22,0,0,0,1.81-3.47l.2-.45c.06-.15.11-.31.16-.46l.33-.93c.18-.64.4-1.26.53-1.91a26.79,26.79,0,0,0,.64-3.91h0v0a1.37,1.37,0,0,1,.08-.35,172.28,172.28,0,0,0,6.54-24.81,87.48,87.48,0,0,0,1.43-12.65,34.8,34.8,0,0,0-1.41-12.24l-.26-.7a5.24,5.24,0,0,0-.28-.69l-.32-.66c-.11-.22-.2-.44-.34-.67a27.76,27.76,0,0,0-1.62-2.61,19.32,19.32,0,0,0-4.09-4.36,13.87,13.87,0,0,0-2.52-1.48l-.33-.16-.34-.13-.68-.25-.71-.2-.35-.1-.36-.06-.72-.14-.73-.09-.37,0H1477l-.75,0a19,19,0,0,0-3,.23,37.27,37.27,0,0,0-11.71,4.27c-1.87,1-3.7,2.1-5.51,3.22-.91.56-1.86,1.07-2.84,1.55a19.68,19.68,0,0,1-3.09,1.22.07.07,0,0,1-.08,0,0,0,0,0,1,0-.05,14.89,14.89,0,0,1,2.18-2.54,23.21,23.21,0,0,1,2.54-2.1c1.8-1.23,3.68-2.38,5.59-3.46a55,55,0,0,1,6-2.9,31.52,31.52,0,0,1,6.49-1.91,21.79,21.79,0,0,1,3.44-.33l.88,0h.44l.43,0,.88.08.88.16.43.08.43.11.86.23.85.3.41.15.41.19a16.46,16.46,0,0,1,3.08,1.76,22.34,22.34,0,0,1,4.83,5,31.07,31.07,0,0,1,1.83,2.88,8,8,0,0,1,.4.77l.39.8a7.27,7.27,0,0,1,.34.81l.3.81a37.66,37.66,0,0,1,1.64,13.37,89.34,89.34,0,0,1-1.51,13.11c-.8,4.3-1.84,8.55-3,12.74q-.89,3.15-1.89,6.26c-.68,2.08-1.39,4.12-2.17,6.19l.08-.38h0a30.47,30.47,0,0,1-.57,4.35c-.13.73-.35,1.43-.53,2.15l-.35,1.05c-.06.17-.11.35-.18.52l-.2.51a25.39,25.39,0,0,1-2,4,23.56,23.56,0,0,1-2.66,3.56c-.49.57-1,1.08-1.55,1.6s-1.11,1-1.71,1.44a23.23,23.23,0,0,1-3.78,2.4,20.92,20.92,0,0,1-8.72,2.25,15.35,15.35,0,0,1-8.88-2.46A10.28,10.28,0,0,1,1453,954a12.47,12.47,0,0,1-1.32-4.59,23.84,23.84,0,0,1,1.06-8.85c.41-1.4.9-2.76,1.44-4.1.28-.67.56-1.33.87-2s.61-1.29,1-2l-.12.28c.89-2.8,1.59-5.69,2.27-8.59s1.26-5.83,1.82-8.77,1-5.89,1.53-8.85a25.72,25.72,0,0,1,2.44-8.74h0Z" transform="translate(-62.27 -9)" style="fill:#1c1917"/><path d="M1473.7,954.81c.31-.49.66-1,1-1.58s.64-1.08.95-1.63c.6-1.11,1.2-2.23,1.73-3.37s1-2.32,1.46-3.51a32.24,32.24,0,0,0,1.11-3.66h0a.19.19,0,0,1,.22-.13.18.18,0,0,1,.13.17,23.4,23.4,0,0,1-.34,3.92,33.68,33.68,0,0,1-.92,3.85c-.39,1.26-.81,2.51-1.31,3.73a34.7,34.7,0,0,1-1.69,3.62,1.35,1.35,0,1,1-2.38-1.29.22.22,0,0,1,0-.08Z" transform="translate(-62.27 -9)" style="fill:#1c1917"/><path d="M1459.59,957.07c.38-.55.82-1.16,1.21-1.76l.61-.9.59-.92q1.17-1.85,2.21-3.79c.7-1.28,1.34-2.61,1.93-4s1.11-2.75,1.65-4.18h0a0,0,0,0,1,.06,0s0,0,0,0c0,.38,0,.76,0,1.15l0,.57,0,.58-.13,1.14-.2,1.14c0,.19-.07.38-.11.57l-.14.56c-.09.38-.18.75-.28,1.13-.23.73-.45,1.48-.73,2.2a32.78,32.78,0,0,1-1.91,4.23c-.37.68-.77,1.35-1.19,2a21.69,21.69,0,0,1-1.39,1.93,1.36,1.36,0,0,1-1.91.17,1.33,1.33,0,0,1-.24-1.81Z" transform="translate(-62.27 -9)" style="fill:#1c1917"/></g></svg>