<svg xmlns="http://www.w3.org/2000/svg" viewBox="0 0 336.13 421.86"><title>error-404-sky</title><g style="opacity:0.30000000000000004"><ellipse cx="179.04" cy="386.99" rx="157.09" ry="34.87" style="fill:#1c1917"/></g><path d="M102.13,207.39S84.31,147.2,88,135.55s8-9.74,15.36-10.69,28.26-.81,29.35-.27,5.71,6.26,6.25,10.2,8.56,48.7,5.3,54.14-30.74,18-30.74,18Z" transform="translate(-81.93 -39.07)" style="fill:#dc2626;fill-rule:evenodd"/><path d="M102.13,207.39s-1-3.25-2.39-8.4c5.16-.8,10.94-2.37,12.43-5.43,2.85-5.85-4.48-51.28-6.52-54.86s-13.05-3.77-13.05-3.77,7.21.82,15.77-5.17a8.1,8.1,0,0,0,3.26-5.44c8.93-.31,20.27-.13,21.06.27,1.09.54,5.71,6.26,6.25,10.2s8.56,48.7,5.3,54.14-30.74,18-30.74,18Z" transform="translate(-81.93 -39.07)" style="fill:#991b1b;fill-rule:evenodd"/><path d="M99.13,208.25c0-.19-19.61-67.79-16.38-72.18s45.29-3.28,45.41-3.28L128,139c-.11,0-38.18-1.12-39.52.69s16.59,66.62,16.65,66.8Z" transform="translate(-81.93 -39.07)" style="fill:#1c1917"/><path d="M84.87,135.25S86,123,93.27,121.54c2.53-.52,10.65-.81,18.71-.88,9.22-.09,18.65.17,20,.72,2.68,1.14,6.75,7.4,6.77,7.41l-5.22,3.46s-3.12-4.75-4-5.11c-.57-.24-8.93-.31-17.48-.23-7.72.07-15.38.32-17.51.76-2.68.55-3.42,8.17-3.42,8.19Z" transform="translate(-81.93 -39.07)" style="fill:#1c1917"/><path d="M107.8,122.25c0-.06,3.55-18.79,8.57-22.26,4.49-3.09,10.83-4.3,10.85-4.31l1.15,6.15a26.31,26.31,0,0,0-8.44,3.31c-2.87,2-6,18.24-6,18.28Z" transform="translate(-81.93 -39.07)" style="fill:#1c1917"/><path d="M132,176s-.36,8.54.48,9.59,41.17,1.09,41.58.55-1.23-8.3-1.36-8.64S158.24,164.67,132,176" transform="translate(-81.93 -39.07)" style="fill:#e54b47;fill-rule:evenodd"/><path d="M117.63,198.43c1.61-4.62,3.22-7.85,6.16-9.41,5.23-2.79,56.18-2.49,61.89.4s9.31,13.61,8,16.67c-.95,2.24-43.08,1.89-65.4,1.55-10.45-.16-14.3,1.14-10.67-9.21" transform="translate(-81.93 -39.07)" style="fill:#f6b430;fill-rule:evenodd"/><path d="M150.76,187.08c15.26,0,31.81.77,34.92,2.34,5.71,2.9,9.31,13.61,8,16.67-.95,2.24-43.08,1.89-65.4,1.55-4.22-.06-7.37.11-9.38-.34a19.37,19.37,0,0,1-2.43-1.81c-.37-1.06-.22-2.64.47-5,0,0,17.44,1.37,28.5-2.43s5.31-11,5.3-11" transform="translate(-81.93 -39.07)" style="fill:#e78d19;fill-rule:evenodd"/><path d="M129.42,187.46S126.83,175,132.61,172c2.47-1.28,15-2.4,25.51-2.18,8.19.17,15.55,1.31,17.39,4,3.5,5.21,1.84,13.91,1.83,13.93l-6.15-1.13s1.19-6.24-.88-9.32c-.5-.75-5.92-1.14-12.32-1.27-9.66-.2-20.72.57-22.51,1.49-1.55.81.06,8.68.07,8.7Z" transform="translate(-81.93 -39.07)" style="fill:#b42223"/><path d="M122.88,194.22a27.52,27.52,0,0,0-2.3,5.24c-1.21,3.46-1.52,4.62-1.29,4.7a23.81,23.81,0,0,0,5.75.34c1,0,2.13,0,3.3,0,11.15.17,27.24.34,40.65.19,12.29-.14,21.7.47,21.83.16.4-1-.36-3.89-1.81-6.92-1.2-2.49-2.86-4.78-4.74-5.73-2.41-1.23-15.94-1.92-29.6-2s-27.25.41-29.41,1.56a6.45,6.45,0,0,0-2.38,2.45m-8.21,3.18a34.13,34.13,0,0,1,2.87-6.46,12.34,12.34,0,0,1,4.78-4.68c3.09-1.65,17.81-2.39,32.37-2.3s29.13,1,32.4,2.67,5.83,5.05,7.55,8.63c2.16,4.48,3,9.61,1.94,12s-13,3.5-27.54,3.66c-13.47.15-29.6,0-40.77-.19-1.17,0-2.24,0-3.23,0-3.35,0-5.85,0-7.8-.69C112.73,208.49,111.91,205.3,114.67,197.4Z" transform="translate(-81.93 -39.07)" style="fill:#1c1917"/><path d="M129.9,168.56c.13,2.87.94,7.24,4.56,8.82,5.57,2.45,8.56-4,10-4.62s.82,6.12,6.66,6.19,4.21-6.46,7.61-6.87,2.85,4.49,8.15,5.64,7.61-2.58,8.63-7-.88-5.17-1.7-5.31-30.46.19-40.58.38c-3.41.06-3.52-.67-3.38,2.77" transform="translate(-81.93 -39.07)" style="fill:#6bae33;fill-rule:evenodd"/><path d="M128.45,175.66a17.13,17.13,0,0,1-1.67-7c-.22-5-.1-5.88,4-6.06.32,0,.66,0,1.09,0s.85,0,1.37,0c5.34-.09,16.22-.22,25.39-.31,8.3-.08,15.28-.1,15.76,0a5.2,5.2,0,0,1,3.71,2.54c.8,1.34,1.25,3.4.52,6.55a14.3,14.3,0,0,1-3.57,7.12c-2.1,2.07-4.93,3.08-8.77,2.25a10.29,10.29,0,0,1-6.8-4.84c-.29-.4-.12-.78-.32-.76-.38.05.17.43-.05,1-1.18,2.82-2.5,6-8,5.92-4.18,0-6.16-2.07-7.31-4.17-2.32,2.32-5.65,4.54-10.64,2.35a9.68,9.68,0,0,1-4.74-4.59m4.61-6.74a10.43,10.43,0,0,0,.95,3.88,3.57,3.57,0,0,0,1.71,1.72c2,.89,3.82-1.13,5-2.43a7.45,7.45,0,0,1,2.64-2.22c3.53-1.45,4.25.5,5.28,3.29.38,1,1,2.65,2.59,2.66,1.25,0,1.72-1.09,2.13-2.07,1-2.3,1.83-4.39,5.09-4.78,3.44-.42,4.65,1.27,6.13,3.33a5,5,0,0,0,3.05,2.36,3.15,3.15,0,0,0,3.07-.58,8.48,8.48,0,0,0,1.85-4.06,8.37,8.37,0,0,0,.25-1.53c-1.79,0-7.45,0-14.09.11-9.11.08-20,.21-25.34.31Z" transform="translate(-81.93 -39.07)" style="fill:#145232"/><path d="M183.19,163.59c2.41-.34,4.07-.72,4.67-1.17,4.29-3.18,4.48-22.17-14.13-31.15-16.67-8-41.13-5.31-51.46,11.55-5.69,9.29-9.53,23.38,1.67,23.68,8.28.23,17.11.19,26-.14,11.39-.42,22.84-1.32,33.29-2.77" transform="translate(-81.93 -39.07)" style="fill:#f6b430;fill-rule:evenodd"/><path d="M183.19,163.59c2.41-.34,4.07-.72,4.67-1.17,4.29-3.18,4.48-22.17-14.13-31.15a42.08,42.08,0,0,0-4.15-1.72c-6.13-1.7-13.49-2.47-22.52-2.08h0c.26,0,17,3.66,15.07,14.06s-21.38,18.07-34.79,16.05L117,156c-.93,5.67.57,10.31,6.94,10.48,8.28.23,17.11.19,26-.14,11.39-.42,22.84-1.32,33.29-2.77" transform="translate(-81.93 -39.07)" style="fill:#e78d19;fill-rule:evenodd"/><path d="M187,166.07c-.89.22-2,.43-3.4.62-5.24.72-10.64,1.31-16.09,1.76-5.63.47-11.52.82-17.52,1-4.37.16-8.78.25-13.16.27s-8.79,0-13-.13a11.61,11.61,0,0,1-5.76-1.54,8.79,8.79,0,0,1-3.63-4.33,13.11,13.11,0,0,1-.84-5.33c.14-5.38,2.79-12.05,6-17.24,5.38-8.78,14.17-14,23.86-16.23a49.67,49.67,0,0,1,31.63,3.49,33.55,33.55,0,0,1,12.61,10.19,28.66,28.66,0,0,1,5.41,12.9A18.89,18.89,0,0,1,192,162.07a7.56,7.56,0,0,1-2.26,2.86,7.74,7.74,0,0,1-2.7,1.14m-4.26-5.58a27.42,27.42,0,0,0,2.74-.5c.38-.09.44,0,.5-.08a2,2,0,0,0,.35-.56,12.86,12.86,0,0,0,.56-6.93,22.41,22.41,0,0,0-4.23-10,27.31,27.31,0,0,0-10.31-8.28,43.3,43.3,0,0,0-27.54-3c-8.13,1.83-15.48,6.19-19.89,13.39-2.7,4.41-5,9.92-5.07,14.13a7.35,7.35,0,0,0,.41,2.83,2.65,2.65,0,0,0,1.08,1.33,5.26,5.26,0,0,0,2.65.64c4.18.11,8.47.16,12.82.13s8.57-.11,13-.27c5.65-.21,11.44-.55,17.23-1C172.49,161.75,177.78,161.18,182.76,160.49Z" transform="translate(-81.93 -39.07)" style="fill:#1c1917"/><path d="M243.84,208.52s-149.47-1.63-155,2.86-3.13,14.42-1,16.12,65.34,2.66,65.34,2.66,108.1,1.53,109.46.72,10.2-11.12,10.6-12.5-29.48-9.86-29.48-9.86" transform="translate(-81.93 -39.07)" style="fill:#dedada;fill-rule:evenodd"/><path d="M243.84,208.52s-6-.06-15.55-.13a11.69,11.69,0,0,0,2.23,5.57c2.31,3,1.77,9.12-36,9.12-30.48,0-87.73-.27-108.73-.37.44,2.29,1.3,4.14,2.13,4.79,2.17,1.7,65.34,2.66,65.34,2.66s63.38.9,93.69,1a20.88,20.88,0,0,0,4.23-1.91c8.73-5.68,16.9-9.34,18-12.82-8.11-3-25.36-7.86-25.36-7.86" transform="translate(-81.93 -39.07)" style="fill:#57534e;fill-rule:evenodd"/><path d="M102.13,204.92H240.2c7.07,3.85,19.61,10.77,19.95,11.7.26.72-2.49,2.53-5.07,4V216c0-.85-1.22-1.85-3.19-2.76a26.38,26.38,0,0,0-10.74-2h-139a26.42,26.42,0,0,0-10.74,2c-2,.91-3.18,1.91-3.18,2.76v6.8c0,.85,1.22,1.84,3.18,2.76a26.42,26.42,0,0,0,10.74,2H154.2c-.34,1.94-.74,4.28-1,6.27h-51a32.55,32.55,0,0,1-13.36-2.62c-4.22-2-6.84-4.93-6.84-8.44V216c0-3.51,2.62-6.48,6.84-8.44a32.55,32.55,0,0,1,13.36-2.63" transform="translate(-81.93 -39.07)" style="fill:#1c1917"/><path d="M373.41,206.82s3.6.07,6,12,3.2,76.45.14,83.59-16.65,10.82-19.84,12-23.87.82-23.87.82l-11.53,26.61s12.93,71.43,10.53,77.93-48.58,19.66-54.49,13.74-1.22-13.54-.68-14.69,2-7.76,1.64-9.66S276.93,395,276.93,395l-3.26.07s-29.29,37.21-33.09,38-60.06-10.2-61.83-21,5-19.93,11.42-23.54,24.05-13.4,31.66-29.31,13.82-45.6,13.82-45.6l-.78-4s-3-.82-4.41-7.42-.13-23.31-.13-23.31-49.4-7.3-62.18-17.09-14.94-30.62-14.94-32.37,6.11-9.39,15.35-7.62,13.18,7.07,29.9,6.53,49.73-6.81,51.09-7.21,8.53-5.83,8.53-5.83Z" transform="translate(-81.93 -39.07)" style="fill:#f4f3f3;fill-rule:evenodd"/><path d="M157.69,232.6s7.09,22.49,26,30.33,72.56,12.52,85.87,12.66a90.62,90.62,0,0,0,23.92-3s-19.65-4.21-49.73-8.57-57.48,3.4-86-31.42" transform="translate(-81.93 -39.07)" style="fill:#d6d3d1;fill-rule:evenodd"/><path d="M256.35,219.87s6.24,9.6,30.57,12,45-5.17,45.79-5.17-.76-4.34-.95-5-41.27,1.51-52.45-.82a143.37,143.37,0,0,1-16.14-4.07Z" transform="translate(-81.93 -39.07)" style="fill:#d6d3d1;fill-rule:evenodd"/><path d="M275.5,288.92s7.34,9.25,26.5,9.65,22-9.52,22-9.52l10.47-3.16s7,8.3.73,13.55-60.41,5.91-63.21,5.3-1.79-24.64-1.66-23.85S302,276.27,302,276.27a27.21,27.21,0,0,0,17.14,6.8c10.46.25,15.29-1.73,15.29-1.73s-3.2,8-21.13,8.26-37.78-.68-37.78-.68" transform="translate(-81.93 -39.07)" style="fill:#d6d3d1;fill-rule:evenodd"/><path d="M258.45,279.26s1.56,24.48-.41,27.95a7,7,0,0,1-6.05,3.27s12.17,2.24,15-2.65,1.63-18,1.15-21.7-1-6.4-2.65-6.8-7.06-.07-7.06-.07" transform="translate(-81.93 -39.07)" style="fill:#d6d3d1;fill-rule:evenodd"/><path d="M368.72,210.29s4.75,39.18,4.35,62,1.22,26.39-4.35,30.06-26,9.4-31.12,4.22-4.08-85.43-4.08-85.43l11.2-5.07s20.89-1.13,24-5.81" transform="translate(-81.93 -39.07)" style="fill:#d6d3d1;fill-rule:evenodd"/><path d="M335.46,316.21l-11.11,25.64s12.93,71.43,10.53,77.93-48.58,19.66-54.49,13.74-1.22-13.54-.68-14.69,2-7.76,1.64-9.66S276.93,395,276.93,395l-3.26.07s-29.29,37.21-33.09,38-60.06-10.2-61.83-21a21.61,21.61,0,0,1,.61-9.64c16.24,11,36.9,13.65,46.27,10.79S253.22,367.27,251,342s-13.31-26.8-13.31-26.8c-.89.08-1.71.13-2.48.16.26-1.16.4-1.82.4-1.82L235,310.3c7.82.89,19.68,1.94,26.08,1.06,9.92-1.36,8.1-7.23,8.1-7.23s3.31,1,20.91,3.29,44.77-5.31,44.77-5.31Z" transform="translate(-81.93 -39.07)" style="fill:#d6d3d1;fill-rule:evenodd"/><path d="M289,434.94c-4.19.24-7.35-.14-8.63-1.42-5.91-5.92-1.22-13.54-.68-14.69s2-7.76,1.64-9.66S276.93,395,276.93,395l-2.88.06c5-8.23,10.22-16,11.24-16.86-.94-1-2.88,3.67-2.88,3.67s3,25.58,4.91,28.44,12.1,3.81,10.2,15.1c-.78,4.6-4.31,7.67-8.5,9.58" transform="translate(-81.93 -39.07)" style="fill:#f4f3f3;fill-rule:evenodd"/><path d="M250.2,288.37A9.49,9.49,0,0,1,248.62,300c-3.36,3.13-11.26,3.6-13-1.58-.19-.57-.18-1,.08-1.17a4.73,4.73,0,0,1,2.09-.42c5.05-.35,7.39-1.85,8.38-6.91.28-1.4.18-2.49,1.14-3a1.61,1.61,0,0,1,1.92.22,4,4,0,0,1,1,1.3" transform="translate(-81.93 -39.07)" style="fill:#fbbf24;fill-rule:evenodd"/><path d="M249.85,294.21a7.6,7.6,0,0,0-1-5l0-.05,0-.07a2.94,2.94,0,0,0-.59-.79.42.42,0,0,0-.13-.09l-.05,0a3,3,0,0,0-.2,1c-.05.31-.1.64-.16,1-.57,2.92-1.58,4.85-3.24,6.16s-3.74,1.82-6.57,2l-.58,0a3.87,3.87,0,0,0,.6.86,5,5,0,0,0,3.1,1.42,9.22,9.22,0,0,0,4.06-.44,6.91,6.91,0,0,0,2.5-1.42,7.64,7.64,0,0,0,2.3-4.59m1.72-6.6a11.08,11.08,0,0,1-1.88,13.48,10.25,10.25,0,0,1-3.63,2.1,12.41,12.41,0,0,1-5.48.57,8.14,8.14,0,0,1-5-2.39,6.85,6.85,0,0,1-1.49-2.5,3.72,3.72,0,0,1-.21-1.34,2,2,0,0,1,.9-1.63h0a3.9,3.9,0,0,1,1.45-.53c.41-.07.88-.11,1.4-.15,2.21-.15,3.8-.52,4.85-1.35s1.68-2.14,2.09-4.29c.06-.29.1-.56.14-.8.2-1.41.35-2.5,1.79-3.29a3.14,3.14,0,0,1,1.9-.4,3.37,3.37,0,0,1,1.76.77A5.77,5.77,0,0,1,251.57,287.61Z" transform="translate(-81.93 -39.07)" style="fill:#1c1917"/><path d="M240.07,50s50.56-28.71,109,17.61c34.25,27.14,48.28,70,36.25,102.82-33.47,91.25-174.23,57.67-193-30.43-7-33,2.45-50.27,10.21-63.17C215.46,55.35,234.06,51.73,240.07,50" transform="translate(-81.93 -39.07)" style="fill:#f5f5f4;fill-rule:evenodd"/><path d="M240.07,50s50.56-28.71,109,17.61a111.73,111.73,0,0,1,26.48,30.05c1.5,5.56,2.17,9,2.17,9S371.92,93.25,353.18,78,316.1,56.09,314.9,58.92s-5.9,9.17-14.32,5S293.72,49.2,281.77,49.7s-36.37,5.59-36.37,5.59a9.35,9.35,0,0,1-6.53-5c.45-.09.86-.18,1.2-.28" transform="translate(-81.93 -39.07)" style="fill:#fff;fill-rule:evenodd"/><path d="M285.45,136.05s19.27,8,20.85,31.84-9.86,41.64-19.14,45.44-17.62-3-17.62-3Z" transform="translate(-81.93 -39.07)" style="fill:#d6d3d1;fill-rule:evenodd"/><path d="M230.62,100.26s15.08,8.57,17.64,32.23S234.91,191.27,233,192.3s-15.27-.25-17.23-3.74,14.83-88.3,14.83-88.3" transform="translate(-81.93 -39.07)" style="fill:#d6d3d1;fill-rule:evenodd"/><path d="M197.56,110.66c2.35-1,4.5-1.93,6.89-3,5-2.26,6.7,8.11,7.59,8.43s14.84,69,89.23,74.32c34.37,2.47,68.36-24.37,77.11-66.57,0,0,10.21,26.26-6.92,54.84-7.23,12.05-13.89,23-26.57,30.18-17.38,9.81-42.41,13-62.29,7.42-34.15-9.65-53.93-20.9-72-47.82a86.67,86.67,0,0,1-8.16-14.52c-.29-.85-.68-1.84-1.16-3-.27-.72-.5-1.31-.74-1.82-6.62-17.15-3.45-35.5-3-38.47" transform="translate(-81.93 -39.07)" style="fill:#d6d3d1;fill-rule:evenodd"/><path d="M347.13,70.09C284.46,20.43,176,48.27,195.37,139.38c5.51,25.87,21.94,46.91,43.07,61.22a122.44,122.44,0,0,0,53.65,20.1c18.67,2.21,37.28-.29,53.13-8.32,16.2-8.21,29.55-22.25,37.17-43,5.82-15.88,5.24-34.29-1-52a105.85,105.85,0,0,0-34.25-47.27m3.89-4.9a112.13,112.13,0,0,1,36.27,50.08c6.72,19.07,7.3,39,1,56.26-8.21,22.37-22.66,37.53-40.2,46.42-17,8.62-36.86,11.31-56.71,9a128.73,128.73,0,0,1-56.41-21.11c-22.38-15.15-39.81-37.53-45.69-65.12C168.21,42,283.58,11.75,351,65.19Z" transform="translate(-81.93 -39.07)" style="fill:#1c1917"/><path d="M217.53,93.89c15.21,1.61,25.19,25.23,22.29,52.75S222.21,195.18,207,193.57s-25.2-25.23-22.29-52.75,17.6-48.53,32.82-46.93" transform="translate(-81.93 -39.07)" style="fill:#0ea5e9;fill-rule:evenodd"/><path d="M209.41,193.64a14.94,14.94,0,0,1-2.41-.07c-15.22-1.6-25.2-25.23-22.29-52.75.32-3,.78-5.95,1.36-8.78-.13.69-3.32,18.21,18.63,23.48,22.39,5.37,30-23.65,30-23.65s2,27.24-11,48.77c-4.12,6.81-9.14,10.82-14.23,13" transform="translate(-81.93 -39.07)" style="fill:#0284c7;fill-rule:evenodd"/><path d="M232.58,111.76c-3.59-8.49-9-14.07-15.38-14.75s-12.85,3.66-18.13,11.21c-5.65,8.08-9.84,19.7-11.24,32.93s.28,25.47,4.12,34.55c3.58,8.49,9,14.08,15.38,14.75s12.84-3.66,18.12-11.21c5.65-8.08,9.85-19.7,11.25-32.93s-.28-25.46-4.12-34.55m-14.72-21c8.83.94,16,8,20.49,18.57,4.23,10,6.09,23.34,4.59,37.63s-6.12,26.94-12.35,35.85c-6.59,9.43-15.09,14.8-23.92,13.87s-16-8-20.5-18.56c-4.23-10-6.09-23.35-4.58-37.64s6.11-26.94,12.34-35.84C200.53,95.21,209,89.84,217.86,90.77Z" transform="translate(-81.93 -39.07)" style="fill:#0369a1"/><path d="M282.11,138.52c10.7,1.13,17.71,17.73,15.67,37.08s-12.37,34.12-23.07,33S257,190.86,259,171.51s12.37-34.12,23.07-33" transform="translate(-81.93 -39.07)" style="fill:#0ea5e9;fill-rule:evenodd"/><path d="M281,178.55s5.84-1,8.88-4.53a22.58,22.58,0,0,0,4.19-7.9s-.85,22.3-10.76,33.88-14.59,6.19-18.18.13-5.33-17.46-4.81-24.31a65,65,0,0,1,2.29-12.62s-1.88,12,4.7,18.22S281,178.55,281,178.55" transform="translate(-81.93 -39.07)" style="fill:#0284c7;fill-rule:evenodd"/><path d="M291.84,151.44c-2.39-5.65-5.93-9.37-10.06-9.8s-8.36,2.45-11.88,7.48c-3.89,5.56-6.78,13.57-7.74,22.72s.18,17.58,2.82,23.83c2.39,5.65,5.93,9.37,10.06,9.8S283.4,203,286.92,198c3.89-5.56,6.78-13.57,7.74-22.72s-.18-17.58-2.82-23.83m-9.4-16c6.57.69,11.89,5.85,15.17,13.62,3,7.17,4.37,16.71,3.29,26.91s-4.38,19.25-8.84,25.63c-4.83,6.92-11.11,10.85-17.68,10.15s-11.89-5.85-15.17-13.62c-3-7.17-4.37-16.71-3.29-26.91s4.38-19.25,8.84-25.63C269.59,138.63,275.87,134.7,282.44,135.4Z" transform="translate(-81.93 -39.07)" style="fill:#0369a1"/><path d="M209.15,110c6.66.7,10.45,16.42,8.48,35.09s-9,33.25-15.62,32.55-10.45-16.42-8.48-35.09,9-33.25,15.62-32.55" transform="translate(-81.93 -39.07)" style="fill:#e0f2fe;fill-rule:evenodd"/><path d="M218,140.55c-.05.84-.11,1.68-.18,2.53l-24.59,15.06c-.07-.84-.12-1.71-.15-2.59Zm-.28-13.37a75.05,75.05,0,0,1,.43,8.45L193,150.51c0-2.58.22-5.26.51-8,.07-.65.14-1.3.22-1.94Z" transform="translate(-81.93 -39.07)" style="fill:#fff;fill-rule:evenodd"/><path d="M213.58,121.48c-1.21-5-2.89-8.21-4.76-8.41s-4.18,2.58-6.41,7.23c-2.68,5.59-4.81,13.54-5.76,22.53s-.53,17.21.93,23.23c1.21,5,2.89,8.21,4.76,8.41s4.18-2.58,6.41-7.23c2.68-5.59,4.81-13.54,5.76-22.53s.53-17.21-.93-23.23m-4.1-14.65c4.79.51,8.34,5.51,10.19,13.2,1.62,6.68,2.1,15.66,1.08,25.34s-3.37,18.36-6.35,24.56c-3.42,7.13-7.93,11.29-12.72,10.78s-8.34-5.51-10.19-13.2c-1.62-6.68-2.1-15.66-1.08-25.34s3.37-18.36,6.35-24.56C200.18,110.48,204.69,106.32,209.48,106.83Z" transform="translate(-81.93 -39.07)" style="fill:#0369a1"/><path d="M275.29,152.75c4.1.44,6.44,10.12,5.22,21.62s-5.52,20.49-9.62,20.06-6.44-10.12-5.23-21.62,5.53-20.49,9.63-20.06" transform="translate(-81.93 -39.07)" style="fill:#e0f2fe;fill-rule:evenodd"/><path d="M280.69,172.29c0,.69-.11,1.38-.18,2.08l0,.2-14.9,9.12c-.07-.71-.13-1.45-.18-2.2Zm-.62-12.07a39.35,39.35,0,0,1,.76,7.48c-4.74,2.78-10,5.87-15.45,9.1,0-1.3.14-2.63.28-4,.18-1.72.43-3.37.74-4.95Z" transform="translate(-81.93 -39.07)" style="fill:#fff;fill-rule:evenodd"/><path d="M276.85,160.14c-.63-2.58-1.31-4.2-1.89-4.27s-1.59,1.39-2.74,3.78A48.28,48.28,0,0,0,269.33,187c.62,2.58,1.3,4.21,1.88,4.27s1.6-1.39,2.74-3.78a48.38,48.38,0,0,0,2.9-27.39m-1.23-10.51c3.51.38,6.05,3.81,7.32,9.06a54.25,54.25,0,0,1-3.33,31.53c-2.34,4.87-5.54,7.7-9.05,7.33s-6.06-3.81-7.33-9.06A54.25,54.25,0,0,1,266.56,157C268.9,152.09,272.1,149.26,275.62,149.63Z" transform="translate(-81.93 -39.07)" style="fill:#0369a1"/><path d="M377.35,152.88c12.88,9.7,13.45,30.69,1.26,46.86s-32.5,21.43-45.38,11.73-13.45-30.69-1.27-46.86,32.51-21.43,45.39-11.73" transform="translate(-81.93 -39.07)" style="fill:#f4f3f3;fill-rule:evenodd"/><path d="M359.24,214.37c-9.18,3.28-18.77,2.55-26-2.9-12.88-9.7-13.45-30.69-1.27-46.86A47.55,47.55,0,0,1,335.9,160c1.25-.23,2-.34,2-.34s-7.5,11.62-2.7,16.41,17.72-8.71,17.72-8.71-21.22,27.11,1.81,43.07a29.87,29.87,0,0,1,4.55,3.91" transform="translate(-81.93 -39.07)" style="fill:#d6d3d1;fill-rule:evenodd"/><path d="M384.25,174c-.2-7.54-3.14-14.33-8.77-18.57h0c-5.64-4.25-13-5.21-20.3-3.32a38.57,38.57,0,0,0-20.7,14.41h0a38.59,38.59,0,0,0-8.14,23.91c.2,7.54,3.14,14.33,8.77,18.57h0c5.64,4.25,13,5.21,20.3,3.32a38.56,38.56,0,0,0,20.71-14.41h0A38.65,38.65,0,0,0,384.25,174m-5-23.58c7.25,5.46,11,14,11.29,23.43a44.77,44.77,0,0,1-9.23,27.58h0l-.16.22A44.94,44.94,0,0,1,357,218.34a31.88,31.88,0,0,1-17.15-.09,26.81,26.81,0,0,1-8.23-4.11h0l-.22-.16c-7.25-5.46-11-14-11.28-23.43A44.76,44.76,0,0,1,329.29,163h0l.16-.22A44.9,44.9,0,0,1,353.62,146c9-2.33,18.17-1.11,25.37,4.2h0Z" transform="translate(-81.93 -39.07)" style="fill:#1c1917"/><path d="M377.29,169.09c8.47,6.37,8.84,20.17.83,30.81s-21.37,14.09-29.84,7.71-8.85-20.18-.83-30.81,21.37-14.09,29.84-7.71" transform="translate(-81.93 -39.07)" style="fill:#f4f3f3;fill-rule:evenodd"/><path d="M376.14,175.3A19.85,19.85,0,0,1,378,193.37c-4,10.08-12.77,19-23,15.89S344.83,191.39,348,185s9.83-10.64,9.83-10.64-7.58,11.9,0,19.69,24.6-5.74,18.32-18.74" transform="translate(-81.93 -39.07)" style="fill:#d6d3d1;fill-rule:evenodd"/><path d="M380.75,183c-.12-4.64-1.91-8.8-5.34-11.38s-7.93-3.16-12.44-2a25.54,25.54,0,0,0-18.16,24.13c.13,4.64,1.92,8.81,5.34,11.38s7.94,3.17,12.44,2A25.5,25.5,0,0,0,380.75,183m-1.59-16.39c5,3.8,7.68,9.73,7.86,16.24a31.81,31.81,0,0,1-22.87,30.34c-6.3,1.63-12.72.74-17.75-3s-7.67-9.72-7.85-16.24a31.78,31.78,0,0,1,22.87-30.34C367.72,161.9,374.13,162.79,379.16,166.58Z" transform="translate(-81.93 -39.07)" style="fill:#1c1917"/><path d="M335.7,218.2c0,.22,6.7,78,1,102a81.59,81.59,0,0,1-15.89,32.07,123.69,123.69,0,0,1-25.3,23.5C286,382.59,273,399.2,262,413.06c-9.56,12.13-17.55,22.26-21.63,23.11s-21-3.09-36.06-8.11c-12.24-4.08-23.52-9-26.24-12.87a12.1,12.1,0,0,1-1.26-2.28c-1.78-4.27-1.21-9.66.77-14.6a27.21,27.21,0,0,1,8.92-11.86,15.76,15.76,0,0,1,3-1.67,43.88,43.88,0,0,0,9.71-5.18c3.15-2.28,6.74-5.55,12.19-11,10.51-10.52,23.53-61.22,23.57-61.36l6.05,1.57c0,.15-13.48,52.51-25.19,64.22-5.66,5.67-9.46,9.13-13,11.64a49.69,49.69,0,0,1-11,5.9,8.87,8.87,0,0,0-1.78,1,20.81,20.81,0,0,0-6.71,9.07c-1.42,3.54-1.9,7.21-.79,9.86a5.12,5.12,0,0,0,.59,1.08c1.87,2.67,11.93,6.82,23.11,10.55,14.18,4.74,29.64,8.57,32.8,7.92,1.84-.39,9.18-9.71,18-20.87C268.27,395,281.65,378,291.9,370.71a118,118,0,0,0,24-22.28,75.41,75.41,0,0,0,14.69-29.62c5.45-23-1.14-99.88-1.16-100.1Z" transform="translate(-81.93 -39.07)" style="fill:#1c1917"/><path d="M327.43,341.25c0,.21,14.54,73.68,10.9,80.65-1.93,3.7-13.73,8.17-26.29,11.46-13.64,3.56-28.65,6-32.72,4.46a9.06,9.06,0,0,1-1.51-.72c-3-1.75-4.18-4.65-4.29-7.93a22.62,22.62,0,0,1,1.55-8.27,31.83,31.83,0,0,1,2.36-5c2.06-3.52-3.31-25.59-3.33-25.65l6.08-1.47c0,.07,6,24.55,2.64,30.28a24.47,24.47,0,0,0-1.86,4,16.34,16.34,0,0,0-1.19,5.92,3.11,3.11,0,0,0,1.2,2.74,3,3,0,0,0,.5.23c2.93,1.08,16.35-1.33,29-4.64,11.13-2.9,21.29-6.31,22.32-8.29,2.61-5-11.47-76.35-11.52-76.56Z" transform="translate(-81.93 -39.07)" style="fill:#1c1917"/><path d="M375.92,202.75s7.55,6.28,7.55,26.77c0,5.73.47,13.86,1,22.59,1.16,19.74,2.5,42.49-1.2,50.62-2.79,6.13-10.81,11.13-20.26,14.1s-20.65,4.05-29.3,2.16l1.33-6.13c7.59,1.66,17.54.69,26.11-2,7.89-2.48,14.43-6.32,16.43-10.72,3.05-6.69,1.76-28.63.64-47.68-.51-8.73-1-16.85-1-22.93,0-17.59-5.37-22-5.39-22Z" transform="translate(-81.93 -39.07)" style="fill:#1c1917"/><path d="M264.5,219.66c-.05,0-17.62,8.52-44.4,11.15-13.32,1.32-22.34,1.83-29.25,1.29-7.29-.57-12.29-2.29-17.3-5.42-3.81-2.4-6.82-3.14-9.37-2.65s-5,2.27-7.48,4.88a2.82,2.82,0,0,0-.51,1.37c-.44,2.61.28,6.67,2.24,11.24a44.6,44.6,0,0,0,33.49,26.18l7.16,1.24c25.06,4.39,60.47,10.6,85.57,8.23h0c3.36,0,16.68-1.72,17.19-1.14s-.4,1.77-5.84,4.32c-5.24,2.45-13.08,3.19-13.65,3.24-25.88,1.77-59.93-4.19-84.37-8.47l-7.13-1.25a50.9,50.9,0,0,1-38.2-29.9c-2.44-5.69-3.29-11-2.65-14.74a8.79,8.79,0,0,1,2.14-4.64c3.36-3.51,6.79-5.94,10.87-6.71s8.57.18,13.86,3.5c4.1,2.58,8.27,4,14.43,4.47,6.55.52,15.25,0,28.16-1.26,25.67-2.53,42.3-10.56,42.35-10.59Z" transform="translate(-81.93 -39.07)" style="fill:#1c1917"/><path d="M228.48,278.73a8.22,8.22,0,0,1,1.71,1.14l.14-1.07Zm-1.07-1.6h0l.63-2.77,2.82.37c2.73.36,2.79,1.75,2.69,4.21-.17,4.06-.83,19.81.28,26.57a.85.85,0,0,0,.23.36c1.44,1.5,5.26,2.38,9.76,2.78a63.17,63.17,0,0,0,14.75-.51c2.94-.48,5.1-1.07,5.73-1.68,5.05-4.83,1.82-24,1.81-24l6.17-1c0,.07,3.8,22.45-3.65,29.58-1.58,1.52-4.94,2.67-9.05,3.35a69.94,69.94,0,0,1-16.3.58c-5.85-.52-11.12-2-13.72-4.69a6.89,6.89,0,0,1-1.9-3.69c-1.21-7.38-.54-23.64-.36-27.83,0-.36.54-.26,1.18.05l1.85.07.13-1Z" transform="translate(-81.93 -39.07)" style="fill:#1c1917"/><path d="M271,300.34c.12,0,40.12,8.41,63.28-2.76l2.72,5.64c-25.08,12.09-67.13,3.27-67.25,3.25Z" transform="translate(-81.93 -39.07)" style="fill:#1c1917"/><path d="M271.13,284.1c.11,0,40.12,8.41,63.28-2.76l2.72,5.64c-25.08,12.09-67.13,3.27-67.25,3.24Z" transform="translate(-81.93 -39.07)" style="fill:#1c1917"/><path d="M225.65,351c.08.08,27.86,27.81,56.83,29.66l-.39,6.25c-31.33-2-60.77-31.39-60.85-31.48Z" transform="translate(-81.93 -39.07)" style="fill:#1c1917"/><path d="M277.43,385.66c.09,0,33-3.72,49-16.61l3.92,4.88c-17.43,14-52.08,17.94-52.18,17.95Z" transform="translate(-81.93 -39.07)" style="fill:#1c1917"/><path d="M216.36,231.29c0,.07-4.42,23,.54,42.62l-6.08,1.52c-5.29-21-.62-45.22-.61-45.29Z" transform="translate(-81.93 -39.07)" style="fill:#1c1917"/><path d="M256.75,281.44c0,.61.34,14.48,2.38,13.73s3-14.21,3-14.21Z" transform="translate(-81.93 -39.07)" style="fill:#1c1917;fill-rule:evenodd"/></svg>