<svg xmlns="http://www.w3.org/2000/svg" viewBox="0 0 336.3 439"><title>error-404-blue</title><g style="opacity:0.30000000000000004"><ellipse cx="152.8" cy="407.01" rx="144.11" ry="31.99" style="fill:#1c1917"/></g><path d="M396.59,328.9q-1.84,3.19-4.12,6.44c-16.28,23.16-48.93,26.8-76.24,23.05-7-1-12.07-6.79-11.68-13.44s6.35-12.05,13.57-12.09c14-.09,36.11-2.58,48.51-16.11a35.19,35.19,0,0,0,2.37-2.9c11-15.09,4.55-34.33-1.91-46.69-3.69-7.06-.33-15.59,7.32-18.75a15.39,15.39,0,0,1,6.08-1.19,15,15,0,0,1,12.43,6.58C402.39,268.23,415.14,296.83,396.59,328.9Z" transform="translate(-81.85 -30.5)" style="fill:#fff"/><path d="M396.59,328.9c-14.12,2.55-26.16-4.78-30-12.15a35.19,35.19,0,0,0,2.37-2.9c11-15.09,4.55-34.33-1.91-46.69-3.69-7.06-.33-15.59,7.32-18.75a15.39,15.39,0,0,1,6.08-1.19,15,15,0,0,1,12.43,6.58C402.39,268.23,415.14,296.83,396.59,328.9Z" transform="translate(-81.85 -30.5)" style="fill:#0369a1"/><g style="opacity:0.30000000000000004"><path d="M392.92,253.8a15,15,0,0,0-12.43-6.58,15.63,15.63,0,0,0-3.59.41,14,14,0,0,1,3.62,3.74c9.47,14.43,22.22,43,3.67,75.1-1.22,2.13-2.6,4.28-4.11,6.44-14.82,21.07-43.17,26-68.73,23.87a14.11,14.11,0,0,0,4.88,1.61c27.31,3.75,60,.11,76.24-23.05q2.28-3.24,4.12-6.44C415.14,296.83,402.39,268.23,392.92,253.8Z" transform="translate(-81.85 -30.5)" style="fill:#0c4a6e"/></g><path d="M334.34,362.35a138.59,138.59,0,0,1-18.48-1.27c-8.47-1.17-14.5-8.17-14-16.29h0c.49-8.16,7.63-14.6,16.27-14.65,13.36-.08,37.45-2.5,48.7-17.89,10-13.71,4.37-31.4-2.13-43.83a15.63,15.63,0,0,1-.86-12.71,17.05,17.05,0,0,1,9.55-9.82,18.08,18.08,0,0,1,21.82,6.42c10.64,16.21,24.72,48.75-.49,84.59C380,357.85,354,362.35,334.34,362.35Zm46-112.41a12.7,12.7,0,0,0-4.9,1,11.59,11.59,0,0,0-6.52,6.65,10.29,10.29,0,0,0,.56,8.34c7.22,13.8,13.37,33.6,1.71,49.55-12.66,17.31-38.68,20-53.06,20.12-5.78,0-10.56,4.23-10.87,9.55h0c-.32,5.25,3.7,9.8,9.33,10.57,16,2.2,55.1,4.47,73.65-21.91,23.37-33.22,10.28-63.43.4-78.49A12.3,12.3,0,0,0,380.35,249.94Zm-75.79,95Z" transform="translate(-81.85 -30.5)" style="fill:#1c1917"/><path d="M386.59,191.8c-19.51,14.8-40.3,28.55-53.84,50.95-1.21,2-2.35,4.05-3.44,6.19-8.73,17.22-13.35,39.29-10.73,69.82q.5,5.65,1.31,11.72a44.24,44.24,0,0,0,3.4,11.89,48.76,48.76,0,0,0,2.64,5.07,95.25,95.25,0,0,1,13.42,51.84s16.51,1.4,20.32,22.26q.24,1.35.42,2.82c.07.61.14,1.24.19,1.88a14.53,14.53,0,0,1-12.43,15.53,215.74,215.74,0,0,1-60.3-.33s-14.42-5.36-16.76-25.33-46.53-44.52-66.86,2.45c0,0-6.59,38.8-78.38,28.89a14.52,14.52,0,0,1-12-10.51,29.75,29.75,0,0,1-.88-4.49,26.18,26.18,0,0,1-.06-6.08c.76-7.39,4.91-15.72,16.64-22.87a121.3,121.3,0,0,1,.65-19.09c1-8.21,3-17.28,7.42-23.25,3.31-4.49,4.31-12.42,4.19-21-.19-13.65-3.26-28.9-4.43-34.3-.26-1.18-.43-1.89-.45-2h0S118,219.58,322,153.87c0,0,32.05-14.38,43.38-17.27,0,0,12-17.7,33.65-7.8a36.56,36.56,0,0,1,5.62,3.16v0C421.11,143.27,421.36,165.42,386.59,191.8Z" transform="translate(-81.85 -30.5)" style="fill:#f0f9ff"/><path d="M165,344.67a40.4,40.4,0,0,1-35.14,39.74c1-8.21,3-17.28,7.42-23.25,8.57-11.66,1.67-46.49-.24-55.27A40.42,40.42,0,0,1,165,344.67Z" transform="translate(-81.85 -30.5)" style="fill:#0369a1"/><g style="opacity:0.30000000000000004"><path d="M347.85,441.77a215.74,215.74,0,0,1-60.3-.33s-14.42-5.36-16.76-25.33-46.53-44.52-66.86,2.45c0,0-6.59,38.8-78.38,28.89a14.52,14.52,0,0,1-12-10.51,29.75,29.75,0,0,1-.88-4.49,26.18,26.18,0,0,1-.06-6.08,74.72,74.72,0,0,0,49.26,5.89,40,40,0,0,0,27.38-21.71c7.1-14.67,22.05-35.91,49-35.69s39.51,18.79,44.83,31.44a40.05,40.05,0,0,0,35,24.47c10.78.51,24.55-1.66,41.65-9.23q.24,1.35.42,2.82c.07.61.14,1.24.19,1.88A14.53,14.53,0,0,1,347.85,441.77Z" transform="translate(-81.85 -30.5)" style="fill:#0c4a6e"/></g><g style="opacity:0.30000000000000004"><path d="M404.69,132c.23.64,9.23,26.84-20,44.09C355.15,193.55,302,281.53,156.05,257.61c0,0,32.07,29.79,96.66,18.9a43.54,43.54,0,0,1,50.37,38.65c1,10,2.87,19.11,6,25.18,11.29,22,17.92,25.26,30.28,58.94a95.25,95.25,0,0,0-13.42-51.84,48.76,48.76,0,0,1-2.64-5.07,44.24,44.24,0,0,1-3.4-11.89q-.83-6.06-1.31-11.72c-2.62-30.53,2-52.6,10.73-69.82,1.09-2.14,2.23-4.2,3.44-6.19l-.61-.5a66.42,66.42,0,0,0,5-6.1c13.41-18.62,32-31.06,49.48-44.35C421.36,165.42,421.11,143.27,404.69,132Z" transform="translate(-81.85 -30.5)" style="fill:#0c4a6e"/></g><path d="M147.7,451.81a165.24,165.24,0,0,1-22.52-1.66,17.25,17.25,0,0,1-14.28-12.49c-2.25-8.18-3.13-23.51,15.54-35.62-.23-6.47-.37-30.19,8.66-42.49,7.45-10.14,1.69-43.18-1.15-55.05v-.05c-.21-.9-4.67-22.59,16.64-52.52,12.31-17.29,30.79-33.84,54.93-49.19,30-19.07,68.85-36.36,115.55-51.41,2.53-1.13,31-13.82,42.76-17.12,3-3.65,15.84-17.28,36.37-7.88,10.47,4.79,16.79,12.54,17.81,21.82,1.08,9.78-3.21,25.67-29.77,45.82q-3.66,2.76-7.34,5.5c-34,25.34-69.11,51.54-58.3,130.64A41.82,41.82,0,0,0,328.25,346a98.5,98.5,0,0,1,13.88,51c5.7,1.52,19.15,7.37,20.86,28.95a17.28,17.28,0,0,1-14.76,18.43,217.44,217.44,0,0,1-61.07-.34,2.12,2.12,0,0,1-.55-.14c-.66-.24-16-6.18-18.51-27.56-1-8.64-12-19.72-26.09-21.8-8.66-1.27-24.77.26-35.48,24.76-.42,2-2.92,11.29-13.18,19.47C182.52,447.47,167.22,451.81,147.7,451.81Zm-8.46-148.54c1.14,4.77,10.5,45.53.24,59.5-9.13,12.43-7.57,40.28-7.55,40.56a2.73,2.73,0,0,1-1.3,2.49c-16.17,9.86-16.81,22-14.49,30.4a11.81,11.81,0,0,0,9.78,8.55c35.82,4.94,54.42-2.66,63.72-9.91,9.88-7.7,11.6-16.67,11.61-16.76a3.07,3.07,0,0,1,.18-.61c8.88-20.51,24-30.8,41.37-28.24,15.22,2.24,29.27,14.39,30.69,26.54,2,16.8,12.94,22.21,14.78,23a211.86,211.86,0,0,0,59.2.29,11.82,11.82,0,0,0,10.1-12.62c-1.8-22.81-18.28-24.46-18.44-24.47a2.72,2.72,0,0,1-2.49-2.81,92.65,92.65,0,0,0-13.05-50.34,47.29,47.29,0,0,1-6.39-18C306,248.57,342.41,221.4,377.64,195.12c2.44-1.83,4.88-3.64,7.3-5.48,19.15-14.52,29-29,27.66-40.89-.8-7.31-6-13.52-14.67-17.48-19.32-8.85-29.84,6.21-30.27,6.85a2.69,2.69,0,0,1-1.58,1.1c-11,2.82-42.61,17-42.93,17.13l-.28.11C218.17,190.17,173.79,228.7,155,255.09,135.31,282.74,139.1,302.61,139.24,303.27Z" transform="translate(-81.85 -30.5)" style="fill:#1c1917"/><path d="M401,132.17l-4.83,1c-1.63.36-3.27.73-4.9,1.16s-3.24.93-4.87,1.48a51.82,51.82,0,0,0-4.84,2,18,18,0,0,1,3.61-4.14,30.17,30.17,0,0,1,4.55-3.14,37,37,0,0,1,5-2.31c.86-.33,1.73-.61,2.61-.86a22.17,22.17,0,0,1,2.75-.62,2.72,2.72,0,0,1,1,5.34Z" transform="translate(-81.85 -30.5)" style="fill:#1c1917"/><path d="M393.47,158.65A28.5,28.5,0,0,1,398,154.4a46,46,0,0,1,5.17-3.39,52.07,52.07,0,0,1,5.52-2.69,36.62,36.62,0,0,1,5.86-1.95,2.72,2.72,0,0,1,1.65,5.17l-.07,0c-1.73.71-3.61,1.37-5.44,2l-5.54,1.87-5.59,1.86c-1.87.64-3.74,1.29-5.71,1.92h0a.34.34,0,0,1-.44-.23A.37.37,0,0,1,393.47,158.65Z" transform="translate(-81.85 -30.5)" style="fill:#1c1917"/><path d="M226.33,268.34C139.85,270,109.94,226.5,109.94,226.5a11.26,11.26,0,0,1,5.28-5.78s-6.44-5.46-6.57-10.28,3-7.21,3.19-13.86-2.46-24.29,1.87-35.65c0,0-3.62-12-6.8-28.71-4.46-23.25-8.1-55.54,0-76.9.14-.4.3-.8.46-1.2,0,0,4.35-13.22,69.23,26.32q4.63,2.81,9.66,6h0c-.15-.57-4.53-17.51,3.72-28.23l27.5,13.2s-1.17-10,4.37-15.6l18.35,9.43,14.69,7.55a561.68,561.68,0,0,1,53.48-37.83,11.59,11.59,0,0,1,16,3.89h0a11.44,11.44,0,0,1,1.6,5c1.68,19.16,2.9,53.06-2.42,98h0v0q-.36,3-.75,6s.16,1,.44,2.73c.37,2.24.92,5.7,1.56,9.78,1.07,6.86,2.38,15.48,3.37,22.95,0,0,2.92,8.18,5.23,10.86s-3.58,10.44-3.58,10.44a19.77,19.77,0,0,1,6.3,3.21C338.72,210,312.82,266.71,226.33,268.34Z" transform="translate(-81.85 -30.5)" style="fill:#f0f9ff"/><path d="M327.3,86.11a550.33,550.33,0,0,1-4.55,61.78s.16,1,.44,2.73a66.94,66.94,0,0,1-83-85.4l14.69,7.55a561.68,561.68,0,0,1,53.48-37.83,11.59,11.59,0,0,1,16,3.89h0a11.44,11.44,0,0,1,1.6,5A416.11,416.11,0,0,1,327.3,86.11Z" transform="translate(-81.85 -30.5)" style="fill:#0369a1"/><path d="M304,116.06s-13.33-12.65-30.4-19.44c0,0,11-23.51,20.12-31.51l18.86,1.72s.44,8.81-9.28,17.88C303.31,84.71,315.09,97.77,304,116.06Z" transform="translate(-81.85 -30.5)" style="fill:#fff"/><path d="M113.71,160.93s5.07-21.16,13.65-33.23c0,0-12.85-15.4-2.07-32.11,0,0-11.77-5.13-12.81-15L130,75.38s-15.75-15.56-23.11-20.06C106.87,55.32,93.56,92.17,113.71,160.93Z" transform="translate(-81.85 -30.5)" style="fill:#fda4af"/><path d="M322.75,147.89s-9-19.78-18.74-31.83c0,0,10.83-18.79-.7-31.35,0,0,8.86-7.07,9.28-17.88l-18.86-1.72s18.62-23,30.59-26.28h0a11.44,11.44,0,0,1,1.6,5C327.67,63.81,328.93,99.9,322.75,147.89Z" transform="translate(-81.85 -30.5)" style="fill:#fda4af"/><g style="opacity:0.30000000000000004"><path d="M226.33,268.34C139.85,270,109.94,226.5,109.94,226.5a11.26,11.26,0,0,1,5.28-5.78s-6.44-5.46-6.57-10.28,3-7.21,3.19-13.86c0,0,2.39,8,17.92,6,14.62-1.89,55.83-55.47,98.59-28.59,0,0,16.53,8,11.29,25-3.79,12.26-32.9,32.58-48.65,42.86a4,4,0,0,0,2,7.33c17,.78,49.32.17,79.5-12.16,35-14.33,50.7-48.84,52.27-76.57,1.07,6.86,2.38,15.48,3.37,22.95,0,0,2.92,8.18,5.23,10.86s-3.58,10.44-3.58,10.44a19.77,19.77,0,0,1,6.3,3.21C338.72,210,312.82,266.71,226.33,268.34Z" transform="translate(-81.85 -30.5)" style="fill:#0c4a6e"/></g><g style="opacity:0.30000000000000004"><path d="M211.83,117.07c-.42,0-27.62-.37-35.27-36.63q4.63,2.81,9.66,6S189.72,106.16,211.83,117.07Z" transform="translate(-81.85 -30.5)" style="fill:#0c4a6e"/></g><g style="opacity:0.30000000000000004"><path d="M154.63,104.59,149,110.37s-18-25.08-35.4-40.7A2.17,2.17,0,0,0,110,70.9c-1.54,8.44-4.79,30.77-3.07,61.32-4.46-23.25-8.1-55.54,0-76.9C107.23,55.56,130.71,70.46,154.63,104.59Z" transform="translate(-81.85 -30.5)" style="fill:#000072"/></g><g style="opacity:0.30000000000000004"><path d="M327.3,86.11c-2.57-12.69-6.23-25.7-8-31.8a2.37,2.37,0,0,0-3.87-1.08c-25,22.93-34.12,50.18-34.12,50.18l-7.68-6.79c26.86-52.42,50.71-57.79,50.71-57.79h0a11.44,11.44,0,0,1,1.6,5A416.11,416.11,0,0,1,327.3,86.11Z" transform="translate(-81.85 -30.5)" style="fill:#0c4a6e"/></g><path d="M221.69,271.1c-42.68,0-71-11.16-87.35-20.72C115.74,239.53,108,228.5,107.7,228a2.71,2.71,0,0,1-.33-2.42,13.85,13.85,0,0,1,3.62-5.24c-2.17-2.35-4.95-6.09-5-9.87a17,17,0,0,1,1.55-7,19.32,19.32,0,0,0,1.64-7c.05-1.58-.08-4-.24-6.74-.47-8.49-1.11-20,2-28.91-2.5-8.6-20.26-72.66-6-107.72A5.75,5.75,0,0,1,108.48,50c10-3.6,35.57,7.08,74,30.93-.71-6.49-.6-16.71,5.29-24.36a2.71,2.71,0,0,1,3.33-.79l23.57,11.3c.26-3.86,1.37-9.33,5.19-13.18a2.73,2.73,0,0,1,3.17-.5l31.47,16.18a566.3,566.3,0,0,1,52.39-36.92,14.29,14.29,0,0,1,21.72,10.92c1.89,21.66,2.88,57.32-3.14,104.29.48,2.88,3.42,20.9,5.28,34.86,1.1,3,3.25,8.11,4.64,9.73,2.51,2.91.57,7.56-1.47,10.93a19.14,19.14,0,0,1,3.86,2.41c2,1.65.92,4.74.46,6.06-2.27,6.49-10.88,21-28.8,34-21.73,15.86-50.45,24.57-83.07,25.18C224.8,271.08,223.24,271.1,221.69,271.1ZM113.13,226.2c2.52,3.09,10.12,11.49,24.26,19.67,16.36,9.47,45.08,20.58,88.89,19.75,42.62-.8,69.25-15.29,84.09-27.3,15.51-12.55,22-25.28,23-29.06a18.65,18.65,0,0,0-4.36-2,2.71,2.71,0,0,1-1.43-4.25c2-2.64,3.68-6,3.57-7.17-2.53-3.07-5.31-10.7-5.62-11.57a2.68,2.68,0,0,1-.13-.56c-2-15.09-5.33-35.17-5.36-35.38a2.61,2.61,0,0,1,0-.79c6-46.69,5-82.06,3.16-103.52a8.86,8.86,0,0,0-13.47-6.76,563.91,563.91,0,0,0-53.19,37.61,2.71,2.71,0,0,1-3,.31l-31.08-16c-3.13,4.73-2.39,11.79-2.38,11.87a2.71,2.71,0,0,1-3.87,2.75L190.88,61.65c-5.76,9.75-2.07,23.93-2,24.08a2.72,2.72,0,0,1-4.08,3c-63.16-39.9-74.11-34-75-33.37-14.06,35.12,6.34,104.09,6.55,104.79a2.76,2.76,0,0,1-.06,1.75c-3,7.9-2.37,19.73-1.93,27.55.16,2.9.3,5.4.24,7.22a24.48,24.48,0,0,1-2,8.76,12.07,12.07,0,0,0-1.18,4.94c.07,2.73,3.81,6.75,5.61,8.28a2.73,2.73,0,0,1,.94,2.38,2.69,2.69,0,0,1-1.46,2.11A8.73,8.73,0,0,0,113.13,226.2ZM109.91,55Zm0,0Z" transform="translate(-81.85 -30.5)" style="fill:#1c1917"/><path d="M116.35,161.55l-5.29-1.24c.21-.9,5-21.12,13.22-32.67-4.8-6.74-9.82-19.48-2.45-30.85-4.29-2.43-11.51-7.77-12.06-16.39a2.73,2.73,0,0,1,2-2.79l17.87-5,1.46,5.23-15.53,4.32c2,7.23,11.3,11,11.4,11.09a2.73,2.73,0,0,1,1.63,1.87,2.7,2.7,0,0,1-.57,2.41c-11,12.85,1.63,28.16,1.75,28.31a2.71,2.71,0,0,1,0,3.45C121.6,139.5,116.4,161.33,116.35,161.55Z" transform="translate(-81.85 -30.5)" style="fill:#1c1917"/><path d="M152.43,106.2c-24.85-33.91-46.83-48.46-47.05-48.6l3-4.56c.92.61,23,15.16,48.46,49.95Z" transform="translate(-81.85 -30.5)" style="fill:#1c1917"/><path d="M188.89,85.93l.11.51c0,.18.08.37.13.56.09.39.19.77.3,1.16.2.77.46,1.54.7,2.32s.56,1.53.85,2.29.62,1.52,1,2.26.7,1.48,1.07,2.21l1.19,2.16c.88,1.39,1.75,2.79,2.75,4.11l.73,1,.8.95c.55.62,1.06,1.28,1.63,1.88a41.94,41.94,0,0,0,3.64,3.41l1,.81a10.47,10.47,0,0,0,1,.78c.69.48,1.36,1,2,1.51s1.39,1,2.09,1.48,1.41,1,2.1,1.55h0a.2.2,0,0,1,0,.29.21.21,0,0,1-.21.08c-.85-.21-1.7-.46-2.54-.73a16.91,16.91,0,0,1-2.48-1c-.79-.39-1.59-.78-2.37-1.2a7,7,0,0,1-1.15-.68L202.1,113a44.31,44.31,0,0,1-4.28-3.22c-.69-.57-1.32-1.21-2-1.82l-1-.94-.9-1a44.56,44.56,0,0,1-6.31-8.78c-.44-.79-.85-1.6-1.26-2.42s-.75-1.65-1.09-2.5-.68-1.69-1-2.57c-.16-.43-.28-.89-.41-1.33-.07-.23-.14-.45-.19-.69s-.12-.46-.19-.76a2.72,2.72,0,0,1,5.32-1.11h0Z" transform="translate(-81.85 -30.5)" style="fill:#1c1917"/><path d="M256.54,74.89a31.88,31.88,0,0,1-3.26,2.41c-1.14.74-2.31,1.45-3.5,2.12s-2.4,1.33-3.63,2-2.48,1.22-3.78,1.77a.34.34,0,0,1-.41-.52c.82-1.14,1.68-2.23,2.56-3.29s1.79-2.1,2.71-3.1,1.87-2,2.84-2.95a33.63,33.63,0,0,1,3.08-2.65,2.72,2.72,0,0,1,3.39,4.25Z" transform="translate(-81.85 -30.5)" style="fill:#1c1917"/><path d="M276,98.37l-4.81-2.52c27.34-52.36,51.41-59.37,52.42-59.64L325,41.46l-.7-2.63.72,2.62C324.83,41.52,302.05,48.5,276,98.37Z" transform="translate(-81.85 -30.5)" style="fill:#1c1917"/><path d="M322.75,150.61a2.74,2.74,0,0,1-2.54-1.74,121.05,121.05,0,0,0-17.91-30.8,2.72,2.72,0,0,1-.33-3c9.08-17.58-.35-28.41-.76-28.87a2.72,2.72,0,0,1,.45-4c4.92-3.49,7.15-9.46,8.07-13L293.5,67.81A2.72,2.72,0,0,1,294,62.4L313.24,64a2.71,2.71,0,0,1,1.88,1,2.76,2.76,0,0,1,.59,2c-.06.48-1.42,11-8.77,17.77,2.94,4.58,7.92,15.67.64,31.11a126,126,0,0,1,17.71,31,2.73,2.73,0,0,1-1.57,3.51A2.77,2.77,0,0,1,322.75,150.61Z" transform="translate(-81.85 -30.5)" style="fill:#1c1917"/><path d="M148.71,110.2a9.53,9.53,0,0,1,1.69-4.32,13,13,0,0,1,7.32-5.17,8.54,8.54,0,0,1,4.7.08c-1.2,1.15-2.24,2-3.24,2.87s-2,1.67-3,2.49-2,1.59-3.17,2.34a20.84,20.84,0,0,1-3.83,2.05h0a.34.34,0,0,1-.44-.19A.3.3,0,0,1,148.71,110.2Z" transform="translate(-81.85 -30.5)" style="fill:#1c1917"/><path d="M265.11,93.74a11.25,11.25,0,0,1,5.18-.24,15,15,0,0,1,4.88,1.76c.37.23.76.43,1.12.69l1,.8q.5.44,1,.9l.46.47.41.52a10.17,10.17,0,0,1,2.18,4.73.08.08,0,0,1-.06.09h0c-1.56-.89-2.77-1.81-4.1-2.57-.62-.42-1.3-.76-1.91-1.15s-1.28-.74-1.94-1.07c-1.29-.7-2.6-1.38-4-2.06s-2.77-1.39-4.24-2.24l0,0a.33.33,0,0,1-.12-.45A.36.36,0,0,1,265.11,93.74Z" transform="translate(-81.85 -30.5)" style="fill:#1c1917"/><path d="M222.2,219.49a15.35,15.35,0,0,0,13.3-10.05,2.39,2.39,0,0,0-1-3c-4.17-2.31-15.43-6.93-26.16,2.79a2.38,2.38,0,0,0-.42,3c1.46,2.32,5.07,6.19,13.14,7.19A5.81,5.81,0,0,0,222.2,219.49Z" transform="translate(-81.85 -30.5)" style="fill:#1c1917"/><path d="M221.73,219.88a6.34,6.34,0,0,1-.76,0c-8.26-1-11.94-5.05-13.4-7.36a2.75,2.75,0,0,1,.48-3.51c10.86-9.83,22.21-5.25,26.59-2.83a2.76,2.76,0,0,1,1.2,3.43,15.77,15.77,0,0,1-13.62,10.29h0A4,4,0,0,1,221.73,219.88Zm1.08-16.2a20.81,20.81,0,0,0-14.26,5.84,2,2,0,0,0-.36,2.56c1.39,2.2,4.91,6,12.87,7a5.84,5.84,0,0,0,1.11,0,15.07,15.07,0,0,0,13-9.83,2,2,0,0,0-.87-2.51A24.14,24.14,0,0,0,222.81,203.68Z" transform="translate(-81.85 -30.5)" style="fill:#000072"/><path d="M223.73,216.18l.22,1.14.27,1.21c.19.81.42,1.61.66,2.39a24.7,24.7,0,0,0,1.84,4.39,19.43,19.43,0,0,0,1.22,1.87,13.44,13.44,0,0,0,1.43,1.56,9.51,9.51,0,0,0,3.49,2,11.38,11.38,0,0,0,2.09.43l.54.07.63,0c.42,0,.85,0,1.27,0a33.31,33.31,0,0,0,5-.26,42.38,42.38,0,0,0,10.19-2.34.16.16,0,0,1,.2.09.17.17,0,0,1,0,.12,11.65,11.65,0,0,1-3.87,4.58,17.73,17.73,0,0,1-5.45,2.63,30.46,30.46,0,0,1-5.9,1c-.5,0-1,0-1.48.07l-.75,0-.82,0a17.46,17.46,0,0,1-3.33-.47,14.94,14.94,0,0,1-6.08-3.21,17.57,17.57,0,0,1-4-5.22,28.1,28.1,0,0,1-1.26-2.89,29.09,29.09,0,0,1-.84-3,25.42,25.42,0,0,1-.51-3c-.06-.5-.11-1-.13-1.51s0-1,0-1.6a2.71,2.71,0,0,1,5.38-.46Z" transform="translate(-81.85 -30.5)" style="fill:#1c1917"/><path d="M224.24,218.13c0,.6,0,1,0,1.51s-.07,1-.13,1.42a24.19,24.19,0,0,1-.5,2.78,22.78,22.78,0,0,1-2,5.38A19.1,19.1,0,0,1,218,234a17.94,17.94,0,0,1-5,3.45,19,19,0,0,1-5.7,1.6,21.86,21.86,0,0,1-5.77,0,12.35,12.35,0,0,1-9.28-6,.31.31,0,0,1,.12-.41.3.3,0,0,1,.18,0h0c1.89.18,3.5.45,5,.63s3,.33,4.44.38a18.35,18.35,0,0,0,4.3-.42,14.64,14.64,0,0,0,3.91-1.39,14.21,14.21,0,0,0,5.69-5.66,17.14,17.14,0,0,0,1-1.92,20.25,20.25,0,0,0,.8-2.05c.22-.71.46-1.42.63-2.15l.25-1.09.2-1,.06-.29a2.71,2.71,0,0,1,5.37.47Z" transform="translate(-81.85 -30.5)" style="fill:#1c1917"/><path d="M203.14,236.41s9.12,14.48,23.17,19.33c0,0,12.8-8.79,13.9-21.67,0,0-13.62,2.47-18.44-10.54C221.77,223.53,215.11,237.68,203.14,236.41Z" transform="translate(-81.85 -30.5)" style="fill:#292524"/><path d="M226.37,256.15l-.18-.06c-14-4.84-23.27-19.34-23.36-19.49l-.41-.64.76.08c11.56,1.23,18.19-12.53,18.26-12.67l.37-.79.31.82c4.66,12.56,17.48,10.4,18,10.31l.48-.09,0,.48c-1.1,12.9-13.93,21.86-14.06,22Zm-22.49-19.31c1.93,2.81,10.36,14.26,22.37,18.49,1.42-1,12.3-9.27,13.55-20.83-2.44.27-13.51.89-18.08-10.08C220.17,227.27,213.93,237.38,203.88,236.84Z" transform="translate(-81.85 -30.5)" style="fill:#000072"/><path d="M211,245.85s12.61-8.68,26.07-2.07c0,0-4.15,7.84-10.79,12A46.57,46.57,0,0,1,211,245.85Z" transform="translate(-81.85 -30.5)" style="fill:#dc2626"/><path d="M226.36,256.15l-.17-.06a47.39,47.39,0,0,1-15.41-10l-.32-.31.36-.26c.13-.09,13-8.72,26.44-2.09l.34.17-.18.33c0,.08-4.26,8-10.91,12.11Zm-14.73-10.24a46.86,46.86,0,0,0,14.64,9.42c5.62-3.56,9.44-9.87,10.31-11.39C224.9,238.44,213.81,244.57,211.63,245.91Z" transform="translate(-81.85 -30.5)" style="fill:#000072"/><path d="M226.31,258.46a2.62,2.62,0,0,1-.88-.15c-14.79-5.11-24.19-19.83-24.58-20.46a2.71,2.71,0,0,1,2.58-4.14c9.86,1,15.83-11.22,15.89-11.34a2.72,2.72,0,0,1,5,.22c4,10.65,15,8.89,15.42,8.81a2.69,2.69,0,0,1,2.3.67,2.72,2.72,0,0,1,.88,2.23c-1.2,14-14.5,23.29-15.07,23.68A2.7,2.7,0,0,1,226.31,258.46Zm-18-19.64c3.39,4.17,9.61,10.66,17.56,13.86,2.59-2.08,9.07-7.92,11.1-15.68a19,19,0,0,1-15.38-7.94C219,232.68,214.53,237.43,208.3,238.82Z" transform="translate(-81.85 -30.5)" style="fill:#1c1917"/><path d="M252.28,198.08a12.7,12.7,0,0,1-.6-6.59,16.46,16.46,0,0,1,2.47-6.44c.3-.51.69-1,1-1.43.18-.24.37-.47.55-.7l.61-.63c.42-.41.82-.85,1.26-1.24s.91-.73,1.37-1.08l.7-.53.74-.46c.49-.3,1-.58,1.49-.87,1-.54,2.07-.94,3.11-1.39a22.65,22.65,0,0,1,13.58-.87,17.22,17.22,0,0,1,6.14,3.15,12.29,12.29,0,0,1,3.91,5.35.29.29,0,0,1-.18.37.28.28,0,0,1-.22,0l0,0a23.26,23.26,0,0,0-10.58-2.39,31.52,31.52,0,0,0-9.81,2.06c-.77.34-1.59.61-2.35.95-.38.19-.75.37-1.13.54l-.57.27-.53.31c-.35.2-.71.4-1.08.59l-1,.68-.52.34-.47.38a12.14,12.14,0,0,0-1,.77A20.89,20.89,0,0,0,255.7,193a25.44,25.44,0,0,0-2.79,5l0,0a.33.33,0,0,1-.43.18A.32.32,0,0,1,252.28,198.08Z" transform="translate(-81.85 -30.5)" style="fill:#1c1917"/><path d="M152.72,202.69a13.82,13.82,0,0,1,1.21-7.14,18.12,18.12,0,0,1,4.42-6.12c.47-.45,1-.81,1.49-1.22l.78-.59.82-.49c.56-.33,1.11-.67,1.68-1s1.17-.51,1.76-.75l.89-.37.9-.27c.61-.18,1.22-.34,1.83-.5,1.22-.29,2.44-.42,3.67-.6s2.47-.11,3.7-.12a34,34,0,0,1,3.74.42,20.64,20.64,0,0,1,3.68,1,16.92,16.92,0,0,1,1.78.71l1.71.88a18.67,18.67,0,0,1,5.61,5.06,13.32,13.32,0,0,1,2.64,6.75.32.32,0,0,1-.3.34.3.3,0,0,1-.23-.07l0,0A25.34,25.34,0,0,0,184,193.1a34.47,34.47,0,0,0-10.95-.57l-1.39.17c-.45.07-.94.07-1.37.18s-.9.18-1.35.25l-.67.12-.65.18c-.43.12-.87.23-1.31.33l-1.27.43-.64.21-.61.28c-.4.18-.85.32-1.24.54a22.94,22.94,0,0,0-4.74,3.05,28.47,28.47,0,0,0-4.37,4.56l0,0a.37.37,0,0,1-.51.07A.35.35,0,0,1,152.72,202.69Z" transform="translate(-81.85 -30.5)" style="fill:#000072"/><path d="M204.11,219.61c-21,13.26-52.15,41.61-55.87,45l-.36.34c20.84-2.46,25.19,5.7,25.19,5.7,5.27,26.23-21.77,33.49-21.77,33.49h-.05c-48.08-3.55-72.4-17.39-65.13-52.23,2.4-11.52,11.74-23.54,23.18-34.46,23.17-22.11,54.91-39.74,54.91-39.74,11.26-11.55,25.09-16,37.55-15.36,15,.77,28,8.89,32.24,20.91C241.81,205.27,204.11,219.61,204.11,219.61Z" transform="translate(-81.85 -30.5)" style="fill:#f0f9ff"/><g style="opacity:0.30000000000000004"><path d="M204.11,219.61c-21,13.26-52.15,41.61-55.87,45-6.53-11.79,20.44-33.4,37.85-45.71a125.49,125.49,0,0,1,19.62-11.34c5.59-2.59,13.56-7.93,16.34-18,3.78-13.72-14.79-24.4-20.29-27.23,15,.77,28,8.89,32.24,20.91C241.81,205.27,204.11,219.61,204.11,219.61Z" transform="translate(-81.85 -30.5)" style="fill:#0c4a6e"/></g><g style="opacity:0.30000000000000004"><path d="M151.25,304.15c-48.08-3.55-72.4-17.39-65.13-52.23,2.4-11.52,11.74-23.54,23.18-34.46-11.53,17.13-18.65,30-14.33,51.32C99.55,291.41,149.62,303.78,151.25,304.15Z" transform="translate(-81.85 -30.5)" style="fill:#0c4a6e"/></g><path d="M147.86,264.94c2.85-5.82,7.32-9.91,11.87-13.89s9.08-8,13.72-11.88,9.32-7.75,14.13-11.47,9.74-7.31,14.92-10.65a2.7,2.7,0,0,1,.44-.24l.1,0c1.15-.46,2.43-1,3.63-1.61s2.43-1.18,3.62-1.82a76.2,76.2,0,0,0,6.92-4.14,54.7,54.7,0,0,0,6.26-4.86,33.07,33.07,0,0,0,5.09-5.68,18.14,18.14,0,0,0,2.95-6.45,14,14,0,0,0-.23-6.75,14.38,14.38,0,0,0-.56-1.68c-.25-.56-.43-1.15-.73-1.68a25.49,25.49,0,0,0-1.86-3.19,26.78,26.78,0,0,0-5.06-5.48,35.45,35.45,0,0,0-13.67-6.73,41.32,41.32,0,0,0-7.68-1.18c-1.3-.1-2.6-.08-3.91-.07s-2.6.13-3.9.31A45.23,45.23,0,0,0,179,170.34l-.88.43-.86.49-1.72,1c-1.09.73-2.24,1.39-3.28,2.21a54,54,0,0,0-6.07,5.15h0l0,0a4,4,0,0,1-.58.44,343.5,343.5,0,0,0-42.3,29.33,175.31,175.31,0,0,0-18.66,17.43c-5.67,6.22-10.81,13-13.8,20.51l-.52,1.41a9.65,9.65,0,0,0-.46,1.41l-.38,1.43c-.12.48-.27.94-.35,1.46a61.22,61.22,0,0,0-.94,6.1,38.93,38.93,0,0,0,.57,12,28.55,28.55,0,0,0,1.91,5.54l.3.67c.11.22.24.43.36.64l.71,1.28.81,1.21.41.61.46.58.92,1.15,1,1.08.51.54.55.51,1.09,1a39.53,39.53,0,0,0,4.89,3.57c7,4.31,15.14,6.9,23.42,8.74,4.16.92,8.38,1.61,12.61,2.26,2.12.34,4.23.8,6.34,1.33a39,39,0,0,1,6.32,2.16.12.12,0,0,1,0,.24,30.64,30.64,0,0,1-6.64,1,43.9,43.9,0,0,1-6.59-.11c-4.37-.47-8.71-1.16-13-2a105.44,105.44,0,0,1-12.9-3.35,64.17,64.17,0,0,1-12.38-5.54,45.79,45.79,0,0,1-5.69-4l-1.31-1.17-.65-.59-.62-.64-1.22-1.28-1.13-1.38-.56-.69-.51-.73-1-1.48-.89-1.55c-.15-.26-.3-.51-.44-.78l-.38-.8a34.7,34.7,0,0,1-2.41-6.71A45,45,0,0,1,82,258.62a65.83,65.83,0,0,1,1-6.76,15.61,15.61,0,0,1,.4-1.71l.45-1.72a12.14,12.14,0,0,1,.53-1.68l.6-1.64c3.45-8.69,9-15.94,14.91-22.54a179.94,179.94,0,0,1,19.38-18c6.84-5.52,14-10.64,21.23-15.51q5.45-3.64,11-7.09c3.75-2.28,7.49-4.48,11.38-6.61l-.63.48h0a60.08,60.08,0,0,1,6.55-5.89c1.13-.94,2.39-1.73,3.59-2.59l1.9-1.14c.32-.19.63-.39,1-.57l1-.52a50,50,0,0,1,8.18-3.49,47.91,47.91,0,0,1,8.7-2c1.48-.22,3-.31,4.46-.41s3-.07,4.48,0a46.13,46.13,0,0,1,8.89,1.27,41.77,41.77,0,0,1,16.23,7.93,30.69,30.69,0,0,1,10.34,15.32,20.38,20.38,0,0,1,.28,9.85,24.91,24.91,0,0,1-4,8.71,47.73,47.73,0,0,1-13.15,12.11,82.35,82.35,0,0,1-7.53,4.38c-1.28.66-2.58,1.3-3.9,1.9s-2.61,1.16-4.06,1.72l.54-.27c-5,3.13-9.84,6.62-14.65,10.15s-9.52,7.27-14.2,11-9.29,7.6-13.87,11.49-9.08,7.84-15.12,10.17l0,0A0,0,0,0,1,147.86,264.94Z" transform="translate(-81.85 -30.5)" style="fill:#1c1917"/><path d="M207.28,165.43c-1.12.33-2.36.72-3.54,1.13s-2.39.82-3.57,1.26c-2.37.9-4.73,1.83-7,2.89s-4.58,2.19-6.8,3.44a66.13,66.13,0,0,0-6.46,4.15h0a.35.35,0,0,1-.49-.09.33.33,0,0,1,0-.43,48.23,48.23,0,0,1,5.62-5.54,69.44,69.44,0,0,1,6.41-4.67c2.23-1.41,4.51-2.78,6.87-4a70.12,70.12,0,0,1,7.29-3.33,2.72,2.72,0,1,1,2,5.07l-.19.07Z" transform="translate(-81.85 -30.5)" style="fill:#1c1917"/><path d="M231.74,180.36c-1.28.33-2.75.7-4.13,1.09l-2.1.6-2.1.63c-2.79.87-5.56,1.82-8.3,2.9s-5.45,2.24-8.12,3.53-5.28,2.77-8,4.25h0a.09.09,0,0,1-.13,0,.09.09,0,0,1,0-.11c.49-.58,1-1.16,1.52-1.73l.78-.86.82-.8,1.7-1.58,1.79-1.47c.3-.25.6-.5.9-.73l1-.68c.63-.45,1.25-.91,1.9-1.34,1.31-.82,2.61-1.68,4-2.42a65.38,65.38,0,0,1,8.43-4c1.45-.56,2.93-1.06,4.42-1.51a42.53,42.53,0,0,1,4.64-1.12,2.72,2.72,0,0,1,1.14,5.31Z" transform="translate(-81.85 -30.5)" style="fill:#1c1917"/></svg>