<svg xmlns="http://www.w3.org/2000/svg" viewBox="0 0 1483.4 420.13">
    <path d="M18.8,280.17Q10,260.35,10,233.58t8.62-47.5a109.19,109.19,0,0,1,23.66-35.77q31.91-31.17,80-31.18,50.25,0,82.9,23.11,36.68,26.41,36.69,75.57,0,60.88-28.07,89.87t-87.48,29Q43.75,336.65,18.8,280.17Zm21.28-53.93q0,86.58,87.3,86.57,42.92,0,69.69-25.68,26.77-25.31,26.78-66.39,0-38.52-31.91-58.69-27.15-17.61-68.6-17.61-33,0-58.32,23.85Q40.08,192.14,40.08,226.24Z" transform="translate(-10 -77.19)" style="fill:#0ea5e9"/>
    <path d="M261.63,293q0-5.87-.91-16.32t-1.65-22.93q-.75-12.47-.74-25.31a116.6,116.6,0,0,1,2.2-23.47q4.77-23.85,19.81-23.84,10.26,2.94,13.76,7.33a16.93,16.93,0,0,1,3.48,10.82q0,6.42-3.3,16-12.11,31.9-12.11,57.59a155.62,155.62,0,0,0,1.11,18q5.85,24.58,40.35,24.58a93.8,93.8,0,0,0,34.11-6.24q30.81-11.36,41.82-26.77a156.54,156.54,0,0,0,3.3-29.53q0-12.66-.92-22.56t-2.2-21.83q-1.29-11.91-1.65-26.22a22.13,22.13,0,0,1,9.35-2.21c3.06,0,6.24,1.6,9.54,4.77s6.11,9.17,8.44,18a161.57,161.57,0,0,1,4.58,31q1.1,17.81,1.29,36.87t.18,36.86a274,274,0,0,0,1.47,30.63q-4.41,4-8.44,4-14.67,0-21.64-29.35-4.77,4.05-16.14,9.91-24.21,13.2-57.23,17.6a117.58,117.58,0,0,1-13.93.74q-7.71,0-19.26-2.94t-21.83-13.57Q264.2,313.91,261.63,293Z" transform="translate(-10 -77.19)" style="fill:#0ea5e9"/>
    <path d="M634.32,207.9q-15.41-11-39.62-11a104.87,104.87,0,0,0-42.18,8.43Q515.83,220.75,502.26,245a49.21,49.21,0,0,0-5.86,23.48v12.29q0,10.08,3.66,27.14a164.78,164.78,0,0,1,3.67,34.66,51.67,51.67,0,0,0-12.47,1.84,28.64,28.64,0,0,1-8.07,1.47,7.16,7.16,0,0,1-5.69-2.94q-2.38-2.92-5.31-11.37-.37-2.2-1.47-12.47T468,294.1q-1.65-14.66-3.67-32.09t-3.85-34.3q-4.05-36.68-6.24-53.92,0-8.81,12.84-8.8a13.9,13.9,0,0,1,12.1,6.41,54.13,54.13,0,0,1,7,14.68,88.55,88.55,0,0,1,3.49,16.32q.92,8.07,1.65,11.37,48.42-43.28,120.32-43.28,8.05,0,16.87.36a35,35,0,0,1,5.5-.36c2.2,0,4.4,1.46,6.6,4.4a19.58,19.58,0,0,1,4,12.47Q644.59,205.71,634.32,207.9Z" transform="translate(-10 -77.19)" style="fill:#0ea5e9"/>
    <path d="M1256.8,280.9q-27.51,43.29-73.36,53.55a95.82,95.82,0,0,1-19.26,2.2c-5.75,0-10.52,0-14.3-.18a72.92,72.92,0,0,1-12.66-1.65,44.59,44.59,0,0,1-12.84-4.77q-13.58-7.69-13.57-21.64a68.56,68.56,0,0,1-1.47-14.86q0-8.25,3.67-21.82t13.39-29.35a143.73,143.73,0,0,1,23.66-29q29-27.87,62.73-35.94a84,84,0,0,1,18.15-2.2,90.25,90.25,0,0,1,14.86,1.1q21.27,0,28.61,29,4.75,18.36,5.68,51.18t1.84,50.62a170.47,170.47,0,0,0,4.58,32.46h-21.64q-1.47-9.9-2.2-17.61t-1.47-14.3A265.78,265.78,0,0,0,1256.8,280.9ZM1255.33,224q0-21.27-20.9-21.27a37.13,37.13,0,0,0-5.14-.37q-26.77,0-56.49,25.68A128.34,128.34,0,0,0,1149,254.49q-14.68,20.91-14.67,37.41,0,21.64,24.94,25.68,33-.74,63.09-30.08a127.89,127.89,0,0,0,21.28-27.88Q1255.33,239.46,1255.33,224Z" transform="translate(-10 -77.19)" style="fill:#0ea5e9"/>
    <path d="M1381.15,480.08q-7.7,17.24-18.34,17.24a7.92,7.92,0,0,1-7.52-4.59q-2.38-4.59-.18-10.82,8.06-34.11,23.29-77.76t20.36-58.69q-12.84-12.84-40.35-51.36-56.49-79.23-56.49-86.93a1,1,0,0,1,.37-.73l13.94-13.94q29,26.77,75.56,91,11.73,16.14,18.71,27.14,7.7-15.41,12.1-26.59t7.16-18q2.74-6.78,7.52-18.15,12.46-30.45,34.48-77.4a16.93,16.93,0,0,1,7-1.47c6.1,0,10.51,1.59,13.2,4.77a6.57,6.57,0,0,1,1.47,4.22,14.32,14.32,0,0,1-.74,4.58Z" transform="translate(-10 -77.19)" style="fill:#0ea5e9"/>
    <circle cx="678.4" cy="53.82" r="42.48" style="fill:#0ea5e9"/>
    <path d="M771.73,203l24.52,49.39a8.53,8.53,0,0,0,13.64,2.27l60.16-59.69a30.94,30.94,0,0,1,43.66.08l60.47,60.46a8.52,8.52,0,0,0,13.63-2.16l77.77-152.91a42.43,42.43,0,0,1,57.09-18.56l.09,0a42.42,42.42,0,0,1,18.54,57L1024.5,368.5a30.93,30.93,0,0,1-49.36,7.93l-77.83-77.26a8.53,8.53,0,0,0-12,0l-76.49,76.68a30.94,30.94,0,0,1-49.58-8L695.76,240.76a42.43,42.43,0,0,1,19.2-57h0A42.43,42.43,0,0,1,771.73,203Z" transform="translate(-10 -77.19)" style="fill:#0ea5e9"/>
</svg>
