<svg xmlns="http://www.w3.org/2000/svg" xmlns:xlink="http://www.w3.org/1999/xlink" viewBox="0 0 574.55 334.36"><defs><linearGradient id="a" x1="423.66" y1="422.8" x2="191.51" y2="-23.53" gradientUnits="userSpaceOnUse"><stop offset="0.08" stop-color="#f0eff2"/><stop offset="1" stop-color="#fff"/></linearGradient><linearGradient id="b" x1="232.38" y1="371.74" x2="397.72" y2="10.23" gradientUnits="userSpaceOnUse"><stop offset="0.04" stop-color="#138bbd"/><stop offset="0.23" stop-color="#169ac7"/><stop offset="0.59" stop-color="#1fc3df"/><stop offset="1" stop-color="#2af6ff"/></linearGradient><linearGradient id="c" x1="354.18" y1="196.07" x2="11.94" y2="51.72" gradientUnits="userSpaceOnUse"><stop offset="0.04" stop-color="#ffa98c"/><stop offset="0.32" stop-color="#ffb892"/><stop offset="0.86" stop-color="#fee1a3"/><stop offset="1" stop-color="#feeca8"/></linearGradient><linearGradient id="d" x1="459.19" y1="183.75" x2="234.64" y2="34.69" gradientUnits="userSpaceOnUse"><stop offset="0.04" stop-color="#9f19ab"/><stop offset="0.24" stop-color="#ae25b1"/><stop offset="0.65" stop-color="#d744bf"/><stop offset="1" stop-color="#ff63ce"/></linearGradient><linearGradient id="e" x1="458.38" y1="184.97" x2="233.83" y2="35.91" xlink:href="#d"/><linearGradient id="f" x1="456.93" y1="187.15" x2="232.38" y2="38.09" xlink:href="#d"/><linearGradient id="g" x1="446.95" y1="202.18" x2="222.4" y2="53.12" xlink:href="#d"/><linearGradient id="h" x1="436.93" y1="217.28" x2="212.37" y2="68.22" xlink:href="#d"/><linearGradient id="i" x1="415.45" y1="249.64" x2="190.9" y2="100.58" xlink:href="#d"/><linearGradient id="j" x1="392.65" y1="283.99" x2="168.1" y2="134.93" xlink:href="#d"/><linearGradient id="k" x1="393.32" y1="282.99" x2="168.76" y2="133.92" xlink:href="#d"/><linearGradient id="l" x1="395.17" y1="280.19" x2="170.62" y2="131.13" xlink:href="#d"/><linearGradient id="m" x1="399.92" y1="273.03" x2="175.37" y2="123.97" xlink:href="#d"/><linearGradient id="n" x1="396.41" y1="278.32" x2="171.86" y2="129.26" xlink:href="#d"/><linearGradient id="o" x1="396.56" y1="278.1" x2="172" y2="129.04" xlink:href="#d"/><linearGradient id="p" x1="397.76" y1="276.28" x2="173.21" y2="127.22" xlink:href="#d"/><linearGradient id="q" x1="408.63" y1="259.91" x2="184.08" y2="110.85" xlink:href="#d"/><linearGradient id="r" x1="419.88" y1="242.97" x2="195.32" y2="93.91" xlink:href="#d"/><linearGradient id="s" x1="423.55" y1="237.43" x2="199" y2="88.37" xlink:href="#d"/><linearGradient id="t" x1="427.22" y1="231.92" x2="202.66" y2="82.86" xlink:href="#d"/><linearGradient id="u" x1="431.98" y1="224.73" x2="207.43" y2="75.67" xlink:href="#d"/><linearGradient id="v" x1="433.91" y1="221.83" x2="209.35" y2="72.77" xlink:href="#d"/><radialGradient id="w" cx="1252.12" cy="-3305.44" r="28.33" gradientTransform="translate(-1055.79 2140.46) scale(1.18 0.6)" gradientUnits="userSpaceOnUse"><stop offset="0" stop-color="#c7c8c9"/><stop offset="1" stop-color="#fff"/></radialGradient><linearGradient id="x" x1="428.61" y1="117.81" x2="502.48" y2="117.81" gradientUnits="userSpaceOnUse"><stop offset="0.04" stop-color="#dc2626"/><stop offset="0.19" stop-color="#e23535"/><stop offset="0.5" stop-color="#f15e5e"/><stop offset="0.63" stop-color="#f87171"/><stop offset="0.87" stop-color="#ef4444"/></linearGradient><linearGradient id="y" x1="418.39" y1="120.35" x2="492.26" y2="120.35" gradientUnits="userSpaceOnUse"><stop offset="0.04" stop-color="#dc2626"/><stop offset="0.29" stop-color="#e23535"/><stop offset="0.79" stop-color="#f15e5e"/><stop offset="1" stop-color="#f87171"/></linearGradient><radialGradient id="z" cx="473.72" cy="99.51" r="52.04" gradientUnits="userSpaceOnUse"><stop offset="0" stop-color="#fff"/><stop offset="1"/></radialGradient><linearGradient id="aa" x1="-83.39" y1="2249.09" x2="-111.86" y2="2227.56" gradientTransform="matrix(0.87, 0.5, 0, 1.15, 539.68, -2434.6)" gradientUnits="userSpaceOnUse"><stop offset="0" stop-color="#d4d1d8"/><stop offset="1" stop-color="#fff"/></linearGradient><radialGradient id="ab" cx="439.61" cy="54.96" r="18.69" gradientUnits="userSpaceOnUse"><stop offset="0" stop-color="#fff"/><stop offset="0.17" stop-color="#6dc8f2"/><stop offset="0.28" stop-color="#0ea5e9"/><stop offset="0.3" stop-color="#0c8fca" stop-opacity="0.86"/><stop offset="0.34" stop-color="#0a71a0" stop-opacity="0.69"/><stop offset="0.38" stop-color="#075679" stop-opacity="0.52"/><stop offset="0.42" stop-color="#053f58" stop-opacity="0.38"/><stop offset="0.46" stop-color="#042b3d" stop-opacity="0.26"/><stop offset="0.51" stop-color="#021b26" stop-opacity="0.16"/><stop offset="0.57" stop-color="#010f15" stop-opacity="0.09"/><stop offset="0.64" stop-color="#010609" stop-opacity="0.04"/><stop offset="0.74" stop-color="#000102" stop-opacity="0.01"/><stop offset="1" stop-opacity="0"/></radialGradient></defs><title>maps</title><g style="isolation:isolate"><polygon points="222.05 2.83 0 131.76 350.45 334.36 574.55 203.38 222.05 2.83" style="fill:#d1d3d4;opacity:0.1;mix-blend-mode:multiply"/><polygon points="222.17 3.16 0.67 131.77 350.26 333.88 573.8 203.22 222.17 3.16" style="fill:#d0d2d3;opacity:0.12142857182770968;mix-blend-mode:multiply"/><polygon points="222.29 3.49 1.33 131.79 350.06 333.39 573.06 203.06 222.29 3.49" style="fill:#cfd1d2;opacity:0.1428571432363242;mix-blend-mode:multiply"/><polygon points="222.41 3.82 2 131.8 349.87 332.91 572.31 202.9 222.41 3.82" style="fill:#ced0d1;opacity:0.1642857146449387;mix-blend-mode:multiply"/><polygon points="222.53 4.16 2.66 131.82 349.67 332.43 571.56 202.74 222.53 4.16" style="fill:#cdcfd0;opacity:0.18571428605355322;mix-blend-mode:multiply"/><polygon points="222.65 4.49 3.33 131.83 349.47 331.94 570.81 202.57 222.65 4.49" style="fill:#cccecf;opacity:0.20714285746216776;mix-blend-mode:multiply"/><polygon points="222.77 4.82 4 131.85 349.28 331.46 570.07 202.41 222.77 4.82" style="fill:#cbcdce;opacity:0.22857142887078225;mix-blend-mode:multiply"/><polygon points="222.89 5.15 4.66 131.86 349.08 330.97 569.32 202.25 222.89 5.15" style="fill:#cacccd;opacity:0.2500000002793968;mix-blend-mode:multiply"/><polygon points="223.01 5.48 5.33 131.88 348.88 330.49 568.57 202.09 223.01 5.48" style="fill:#c9cbcc;opacity:0.27142857168801127;mix-blend-mode:multiply"/><polygon points="223.13 5.81 5.99 131.89 348.69 330.01 567.82 201.93 223.13 5.81" style="fill:#c8cacb;opacity:0.2928571430966258;mix-blend-mode:multiply"/><polygon points="223.25 6.15 6.66 131.91 348.49 329.52 567.08 201.77 223.25 6.15" style="fill:#c7c9ca;opacity:0.31428571450524034;mix-blend-mode:multiply"/><polygon points="223.37 6.48 7.33 131.92 348.3 329.04 566.33 201.6 223.37 6.48" style="fill:#c6c8c9;opacity:0.3357142859138548;mix-blend-mode:multiply"/><polygon points="223.49 6.81 7.99 131.94 348.1 328.56 565.58 201.44 223.49 6.81" style="fill:#c5c7c8;opacity:0.35714285732246936;mix-blend-mode:multiply"/><polygon points="223.61 7.14 8.66 131.95 347.9 328.07 564.83 201.28 223.61 7.14" style="fill:#c4c6c7;opacity:0.37857142873108385;mix-blend-mode:multiply"/><polygon points="223.73 7.47 9.32 131.97 347.71 327.59 564.09 201.12 223.73 7.47" style="fill:#c3c5c6;opacity:0.4000000001396984;mix-blend-mode:multiply"/><polygon points="223.84 7.8 9.99 131.98 347.51 327.11 563.34 200.96 223.84 7.8" style="fill:#c2c4c5;opacity:0.4214285715483129;mix-blend-mode:multiply"/><polygon points="223.97 8.14 10.65 132 347.31 326.62 562.59 200.8 223.97 8.14" style="fill:#c1c3c4;opacity:0.4428571429569274;mix-blend-mode:multiply"/><polygon points="224.08 8.47 11.32 132.01 347.12 326.14 561.84 200.64 224.08 8.47" style="fill:#c0c2c3;opacity:0.46428571436554195;mix-blend-mode:multiply"/><polygon points="224.2 8.8 11.99 132.02 346.92 325.65 561.1 200.47 224.2 8.8" style="fill:#bfc1c2;opacity:0.48571428577415643;mix-blend-mode:multiply"/><polygon points="224.32 9.13 12.65 132.04 346.73 325.17 560.35 200.31 224.32 9.13" style="fill:#bec0c1;opacity:0.507142857182771;mix-blend-mode:multiply"/><polygon points="224.44 9.46 13.32 132.05 346.53 324.69 559.6 200.15 224.44 9.46" style="fill:#bdbfc0;opacity:0.5285714285913855;mix-blend-mode:multiply"/><polygon points="224.56 9.8 13.98 132.07 346.33 324.2 558.85 199.99 224.56 9.8" style="fill:#bdbfc0;opacity:0.55;mix-blend-mode:multiply"/><polygon points="224.68 10.13 14.65 132.08 346.14 323.72 558.11 199.83 224.68 10.13" style="fill:#bcbebf;opacity:0.5714285714086145;mix-blend-mode:multiply"/><polygon points="224.8 10.46 15.32 132.1 345.94 323.24 557.36 199.67 224.8 10.46" style="fill:#bbbdbe;opacity:0.592857142817229;mix-blend-mode:multiply"/><polygon points="224.92 10.79 15.98 132.11 345.75 322.75 556.61 199.51 224.92 10.79" style="fill:#babcbd;opacity:0.6142857142258435;mix-blend-mode:multiply"/><polygon points="225.04 11.12 16.65 132.13 345.55 322.27 555.86 199.34 225.04 11.12" style="fill:#b9bbbc;opacity:0.6357142856344581;mix-blend-mode:multiply"/><polygon points="225.16 11.46 17.31 132.14 345.35 321.78 555.12 199.18 225.16 11.46" style="fill:#b8babb;opacity:0.6571428570430726;mix-blend-mode:multiply"/><polygon points="225.28 11.79 17.98 132.16 345.16 321.3 554.37 199.02 225.28 11.79" style="fill:#b7b9ba;opacity:0.678571428451687;mix-blend-mode:multiply"/><polygon points="225.4 12.12 18.64 132.17 344.96 320.82 553.62 198.86 225.4 12.12" style="fill:#b6b8b9;opacity:0.6999999998603016;mix-blend-mode:multiply"/><polygon points="225.52 12.45 19.31 132.19 344.76 320.33 552.87 198.7 225.52 12.45" style="fill:#b5b7b8;opacity:0.7214285712689161;mix-blend-mode:multiply"/><polygon points="225.64 12.78 19.98 132.2 344.57 319.85 552.13 198.54 225.64 12.78" style="fill:#b4b6b7;opacity:0.7428571426775307;mix-blend-mode:multiply"/><polygon points="225.76 13.12 20.64 132.22 344.37 319.37 551.38 198.38 225.76 13.12" style="fill:#b3b5b6;opacity:0.7642857140861452;mix-blend-mode:multiply"/><polygon points="225.88 13.45 21.31 132.23 344.18 318.88 550.63 198.21 225.88 13.45" style="fill:#b2b4b5;opacity:0.7857142854947596;mix-blend-mode:multiply"/><polygon points="226 13.78 21.98 132.25 343.98 318.4 549.88 198.05 226 13.78" style="fill:#b1b3b4;opacity:0.8071428569033742;mix-blend-mode:multiply"/><polygon points="226.12 14.11 22.64 132.26 343.78 317.92 549.14 197.89 226.12 14.11" style="fill:#b0b2b3;opacity:0.8285714283119887;mix-blend-mode:multiply"/><polygon points="226.24 14.44 23.31 132.27 343.59 317.43 548.39 197.73 226.24 14.44" style="fill:#afb1b2;opacity:0.8499999997206032;mix-blend-mode:multiply"/><polygon points="226.36 14.78 23.97 132.29 343.39 316.95 547.64 197.57 226.36 14.78" style="fill:#aeb0b1;opacity:0.8714285711292178;mix-blend-mode:multiply"/><polygon points="226.48 15.11 24.64 132.3 343.19 316.46 546.89 197.41 226.48 15.11" style="fill:#adafb0;opacity:0.8928571425378322;mix-blend-mode:multiply"/><polygon points="226.6 15.44 25.3 132.32 343 315.98 546.15 197.25 226.6 15.44" style="fill:#acaeaf;opacity:0.9142857139464468;mix-blend-mode:multiply"/><polygon points="226.72 15.77 25.97 132.33 342.8 315.5 545.4 197.08 226.72 15.77" style="fill:#abadae;opacity:0.9357142853550613;mix-blend-mode:multiply"/><polygon points="226.84 16.1 26.64 132.35 342.61 315.01 544.65 196.92 226.84 16.1" style="fill:#aaacad;opacity:0.9571428567636758;mix-blend-mode:multiply"/><polygon points="226.96 16.43 27.3 132.36 342.41 314.53 543.9 196.76 226.96 16.43" style="fill:#a9abac;opacity:0.9785714281722904;mix-blend-mode:multiply"/><polygon points="227.08 16.77 27.97 132.38 342.21 314.05 543.16 196.6 227.08 16.77" style="fill:#a8aaab;mix-blend-mode:multiply"/><polygon points="350.45 331.53 574.55 200.55 492.57 133.59 408.1 105.39 325.31 41.18 222.05 0 0 128.93 101.55 170.12 185.63 235.81 268.45 263.81 350.45 331.53" style="fill:#fff"/><polygon points="271.63 258.1 188.73 230.08 104.8 164.5 14.56 127.91 222.57 7.13 322.09 46.81 405.03 111.14 489.42 139.31 563.32 199.68 351.09 323.72 271.63 258.1" style="fill:url(#a)"/><polygon points="229.28 73.98 221.57 78.69 230.99 89.83 244.7 82.97 229.28 73.98" style="fill:#d1d3d4"/><path d="M220,252.75l47.24-29.66,16,11.93a2.1,2.1,0,0,0,.54.27l9.91,3.36-24.19,14.14,2,3.33,27.84-16.28a1.93,1.93,0,0,0-.36-3.49l-13.63-4.61-14.6-10.85,13.86-8.71-2-3.26-65.78,41.31Z" transform="translate(-42.72 -31.63)" style="fill:#d1d3d4"/><polygon points="73.14 108.89 30.27 134.27 34.76 136.09 77.56 110.76 77.39 110.48 96.89 117.76 98.24 114.15 61.73 100.52 57.42 103.02 73.14 108.89" style="fill:#d1d3d4"/><path d="M227.42,148.28a2,2,0,0,0,1.81-.13l16-10.05,6,2.56,34.44,31.9,2.62-2.83-8.06-7.47,42.24-25.88a1.93,1.93,0,0,0,.91-1.48,1.89,1.89,0,0,0-.64-1.61l-23.56-20.77a1.08,1.08,0,0,0-.24-.18L273.68,96.27l-2.07,3.26,25.14,16L308.62,126l-40.69,24.89-14.32-13.25a1.8,1.8,0,0,0-.55-.36l-54-23-1.52,3.55,43.35,18.49-12.87,8.08-66.63-29.72,26-15.6-2-3.31-28.32,17-10.86-4.84-4.11,2.39Zm84.23-19.64,6.59,5.82L277.3,159.54l-6.43-6Z" transform="translate(-42.72 -31.63)" style="fill:#d1d3d4"/><polygon points="420.36 253.35 417.7 256.13 436.26 273.94 439.72 271.92 420.36 253.35" style="fill:#d1d3d4"/><polygon points="277.45 244.36 275.34 241.13 256.96 253.14 261.61 254.71 277.45 244.36" style="fill:#d1d3d4"/><path d="M487.7,213a1.92,1.92,0,0,0,1.37,1.53l30,8.56,1.06-3.7-28.82-8.24-1.65-9.69,46.93-26.92L533.38,172,489,197.43l-.88-5.19a1.94,1.94,0,0,0-1-1.4l-9.11-4.64,36.68-21.11-4.89-1.63-35.89,20.65-27.91-14.25-1.76,3.43,40.26,20.55Z" transform="translate(-42.72 -31.63)" style="fill:#d1d3d4"/><polygon points="341.9 62.17 327.26 70.6 329.18 73.94 345.19 64.73 341.9 62.17" style="fill:#d1d3d4"/><polygon points="278.54 132.23 330.79 130.09 378.34 120.24 401.47 132.23 361.2 157.08 346.64 153.22 280.68 176.78 260.55 139.51 278.54 132.23" style="fill:#cfe4bd"/><polygon points="221.14 5.02 138.26 54.49 169.1 69.91 203.79 55.78 228.21 57.7 269.33 35.22 265.47 23.01 221.14 5.02" style="fill:#cfe4bd"/><polygon points="298.88 188.13 258.4 202.27 259.05 210.62 264.83 226.68 296.95 240.82 302.74 244.67 305.95 247.24 365.06 260.09 379.19 269.73 408.75 251.74 394.62 227.97 408.75 200.34 395.26 189.42 348.36 168.21 298.88 188.13" style="fill:#cfe4bd"/><path d="M351.71,320.58l34.86,28.79c3.49-18.31,9.72-56.25,11.79-83.13,1.94-25.22-19.53-37.57-30.84-49.69C360.57,209.1,358,202,355.11,193.3c-3.64-11.17-1.52-21.43.93-33.3,2.52-12.2,8.83-27.55,4.63-42.82-4.71-17.13-28.49-25.88-52-37.76a123.81,123.81,0,0,1-45.09-39.66L231.84,58.18c16.1,19.39,45.72,28.46,68.86,40.15,14.21,7.18,30,21,31.73,27.18,2.56,9.32.65,18.57-1.56,29.29-2.79,13.5-9.94,29.74-4.19,47.38,4.6,14.13,13.84,24,22,32.79,11.29,12.1,21.63,18.67,20.6,32C367.87,285.15,358.72,306.53,351.71,320.58Z" transform="translate(-42.72 -31.63)" style="fill:url(#b)"/><path d="M428.65,312.32l95.53-59.08a3.86,3.86,0,0,0,1.82-3.38l-1.23-46.08,26-17.63-6.24-5.09L518.7,198.58a3.86,3.86,0,0,0-1.69,3.29l1.23,46-95.78,59.22.08.13L409,295.83a4,4,0,0,0-1.75-.83l-61.8-12-6.24-6.23a3.81,3.81,0,0,0-1.38-.89l-79-29.31-64.21-55.81,75.76-45.46a3.85,3.85,0,0,0,1.62-4.67l-12.53-33,54.83-30.73,28.61,11.32L424,152.12a4.67,4.67,0,0,0,.6.38l22.1,11.6-45.5,28.63,4.11,6.52L478.7,153.1l-9.46-3.16-15.66,9.85.33-.62-25.39-13.33-81.32-64a3.83,3.83,0,0,0-1-.56L315.4,69a3.89,3.89,0,0,0-3.31.23l-57.71,32.34-43.68,3.08L179.42,88.62l-7.92,4.6L202,108.89,94.16,174.49l8.9,3.61,108-65.71,40.81-2.88,11.7,30.86L186.07,186.9a3.86,3.86,0,0,0-.55,6.22l68.75,59.75a3.85,3.85,0,0,0,1.19.7l23.61,8.76-15.53,10.22,9.27,3.14,15.23-10,46.3,17.18,6.47,6.47a3.91,3.91,0,0,0,2,1.06l62,12,32.73,27.43,7.07-4.14Z" transform="translate(-42.72 -31.63)" style="fill:#fee2a6"/><path d="M448.48,211.44a5.12,5.12,0,0,0-1.36-.88l-54-23.77a5.14,5.14,0,0,0-3.78-.15l-88.52,31.17-28-22.75a11.29,11.29,0,0,0,2.89-7.39,10.63,10.63,0,0,0-.68-3.65l37.85-20.9,58-4.41a5,5,0,0,0,2.23-.71l53.39-31.69-8.73-6.77-48.87,29L311,153a5,5,0,0,0-2.1.62l-41.18,22.74a28.53,28.53,0,0,0-13-3,31.21,31.21,0,0,0-7.45.89l-23.2-18.86a5,5,0,0,0-1.26-.75l-91.18-38.25-11.15,6.47,97.68,41,19.27,15.67a11.48,11.48,0,0,0-3.55,8.07,10.89,10.89,0,0,0,1.55,5.48l-51.67,31.39,8.66,6.77L244,199.87a29.65,29.65,0,0,0,10.93,2,30.47,30.47,0,0,0,8.56-1.2L296.6,227.6a5.13,5.13,0,0,0,4.95.86L390.87,197l51.36,22.62,72.43,65.08,9.32-5.45Zm-185-21.81a17.67,17.67,0,0,1-8.54,2,18,18,0,0,1-8.67-2c-1.56-.9-2.09-1.78-2.09-2s.51-1.08,2-2a17.82,17.82,0,0,1,8.54-2,18,18,0,0,1,8.67,2c1.56.91,2.09,1.78,2.09,2S265,188.76,263.45,189.63Z" transform="translate(-42.72 -31.63)" style="fill:url(#c)"/><polygon points="482.64 245.96 469.14 232.46 487.13 220.9 508.34 165.64 516.05 162.43 561.66 199.7 482.64 245.96" style="fill:#cfe4bd"/><polygon points="140.19 189.42 107.42 165 104.2 140.59 90.07 131.59 120.91 112.32 168.46 130.95 165.24 139.94 140.19 154.72 129.26 161.79 145.97 166.29 151.11 184.92 140.19 189.42" style="fill:#cfe4bd"/><path d="M457.68,184.1A1.52,1.52,0,0,1,457,184l-2.35-1.05A1.6,1.6,0,1,1,456,180l2.35,1.05a1.6,1.6,0,0,1-.66,3.07Z" transform="translate(-42.72 -31.63)" style="fill:url(#d)"/><path d="M450.74,181a1.57,1.57,0,0,1-.66-.14l-4.59-2.05a1.61,1.61,0,0,1-.82-2.12,1.63,1.63,0,0,1,2.13-.82l4.6,2.06a1.6,1.6,0,0,1-.66,3.07Z" transform="translate(-42.72 -31.63)" style="fill:url(#e)"/><path d="M437,177.18a1.63,1.63,0,0,1-1.38-.78,1.6,1.6,0,0,1,.55-2.2l2.19-1.33a1.61,1.61,0,0,1,1.49-.1l2.35,1a1.61,1.61,0,0,1-1.31,2.94l-1.58-.71-1.48.9A1.68,1.68,0,0,1,437,177.18Z" transform="translate(-42.72 -31.63)" style="fill:url(#f)"/><path d="M410,193.54a1.63,1.63,0,0,1-1.38-.78,1.6,1.6,0,0,1,.55-2.2l4.5-2.73a1.61,1.61,0,0,1,1.66,2.75l-4.5,2.73A1.68,1.68,0,0,1,410,193.54Zm9-5.46a1.59,1.59,0,0,1-1.37-.77,1.61,1.61,0,0,1,.54-2.21l4.5-2.72a1.6,1.6,0,1,1,1.66,2.74l-4.5,2.73A1.55,1.55,0,0,1,419,188.08Zm9-5.45a1.61,1.61,0,0,1-.84-3l4.5-2.73a1.62,1.62,0,0,1,2.21.55,1.6,1.6,0,0,1-.54,2.2l-4.5,2.73A1.58,1.58,0,0,1,428,182.63Z" transform="translate(-42.72 -31.63)" style="fill:url(#g)"/><path d="M403.29,197.59a1.77,1.77,0,0,1-.56-.09l-2.41-.89a1.61,1.61,0,0,1,1.11-3l1.69.62,1.53-.93a1.61,1.61,0,1,1,1.67,2.75l-2.2,1.33A1.53,1.53,0,0,1,403.29,197.59Z" transform="translate(-42.72 -31.63)" style="fill:url(#h)"/><path d="M307,222.71a1.6,1.6,0,0,1-1.52-1.07,1.62,1.62,0,0,1,1-2l4.7-1.65a1.61,1.61,0,1,1,1.07,3l-4.7,1.65A1.44,1.44,0,0,1,307,222.71Zm9.39-3.3a1.61,1.61,0,0,1-.53-3.13l4.7-1.65a1.61,1.61,0,0,1,1.06,3l-4.69,1.65A1.47,1.47,0,0,1,316.36,219.41Zm9.4-3.31a1.63,1.63,0,0,1-1.52-1.08,1.6,1.6,0,0,1,1-2l4.69-1.66a1.61,1.61,0,0,1,1.07,3l-4.7,1.66A1.64,1.64,0,0,1,325.76,216.1Zm9.39-3.31a1.61,1.61,0,0,1-.53-3.12l4.7-1.66a1.61,1.61,0,0,1,1.07,3l-4.7,1.66A1.7,1.7,0,0,1,335.15,212.79Zm9.4-3.31a1.61,1.61,0,0,1-.53-3.12l4.7-1.65a1.61,1.61,0,0,1,1.06,3l-4.7,1.65A1.6,1.6,0,0,1,344.55,209.48Zm9.4-3.31a1.61,1.61,0,0,1-.54-3.12l4.7-1.65a1.6,1.6,0,0,1,2.05,1,1.62,1.62,0,0,1-1,2.05l-4.7,1.65A1.69,1.69,0,0,1,354,206.17Zm9.39-3.31a1.61,1.61,0,0,1-.53-3.12l4.7-1.65a1.61,1.61,0,1,1,1.06,3l-4.69,1.65A1.7,1.7,0,0,1,363.34,202.86Zm9.4-3.31a1.61,1.61,0,0,1-.54-3.12l4.7-1.65a1.61,1.61,0,1,1,1.07,3l-4.7,1.65A1.44,1.44,0,0,1,372.74,199.55Zm9.39-3.3a1.61,1.61,0,0,1-1.51-1.08,1.59,1.59,0,0,1,1-2l4.7-1.66a1.61,1.61,0,1,1,1.07,3l-4.7,1.66A1.7,1.7,0,0,1,382.13,196.25ZM396.2,195a1.76,1.76,0,0,1-.55-.09L391,193.16a1.6,1.6,0,1,1,1.11-3l4.68,1.72a1.6,1.6,0,0,1-.56,3.11Z" transform="translate(-42.72 -31.63)" style="fill:url(#i)"/><path d="M299.84,225.22a1.58,1.58,0,0,1-1-.36l-2-1.62a1.6,1.6,0,1,1,2-2.49l1.3,1.05,1.57-.55a1.61,1.61,0,0,1,1.07,3l-2.42.85A1.7,1.7,0,0,1,299.84,225.22Z" transform="translate(-42.72 -31.63)" style="fill:url(#j)"/><path d="M294.3,220.72a1.62,1.62,0,0,1-1-.36l-3.54-2.88a1.61,1.61,0,0,1,2-2.49l3.54,2.88a1.61,1.61,0,0,1-1,2.85ZM287.22,215a1.63,1.63,0,0,1-1-.36l-3.54-2.89a1.61,1.61,0,0,1,2-2.49l3.54,2.88a1.61,1.61,0,0,1-1,2.86Zm-7.09-5.77a1.53,1.53,0,0,1-1-.36L275.57,206a1.61,1.61,0,0,1,2-2.49l3.54,2.88a1.6,1.6,0,0,1,.23,2.26A1.59,1.59,0,0,1,280.13,209.19ZM273,203.43a1.58,1.58,0,0,1-1-.36l-3.55-2.88a1.61,1.61,0,1,1,2-2.49l3.54,2.88a1.6,1.6,0,0,1-1,2.85Z" transform="translate(-42.72 -31.63)" style="fill:url(#k)"/><path d="M266,197.67a1.62,1.62,0,0,1-1-.36l-2-1.62a1.6,1.6,0,0,1-.59-1.27,1.62,1.62,0,0,1,.63-1.26,12.3,12.3,0,0,0,1.63-1.56,1.6,1.6,0,1,1,2.4,2.13c-.2.23-.4.44-.59.64l.54.44a1.61,1.61,0,0,1,.24,2.26A1.59,1.59,0,0,1,266,197.67Z" transform="translate(-42.72 -31.63)" style="fill:url(#l)"/><path d="M268.22,190.3a1.69,1.69,0,0,1-.5-.08,1.6,1.6,0,0,1-1-2,5.27,5.27,0,0,0,.28-1.67,4.64,4.64,0,0,0-.36-1.78,1.6,1.6,0,0,1,3-1.24,7.72,7.72,0,0,1,.61,3,8.39,8.39,0,0,1-.44,2.67A1.6,1.6,0,0,1,268.22,190.3Zm-3.05-8.17a1.59,1.59,0,0,1-1-.33,11.58,11.58,0,0,0-3.65-1.84,1.61,1.61,0,0,1,1-3.07,14.88,14.88,0,0,1,4.65,2.37,1.6,1.6,0,0,1-1,2.87Zm-8.73-3h-.13a31.32,31.32,0,0,0-4.44,0,1.56,1.56,0,0,1-1.7-1.5,1.59,1.59,0,0,1,1.5-1.7,33.4,33.4,0,0,1,4.9,0,1.61,1.61,0,0,1-.13,3.21Z" transform="translate(-42.72 -31.63)" style="fill:url(#m)"/><path d="M244.59,180.25a1.58,1.58,0,0,1-1-.38l-2-1.65a1.6,1.6,0,1,1,2.06-2.46l1.35,1.13c.45-.1,1.07-.23,1.82-.37a1.61,1.61,0,0,1,.56,3.17c-1.45.25-2.36.5-2.37.5A1.52,1.52,0,0,1,244.59,180.25Z" transform="translate(-42.72 -31.63)" style="fill:url(#n)"/><path d="M238.58,175.2a1.55,1.55,0,0,1-1-.38l-4.05-3.39a1.61,1.61,0,0,1-.19-2.27,1.59,1.59,0,0,1,2.26-.19l4,3.39a1.61,1.61,0,0,1-1,2.84Z" transform="translate(-42.72 -31.63)" style="fill:url(#o)"/><path d="M230.49,168.41a1.57,1.57,0,0,1-1-.38l-2-1.65a1.61,1.61,0,0,1,.23-2.62l2.22-1.29a1.6,1.6,0,0,1,2.2.58,1.62,1.62,0,0,1-.58,2.2l-.25.14.22.18a1.61,1.61,0,0,1-1,2.84Z" transform="translate(-42.72 -31.63)" style="fill:url(#p)"/><path d="M234.68,163.18a1.6,1.6,0,0,1-.81-3l3.94-2.29a1.61,1.61,0,0,1,1.61,2.78L235.49,163A1.59,1.59,0,0,1,234.68,163.18Zm7.87-4.57a1.57,1.57,0,0,1-1.39-.8,1.59,1.59,0,0,1,.58-2.19l3.93-2.28a1.6,1.6,0,1,1,1.62,2.77l-3.94,2.29A1.65,1.65,0,0,1,242.55,158.61Zm7.86-4.56a1.61,1.61,0,0,1-.81-3l3.94-2.28a1.61,1.61,0,0,1,1.61,2.78l-3.93,2.28A1.59,1.59,0,0,1,250.41,154.05Zm7.87-4.57a1.6,1.6,0,0,1-.81-3l3.93-2.29A1.61,1.61,0,1,1,263,147l-3.93,2.28A1.56,1.56,0,0,1,258.28,149.48Z" transform="translate(-42.72 -31.63)" style="fill:url(#q)"/><path d="M266.14,144.92a1.61,1.61,0,0,1-.81-3l1.15-.67-.35-1.28a1.6,1.6,0,1,1,3.09-.86l.69,2.48a1.62,1.62,0,0,1-.74,1.82L267,144.7A1.62,1.62,0,0,1,266.14,144.92Z" transform="translate(-42.72 -31.63)" style="fill:url(#r)"/><path d="M266.4,136.58a1.6,1.6,0,0,1-1.55-1.17l-1.27-4.57a1.61,1.61,0,1,1,3.09-.87l1.28,4.57a1.62,1.62,0,0,1-1.12,2A1.59,1.59,0,0,1,266.4,136.58Z" transform="translate(-42.72 -31.63)" style="fill:url(#s)"/><path d="M263.85,127.44a1.59,1.59,0,0,1-1.54-1.17l-.69-2.48a1.59,1.59,0,0,1,.8-1.85l2.27-1.2a1.61,1.61,0,0,1,1.5,2.85l-1.13.59.34,1.23a1.59,1.59,0,0,1-1.12,2A1.28,1.28,0,0,1,263.85,127.44Z" transform="translate(-42.72 -31.63)" style="fill:url(#t)"/><path d="M270.51,121a1.61,1.61,0,0,1-.75-3L273,116.4a1.6,1.6,0,1,1,1.49,2.84l-3.21,1.58A1.65,1.65,0,0,1,270.51,121Z" transform="translate(-42.72 -31.63)" style="fill:url(#u)"/><path d="M278.82,118.64a6.23,6.23,0,0,1-5.64,0c-1.57-.9-1.58-2.36,0-3.26a6.23,6.23,0,0,1,5.64,0C280.37,116.28,280.38,117.74,278.82,118.64Z" transform="translate(-42.72 -31.63)" style="fill:url(#v)"/><polygon points="422.03 245.74 445.16 232.04 417.32 206.34 409.18 211.9 424.6 229.04 414.32 235.46 422.03 245.74" style="fill:#d1d3d4"/><polygon points="365.49 310.85 388.62 297.14 367.42 278.51 359.28 284.08 357.78 300.57 365.49 310.85" style="fill:#d1d3d4"/><polygon points="400.18 148.94 381.76 160.5 393.96 167.34 405.57 163.91 418.6 171.21 432.74 163.07 400.18 148.94" style="fill:#d1d3d4"/><polygon points="183.88 83.4 178.74 86.83 203.15 97.54 208.29 92.4 203.58 83.4 183.88 83.4" style="fill:#d1d3d4"/><polygon points="201.87 195.63 220.28 184.06 213 176.78 205.29 181.06 198.01 174.21 184.3 182.35 201.87 195.63" style="fill:#d1d3d4"/><polygon points="327.8 110.39 345.36 98.39 327.8 82.97 321.8 88.54 331.22 95.83 323.08 102.68 327.8 110.39" style="fill:#d1d3d4"/><polygon points="457.58 220.47 470.43 212.33 470 191.77 460.15 190.06 457.58 203.34 452.87 206.76 431.88 188.35 425.03 192.2 457.58 220.47" style="fill:#d1d3d4"/><polygon points="258.4 182.35 272.54 175.07 256.26 142.94 243.41 149.79 242.99 159.22 236.13 164.36 258.4 182.35" style="fill:#d1d3d4"/><polygon points="408.1 105.39 325.31 41.18 101.55 170.12 185.63 235.81 408.1 105.39" style="fill:#c8cacc;mix-blend-mode:multiply"/><polygon points="268.45 263.81 350.45 331.53 574.55 200.55 492.57 133.59 268.45 263.81" style="fill:#c8cacc;mix-blend-mode:multiply"/><ellipse cx="422.31" cy="149.93" rx="33.45" ry="17.06" style="mix-blend-mode:multiply;fill:url(#w)"/><path d="M465.54,54c-10.9-6.3-20.67-6.48-27.43-1.77l-7.83,3.66,1,5a35.52,35.52,0,0,0-2.63,14.15c0,16,8.57,41.32,17.45,63.24l9.27,48.37,10.21-5.11s36.94-30.57,36.94-63.85C502.48,94.3,485.94,65.78,465.54,54Z" transform="translate(-42.72 -31.63)" style="fill:url(#x)"/><path d="M492.26,122.81c0,33.29-36.93,63.86-36.93,63.86s-36.94-73.22-36.94-106.51c0-23.4,16.54-32.83,36.94-21S492.26,99.41,492.26,122.81Z" transform="translate(-42.72 -31.63)" style="fill:url(#y)"/><path d="M457.67,57.83c-10.66-6.15-20.23-6.47-27-2.08,6.54-3,15.15-2.11,24.63,3.36,20.4,11.77,36.93,40.3,36.93,63.7,0,28.53-27.1,55-34.86,62,.16.33.27.54.27.54s36.93-30.57,36.93-63.85C494.6,98.13,478.07,69.61,457.67,57.83Z" transform="translate(-42.72 -31.63)" style="mix-blend-mode:color-dodge;fill:url(#z)"/><path d="M471.39,110.76c0,10.18-7.19,14.28-16.06,9.16s-16.07-17.52-16.07-27.7,7.2-14.28,16.07-9.16S471.39,100.58,471.39,110.76Z" transform="translate(-42.72 -31.63)" style="fill:url(#aa)"/><path d="M460.28,117.63c-8.87-5.12-16.06-17.52-16.06-27.7,0-4,1.14-7.09,3-9-4.78.43-8,4.5-8,11.31,0,10.18,7.2,22.58,16.07,27.7,5.35,3.09,10.09,2.8,13-.14A13.86,13.86,0,0,1,460.28,117.63Z" transform="translate(-42.72 -31.63)" style="fill:#d1d3d4;mix-blend-mode:multiply"/><circle cx="439.61" cy="54.96" r="18.69" style="mix-blend-mode:color-dodge;fill:url(#ab)"/></g></svg>