<svg width="32" height="28" viewBox="0 0 32 28" fill="none" xmlns="http://www.w3.org/2000/svg">
    <g clip-path="url(#clip0_26_38)">
        <path d="M2.98286 0H28.6183C29.4094 0 30.1681 0.314264 30.7275 0.873659C31.2869 1.43305 31.6011 2.19175 31.6011 2.98286C31.6011 3.77396 31.2869 4.53266 30.7275 5.09206C30.1681 5.65145 29.4094 5.96571 28.6183 5.96571H2.98286C2.19175 5.96571 1.43305 5.65145 0.873659 5.09206C0.314264 4.53266 0 3.77396 0 2.98286C0 2.19175 0.314264 1.43305 0.873659 0.873659C1.43305 0.314264 2.19175 0 2.98286 0V0Z" fill="#292524"/>
        <path d="M2.98286 10.7314H28.6183C29.01 10.7314 29.3979 10.8086 29.7598 10.9585C30.1217 11.1084 30.4505 11.3281 30.7275 11.6051C31.0045 11.8821 31.2242 12.2109 31.3741 12.5728C31.524 12.9347 31.6011 13.3226 31.6011 13.7143C31.6011 14.106 31.524 14.4939 31.3741 14.8558C31.2242 15.2177 31.0045 15.5465 30.7275 15.8235C30.4505 16.1005 30.1217 16.3202 29.7598 16.4701C29.3979 16.62 29.01 16.6972 28.6183 16.6972H2.98286C2.59114 16.6972 2.20326 16.62 1.84137 16.4701C1.47947 16.3202 1.15064 16.1005 0.873659 15.8235C0.596675 15.5465 0.376959 15.2177 0.227057 14.8558C0.0771539 14.4939 0 14.106 0 13.7143C0 13.3226 0.0771539 12.9347 0.227057 12.5728C0.376959 12.2109 0.596675 11.8821 0.873659 11.6051C1.15064 11.3281 1.47947 11.1084 1.84137 10.9585C2.20326 10.8086 2.59114 10.7314 2.98286 10.7314Z" fill="#292524"/>
        <path d="M2.98286 21.464H28.6183C29.01 21.464 29.3979 21.5411 29.7598 21.691C30.1217 21.8409 30.4505 22.0607 30.7275 22.3376C31.0045 22.6146 31.2242 22.9435 31.3741 23.3054C31.524 23.6673 31.6011 24.0551 31.6011 24.4468C31.6011 24.8386 31.524 25.2264 31.3741 25.5883C31.2242 25.9502 31.0045 26.2791 30.7275 26.556C30.4505 26.833 30.1217 27.0527 29.7598 27.2026C29.3979 27.3525 29.01 27.4297 28.6183 27.4297H2.98286C2.59114 27.4297 2.20326 27.3525 1.84137 27.2026C1.47947 27.0527 1.15064 26.833 0.873659 26.556C0.596675 26.2791 0.376959 25.9502 0.227057 25.5883C0.0771539 25.2264 0 24.8386 0 24.4468C0 24.0551 0.0771539 23.6673 0.227057 23.3054C0.376959 22.9435 0.596675 22.6146 0.873659 22.3376C1.15064 22.0607 1.47947 21.8409 1.84137 21.691C2.20326 21.5411 2.59114 21.464 2.98286 21.464Z" fill="#292524"/>
    </g>
    <defs>
        <clipPath id="clip0_26_38">
            <rect width="32" height="27.4286" fill="white"/>
        </clipPath>
    </defs>
</svg>
