<svg xmlns="http://www.w3.org/2000/svg" viewBox="0 0 1920 1074.25"><title>error-404</title><ellipse cx="1527.46" cy="118.56" rx="97.95" ry="83.14" transform="translate(1347.97 1634.4) rotate(-87.71)" style="fill:#d6d3d1"/><path d="M1585.3,121.29c-2.37,49.25-35.21,88.42-75.73,93.19a71,71,0,0,0,13.19,1.92c45.86,2.35,85.14-39.55,87.73-93.59S1578,23.07,1532.16,20.72a71.57,71.57,0,0,0-12,.41C1559.35,30.63,1587.64,72.57,1585.3,121.29Z" transform="translate(0 -5.67)" style="fill:#a8a29e"/><ellipse cx="931.64" cy="984.21" rx="97.94" ry="47.51" transform="matrix(1, -0.1, 0.1, 1, -91.5, 89.83)" style="fill:#d6d3d1"/><path d="M932.43,1017.36c-49.12,3.86-90-10.66-97.25-33.17a24.79,24.79,0,0,0-1.11,7.7c.44,26.3,44.48,44.18,98.37,39.94s97.22-29,96.78-55.3a23.49,23.49,0,0,0-1.13-6.78C1021,993,981,1013.53,932.43,1017.36Z" transform="translate(0 -5.67)" style="fill:#a8a29e"/><ellipse cx="194.02" cy="876.78" rx="64.71" ry="76.23" transform="translate(-517.75 323.6) rotate(-39.95)" style="fill:#d6d3d1"/><path d="M159.68,906c24.88,29.22,63.74,37.73,91,21.4a55.73,55.73,0,0,1-7.21,7.46c-27.14,23.25-71.26,16.12-98.56-15.94s-27.42-76.89-.29-100.14a55.1,55.1,0,0,1,7.59-5.46C132.55,837.77,135.07,877.06,159.68,906Z" transform="translate(0 -5.67)" style="fill:#a8a29e"/><ellipse cx="115.46" cy="546.96" rx="49.72" ry="33.99" transform="translate(-433.13 648.69) rotate(-89.16)" style="fill:#d6d3d1"/><path d="M91.81,546.14c-.54,25,11.65,46.1,28,50.05a23.49,23.49,0,0,1-5.44.47c-18.76-.55-33.49-23.25-32.9-50.7s16.28-49.26,35.05-48.71a24.09,24.09,0,0,1,4.88.66C105.15,501.23,92.34,521.39,91.81,546.14Z" transform="translate(0 -5.67)" style="fill:#a8a29e"/><path d="M1709.62,769.87c-14.23,26.86-7.25,58.36,15.58,70.37s52.88,0,67.11-26.88,7.26-58.37-15.57-70.38S1723.85,743,1709.62,769.87Z" transform="translate(0 -5.67)" style="fill:#d6d3d1"/><path d="M1779.7,806.87c13-24.48,8.32-52.82-9.89-66.74a41,41,0,0,1,6.93,2.85c22.83,12,29.8,43.52,15.57,70.38s-44.28,38.89-67.11,26.88a40.14,40.14,0,0,1-5.69-3.63C1741.18,843.25,1766.87,831.09,1779.7,806.87Z" transform="translate(0 -5.67)" style="fill:#a8a29e"/><ellipse cx="455.57" cy="96.13" rx="76.23" ry="64.71" transform="translate(214.08 488.54) rotate(-70.67)" style="fill:#d6d3d1"/><path d="M408.14,79.07c-12.41,36.31.12,74.06,28.07,89.14a55.71,55.71,0,0,1-10.1-2.4c-33.85-11.45-50.25-53-36.64-92.87s52.1-62.85,85.95-51.4A55.25,55.25,0,0,1,484,25.28C452.91,20.91,420.42,43.15,408.14,79.07Z" transform="translate(0 -5.67)" style="fill:#a8a29e"/><path d="M1338.8,92.65l11.13,6.62a2.15,2.15,0,0,1-.2,3.76l-11.81,5.91a2.16,2.16,0,0,0-.9.82l-6.9,11.26a2.14,2.14,0,0,1-3.76-.12l-5.65-11.65a2.12,2.12,0,0,0-.8-.88l-11.13-6.62A2.15,2.15,0,0,1,1309,98l11.81-5.91a2.16,2.16,0,0,0,.9-.82l6.9-11.26a2.14,2.14,0,0,1,3.76.11L1338,91.77A2.19,2.19,0,0,0,1338.8,92.65Z" transform="translate(0 -5.67)" style="fill:#d6d3d1"/><path d="M261.83,1050.49l11.13,6.62a2.15,2.15,0,0,1-.21,3.76l-11.81,5.91a2.25,2.25,0,0,0-.9.83l-6.89,11.26a2.14,2.14,0,0,1-3.76-.12l-5.65-11.66a2.06,2.06,0,0,0-.81-.87l-11.13-6.63a2.15,2.15,0,0,1,.21-3.76l11.81-5.9a2.32,2.32,0,0,0,.9-.83l6.89-11.26a2.15,2.15,0,0,1,3.77.12l5.65,11.65A2,2,0,0,0,261.83,1050.49Z" transform="translate(0 -5.67)" style="fill:#d6d3d1"/><path d="M1244.18,1042.64l11.13,6.62a2.15,2.15,0,0,1-.21,3.76l-11.81,5.91a2.22,2.22,0,0,0-.9.82L1235.5,1071a2.14,2.14,0,0,1-3.76-.12l-5.65-11.65a2.15,2.15,0,0,0-.81-.88l-11.12-6.62a2.14,2.14,0,0,1,.2-3.76l11.81-5.91a2.22,2.22,0,0,0,.9-.82L1234,1030a2.15,2.15,0,0,1,3.77.12l5.65,11.65A2.06,2.06,0,0,0,1244.18,1042.64Z" transform="translate(0 -5.67)" style="fill:#d6d3d1"/><path d="M1729,1033.08l11.13,6.63a2.15,2.15,0,0,1-.2,3.76l-11.81,5.9a2.25,2.25,0,0,0-.9.83l-6.9,11.26a2.14,2.14,0,0,1-3.76-.12l-5.65-11.65a2.13,2.13,0,0,0-.8-.88l-11.13-6.63a2.14,2.14,0,0,1,.2-3.75l11.81-5.91a2.23,2.23,0,0,0,.9-.82l6.9-11.26a2.14,2.14,0,0,1,3.76.11l5.65,11.66A2,2,0,0,0,1729,1033.08Z" transform="translate(0 -5.67)" style="fill:#d6d3d1"/><path d="M541.3,220.87l11.13,6.63a2.15,2.15,0,0,1-.2,3.76l-11.81,5.91a2.1,2.1,0,0,0-.9.82l-6.9,11.26a2.14,2.14,0,0,1-3.76-.12l-5.65-11.65a2.09,2.09,0,0,0-.81-.88L511.28,230a2.15,2.15,0,0,1,.2-3.76l11.81-5.91a2.22,2.22,0,0,0,.9-.82l6.9-11.26a2.14,2.14,0,0,1,3.76.11L540.5,220A2,2,0,0,0,541.3,220.87Z" transform="translate(0 -5.67)" style="fill:#d6d3d1"/><path d="M612.36,19.37,623.49,26a2.14,2.14,0,0,1-.21,3.76l-11.81,5.9a2.23,2.23,0,0,0-.89.83l-6.9,11.26a2.14,2.14,0,0,1-3.76-.12L594.27,36a2.09,2.09,0,0,0-.81-.88l-11.12-6.62a2.14,2.14,0,0,1,.2-3.76l11.81-5.91a2.22,2.22,0,0,0,.9-.82l6.9-11.26a2.14,2.14,0,0,1,3.76.11l5.65,11.66A2,2,0,0,0,612.36,19.37Z" transform="translate(0 -5.67)" style="fill:#d6d3d1"/><path d="M251.93,94.75l5.64,3.37a1.08,1.08,0,0,1-.1,1.9l-6,3a1.1,1.1,0,0,0-.46.42l-3.5,5.71a1.09,1.09,0,0,1-1.91-.06l-2.86-5.91a1.11,1.11,0,0,0-.41-.45l-5.65-3.36a1.08,1.08,0,0,1,.11-1.9l6-3a1.14,1.14,0,0,0,.45-.42l3.5-5.71a1.09,1.09,0,0,1,1.91.06l2.87,5.91A1,1,0,0,0,251.93,94.75Z" transform="translate(0 -5.67)" style="fill:#d6d3d1"/><path d="M881.37,62.15,887,65.51a1.09,1.09,0,0,1-.1,1.91l-6,3a1.1,1.1,0,0,0-.46.42L877,76.55a1.09,1.09,0,0,1-1.91-.06l-2.86-5.91a1,1,0,0,0-.41-.45l-5.65-3.36a1.09,1.09,0,0,1,.11-1.91l6-3a1.14,1.14,0,0,0,.45-.42l3.5-5.71a1.09,1.09,0,0,1,1.91,0L881,61.71A1,1,0,0,0,881.37,62.15Z" transform="translate(0 -5.67)" style="fill:#d6d3d1"/><path d="M1405,25l5.64,3.36a1.09,1.09,0,0,1-.1,1.91l-6,3a1.17,1.17,0,0,0-.46.42l-3.5,5.72a1.09,1.09,0,0,1-1.91-.06l-2.86-5.92a1,1,0,0,0-.41-.44l-5.65-3.36a1.09,1.09,0,0,1,.11-1.91l6-3a1.1,1.1,0,0,0,.46-.42l3.49-5.71a1.09,1.09,0,0,1,1.91.06l2.87,5.91A1,1,0,0,0,1405,25Z" transform="translate(0 -5.67)" style="fill:#d6d3d1"/><path d="M1766.58,43.34l5.64,3.37a1.08,1.08,0,0,1-.1,1.9l-6,3a1.1,1.1,0,0,0-.46.42l-3.5,5.71a1.09,1.09,0,0,1-1.91-.06l-2.86-5.91a1,1,0,0,0-.41-.45L1751.34,48a1.08,1.08,0,0,1,.11-1.9l6-3a1.14,1.14,0,0,0,.45-.42l3.5-5.71a1.09,1.09,0,0,1,1.91.06l2.87,5.91A1,1,0,0,0,1766.58,43.34Z" transform="translate(0 -5.67)" style="fill:#d6d3d1"/><path d="M1111.23,1015.26l6.63,3.87a1.27,1.27,0,0,1-.1,2.22l-7,3.56a1.34,1.34,0,0,0-.53.5l-4,6.7a1.26,1.26,0,0,1-2.22,0l-3.41-6.87a1.21,1.21,0,0,0-.48-.52l-6.63-3.87a1.27,1.27,0,0,1,.1-2.22l7-3.56a1.41,1.41,0,0,0,.53-.5l4-6.7a1.27,1.27,0,0,1,2.23,0l3.4,6.87A1.27,1.27,0,0,0,1111.23,1015.26Z" transform="translate(0 -5.67)" style="fill:#d6d3d1"/><path d="M1812.38,619.46l6.63,3.87a1.27,1.27,0,0,1-.11,2.23l-7,3.56a1.32,1.32,0,0,0-.53.49l-4,6.71a1.27,1.27,0,0,1-2.23-.05l-3.4-6.88a1.27,1.27,0,0,0-.49-.51l-6.62-3.87a1.27,1.27,0,0,1,.1-2.23l7-3.56a1.29,1.29,0,0,0,.52-.49l4-6.71a1.27,1.27,0,0,1,2.23.05l3.41,6.88A1.18,1.18,0,0,0,1812.38,619.46Z" transform="translate(0 -5.67)" style="fill:#d6d3d1"/><path d="M104.15,678.36l5.33,3.18a1,1,0,0,1-.1,1.8l-5.65,2.83a1,1,0,0,0-.43.39L100,692a1,1,0,0,1-1.8-.06l-2.71-5.58a.91.91,0,0,0-.38-.42l-5.33-3.18a1,1,0,0,1,.1-1.8l5.65-2.83a1,1,0,0,0,.43-.39l3.31-5.39a1,1,0,0,1,1.8.05l2.71,5.58A.86.86,0,0,0,104.15,678.36Z" transform="translate(0 -5.67)" style="fill:#d6d3d1"/><path d="M703,1052l5.34,3.17a1,1,0,0,1-.1,1.8l-5.66,2.83a1,1,0,0,0-.43.4l-3.3,5.39a1,1,0,0,1-1.81-.06l-2.7-5.58a1.05,1.05,0,0,0-.39-.42l-5.33-3.17a1,1,0,0,1,.1-1.8l5.66-2.83a1.17,1.17,0,0,0,.43-.4l3.3-5.39a1,1,0,0,1,1.8,0l2.71,5.59A1,1,0,0,0,703,1052Z" transform="translate(0 -5.67)" style="fill:#d6d3d1"/><path d="M1681.74,942.49l5.33,3.17a1,1,0,0,1-.09,1.8l-5.66,2.83a1,1,0,0,0-.43.4l-3.31,5.39a1,1,0,0,1-1.8-.06l-2.7-5.58a1.05,1.05,0,0,0-.39-.42l-5.33-3.17a1,1,0,0,1,.1-1.8l5.66-2.83a1.17,1.17,0,0,0,.43-.4l3.3-5.39a1,1,0,0,1,1.8.06l2.71,5.58A1,1,0,0,0,1681.74,942.49Z" transform="translate(0 -5.67)" style="fill:#d6d3d1"/><path d="M1588.15,1053.2l5.33,3.17a1,1,0,0,1-.1,1.81l-5.65,2.82a1,1,0,0,0-.43.4l-3.31,5.39a1,1,0,0,1-1.8,0l-2.71-5.58a1,1,0,0,0-.38-.43l-5.33-3.17a1,1,0,0,1,.1-1.8l5.65-2.83a1,1,0,0,0,.43-.39l3.31-5.4a1,1,0,0,1,1.8.06l2.7,5.58A1,1,0,0,0,1588.15,1053.2Z" transform="translate(0 -5.67)" style="fill:#d6d3d1"/><path d="M1683,258.45l5.78,3.43a1.12,1.12,0,0,1-.11,2l-6.13,3.06a1.19,1.19,0,0,0-.46.43l-3.58,5.84a1.12,1.12,0,0,1-2-.06l-2.93-6.05a1,1,0,0,0-.41-.45l-5.78-3.44a1.11,1.11,0,0,1,.11-1.95l6.13-3.07a1.1,1.1,0,0,0,.46-.42l3.58-5.85a1.11,1.11,0,0,1,2,.06l2.94,6.05A1.07,1.07,0,0,0,1683,258.45Z" transform="translate(0 -5.67)" style="fill:#d6d3d1"/><path d="M1498.27,359.15l2.76,1.7a.53.53,0,0,1,0,.92l-2.83,1.35a.55.55,0,0,0-.21.19l-1.59,2.7a.52.52,0,0,1-.91-.06l-1.46-2.89a.61.61,0,0,0-.2-.22l-2.76-1.7a.53.53,0,0,1,0-.92l2.83-1.35a.55.55,0,0,0,.21-.19l1.58-2.7a.52.52,0,0,1,.92.06l1.46,2.89A.7.7,0,0,0,1498.27,359.15Z" transform="translate(0 -5.67)" style="fill:#f59e0b"/><path d="M1500.43,759.25l2.76,1.7a.53.53,0,0,1,0,.92l-2.82,1.35a.51.51,0,0,0-.22.19l-1.58,2.7a.53.53,0,0,1-.92-.06l-1.46-2.89a.61.61,0,0,0-.2-.22l-2.75-1.7a.52.52,0,0,1,0-.92l2.82-1.35a.48.48,0,0,0,.21-.19l1.59-2.7a.52.52,0,0,1,.91.06l1.46,2.89A.7.7,0,0,0,1500.43,759.25Z" transform="translate(0 -5.67)" style="fill:#f59e0b"/><path d="M1610.35,575.9l5.33,3.17a1,1,0,0,1-.1,1.8l-5.65,2.83a1.08,1.08,0,0,0-.43.39l-3.3,5.39a1,1,0,0,1-1.8-.05l-2.71-5.58a1,1,0,0,0-.38-.42l-5.33-3.17a1,1,0,0,1,.1-1.8l5.65-2.83a1,1,0,0,0,.43-.39l3.3-5.39a1,1,0,0,1,1.8.06l2.71,5.57A.91.91,0,0,0,1610.35,575.9Z" transform="translate(0 -5.67)" style="fill:#f59e0b"/><path d="M1468.74,389.09l5.36,3.32a1,1,0,0,1,0,1.78l-5.49,2.63a.89.89,0,0,0-.41.38l-3.09,5.24a1,1,0,0,1-1.78-.11l-2.85-5.62a1,1,0,0,0-.39-.43l-5.36-3.32a1,1,0,0,1,0-1.78l5.49-2.63a.89.89,0,0,0,.41-.38l3.09-5.24a1,1,0,0,1,1.78.11l2.85,5.62A1,1,0,0,0,1468.74,389.09Z" transform="translate(0 -5.67)" style="fill:#f59e0b"/><path d="M211.28,544.78l4,2.58a.77.77,0,0,1,0,1.36l-4.2,1.94a.7.7,0,0,0-.32.29l-2.41,4a.77.77,0,0,1-1.35-.1l-2.11-4.31a.78.78,0,0,0-.29-.33l-4.05-2.58a.78.78,0,0,1,.05-1.36l4.21-1.94a.74.74,0,0,0,.32-.29l2.4-4a.77.77,0,0,1,1.35.11l2.11,4.3A.8.8,0,0,0,211.28,544.78Z" transform="translate(0 -5.67)" style="fill:#f59e0b"/><path d="M299,636.38l3.91,2.24a.73.73,0,0,1,0,1.27l-3.86,2a.63.63,0,0,0-.28.28L296.65,646a.73.73,0,0,1-1.28,0l-2.17-4a.76.76,0,0,0-.29-.3L289,639.49a.72.72,0,0,1,0-1.27l3.86-2a.71.71,0,0,0,.29-.28l2.08-3.82a.72.72,0,0,1,1.27,0l2.17,4A.72.72,0,0,0,299,636.38Z" transform="translate(0 -5.67)" style="fill:#f59e0b"/><path d="M416.19,332.94l3.92,2.24a.73.73,0,0,1,0,1.27l-3.86,2a.81.81,0,0,0-.29.29l-2.07,3.82a.73.73,0,0,1-1.28,0l-2.17-3.94a.76.76,0,0,0-.29-.3l-3.91-2.24a.73.73,0,0,1,0-1.28l3.86-2a.71.71,0,0,0,.29-.28l2.08-3.83a.73.73,0,0,1,1.27,0l2.17,3.95A.83.83,0,0,0,416.19,332.94Z" transform="translate(0 -5.67)" style="fill:#f59e0b"/><path d="M720.42,268.63l3.92,2.24a.73.73,0,0,1,0,1.27l-3.86,2a.78.78,0,0,0-.29.28l-2.08,3.83a.72.72,0,0,1-1.27,0l-2.17-4a.81.81,0,0,0-.29-.29l-3.91-2.24a.73.73,0,0,1,0-1.28l3.86-2a.71.71,0,0,0,.29-.28l2.08-3.83a.73.73,0,0,1,1.27,0l2.17,3.95A.83.83,0,0,0,720.42,268.63Z" transform="translate(0 -5.67)" style="fill:#f59e0b"/><path d="M270.34,651.11l7.77,4.45a1.44,1.44,0,0,1,0,2.53l-7.67,4a1.37,1.37,0,0,0-.56.56l-4.13,7.6a1.45,1.45,0,0,1-2.54-.08l-4.31-7.84a1.43,1.43,0,0,0-.58-.59l-7.76-4.45a1.44,1.44,0,0,1,0-2.53l7.66-4a1.37,1.37,0,0,0,.57-.55l4.13-7.6a1.44,1.44,0,0,1,2.53.07l4.31,7.84A1.56,1.56,0,0,0,270.34,651.11Z" transform="translate(0 -5.67)" style="fill:#f59e0b"/><path d="M775.28,228l7.77,4.45a1.45,1.45,0,0,1,0,2.53l-7.67,4a1.32,1.32,0,0,0-.57.55l-4.13,7.6a1.44,1.44,0,0,1-2.53-.07l-4.31-7.84a1.56,1.56,0,0,0-.58-.59l-7.77-4.45a1.45,1.45,0,0,1,0-2.53l7.67-4a1.4,1.4,0,0,0,.57-.56l4.13-7.6a1.44,1.44,0,0,1,2.53.08l4.31,7.84A1.5,1.5,0,0,0,775.28,228Z" transform="translate(0 -5.67)" style="fill:#f59e0b"/><path d="M664.3,983.23l7.77,4.44a1.45,1.45,0,0,1,0,2.54l-7.67,4a1.29,1.29,0,0,0-.56.55l-4.13,7.6a1.44,1.44,0,0,1-2.53-.07l-4.32-7.85a1.49,1.49,0,0,0-.58-.59l-7.76-4.44a1.44,1.44,0,0,1,0-2.53l7.66-4a1.4,1.4,0,0,0,.57-.56l4.13-7.6a1.44,1.44,0,0,1,2.53.08l4.31,7.84A1.64,1.64,0,0,0,664.3,983.23Z" transform="translate(0 -5.67)" style="fill:#f59e0b"/><path d="M1354.86,839.25l7.76,4.44a1.44,1.44,0,0,1,0,2.53l-7.66,4a1.4,1.4,0,0,0-.57.56l-4.13,7.6a1.44,1.44,0,0,1-2.53-.08l-4.31-7.84a1.64,1.64,0,0,0-.58-.59l-7.77-4.44a1.45,1.45,0,0,1,0-2.54l7.67-4a1.37,1.37,0,0,0,.56-.56l4.13-7.6a1.45,1.45,0,0,1,2.53.07l4.32,7.85A1.49,1.49,0,0,0,1354.86,839.25Z" transform="translate(0 -5.67)" style="fill:#f59e0b"/><path d="M1280.06,270.43l5.06,2.9a.93.93,0,0,1,0,1.64l-5,2.61a.86.86,0,0,0-.37.36l-2.69,4.95a.94.94,0,0,1-1.65-.05l-2.8-5.11a1,1,0,0,0-.38-.38l-5.06-2.9a.93.93,0,0,1,0-1.64l5-2.61a.81.81,0,0,0,.37-.36l2.69-4.95a.94.94,0,0,1,1.65.05l2.81,5.11A1,1,0,0,0,1280.06,270.43Z" transform="translate(0 -5.67)" style="fill:#f59e0b"/><ellipse cx="711.05" cy="119.29" rx="60.13" ry="30.66" transform="translate(-3.44 210.17) rotate(-17.22)" style="fill:#1c1917"/><path d="M703.6,99.26c28.79-9.33,56.52-6.32,65.6,6.34a16,16,0,0,0-1-4.83c-5.81-15.93-36.12-20.54-67.7-10.31s-52.49,31.44-46.69,47.36a16.06,16.06,0,0,0,2.11,4C655.33,126.63,675.12,108.48,703.6,99.26Z" transform="translate(0 -5.67)" style="fill:#44403c"/><ellipse cx="1479.4" cy="901.95" rx="113.36" ry="72.82" transform="translate(-217.44 1246.81) rotate(-43.04)" style="fill:#1c1917"/><path d="M1514.31,938.73c-41.66,39-94.66,51.52-124.57,31.23a47.74,47.74,0,0,0,6.9,9.46c27.53,29.31,86.91,18.39,132.61-24.39s60.43-101.23,32.9-130.55a48.29,48.29,0,0,0-8-6.84C1571.54,848.85,1555.52,900.16,1514.31,938.73Z" transform="translate(0 -5.67)" style="fill:#44403c"/><ellipse cx="471.26" cy="959.19" rx="76.81" ry="119.57" transform="translate(-539.75 607.12) rotate(-44.92)" style="fill:#1c1917"/><path d="M433.69,997.27c-42.56-42.56-57.59-98-37.24-130.25a50.41,50.41,0,0,0-9.73,7.61c-30,30-16.38,92.25,30.3,139s108.82,60.21,138.77,30.17a50.6,50.6,0,0,0,6.93-8.71C530.43,1054.5,475.78,1039.38,433.69,997.27Z" transform="translate(0 -5.67)" style="fill:#44403c"/><path d="M481.29,939.88,519,899.73l4.49,4.48s-31.9,37-32.41,45.9Z" transform="translate(0 -5.67)" style="fill:#375a64"/><polygon points="419.84 911.1 368.2 988.19 446.45 1066.46 524.22 1007.12 419.84 911.1" style="fill:#ff735d"/><path d="M447,1071.69c-7.07,6.93-30.14-5.13-51.51-26.93s-33-45.11-25.91-52,30.13,5.13,51.51,26.94S454,1064.76,447,1071.69Z" transform="translate(0 -5.67)" style="fill:#ff735d"/><g style="opacity:0.30000000000000004"><path d="M447,1071.69c-7.07,6.93-30.14-5.13-51.51-26.93s-33-45.11-25.91-52,30.13,5.13,51.51,26.94S454,1064.76,447,1071.69Z" transform="translate(0 -5.67)"/></g><path d="M526.54,1018.7c-6.46,5.88-39.15.87-74.82-32S395.82,929.23,414,910c15-15.82,44.81-3.79,80.49,29S547.76,999.39,526.54,1018.7Z" transform="translate(0 -5.67)" style="fill:#ff735d"/><path d="M446.45,1072.12a11.55,11.55,0,0,1,1.25-1.09l3.75-3,14.3-11.37,50.82-39.94-.08.07c1.62-1.8,1.63-4.66,1.12-7.25a33.49,33.49,0,0,0-2.69-7.81,91.24,91.24,0,0,0-9.1-14.93,220.82,220.82,0,0,0-57.29-52.83,100.13,100.13,0,0,0-16.83-8.47,38.71,38.71,0,0,0-8.58-2.25c-2.8-.35-5.88-.16-7.67,1.68l.06-.07L381.4,974.93l-9.67,14-2.59,3.68a8.71,8.71,0,0,1-.94,1.22,9.92,9.92,0,0,1,.79-1.33c.59-.93,1.4-2.18,2.43-3.78l9.39-14.21,33.7-50.4,0,0,0,0a7.29,7.29,0,0,1,4.14-2,15.49,15.49,0,0,1,4.56,0,38.93,38.93,0,0,1,8.88,2.28,100.81,100.81,0,0,1,17.08,8.53A220.1,220.1,0,0,1,506.91,986a94.07,94.07,0,0,1,9.19,15.17,34.65,34.65,0,0,1,2.75,8.13c.51,2.72.62,6-1.45,8.31l0,0,0,0c-21,16.22-38.63,29.88-51.12,39.55-6.19,4.72-11.09,8.47-14.52,11.1l-3.87,2.89A9.41,9.41,0,0,1,446.45,1072.12Z" transform="translate(0 -5.67)" style="fill:#1a2e35"/><path d="M683.53,728.34H541.3V658.68L676.76,329.21H758V658.68h35.22v69.66H758v88.47h-74.5Zm0-69.66V468.52h-1.36L609,658.68Z" transform="translate(0 -5.67)" style="fill:#075985"/><g style="opacity:0.30000000000000004"><path d="M683.53,728.34H541.3V658.68L676.76,329.21H758V658.68h35.22v69.66H758v88.47h-74.5Zm0-69.66V468.52h-1.36L609,658.68Z" transform="translate(0 -5.67)"/></g><path d="M649.61,728.34H507.39V658.68L642.84,329.2h81.27V658.68h35.22v69.66H724.11V816.8h-74.5Zm0-69.66V468.52h-1.35L575.11,658.68Z" transform="translate(0 -5.67)" style="fill:#0ea5e9"/><path d="M852.78,791.73q-29.12-32-29.12-90.55V444.84q0-58.51,29.12-90.56t84-32q54.87,0,84,32t29.12,90.56V701.18q0,58.5-29.12,90.55t-84,32Q881.91,823.77,852.78,791.73Zm122.59-85.68V440q0-48.06-38.61-48.06T898.16,440V706.05q0,48.06,38.6,48.07T975.37,706.05Z" transform="translate(0 -5.67)" style="fill:#075985"/><g style="opacity:0.30000000000000004"><path d="M1020.75,354.28q-29.13-32-84-32t-84,32q-29.12,32.06-29.12,90.56V701.18q0,58.5,29.12,90.55t84,32q54.87,0,84-32t29.12-90.55V444.84Q1049.87,386.33,1020.75,354.28ZM975.37,706.05q0,48.06-38.61,48.07c-25.73,0-38.6-20.11-38.6-48.07V440c0-29.06,12.87-48.06,38.6-48.06s38.61,16,38.61,48.06Z" transform="translate(0 -5.67)"/></g><path d="M818.87,791.73q-29.13-32-29.13-90.56V444.84q0-58.51,29.13-90.56t84-32q54.85,0,84,32T1016,444.84V701.17q0,58.51-29.12,90.56t-84,32Q848,823.77,818.87,791.73Zm122.58-85.68V440q0-48.06-38.6-48.06T864.24,440V706.05q0,48.06,38.61,48.06T941.45,706.05Z" transform="translate(0 -5.67)" style="fill:#0ea5e9"/><path d="M1216.22,728.34H1074V658.69l135.46-329.48h81.27V658.69h35.22v69.65h-35.22v88.47h-74.5Zm0-69.65V468.52h-1.35l-73.15,190.17Z" transform="translate(0 -5.67)" style="fill:#075985"/><g style="opacity:0.30000000000000004"><path d="M1216.22,728.34H1074V658.69l135.46-329.48h81.27V658.69h35.22v69.65h-35.22v88.47h-74.5Zm0-69.65V468.52h-1.35l-73.15,190.17Z" transform="translate(0 -5.67)"/></g><path d="M1182.3,728.34H1040.08V658.68l135.45-329.47h81.27V658.68H1292v69.66H1256.8v88.47h-74.5Zm0-69.66V468.52H1181L1107.8,658.68Z" transform="translate(0 -5.67)" style="fill:#0ea5e9"/><ellipse cx="1413.12" cy="540.56" rx="64.56" ry="202.27" transform="translate(-78.99 284.47) rotate(-11.41)" style="fill:#1c1917"/><path d="M1457.28,532.14c-20.13-99.81-60.33-177.63-93.75-185.29a22.65,22.65,0,0,1,9.59-4.56c35-7.05,81.19,76,103.28,185.5s11.67,204-23.28,211.05a22.54,22.54,0,0,1-9.52-.22C1470.69,717.38,1477.2,630.87,1457.28,532.14Z" transform="translate(0 -5.67)" style="fill:#44403c"/><path d="M1806.54,343.41,1844,288.76s68.12,19.7,76,10.28l-103.35-76.4-61.83,82.75Z" transform="translate(0 -5.67)" style="fill:#1c1917"/><path d="M1808.71,269.61a5.24,5.24,0,0,1,.64-7,5,5,0,0,1,6.92.58c1.63,2,1.42,5.93-.72,7.38s-6,.93-7.13-1.4" transform="translate(0 -5.67)" style="fill:#e1e1e1"/><path d="M1816.65,222.64l-5.9,8.58,101.29,70s6.08,1.4,8-2.22Z" transform="translate(0 -5.67)" style="fill:#44403c"/><path d="M1845.26,290.52c.36-.51-2-2.61-3.28-6.07s-1-6.55-1.65-6.7-2,3.33-.38,7.49S1845,291.07,1845.26,290.52Z" transform="translate(0 -5.67)" style="fill:#fff"/><path d="M1859.42,294.05c.47-.4-1.08-2.87-1.21-6.28s1-6,.52-6.37-3,2.27-2.7,6.49S1859.05,294.53,1859.42,294.05Z" transform="translate(0 -5.67)" style="fill:#fff"/><path d="M1875.17,285.63c-.38-.44-3,1.56-3.7,5.28s.8,6.56,1.33,6.3.15-2.82.81-5.86S1875.63,286.05,1875.17,285.63Z" transform="translate(0 -5.67)" style="fill:#fff"/><path d="M1835.35,302c.13-.62-2.7-1.63-5.41-3.93s-4.27-4.85-4.85-4.61.22,3.62,3.45,6.29S1835.3,302.61,1835.35,302Z" transform="translate(0 -5.67)" style="fill:#fff"/><path d="M1770.63,565.52l37.76-54.42s68,20.1,76,10.72l-102.89-77-62.32,82.38Z" transform="translate(0 -5.67)" style="fill:#1c1917"/><path d="M1773.24,491.74a5.24,5.24,0,0,1,.68-7,5.06,5.06,0,0,1,6.92.62c1.62,2,1.38,5.94-.77,7.38s-6,.9-7.12-1.44" transform="translate(0 -5.67)" style="fill:#e1e1e1"/><path d="M1781.46,444.82l-6,8.55L1876.38,524s6.08,1.44,8-2.18Z" transform="translate(0 -5.67)" style="fill:#44403c"/><path d="M1809.67,512.87c.36-.52-2-2.62-3.25-6.09s-1-6.56-1.61-6.71-2,3.32-.43,7.49S1809.43,513.41,1809.67,512.87Z" transform="translate(0 -5.67)" style="fill:#fff"/><path d="M1823.8,516.48c.48-.4-1.06-2.88-1.17-6.28s1.07-6,.55-6.37-3,2.25-2.73,6.47S1823.43,517,1823.8,516.48Z" transform="translate(0 -5.67)" style="fill:#fff"/><path d="M1839.6,508.15c-.38-.44-2.95,1.54-3.72,5.26s.76,6.57,1.28,6.31.18-2.82.85-5.86S1840.06,508.58,1839.6,508.15Z" transform="translate(0 -5.67)" style="fill:#fff"/><path d="M1799.69,524.32c.13-.62-2.69-1.65-5.39-4s-4.24-4.87-4.82-4.63.2,3.62,3.41,6.3S1799.64,524.9,1799.69,524.32Z" transform="translate(0 -5.67)" style="fill:#fff"/><path d="M1380.84,605c3.51,0,317.37-90.41,339.2-110s111-175.18,111-175.18l-63.33-51.62L1657.64,411.52,1464.37,429s-81.47-5.56-95.68,23.58l-1.34,43.61Z" transform="translate(0 -5.67)" style="fill:#1c1917"/><path d="M1380.84,605c4.64.14,144.84,156.14,188.76,165s66-21.42,81-39.58c19.1-23.13,149.23-189.18,149.23-189.18l-65.28-54L1591.46,639.5l-86-118.51-75-7-45.61,40.41Z" transform="translate(0 -5.67)" style="fill:#1c1917"/><path d="M1578.72,654.07a3.63,3.63,0,0,1,.5-.65l1.55-1.79,6.09-6.8L1609.43,620,1643,583.34l19.91-21.6,21.69-22.9,49.47-52.06.41-.43.45.38L1782,526l13.2,11.16,3.46,3a10.58,10.58,0,0,1,1.15,1.08,7.6,7.6,0,0,1-1.28-.92l-3.58-2.83-13.43-10.88-47.4-38.87.87,0-49.34,52.16L1664,562.7c-6.92,7.47-13.6,14.68-20,21.54l-33.84,36.47-22.9,24.5-6.28,6.62c-.69.69-1.23,1.25-1.66,1.69A3.57,3.57,0,0,1,1578.72,654.07Z" transform="translate(0 -5.67)" style="fill:#44403c"/><path d="M1576.93,547a27.17,27.17,0,0,1-4.07,1.45l-11.22,3.51c-9.47,2.94-22.61,6.88-37,11.55L1514.17,567a79,79,0,0,0-9.56,3.55,24.52,24.52,0,0,0-11.82,11.79,45.5,45.5,0,0,0-3.35,11.11,32.06,32.06,0,0,1-.84,4.23,3.21,3.21,0,0,1,0-1.12c0-.73.14-1.81.31-3.19a41.85,41.85,0,0,1,3-11.44,25.27,25.27,0,0,1,12.16-12.52,77,77,0,0,1,9.69-3.69l10.47-3.54c14.42-4.69,27.6-8.47,37.15-11.18,4.78-1.34,8.65-2.39,11.34-3.08A24.93,24.93,0,0,1,1576.93,547Z" transform="translate(0 -5.67)" style="fill:#44403c"/><path d="M1338.56,470.73a5.35,5.35,0,0,1,.65-1.26l.87-1.47,1.4-1.87a51,51,0,0,1,11-10c10.3-7.28,26.44-14.19,44.86-19.28a247.91,247.91,0,0,1,48.17-8.44,125.62,125.62,0,0,1,14.83-.2c1.76.1,3.11.23,4,.37a5.86,5.86,0,0,1,1.38.25c0,.14-1.94-.06-5.42-.08s-8.54.09-14.75.63a273.65,273.65,0,0,0-47.87,8.8C1379.39,443.25,1363.34,450,1353,457a55,55,0,0,0-11.14,9.52l-1.49,1.77-1,1.38A5.08,5.08,0,0,1,1338.56,470.73Z" transform="translate(0 -5.67)" style="fill:#44403c"/><path d="M1468.5,692a4.48,4.48,0,0,1-1.1-.72l-3-2.29-10.82-8.52c-9.15-7.19-22.13-16.62-36.56-27A408.09,408.09,0,0,1,1381.52,625c-4.3-3.93-7.75-7.14-10-9.45l-2.65-2.65a5.41,5.41,0,0,1-.86-1s.4.23,1,.79l2.83,2.46c2.41,2.18,6,5.28,10.32,9.11,8.77,7.64,21.28,17.7,35.7,28.06s27.36,19.93,36.35,27.33c4.52,3.68,8.13,6.7,10.57,8.86,1.11,1,2,1.82,2.8,2.49A5.49,5.49,0,0,1,1468.5,692Z" transform="translate(0 -5.67)" style="fill:#44403c"/><ellipse cx="435" cy="558.4" rx="212.81" ry="67.92" transform="translate(-240.45 764.38) rotate(-69.48)" style="fill:#1c1917"/><path d="M390.53,542.29C428.08,442,482.81,367.82,518.81,365.43a24,24,0,0,0-9.2-6.34c-35.13-13.15-97,65.42-138.21,175.5s-46.13,210-11,223.12a23.7,23.7,0,0,0,9.93,1.36C345.73,732.49,353.38,641.54,390.53,542.29Z" transform="translate(0 -5.67)" style="fill:#44403c"/><path d="M22.77,294.54S13.4,270.64,9.34,262s-3.16-35.06-.47-39.85a8.19,8.19,0,0,0,.2-8.44S-4.75,188,1.72,181.59l3.77-.42s13.83,27.63,14.3,28.18,3.5.69,4.46-4.12-1.37-19.1-1.37-19.1-5.23-9.11-5.62-15.35c-.14-2.35,2-5.67,3.83-7.09l1.9-1.43s11.61,21,12.26,26.14S38,204.68,38,204.68l1.62-1.3.13-25.77S34,155.79,38.39,151s4.84-.77,4.84-.77,8.3,22.27,8.92,27.91c.25,2.31.5,24.44.5,24.44l3.57-1.47,1.24-20.71s-4.17-20.53,2.09-22.63l5-.16s4.76,27,5.28,28.29S66.2,218,66.2,218L67.46,221,71.08,216s1.62-4.74,8.83-8.7,10.37-1.08,10.37-1.08l-9.06,16.1S73,241.14,69.61,245.48,54.73,260,52.92,261s.22,9.34.22,9.34L56,276.14Z" transform="translate(0 -5.67)" style="fill:#ffc19d"/><path d="M59,231.55c0,.27-2.92.2-7.4,1.28a34.62,34.62,0,0,0-25.15,23.23c-1.43,4.38-1.6,7.3-1.87,7.27s-.39-3,.81-7.59A33.46,33.46,0,0,1,34.9,240c7.44-5.93,13.51-8.2,16.47-8.21C56.07,230.92,59,231.39,59,231.55Z" transform="translate(0 -5.67)" style="fill:#ff9c6a"/><path d="M60.24,202c0,.53-10.87-1.25-23.66,2.11-12.85,3.2-21.51,10-21.78,9.52-.11-.14,1.88-2,5.61-4.34a57.15,57.15,0,0,1,32.83-8.4C57.63,201.16,60.27,201.84,60.24,202Z" transform="translate(0 -5.67)" style="fill:#ff9c6a"/><path d="M22.77,294.54c.9,2.18,46.48,140.12,66.18,154.94s149.87,53,149.87,53l20.45-69.35L132,393.24,52.92,261Z" transform="translate(0 -5.67)" style="fill:#ffc19d"/><polygon points="267.68 408.49 169.36 391.71 148.36 477.2 262.09 503.22 267.68 408.49" style="fill:#0ea5e9"/><path d="M329.41,421l-5.76-150.8c-.22-37.56-22.26-68.75-59.8-67.49l-3.46.32a67.14,67.14,0,0,0-61,67.6c.36,32.56,1.18,68.52,3,85.84,3.75,35.85,40.16,38.13,40.16,38.13s11.15,44.62,11.15,44.62l12.71,4.22h0Z" transform="translate(0 -5.67)" style="fill:#ffc19d"/><path d="M242.54,394.55s22.74-.75,45.45-18.11c0,0-6.6,28.88-42.71,28.94Z" transform="translate(0 -5.67)" style="fill:#ff9c6a"/><path d="M217.49,299.78a5.14,5.14,0,0,0,5.42,4.72,4.91,4.91,0,0,0,4.85-5.11,5.14,5.14,0,0,0-5.41-4.72A4.93,4.93,0,0,0,217.49,299.78Z" transform="translate(0 -5.67)" style="fill:#1c1917"/><path d="M208.48,285.73c.69.61,4.31-2.62,9.83-3.11s9.81,1.89,10.34,1.16c.27-.32-.49-1.47-2.37-2.59a14.1,14.1,0,0,0-8.36-1.76,13.68,13.68,0,0,0-7.75,3.31C208.6,284.2,208.13,285.46,208.48,285.73Z" transform="translate(0 -5.67)" style="fill:#1c1917"/><path d="M261.09,298.79c.69.61,4.32-2.62,9.83-3.11s9.81,1.89,10.35,1.16c.26-.32-.49-1.47-2.37-2.59a14.13,14.13,0,0,0-8.36-1.76,13.62,13.62,0,0,0-7.75,3.31C261.21,297.26,260.75,298.52,261.09,298.79Z" transform="translate(0 -5.67)" style="fill:#1c1917"/><path d="M246.77,326.24c0-.32-3.49-.6-9.11-.79-1.42,0-2.78-.18-3.1-1.12s0-2.56.55-4.26l3.18-11.1c4.38-15.81,7.41-28.74,6.78-28.92s-4.71,12.5-9.09,28.3c-1,3.9-2,7.61-3,11.16-.38,1.65-1.13,3.55-.22,5.59a3.56,3.56,0,0,0,2.5,1.85,9.88,9.88,0,0,0,2.43.11C243.31,326.85,246.78,326.55,246.77,326.24Z" transform="translate(0 -5.67)" style="fill:#1c1917"/><path d="M256.47,284.27c.88,1.34,6.09-.63,12.6-1.37s12-.23,12.55-1.74c.23-.72-1-1.89-3.39-2.82a22,22,0,0,0-19.16,2.38C257,282.2,256.08,283.63,256.47,284.27Z" transform="translate(0 -5.67)" style="fill:#1c1917"/><path d="M207.16,271.73c1.24,1.17,5.64-.48,11-1s10.05.08,11-1.32c.42-.67-.4-1.87-2.49-2.9a17.47,17.47,0,0,0-9.14-1.37,17.27,17.27,0,0,0-8.63,3.2C207.13,269.82,206.61,271.16,207.16,271.73Z" transform="translate(0 -5.67)" style="fill:#1c1917"/><path d="M323.16,297c.59-.32,24-9.56,25.46,15.05s-23.54,21-23.62,20.31S323.16,297,323.16,297Z" transform="translate(0 -5.67)" style="fill:#ffc19d"/><path d="M332,322.57c.1-.08.44.28,1.19.57a4.29,4.29,0,0,0,3.21-.13c2.54-1.11,4.48-5.37,4.34-9.81a14.34,14.34,0,0,0-1.57-6.07c-.86-1.75-2.1-2.94-3.42-3.09a2.18,2.18,0,0,0-2.46,1.32c-.29.71-.11,1.19-.23,1.24s-.56-.38-.42-1.41a2.76,2.76,0,0,1,.88-1.6,3.22,3.22,0,0,1,2.33-.76c1.9,0,3.72,1.66,4.71,3.54a14.61,14.61,0,0,1,1.89,6.77c.14,5-2.12,9.76-5.61,11a4.6,4.6,0,0,1-4-.41C332,323.17,331.87,322.62,332,322.57Z" transform="translate(0 -5.67)" style="fill:#ff9c6a"/><path d="M148.06,240.7a5.81,5.81,0,0,1,2.53-3.57c2.71-1.84,6-1.82,9.11-2.07a51.81,51.81,0,0,0,22.16-7,26,26,0,0,1-6.91-4.24c-4.22-3.72-6.88-9.66-5.39-15.08a3.46,3.46,0,0,1,1.79-2.48c1.56-.58,3.06.9,4.25,2.07,3.92,3.87,7.41,5.42,12.85,4.53a22,22,0,0,0,9.18-3.34c.1-.12.18-.25.29-.37,1.19-1.4,2.36-2.73,3.52-4h0c8.69-9.75,16.26-16.6,24.25-20.41,11.72-5.58,31.69-8.78,44.41-6.27s24.61,12,27.15,24.7c6.65-6.37,17.2-7,26-4.07l.21-.1c9.74,2.8,15.77,12.54,19.19,22.08.18.52.35,1.05.53,1.58a37.86,37.86,0,0,0,13.59,11.73c1,.47,2.05,1.07,2.23,2.12s-.65,2-1.48,2.64a19.12,19.12,0,0,1-7.51,3.68,44.68,44.68,0,0,0,3.57,6.5c1.19,1.75,2.61,3.85,1.78,5.81a4,4,0,0,1-4.09,2.09,11.87,11.87,0,0,1-4.56-1.73l3.66,7.43a22.47,22.47,0,0,1-10.41-.05c-1.46,9.21-1.94,26.14-3.9,32.44-6.52.52-8.15-.09-11.38,1.2-4.17,1.68-2.08,9.12-7.76,7.32-2.89-.91-7.88-11.34-9-14.16a140.9,140.9,0,0,1-9.76-59.1,45.35,45.35,0,0,0-14.57-9.2l.45.36c-10.27-2.87-21.87-5.61-31.12-.29-7.18,4.12-11.06,12.07-16.21,18.55-9.78,12.27-21.27,19.2-36.87,20.84-.74,10.95-.05,28.74,0,38.91l-9.91-19.75V280c-.77-1.14-1.43-2.31-2.06-3.47l-.21-.35v-.05c-1-1.87-2-3.75-3.21-5.59l-.09.09c-5.2,5.19-13.75-1.72-9.78-7.9a14.4,14.4,0,0,1,2.87-3.26,10,10,0,0,1-9.39,3.06,7.87,7.87,0,0,1-6-7.43,6.7,6.7,0,0,1,3.65-5.61,22.53,22.53,0,0,1-13-2C150,246.17,147.4,243.94,148.06,240.7Z" transform="translate(0 -5.67)" style="fill:#1c1917"/><path d="M286.17,207.93A30.63,30.63,0,0,1,290,211a26,26,0,0,1,6.26,11.61,45,45,0,0,1,1.49,9.1c.22,3.31.17,6.88.15,10.64a96,96,0,0,0,.46,11.82,41.08,41.08,0,0,0,1.2,6.18,13.07,13.07,0,0,0,2.91,5.89,5.45,5.45,0,0,0,5.19,1.39,8.13,8.13,0,0,0,4.41-2.86c2.15-2.85,2.52-6.32,2.91-9.38l-.75.14a30.31,30.31,0,0,0,4.85,7.28,10.73,10.73,0,0,0,7.24,3.38,7,7,0,0,0,3.67-.88,6.06,6.06,0,0,0,2.37-2.64,6.3,6.3,0,0,0,.57-3.24,4.49,4.49,0,0,0-1.33-2.73l-.36.36a23.29,23.29,0,0,0,8.09,5.33,19.31,19.31,0,0,0,2.46.78,4.18,4.18,0,0,0,.87.16,5.37,5.37,0,0,0-.84-.3c-.55-.18-1.36-.46-2.39-.9a24,24,0,0,1-7.83-5.43l-.36.37a4.62,4.62,0,0,1,.57,5.33,5.39,5.39,0,0,1-2.14,2.35,6.32,6.32,0,0,1-3.33.75,10.08,10.08,0,0,1-6.73-3.22,30,30,0,0,1-4.68-7.12l-.58-1.12-.17,1.26c-.38,3.05-.8,6.38-2.76,8.95a7.26,7.26,0,0,1-4,2.56,4.57,4.57,0,0,1-4.41-1.18,12.18,12.18,0,0,1-2.69-5.51,40.42,40.42,0,0,1-1.19-6,96.09,96.09,0,0,1-.5-11.72c0-3.76,0-7.34-.23-10.69a45.79,45.79,0,0,0-1.61-9.21,25.62,25.62,0,0,0-6.61-11.69A14.56,14.56,0,0,0,286.17,207.93Z" transform="translate(0 -5.67)" style="fill:#44403c"/><path d="M176.93,249.86a1.85,1.85,0,0,0,.31.23l.94.6a11.52,11.52,0,0,0,1.59.88,18.24,18.24,0,0,0,2.26,1,32,32,0,0,0,15.58,1.82A40.93,40.93,0,0,0,218.85,245c6.87-5.62,12.72-13.63,17.34-22.68,2.35-4.52,4.21-9.12,6.3-13.4a48.25,48.25,0,0,1,7.37-11.46,24.76,24.76,0,0,1,10-6.94,17.78,17.78,0,0,1,5.43-1,19.72,19.72,0,0,1,5.07.65,20.91,20.91,0,0,1,12.18,9.08,24.72,24.72,0,0,1,2.19,5.28s0-.12-.05-.37-.14-.66-.24-1.09a17.86,17.86,0,0,0-1.62-4,20.32,20.32,0,0,0-4.37-5.21,21,21,0,0,0-7.93-4.27,19.55,19.55,0,0,0-5.23-.73,18.28,18.28,0,0,0-5.66,1A25.21,25.21,0,0,0,249.29,197a48,48,0,0,0-7.54,11.62c-2.12,4.3-4,8.89-6.31,13.38-4.59,9-10.34,16.89-17.09,22.46a40.71,40.71,0,0,1-20.81,9.38,32.54,32.54,0,0,1-15.4-1.54A52.14,52.14,0,0,1,176.93,249.86Z" transform="translate(0 -5.67)" style="fill:#44403c"/><path d="M172.68,234.24a5.56,5.56,0,0,0,1.35.82,27.55,27.55,0,0,0,3.94,1.7,37.6,37.6,0,0,0,6.18,1.62,39.52,39.52,0,0,0,15.57-.47,37.65,37.65,0,0,0,6.07-2,27.71,27.71,0,0,0,3.83-1.93,5.87,5.87,0,0,0,1.3-.9c-.08-.14-2,1-5.35,2.28a41.93,41.93,0,0,1-6,1.77,42.06,42.06,0,0,1-15.28.46,43.89,43.89,0,0,1-6.11-1.41C174.74,235.12,172.75,234.09,172.68,234.24Z" transform="translate(0 -5.67)" style="fill:#44403c"/><path d="M441.18,697,443.67,685a262,262,0,0,1-80.2-55.35L231,495.67l3.43-38.46,65.23-61.08s31.1-20.62,71.42-4.64c45.78,18.14,65.17,43.84,118.63,106.16,21.19,24.69,9.29,4.06,30,17.44,0,0-13,70.6-37.56,114.36C464.15,661.48,441.18,697,441.18,697Z" transform="translate(0 -5.67)" style="fill:#0ea5e9"/><path d="M244.7,509.91c-.15.11-2.09-2.45-4.88-6.81a183,183,0,0,1-17.73-36.3c-1.72-4.88-2.54-8-2.37-8s1.36,2.91,3.31,7.68,4.76,11.31,8.2,18.38,6.89,13.29,9.45,17.76S244.88,509.8,244.7,509.91Z" transform="translate(0 -5.67)" style="fill:#1a2e35"/><g style="opacity:0.30000000000000004"><path d="M475.37,598.41s3.9-21.76-4.41-43.39S441.18,503,441.18,503l-7.38,7Z" transform="translate(0 -5.67)"/></g><path d="M360.75,731.5l47.71-124.81-25.15-31.42L335.88,517s-33.86-17.58-50.06-43.5c-5.07-8.1-6-21.78-.75-31.78,14.81-28,45.51-39.13,76.08-30.76L388,428.58s88.76,139.1,87.33,165.9c-1,18.93-75.85,147.09-75.85,147.09Z" transform="translate(0 -5.67)" style="fill:#ffc19d"/><path d="M364.1,726.2l-53,4.56A17.94,17.94,0,0,0,297.53,739l-23.69,37.4s9.44,4.37,15.7-2.62c6.44-7.2,16.36-21.69,16.36-21.69l-4.5,41.66s12.22,1.2,14.27-8.09c2.36-10.67,2.54-24.64,2.54-24.64l11.92,39.61s12.94-4.26,8.78-19.24c-2.62-9.45-5.46-19.18-5.46-19.18L348,788s10.57-.93,7.82-10.51c-1.83-6.38-7.44-19-7.44-19s30.5,2.31,36.56.11c8.26-3,16.7-20.51,16.7-20.51Z" transform="translate(0 -5.67)" style="fill:#ffc19d"/><path d="M317.14,403.7S272.7,427.59,277.56,461s43.09,50.81,43.09,50.81l49.68,53.26,78.07-67.83-71-88.27" transform="translate(0 -5.67)" style="fill:#0ea5e9"/><path d="M377.36,409a2.33,2.33,0,0,1,.37.38l1,1.19,3.89,4.68,14.61,17.87,51.64,63.75.38.47-.46.4-77.62,67.56-.39.34-.52.45-.47-.51c-17.52-18.79-34.31-36.82-49.65-53.28l.21.15A97.94,97.94,0,0,1,295.69,495c-6.87-6.79-12.49-14.42-15.61-22.62-.66-2.08-1.53-4.07-2-6.15s-1-4.1-1.18-6.15a36.5,36.5,0,0,1,.59-11.86,49,49,0,0,1,9-18.84,94.12,94.12,0,0,1,21.55-20.19c2.83-2,5.1-3.34,6.65-4.23l1.78-1a3.94,3.94,0,0,1,.62-.29,2.73,2.73,0,0,1-.57.39l-1.71,1.07c-1.51,1-3.73,2.39-6.51,4.4a96.89,96.89,0,0,0-21.14,20.32,48.37,48.37,0,0,0-8.7,18.56A35.66,35.66,0,0,0,278,460c.22,2,.8,4,1.19,6s1.31,4,1.95,6c6.43,16,21.42,30,39.8,39.22l.13.07.08.09,49.71,53.23-1-.05.39-.34L448,496.76l-.08.87-51.24-64.08-14.33-18.08c-1.61-2.06-2.85-3.66-3.75-4.8-.38-.52-.69-.93-.94-1.25A2.93,2.93,0,0,1,377.36,409Z" transform="translate(0 -5.67)" style="fill:#1a2e35"/><path d="M322.71,736.42c0,.23-1.74.19-4.34.93a16.92,16.92,0,0,0-12.52,15c-.26,2.69.1,4.38-.13,4.43s-.86-1.61-.85-4.48a16.35,16.35,0,0,1,13.28-15.93C321,735.87,322.73,736.28,322.71,736.42Z" transform="translate(0 -5.67)" style="fill:#ff9c6a"/><path d="M327.58,742.65c.09.17-1.05.94-2.83,2.24-.89.66-1.94,1.44-3,2.39a9,9,0,0,0-2.68,3.46,20.81,20.81,0,0,0-.63,8.29c.21,2.18.56,3.5.36,3.57s-.86-1.19-1.32-3.42a17.53,17.53,0,0,1,.29-8.91,9.4,9.4,0,0,1,3.16-4,25,25,0,0,1,3.3-2.23C326.17,743,327.49,742.48,327.58,742.65Z" transform="translate(0 -5.67)" style="fill:#ff9c6a"/><path d="M349.73,747.62c0,.19-1.59.67-4.26,1s-6.52.59-8.9,3.65a12.28,12.28,0,0,0-2.31,9.34c.5,2.53,1.35,4,1.13,4.11s-1.28-1.21-2.08-3.89a12.3,12.3,0,0,1,2.18-10.42,9.25,9.25,0,0,1,5.14-3.2,23,23,0,0,1,4.76-.56C348.07,747.56,349.69,747.44,349.73,747.62Z" transform="translate(0 -5.67)" style="fill:#ff9c6a"/><path d="M390.88,736.41c-.14.36-6.49-1.78-14.21-4.73-3.86-1.48-7.33-2.87-9.83-3.92a24.9,24.9,0,0,1-4-1.85c.13-.55,6.57,1.54,14.28,4.48S391,736.06,390.88,736.41Z" transform="translate(0 -5.67)" style="fill:#ff9c6a"/><g style="opacity:0.30000000000000004"><path d="M509.9,500.73s-9.52,83.14-28.13,117-33.92,62.89-33.92,62.89L446.51,687s37.81-59.63,44.64-74.47,19.3-44.66,26.16-73.6,7.91-33.8,7.71-33.8C525,505.17,514.2,497.24,509.9,500.73Z" transform="translate(0 -5.67)"/></g><path d="M232,353c-.25-.44.33-.87.76-.56,3.1,2.26,10.42,5.55,26.8,5.63,18.44.09,26.57-2.12,29.56-3.27.45-.18.88.29.61.66-2.38,3.35-10.1,11.92-27.91,14C244.42,371.4,235.19,358.68,232,353Z" transform="translate(0 -5.67)" style="fill:#1e0502"/><path d="M258.86,356.59c-10.19.19-23.83-2.74-23.83-2.74s1.85,5.44,4.71,7.15a18.69,18.69,0,0,0,3.36,1.52c-2.74.2-4.81.44-4.81.44,9,8.38,28.58,9.16,40.75,1a27.11,27.11,0,0,0-5.37-1.32,12.63,12.63,0,0,0,4.52-1.7c2.15-1.71,6.27-5.84,6.27-5.84S272,356.35,258.86,356.59Z" transform="translate(0 -5.67)" style="fill:#fff"/><path d="M314.31,312.19l-1.69-.46c-14.92,45-39.18,20.66-39.18,20.66l-29.18-.86s-28.75,26-41.67-20.53l-2,.2a30.56,30.56,0,0,1,.15,8.23c-3.53,10.64-10.87,35.5-8.08,50.76,6,27.3,47,39.48,49.92,40.54a99.33,99.33,0,0,0,14.38,4.2,27.16,27.16,0,0,0,4.17.55,8.12,8.12,0,0,0,1.49-.06c16.46-.3,44-22.81,53.29-39.77C327.88,353.65,310.54,320.52,314.31,312.19ZM210,393.1c-7.06-5.57-13.93-14.08-15.37-23.39-1-6.26,0-13.79,1.26-20.12-.9,8.05-.9,16.28,1.7,24,3.52,10.4,18.29,22.4,33.53,30.88A74.91,74.91,0,0,1,210,393.1Zm66-22.17s-11.12,6.14-17.18,6.11c-5.45,0-19-8.13-19-8.13-2-1.71-6.08-16.73-6.08-16.73,13.88,2.05,21.47-1.82,24.93-5.94h0c2,1.79,10.47,8.67,25.15,6.69C283.89,352.93,278,368.65,276,370.93Z" transform="translate(0 -5.67)" style="fill:#282421"/><path d="M321.89,341.66c-1.1-5-4.34-13.47-8-20.8-.38-.76-.91-6.17,0-8.44l-1.71-.47c-5.41,16.17-12.05,23.38-18.33,26,3.82,4.88,12,23.72,2.62,47.06,3.12-11.34-1.12-24.59-1.12-24.59s1.23,12.18-.89,21.42c-4.94,21.56-13.39,27-13.39,27,14.14-8.17,29-22.19,35.25-33.51.23-.41.42-.83.63-1.24a48.92,48.92,0,0,0,2.33-4.61A44.23,44.23,0,0,0,321.89,341.66Zm-.6,18a18.28,18.28,0,0,1-2.19,6.87,53.33,53.33,0,0,0,1.78-16,64,64,0,0,0-2.36-13.06,39.63,39.63,0,0,1,2,5.25,37.43,37.43,0,0,1,1.14,5.63A38.56,38.56,0,0,1,321.29,359.69Z" transform="translate(0 -5.67)" style="fill:#1c1917"/><ellipse cx="1007.83" cy="243.2" rx="50.04" ry="130.65" transform="translate(613.85 1196.52) rotate(-81.23)" style="fill:#1c1917"/><path d="M1016.52,209.31c64.79,11,113.57,38.25,116.3,63.3a21.81,21.81,0,0,0,3.7-7.48c7.14-26.83-44.69-58.41-115.77-70.52s-134.48-.17-141.62,26.67a19.74,19.74,0,0,0-.53,7.22C894.6,207,952.44,198.39,1016.52,209.31Z" transform="translate(0 -5.67)" style="fill:#44403c"/><path d="M1002.32,239c16.28,8.5,27.22,24.59,42.31,35.07,10,6.93,22.1,11.71,28.83,21.84-.67-5.92-4.72-10.85-8.77-15.22a222.9,222.9,0,0,0-38.08-32.77c-7.12-4.85-15-9.44-23.65-9.38" transform="translate(0 -5.67)" style="fill:#65a30d"/><g style="opacity:0.2"><path d="M1002.32,239c16.28,8.5,27.22,24.59,42.31,35.07,10,6.93,22.1,11.71,28.83,21.84-.67-5.92-4.72-10.85-8.77-15.22a222.9,222.9,0,0,0-38.08-32.77c-7.12-4.85-15-9.44-23.65-9.38" transform="translate(0 -5.67)"/></g><path d="M1079.79,19.17c-.29-2.64-.77-5.44-2.57-7.4-2.45-2.68-6.56-3-10.19-2.69-15.49,1.16-35.19,24.12-44.67,36.43l1.59,68.34C1066.37,91.62,1083.43,52,1079.79,19.17Z" transform="translate(0 -5.67)" style="fill:#65a30d"/><g style="opacity:0.2"><path d="M1079.79,19.17c-.29-2.64-.77-5.44-2.57-7.4-2.45-2.68-6.56-3-10.19-2.69-15.49,1.16-35.19,24.12-44.67,36.43l1.59,68.34C1066.37,91.62,1083.43,52,1079.79,19.17Z" transform="translate(0 -5.67)"/></g><path d="M1012.71,159.5A157.5,157.5,0,0,1,1037,153c8.07-1.31,16.19-4.69,24.15-6.56,10.32-2.43,19.95-7.09,29.85-10.88s20.45-6.79,31-5.64c-7.77-3.94-16.64-5.35-25.36-5.34s-17.37,1.39-26,2.76c-12,1.9-24.12,3.87-34.94,9.29s-20.77,11-23,22.87" transform="translate(0 -5.67)" style="fill:#65a30d"/><g style="opacity:0.2"><path d="M1012.71,159.5A157.5,157.5,0,0,1,1037,153c8.07-1.31,16.19-4.69,24.15-6.56,10.32-2.43,19.95-7.09,29.85-10.88s20.45-6.79,31-5.64c-7.77-3.94-16.64-5.35-25.36-5.34s-17.37,1.39-26,2.76c-12,1.9-24.12,3.87-34.94,9.29s-20.77,11-23,22.87" transform="translate(0 -5.67)"/></g><path d="M957.7,161.83c-10.48-15.37-31.47-19.84-49.52-24.32,24,20.69,48.81,46.84,67.34,72.54C979.69,197.56,970.94,181.23,957.7,161.83Z" transform="translate(0 -5.67)" style="fill:#65a30d"/><g style="opacity:0.2"><path d="M957.7,161.83c-10.48-15.37-31.47-19.84-49.52-24.32,24,20.69,48.81,46.84,67.34,72.54C979.69,197.56,970.94,181.23,957.7,161.83Z" transform="translate(0 -5.67)"/></g><path d="M971.22,257.18c-21.59-6.24-39.4-30.9-60.69-37.87,24.57-1.16,55.29,13.59,60.69,37.87" transform="translate(0 -5.67)" style="fill:#65a30d"/><g style="opacity:0.2"><path d="M971.22,257.18c-21.59-6.24-39.4-30.9-60.69-37.87,24.57-1.16,55.29,13.59,60.69,37.87" transform="translate(0 -5.67)"/></g><path d="M992.72,207.34c12.09-1,24.23,2.12,35.31,7.06s21.24,11.68,31.34,18.39c.93-7.83-3.62-15.14-8-21.7-3.28-4.94-6.59-9.91-10.75-14.14s-9.26-7.71-15.05-9a26.66,26.66,0,0,0-20.45,4.18,30.9,30.9,0,0,0-12.41,15.23" transform="translate(0 -5.67)" style="fill:#65a30d"/><path d="M972.86,286.9s10.71-73.23,22.59-113.62S1018.85,87,1018.85,87l4.68,1.27S998.46,168,988.7,217.55s-6.53,71.77-6.53,71.77l-9.31-2.42" transform="translate(0 -5.67)" style="fill:#3f6212"/><path d="M1075.43,14a3.39,3.39,0,0,1-.49.76l-1.55,2.05c-1.36,1.77-3.3,4.35-5.66,7.56-4.71,6.43-11,15.52-17.18,26s-11.2,20.3-14.59,27.52c-1.7,3.61-3,6.55-3.94,8.59L1031,88.82a3.68,3.68,0,0,1-.43.79,4.11,4.11,0,0,1,.28-.85l.92-2.4c.82-2.08,2.08-5.06,3.71-8.71a278.46,278.46,0,0,1,31.84-53.58c2.42-3.18,4.43-5.72,5.87-7.42l1.66-2A4.81,4.81,0,0,1,1075.43,14Z" transform="translate(0 -5.67)" style="fill:#3f6212"/><path d="M1011,124.14c-14-15.45-18-36.87-12.14-56.87,4.06-14,12.93-26,22.15-37.28a5.48,5.48,0,0,1,3-2.25c1.73-.32,3.29,1,4.45,2.35,10.07,11.44,13,27.65,12.27,42.88-.48,10.13-2.43,20.32-6.94,29.4s-13.51,17.57-22.74,21.77" transform="translate(0 -5.67)" style="fill:#84cc16"/><path d="M1011,124.14a3.37,3.37,0,0,1,.22-.85c.2-.64.46-1.43.77-2.4.7-2.06,1.65-5.08,2.75-8.82a252.94,252.94,0,0,0,6.64-29.73c1.9-11.76,3-22.5,3.76-30.27.37-3.8.67-6.92.89-9.21.11-1,.19-1.84.26-2.5a3.49,3.49,0,0,1,.15-.87,3.75,3.75,0,0,1,0,.88c0,.66-.07,1.5-.12,2.52-.12,2.18-.33,5.33-.63,9.23-.62,7.79-1.63,18.56-3.54,30.35a221.23,221.23,0,0,1-6.89,29.76c-1.17,3.73-2.2,6.73-3,8.77l-.91,2.34A3.67,3.67,0,0,1,1011,124.14Z" transform="translate(0 -5.67)" style="fill:#3f6212"/><g style="opacity:0.2"><path d="M992.72,207.34c12.09-1,24.23,2.12,35.31,7.06s21.24,11.68,31.34,18.39c.93-7.83-3.62-15.14-8-21.7-3.28-4.94-6.59-9.91-10.75-14.14s-9.26-7.71-15.05-9a26.66,26.66,0,0,0-20.45,4.18,30.9,30.9,0,0,0-12.41,15.23" transform="translate(0 -5.67)" style="fill:#65a30d"/></g><path d="M1045.68,267a3,3,0,0,1-.61-.48l-1.63-1.5c-1.39-1.31-3.39-3.24-5.94-5.52-1.25-1.17-2.65-2.42-4.18-3.72s-3.16-2.7-4.93-4.11a85.23,85.23,0,0,0-12.09-8.28,29.81,29.81,0,0,0-13.81-4.13,41.38,41.38,0,0,0-6.37.16,31.11,31.11,0,0,0-5.42,1.15,31.61,31.61,0,0,0-7.33,3.32c-1.62,1-2.45,1.66-2.5,1.6a3.42,3.42,0,0,1,.57-.53,18.64,18.64,0,0,1,1.77-1.34,28.89,28.89,0,0,1,7.31-3.59,30.6,30.6,0,0,1,5.51-1.27,41.42,41.42,0,0,1,6.48-.24,29.94,29.94,0,0,1,14.17,4.17,80.88,80.88,0,0,1,12.17,8.41c1.77,1.43,3.42,2.82,4.91,4.18s2.9,2.61,4.13,3.8c2.51,2.35,4.44,4.34,5.77,5.72l1.52,1.6A2.6,2.6,0,0,1,1045.68,267Z" transform="translate(0 -5.67)" style="fill:#3f6212"/><path d="M958,242a5.52,5.52,0,0,1,1.25.77,30.83,30.83,0,0,1,3.11,2.49,44.36,44.36,0,0,1,13.39,22.33,31.91,31.91,0,0,1,.74,3.92,5.14,5.14,0,0,1,.08,1.47c-.14,0-.45-2-1.37-5.24A49.74,49.74,0,0,0,962,245.72C959.55,243.4,957.88,242.15,958,242Z" transform="translate(0 -5.67)" style="fill:#3f6212"/><path d="M929.51,154.61a4.18,4.18,0,0,1,.85.52l2.35,1.63,3.69,2.63c1.44,1,2.94,2.38,4.67,3.78a129.81,129.81,0,0,1,23.34,25.65,142.78,142.78,0,0,1,9.64,16.54,152.88,152.88,0,0,1,6.13,14.38c1.52,4.18,2.6,7.61,3.34,10l.85,2.73a5.77,5.77,0,0,1,.26,1,4.29,4.29,0,0,1-.41-.92c-.24-.6-.59-1.51-1-2.68-.83-2.34-2-5.74-3.58-9.88s-3.68-9-6.26-14.25a149.17,149.17,0,0,0-9.64-16.41,137,137,0,0,0-23-25.68c-1.7-1.42-3.17-2.8-4.58-3.86s-2.58-2-3.6-2.72l-2.26-1.76A4.74,4.74,0,0,1,929.51,154.61Z" transform="translate(0 -5.67)" style="fill:#3f6212"/><path d="M1028.57,204a7.48,7.48,0,0,1-1.67-.69l-1.89-.91c-.74-.36-1.64-.61-2.6-1a27.89,27.89,0,0,0-23.85,2.08,31.75,31.75,0,0,0-5.82,4.21,47.19,47.19,0,0,0-4.53,4.87,6.67,6.67,0,0,1,.9-1.57,26.22,26.22,0,0,1,3.24-3.72,29.84,29.84,0,0,1,5.84-4.43,27.38,27.38,0,0,1,24.42-2c1,.41,1.86.7,2.58,1.1l1.86,1A7.81,7.81,0,0,1,1028.57,204Z" transform="translate(0 -5.67)" style="fill:#3f6212"/><path d="M1071.71,132.82a5,5,0,0,1-1,.28l-2.78.66c-2.41.56-5.89,1.41-10.16,2.58s-9.3,2.73-14.78,4.76a108.45,108.45,0,0,0-17.22,7.94,37.16,37.16,0,0,0-7.75,5.87c-2.16,2.34-4.24,4.61-6.17,6.8a148.89,148.89,0,0,0-9.75,12.08,86.45,86.45,0,0,0-5.56,8.86c-1.18,2.17-1.74,3.42-1.81,3.39a4.07,4.07,0,0,1,.35-.94c.24-.6.63-1.49,1.19-2.6a75,75,0,0,1,5.36-9,138.93,138.93,0,0,1,9.66-12.24c1.93-2.21,4-4.49,6.15-6.84a37.15,37.15,0,0,1,7.92-6,105,105,0,0,1,17.38-7.94c5.52-2,10.6-3.48,14.88-4.62s7.81-1.87,10.25-2.34l2.81-.5A4.5,4.5,0,0,1,1071.71,132.82Z" transform="translate(0 -5.67)" style="fill:#3f6212"/><path d="M992.09,196.07a8.42,8.42,0,0,1-.07-1.94c0-1.41,0-3.18.07-5.29a144.64,144.64,0,0,0-.83-17.36,146.15,146.15,0,0,0-3.09-17.12q-.7-3.08-1.19-5.15a9.08,9.08,0,0,1-.35-1.91,9.36,9.36,0,0,1,.65,1.83c.37,1.2.87,2.93,1.44,5.09a110.93,110.93,0,0,1,3.94,34.64c-.1,2.23-.2,4-.32,5.28A9.47,9.47,0,0,1,992.09,196.07Z" transform="translate(0 -5.67)" style="fill:#3f6212"/><path d="M1000.61,145.64a60.92,60.92,0,0,0-2.36-25.22A80,80,0,0,0,953.06,70q17.22,41.67,34.43,83.36l3.72,14.39C997,161.5,999.49,154.07,1000.61,145.64Z" transform="translate(0 -5.67)" style="fill:#65a30d"/><g style="opacity:0.2"><path d="M1000.61,145.64a60.92,60.92,0,0,0-2.36-25.22A80,80,0,0,0,953.06,70q17.22,41.67,34.43,83.36l3.72,14.39C997,161.5,999.49,154.07,1000.61,145.64Z" transform="translate(0 -5.67)"/></g><path d="M1432.19,988.52c.66-1.61,1.34-3.21,2-4.82,9.39-22.22,19.1-45.2-8.94-80.93-6.58,4.26-15.64,11.79-16.62,21.47s6.9,16.69,13.67,20.93a8.86,8.86,0,0,1,4.08,6,9.72,9.72,0,0,1-1.86,7.57,10.29,10.29,0,0,1-12.57,3.13c-9.89-4.9-26.18-16.83-24.12-41.7,1.18-14.12,12.05-23.68,21.51-29.39a55.39,55.39,0,0,1-8.11-8.16c-22.53,36.06-25.83,74.79-5,96.92,9.63,9.21,21,22,32.16,35.21C1426.78,1009.45,1426.94,1001.21,1432.19,988.52Z" transform="translate(0 -5.67)" style="fill:none"/><path d="M1561.71,824.6c-13.93-14.83-36-19.36-60.34-14.68-.15.33-.31.67-.48,1,2,3.11,8.87,14.72,8,23.36-.74,7.1,11.49,21.58,16.35,26.65,1.59-.66,3.2-1.29,4.83-1.86a59.9,59.9,0,0,1,7.31-2.06,36.2,36.2,0,0,1,7.67-.85,26.17,26.17,0,0,1,3.94.32l1,.2.49.1.48.14,1,.28.95.35.48.17.46.22.92.43.89.5.44.26.42.29a18.9,18.9,0,0,1,3.11,2.6,25.57,25.57,0,0,1,4.43,6.57c.56,1.18,1,2.38,1.48,3.6.12.29.2.63.3.95l.27,1a8.62,8.62,0,0,1,.22,1l.18,1a43.17,43.17,0,0,1-.84,15.37c-.41,1.95-.92,3.87-1.47,5.78a6.33,6.33,0,0,1,2,1.89,9.66,9.66,0,0,1,1.27,3.91,11,11,0,0,0,1.2,3.89c.43.8,1.19,1.93,2.06,3.25,2.68,4,6.31,9.52,7.36,14.77,3.7,3.5,30.87,29.86,34,51.17a3.26,3.26,0,0,1-.89,2.61c-3.89,4.66-19.51,6.76-45.27,6.12,2.21,3,5.1,8,4.41,13.49a1.55,1.55,0,0,1-1.4,1.35l-14.84,1.23a11.77,11.77,0,0,1,1.24,8,1.52,1.52,0,0,1-1.41,1.16l-20.12,1.12a326.27,326.27,0,0,1-15.1,33.22,8.15,8.15,0,0,1-13.82.89c-7.17-10.1-17.92-27.33-28.49-52.14l-.52-.63c-3.33,4.59-10.56,14.4-14.38,18.36-.4,2.65-2.81,13-15.6,14.34a18.68,18.68,0,0,1-9.92-1.44C1457.37,1049.9,1476,1075,1476,1075l182-119S1572.55,838.37,1561.71,824.6Z" transform="translate(0 -5.67)" style="fill:none"/><path d="M1432.62,848.23a19.94,19.94,0,0,0,13.63-.38c3.55-1.44,8.78-5,10.2-13.38q-4.73,3-9.72,5.9C1442,843.17,1437.24,845.79,1432.62,848.23Z" transform="translate(0 -5.67)" style="fill:none"/><path d="M1446.73,840.37q5-2.93,9.72-5.9a29.55,29.55,0,0,0,.31-6.62,171.63,171.63,0,0,0-26,19.6,15.57,15.57,0,0,0,1.85.78C1437.24,845.79,1442,843.17,1446.73,840.37Z" transform="translate(0 -5.67)" style="fill:#1c1917"/><path d="M1396.19,917.91c-.09,1.05-.13,2.06-.15,3.06a15.59,15.59,0,0,1,10,.3c2.22-9.39,10.67-16.56,17.13-20.81a24.62,24.62,0,0,0-5.29-3.92,54.56,54.56,0,0,1-5.74-3.63C1403.65,899.14,1397.05,907.5,1396.19,917.91Z" transform="translate(0 -5.67)" style="fill:#fff"/><path d="M1396,921c0,.43,0,.87,0,1.29.12,21.1,14.62,31.48,23.42,35.84a8.1,8.1,0,0,0,.92.38,7.29,7.29,0,0,0,1.71-1.62,6.6,6.6,0,0,0,1.29-5.14,5.86,5.86,0,0,0-2.68-3.93c-7.52-4.7-16.24-12.66-15.1-23.86a21.09,21.09,0,0,1,.45-2.66A15.59,15.59,0,0,0,1396,921Z" transform="translate(0 -5.67)" style="fill:#0369a1"/><path d="M1390.94,920.42c-1.92,23,13.21,34.12,22.4,38.67a7,7,0,0,0,6.6-.34,4.32,4.32,0,0,0,.42-.27,8.1,8.1,0,0,1-.92-.38c-8.8-4.36-23.3-14.74-23.42-35.84,0-.42,0-.86,0-1.29,0-1,.06-2,.15-3.06.86-10.41,7.46-18.77,15.94-25l-.14-.1C1402.9,898.08,1392,907.08,1390.94,920.42Z" transform="translate(0 -5.67)" style="fill:#0c4a6e"/><path d="M1387.85,920.16c-2.06,24.87,14.23,36.8,24.12,41.7a10.29,10.29,0,0,0,12.57-3.13,9.72,9.72,0,0,0,1.86-7.57,8.86,8.86,0,0,0-4.08-6c-6.77-4.24-14.64-11.31-13.67-20.93s10-17.21,16.62-21.47l0,0a25,25,0,0,0-2.08-2.28c-6.46,4.25-14.91,11.42-17.13,20.81a21.09,21.09,0,0,0-.45,2.66c-1.14,11.2,7.58,19.16,15.1,23.86a5.86,5.86,0,0,1,2.68,3.93,6.6,6.6,0,0,1-1.29,5.14,7.29,7.29,0,0,1-1.71,1.62,4.32,4.32,0,0,1-.42.27,7,7,0,0,1-6.6.34c-9.19-4.55-24.32-15.63-22.4-38.67,1.1-13.34,12-22.34,21-27.61-.85-.62-1.73-1.3-2.63-2C1399.9,896.48,1389,906,1387.85,920.16Z" transform="translate(0 -5.67)" style="fill:#1c1917"/><path d="M1458.57,974.07c-2.06-.71-2.45-3.55-2.42-5.8a10.35,10.35,0,0,1-2.59-.07c-1.45-.23-1.81-2.06-2-2.84a21.69,21.69,0,0,1-.34-3.65c-6.12,15.06-8.5,27.95-12.19,34.59-3.3,6-4,11.07-3.4,15.23l1.51-1.73c.74-.85,1.46-1.71,2.25-2.59h0a.2.2,0,0,1,.28,0,.23.23,0,0,1,.07.19,16,16,0,0,1-1,3.4,26.34,26.34,0,0,1-1.56,3.15c-.24.4-.49.79-.74,1.18a21,21,0,0,0,3.76,6.8,16.73,16.73,0,0,0,3.88.28l1.68-1.54c.7-.65,1.4-1.3,2.08-2s1.32-1.39,2-2.13a28.79,28.79,0,0,0,1.79-2.4,10.23,10.23,0,0,1-.58,3.08,17.58,17.58,0,0,1-1.33,2.85c-.29.48-.6.95-.92,1.41a13.24,13.24,0,0,0,9.58-11.45,1.59,1.59,0,0,1,.45-1c3.68-3.65,11.78-14.71,14.91-19-2.65-3.22-6.74-8.24-10.08-12.51A24.75,24.75,0,0,0,1458.57,974.07Z" transform="translate(0 -5.67)" style="fill:#f0f9ff"/><path d="M1428.93,893.82c3.28,2.09,6.81,6,10.19,10.65A24.79,24.79,0,0,0,1475,909c20.73-17.35,39.21-19.29,47.81-19,1.48-.35,2.9-.64,4.29-.89a21.05,21.05,0,0,1,2.32-4v-.23c-9.24,6.81-13.6,4.15-13.6,4.15-9.94-11.14.59-22.25,1-22.7,0,0,0,0,0,0s0,0,0-.06a17.26,17.26,0,0,1,3-2.41,25,25,0,0,1,2.44-1.42l-.68-.74a23,23,0,0,1-18.5-39.91,69.52,69.52,0,0,0-5.23-9.76,1.54,1.54,0,0,1-.23-1.16,132,132,0,0,0-30,11.09,23.62,23.62,0,0,0,0,3c.73,9.24-.5,24-13.8,31.64-12.85,7.39-23.91,2.56-30.31-2a168.72,168.72,0,0,0-19.78,24.31C1414.35,886.66,1418.9,887.43,1428.93,893.82Z" transform="translate(0 -5.67)" style="fill:#f0f9ff"/><path d="M1505.79,834c.39-3.76-1-8.34-2.74-12.35a23,23,0,0,0,18.5,39.91C1517,856.59,1504.91,842.47,1505.79,834Z" transform="translate(0 -5.67)" style="fill:#0369a1"/><path d="M1453.8,856.47c13.3-7.66,14.53-22.4,13.8-31.64a23.62,23.62,0,0,1,0-3q-3.93,2-7.85,4.28c1.14,12-3.3,21-12.31,24.63-6.29,2.55-13.94,1.95-19-1-1.68,1.58-3.3,3.18-4.89,4.8C1429.89,859,1441,863.86,1453.8,856.47Z" transform="translate(0 -5.67)" style="fill:#0c4a6e"/><path d="M1435.27,1016.84c-.44.58-.9,1.13-1.39,1.67a11.3,11.3,0,0,0,6.35,3.4,21,21,0,0,1-3.76-6.8C1436.09,1015.7,1435.69,1016.28,1435.27,1016.84Z" transform="translate(0 -5.67)" style="fill:#0c4a6e"/><path d="M1419.35,893.83a26.89,26.89,0,0,1,8.32,7c29.21,37.18,19.13,61,9.38,84.08-.67,1.6-1.35,3.19-2,4.79-4.62,11.2-5.65,20.3-3,26l.74-.87,2.19-2.52.7-.79c-.55-4.16.1-9.28,3.4-15.23,3.69-6.64,6.07-19.53,12.19-34.59a52.39,52.39,0,0,1,4.69-21.37c6.11-14,17.71-26.59,33.56-36.29.77-.47,1.53-.93,2.29-1.37a112.2,112.2,0,0,1,31-12.77c-8.6-.25-27.08,1.69-47.81,19a24.79,24.79,0,0,1-35.87-4.48c-3.38-4.62-6.91-8.56-10.19-10.65-10-6.39-14.58-7.16-25.22-15-.23.35-.46.71-.7,1.06A53.4,53.4,0,0,0,1419.35,893.83Z" transform="translate(0 -5.67)" style="fill:#0c4a6e"/><path d="M1445.78,1025.19c12.79-1.29,15.2-11.69,15.6-14.34,3.82-4,11-13.77,14.38-18.36l-2-2.47c-3.13,4.31-11.23,15.37-14.91,19a1.59,1.59,0,0,0-.45,1,13.24,13.24,0,0,1-9.58,11.45c-.27.39-.56.78-.87,1.16s-.67.79-1,1.17a15.57,15.57,0,0,1-1.17,1.1,1.55,1.55,0,0,1-2-2.34l0,0,.39-.36a16.73,16.73,0,0,1-3.88-.28,11.3,11.3,0,0,1-6.35-3.4c-.29.33-.59.66-.93,1a1.72,1.72,0,0,1-.4.26l3.31,4A18.68,18.68,0,0,0,1445.78,1025.19Z" transform="translate(0 -5.67)" style="fill:#1c1917"/><path d="M1430.68,1017.39c.42-.56.88-1.12,1.35-1.68-2.64-5.71-1.61-14.81,3-26,.66-1.6,1.34-3.19,2-4.79,9.75-23.06,19.83-46.9-9.38-84.08a26.89,26.89,0,0,0-8.32-7,53.4,53.4,0,0,1-16.34-14c-.6.92-1.19,1.84-1.76,2.76a55.39,55.39,0,0,0,8.11,8.16c.9.74,1.78,1.42,2.63,2l.14.1a54.56,54.56,0,0,0,5.74,3.63,24.62,24.62,0,0,1,5.29,3.92,25,25,0,0,1,2.08,2.28l0,0c28,35.73,18.33,58.71,8.94,80.93-.68,1.61-1.36,3.21-2,4.82-5.25,12.69-5.41,20.93-3.83,26.22l2.28,2.71a0,0,0,0,1,0,0Z" transform="translate(0 -5.67)" style="fill:#1c1917"/><path d="M1529.41,884.75V885c.12-.17.24-.34.37-.5Z" transform="translate(0 -5.67)" style="fill:#1c1917"/><path d="M1497.82,811.87a69.52,69.52,0,0,1,5.23,9.76c1.73,4,3.13,8.59,2.74,12.35-.88,8.49,11.23,22.61,15.76,27.56l.68.74.83-.43c.71-.32,1.44-.61,2.16-.91-4.86-5.07-17.09-19.55-16.35-26.65.89-8.64-6-20.25-8-23.36.17-.34.33-.68.48-1-1.25.24-2.51.5-3.78.79A1.54,1.54,0,0,0,1497.82,811.87Z" transform="translate(0 -5.67)" style="fill:#1c1917"/><path d="M1447.4,850.71c9-3.64,13.45-12.58,12.31-24.63-1,.58-2,1.17-3,1.77a29.55,29.55,0,0,1-.31,6.62c-1.42,8.42-6.65,11.94-10.2,13.38a19.94,19.94,0,0,1-13.63.38,15.57,15.57,0,0,1-1.85-.78L1429.1,849l-.72.69C1433.46,852.66,1441.11,853.26,1447.4,850.71Z" transform="translate(0 -5.67)" style="fill:#1c1917"/><path d="M1451,1017.22a10.23,10.23,0,0,0,.58-3.08,28.79,28.79,0,0,1-1.79,2.4c-.64.74-1.29,1.45-2,2.13s-1.38,1.33-2.08,2l-1.68,1.54-.39.36,0,0a1.55,1.55,0,0,0,2,2.34,15.57,15.57,0,0,0,1.17-1.1c.36-.38.7-.76,1-1.17s.6-.77.87-1.16.63-.93.92-1.41A17.58,17.58,0,0,0,1451,1017.22Z" transform="translate(0 -5.67)" style="fill:#1c1917"/><path d="M1433,1019.49c.34-.32.64-.65.93-1,.49-.54.95-1.09,1.39-1.67s.82-1.14,1.2-1.73c.25-.39.5-.78.74-1.18a26.34,26.34,0,0,0,1.56-3.15,16,16,0,0,0,1-3.4.23.23,0,0,0-.07-.19.2.2,0,0,0-.28,0h0c-.79.88-1.51,1.74-2.25,2.59l-1.51,1.73-.7.79-2.19,2.52-.74.87c-.47.56-.93,1.12-1.35,1.68l0,0a0,0,0,0,0,0,0c.64.77,1.28,1.53,1.91,2.3A1.72,1.72,0,0,0,1433,1019.49Z" transform="translate(0 -5.67)" style="fill:#1c1917"/><path d="M1510.91,912.64a8.25,8.25,0,0,1,2.54-.59c.66-1.37,1.29-2.66,1.86-3.81a2.27,2.27,0,0,0-3.09-3c-2.42,1.27-5.41,3-8.71,5a35.12,35.12,0,0,1,7.37,2.4Z" transform="translate(0 -5.67)" style="fill:#f0f9ff"/><path d="M1508.7,918.69a8.17,8.17,0,0,0-1.16,4.42,10.13,10.13,0,0,0,.08,1.22c0,.24.08.49.12.73,1.23-3.16,2.62-6.35,4-9.29a11.53,11.53,0,0,0-1.49,1.11A8.86,8.86,0,0,0,1508.7,918.69Z" transform="translate(0 -5.67)" style="fill:#f0f9ff"/><path d="M1503.75,943.3a13.76,13.76,0,0,1,0-5,1.58,1.58,0,0,1-1.24-1.28,8.93,8.93,0,0,1,2.72-8.15c-.2-.19-.39-.39-.6-.58a14.75,14.75,0,0,0-2.16-1.63q-.57-.32-1.14-.57a7.53,7.53,0,0,0-1.15-.35,5.41,5.41,0,0,0-2.3,0,6.45,6.45,0,0,0-1.15.38l-.29.13-.32.16c-.21.12-.43.22-.63.35a18.23,18.23,0,0,0-2.39,1.57,23.77,23.77,0,0,0-4.33,4.08.08.08,0,0,1-.12,0,.09.09,0,0,1,0-.06,6.63,6.63,0,0,1,.59-3.36,9.75,9.75,0,0,1,1.91-2.86c.12-.12.25-.22.36-.33a16.2,16.2,0,0,1-1-6.08,91.76,91.76,0,0,0-13.88,14.37c-11.53,15.08-11.16,33.51-6,47.3,2.85,3.55,5.57,6.86,7,8.62a37.4,37.4,0,0,1,8-6.14,38.12,38.12,0,0,1,56,23.76l10.75-.6c.18-3.22-2.22-6.48-2.25-6.51a1.56,1.56,0,0,1-.17-1.56,1.54,1.54,0,0,1,1.28-.91l16-1.33c0-6.44-5.87-12.35-5.93-12.41h0l0,0h0l0,0-.2-.22-.23-.24c-.15-.16-.31-.33-.48-.48-.32-.33-.67-.63-1-.94s-.71-.59-1.08-.88-.74-.57-1.12-.84-.77-.53-1.16-.78l-1.21-.71c-.83-.43-1.66-.87-2.53-1.23l-.65-.28-.66-.24c-.45-.15-.89-.32-1.35-.45a23.64,23.64,0,0,0-2.77-.63l-.7-.12a6.06,6.06,0,0,0-.71-.1c-.48,0-1-.1-1.44-.16s-1-.08-1.45-.12-1-.09-1.47-.16h0a.12.12,0,0,1-.09-.14.11.11,0,0,1,.08-.09l.48-.13c2.39-1.15,13.7-5.57,25.89,6.51,32,.68,39.43-3.2,41.1-4.76-4.61-.48-17.56-2.44-35.37-10a8.06,8.06,0,0,1-.79,1,4.84,4.84,0,0,1-2.33,1.31c.25-.91.52-1.62.76-2.34s.5-1.39.76-2.08a20.22,20.22,0,0,1,.88-2.06,11,11,0,0,1,1.29-2.11v0a.2.2,0,0,1,.27,0l0,.07,0,.07a197.16,197.16,0,0,0,20.9,7.68l3.42-3.53c-3.07-3-8.73-2.17-8.79-2.17a1.52,1.52,0,0,1-1.34-.45,1.56,1.56,0,0,1-.42-1.35c1.7-9.46-8.9-13.36-9-13.4a1.55,1.55,0,0,1-1-1.68c1.1-7.37-2.63-19.59-2.67-19.71h0a1.06,1.06,0,0,1-.06-.19c-.8-4.75-4.52-10.37-7-14.09-.91-1.38-1.7-2.57-2.2-3.48a13.8,13.8,0,0,1-.73-1.61,8.06,8.06,0,0,0-4.48.71c-1.61,4.11-3.4,8.15-5.32,12.11-1.09,2.24-2.21,4.46-3.38,6.66s-2.32,4.23-3.58,6.33a33.54,33.54,0,0,1-1.45,4.56c-.29.79-.68,1.54-1,2.31l-.6,1.11c-.1.18-.2.37-.31.55l-.33.54a28.53,28.53,0,0,1-3,4.07,27.16,27.16,0,0,1-3.71,3.48c-.66.53-1.36,1-2.07,1.49s-1.44.89-2.21,1.27a26,26,0,0,1-4.73,1.94,23.77,23.77,0,0,1-10.25.77,17.82,17.82,0,0,1-8.1-3.37A10.79,10.79,0,0,1,1503.75,943.3Zm-12.49,22.55a9.64,9.64,0,0,1-3.92.22,6.85,6.85,0,0,1-3.46-1.5.16.16,0,0,1,0-.23.14.14,0,0,1,.11-.06h0a13.26,13.26,0,0,0,5.88-1.87,18.06,18.06,0,0,0,4.23-3.84c.28-.39.61-.76.88-1.15l.4-.59a3,3,0,0,0,.2-.29l.17-.3.36-.61.31-.62.16-.32a1.75,1.75,0,0,1,.12-.32c.08-.22.19-.44.25-.66a11.43,11.43,0,0,0,.61-2.87,14.57,14.57,0,0,0-.08-3.28v0a.18.18,0,0,1,.16-.21.18.18,0,0,1,.14,0,7.11,7.11,0,0,1,2.19,3.06,9.38,9.38,0,0,1,.64,3.88c0,.34-.06.66-.09,1,0,.17,0,.33-.07.5l-.12.49c-.09.32-.16.65-.26,1l-.36.92-.2.47-.23.43c-.15.29-.32.57-.48.86-.34.56-.74,1.06-1.13,1.58A12.83,12.83,0,0,1,1491.26,965.85Z" transform="translate(0 -5.67)" style="fill:#f0f9ff"/><path d="M1485.68,983.85a37.4,37.4,0,0,0-8,6.14c.47.58.83,1,1,1.19a69.14,69.14,0,0,0,17.55,9.89,1.56,1.56,0,0,1,1,1.38l0,.37a65.79,65.79,0,0,0,13.76,1c-.13-.86-.23-1.39-.26-1.56l0,0s0,0,0-.06h0c1,0,1.89.09,2.76.09.42,0,.85,0,1.27,0s.84,0,1.25,0c.84,0,1.68-.07,2.55-.13s1.76-.12,2.73-.12h0a.19.19,0,0,1,.19.18.19.19,0,0,1,0,.13,6.56,6.56,0,0,1-2.48,1.61,9.61,9.61,0,0,1-1.08.32,121.81,121.81,0,0,1-.73,20.59v0c-1.51,11.56-4.62,17.84-6.46,20.67a5,5,0,0,0,5.09-2.63,321.09,321.09,0,0,0,15.3-33.79h0a21,21,0,0,1,.91-2.13c.35-.69.72-1.37,1.11-2.05s.8-1.34,1.22-2,.87-1.32,1.34-2a.2.2,0,0,1,.28,0,.2.2,0,0,1,.08.17c-.08.8-.18,1.58-.31,2.36s-.28,1.54-.44,2.3-.34,1.5-.54,2.23l6.83-.38a38.12,38.12,0,0,0-56-23.76Z" transform="translate(0 -5.67)" style="fill:#0369a1"/><path d="M1506,1016.41a1.54,1.54,0,0,1,1,.85,1.58,1.58,0,0,1,0,1.26c-1.42,3.14-.79,6.71-.24,8.7l4.36-2.08a77.26,77.26,0,0,0,0-21.29,65.79,65.79,0,0,1-13.76-1C1498.07,1013.74,1505.63,1016.3,1506,1016.41Z" transform="translate(0 -5.67)" style="fill:#fff"/><path d="M1581,945.11c4.3,1.93,10.44,6.74,10.09,14.45,2.8,0,7.89.5,10.64,4.58a1.54,1.54,0,0,1-.17,1.94l-3.22,3.33c1.56.41,3.11.78,4.62,1.09a1.23,1.23,0,0,0,1.4-1.63,141.07,141.07,0,0,0-10-21,191.36,191.36,0,0,0-14.85-17.06C1580.39,934.87,1581.35,940.52,1581,945.11Z" transform="translate(0 -5.67)" style="fill:#fda4af"/><path d="M1506.27,1037.28a1.35,1.35,0,0,0,2.21-.58,73.86,73.86,0,0,0,1.93-7.84l-4,1.9a1.54,1.54,0,0,1-2.08-.78c-.11-.26-2.47-5.81-.82-11.26-2.76-1.4-8.39-5.41-9.27-15.09a74.07,74.07,0,0,1-13-6.77,298.17,298.17,0,0,0,16.62,32.18C1501.3,1032.55,1504.47,1035.58,1506.27,1037.28Z" transform="translate(0 -5.67)" style="fill:#fda4af"/><path d="M1565.12,906.79a16.33,16.33,0,0,1-.8-3.27,7.12,7.12,0,0,0-.84-2.77,2.42,2.42,0,0,0-.3-.35q-.9,2.76-1.9,5.48c-.2.54-.42,1.08-.64,1.62A8.06,8.06,0,0,1,1565.12,906.79Z" transform="translate(0 -5.67)" style="fill:#0c4a6e"/><path d="M1503.79,938.26a13.76,13.76,0,0,0,0,5,10.79,10.79,0,0,0,6.81,8,14.22,14.22,0,0,1-1.4-1.17,11.67,11.67,0,0,1-3-4.76,14.25,14.25,0,0,1-.56-5.43c0-.6.14-1.2.24-1.79a13.63,13.63,0,0,1-1.74.15A1.28,1.28,0,0,1,1503.79,938.26Z" transform="translate(0 -5.67)" style="fill:#0c4a6e"/><path d="M1491.11,906.69c-20.7,12.67-29.61,27.45-33.45,37.62-4,10.64-3.53,18.76-2.94,20.91a10.67,10.67,0,0,0,2.72-.27,1.52,1.52,0,0,1,1.4.33,1.55,1.55,0,0,1,.52,1.34c-.22,1.88-.07,4,.31,4.56,2.13.78,5.69,3.72,6.09,4.06a1.31,1.31,0,0,1,.23.24c1.47,1.88,3.1,3.92,4.69,5.89-5.17-13.79-5.54-32.22,6-47.3a91.76,91.76,0,0,1,13.88-14.37,24.38,24.38,0,0,1,2-8.8,1.63,1.63,0,0,1,.62-.68,1.4,1.4,0,0,1,.48-.18,24.82,24.82,0,0,1,9.87.22c3.3-2.09,6.29-3.78,8.71-5a2.27,2.27,0,0,1,3.09,3c-.57,1.15-1.2,2.44-1.86,3.81a6.44,6.44,0,0,1,3.74.85.19.19,0,0,1,.06.24.16.16,0,0,1-.08.06h0c-1,.45-1.85.78-2.67,1.14s-1.56.7-2.28,1.09c-.18.1-.34.22-.51.33-1.35,2.94-2.74,6.13-4,9.29,0,.17,0,.34.08.51.09.41.19.83.31,1.23l.08.27,0,0,0,.06a13,13,0,0,1,2.35-.53l.42-.71c.44-.7.9-1.38,1.37-2.06s.88-1.22,1.38-1.85c1.53-2.94,2.88-6,4.21-9.08s2.58-6.31,3.8-9.5,2.38-6.41,3.51-9.64l.46-1.36C1516.2,894.39,1504.43,898.54,1491.11,906.69Z" transform="translate(0 -5.67)" style="fill:#0c4a6e"/><path d="M1541.45,975.27l1-.25a9.44,9.44,0,0,1,1.49-.24c.5,0,1-.08,1.51-.1a4.82,4.82,0,0,1,.76,0l.76.05a23.83,23.83,0,0,1,3,.35c.5.08,1,.22,1.5.33l.74.17.74.23a25.44,25.44,0,0,1,5.62,2.5c.45.26.88.54,1.32.83s.84.59,1.26.91.81.64,1.21,1c.2.17.39.35.58.53l.1.09,4.29.12C1555.15,969.7,1543.84,974.12,1541.45,975.27Z" transform="translate(0 -5.67)" style="fill:#0c4a6e"/><path d="M1574.39,963.32a8.09,8.09,0,0,1-.12.84,149.46,149.46,0,0,0,18.48,6.52l2.15-2.22a197.16,197.16,0,0,1-20.9-7.68A5.53,5.53,0,0,1,1574.39,963.32Z" transform="translate(0 -5.67)" style="fill:#000072"/><path d="M1602.91,970.5c-1.51-.31-3.06-.68-4.62-1.09l-2.11,2.17a96.1,96.1,0,0,0,12.2,2.31c-2.05-8.56-7.87-17.94-14.06-26.07a141.07,141.07,0,0,1,10,21A1.23,1.23,0,0,1,1602.91,970.5Z" transform="translate(0 -5.67)" style="fill:#000072"/><path d="M1511,1025.14l3.23-1.54a118,118,0,0,0,.62-19.22l-.22,0a6.11,6.11,0,0,1-.74-.17l-.36-.09-.35-.14a5.81,5.81,0,0,1-2.4-1.66c0,.17.13.7.26,1.56A77.26,77.26,0,0,1,1511,1025.14Z" transform="translate(0 -5.67)" style="fill:#0c4a6e"/><path d="M1510.41,1028.86a73.86,73.86,0,0,1-1.93,7.84,1.35,1.35,0,0,1-2.21.58c-1.8-1.7-5-4.73-8.36-8.24,3.5,5.84,6.7,10.64,9.38,14.43a5.49,5.49,0,0,0,.64.72c1.37-2,4.16-7.13,5.8-16.91Z" transform="translate(0 -5.67)" style="fill:#0c4a6e"/><path d="M1563.18,900.4a2.42,2.42,0,0,1,.3.35,7.12,7.12,0,0,1,.84,2.77,16.33,16.33,0,0,0,.8,3.27,13.8,13.8,0,0,0,.73,1.61c.5.91,1.29,2.1,2.2,3.48,2.47,3.72,6.19,9.34,7,14.09a1.06,1.06,0,0,0,.06.19l2.94-.9c.07.21.74,2.42,1.43,5.5a191.36,191.36,0,0,1,14.85,17.06c6.19,8.13,12,17.51,14.06,26.07,1.29.15,2,.19,2,.19l-.14,3.09c-.12,0-.74,0-1.82-.15-1.67,1.56-9.06,5.44-41.1,4.76l-4.29-.12c.06.07.13.13.2.2s.19.19.3.32a1.54,1.54,0,0,1-2.26,2.1h0c.06.06,6,6,5.93,12.41l-16,1.33a1.54,1.54,0,0,0-1.28.91,1.56,1.56,0,0,0,.17,1.56s2.43,3.29,2.25,6.51l-10.75.6-6.83.38v0a18.85,18.85,0,0,1-.75,2.19,1.55,1.55,0,0,1-2.89-1.11h0a321.09,321.09,0,0,1-15.3,33.79,5,5,0,0,1-5.09,2.63,11.3,11.3,0,0,1-1.43,1.88l-2.2-2.17,1.1,1.08-1.11-1.07a8.89,8.89,0,0,0,.8-1.07,5.49,5.49,0,0,1-.64-.72c-2.68-3.79-5.88-8.59-9.38-14.43a298.17,298.17,0,0,1-16.62-32.18c-1.53-1-3.1-2.12-4.64-3.35a1.55,1.55,0,0,1-.24-2.17,1.51,1.51,0,0,1,.43-.37,1.53,1.53,0,0,1,1.74.13l.12.08c-.16-.19-.52-.61-1-1.19-1.46-1.76-4.18-5.07-7-8.62-1.59-2-3.22-4-4.69-5.89a1.31,1.31,0,0,0-.23-.24c-.4-.34-4-3.28-6.09-4.06-.38-.52-.53-2.68-.31-4.56a1.55,1.55,0,0,0-.52-1.34,1.52,1.52,0,0,0-1.4-.33,10.67,10.67,0,0,1-2.72.27c-.59-2.15-1.06-10.27,2.94-20.91,3.84-10.17,12.75-24.95,33.45-37.62,13.32-8.15,25.09-12.3,34.66-14.27.4-1.15.82-2.29,1.32-3.4-1.39.25-2.81.54-4.29.89a112.2,112.2,0,0,0-31,12.77c-.76.44-1.52.9-2.29,1.37-15.85,9.7-27.45,22.25-33.56,36.29a52.39,52.39,0,0,0-4.69,21.37,21.69,21.69,0,0,0,.34,3.65c.16.78.52,2.61,2,2.84a10.35,10.35,0,0,0,2.59.07c0,2.25.36,5.09,2.42,5.8a24.75,24.75,0,0,1,5.08,3.44c3.34,4.27,7.43,9.29,10.08,12.51l2,2.47.52.63c10.57,24.81,21.32,42,28.49,52.14a8.15,8.15,0,0,0,13.82-.89,326.27,326.27,0,0,0,15.1-33.22l20.12-1.12a1.52,1.52,0,0,0,1.41-1.16,11.77,11.77,0,0,0-1.24-8l14.84-1.23a1.55,1.55,0,0,0,1.4-1.35c.69-5.46-2.2-10.51-4.41-13.49,25.76.64,41.38-1.46,45.27-6.12a3.26,3.26,0,0,0,.89-2.61c-3.11-21.31-30.28-47.67-34-51.17-1-5.25-4.68-10.73-7.36-14.77-.87-1.32-1.63-2.45-2.06-3.25a11,11,0,0,1-1.2-3.89,9.66,9.66,0,0,0-1.27-3.91,6.33,6.33,0,0,0-2-1.89C1563.84,898.29,1563.52,899.35,1563.18,900.4Z" transform="translate(0 -5.67)" style="fill:#1c1917"/><path d="M1577.75,945.88a1.55,1.55,0,0,0,1,1.68c.11,0,10.71,3.94,9,13.4a1.56,1.56,0,0,0,.42,1.35,1.52,1.52,0,0,0,1.34.45c.06,0,5.72-.8,8.79,2.17l-3.42,3.53-2.15,2.22c1.19.33,2.34.63,3.43.9l2.11-2.17,3.22-3.33a1.54,1.54,0,0,0,.17-1.94c-2.75-4.08-7.84-4.62-10.64-4.58.35-7.71-5.79-12.52-10.09-14.45.4-4.59-.56-10.24-1.48-14.35-.69-3.08-1.36-5.29-1.43-5.5l-2.94.9h0C1575.12,926.29,1578.85,938.51,1577.75,945.88Z" transform="translate(0 -5.67)" style="fill:#1c1917"/><path d="M1592.75,970.68a149.46,149.46,0,0,1-18.48-6.52,7.89,7.89,0,0,1-.51,1.65,7.17,7.17,0,0,1-.69,1.2c17.81,7.57,30.76,9.53,35.37,10,1.08.11,1.7.15,1.82.15l.14-3.09s-.73,0-2-.19a96.1,96.1,0,0,1-12.2-2.31C1595.09,971.31,1593.94,971,1592.75,970.68Z" transform="translate(0 -5.67)" style="fill:#1c1917"/><path d="M1562.37,981c-.4-.35-.81-.67-1.21-1s-.84-.62-1.26-.91-.87-.57-1.32-.83a25.44,25.44,0,0,0-5.62-2.5l-.74-.23-.74-.17c-.51-.11-1-.25-1.5-.33a23.83,23.83,0,0,0-3-.35l-.76-.05a4.82,4.82,0,0,0-.76,0c-.51,0-1,.06-1.51.1a9.44,9.44,0,0,0-1.49.24l-1,.25-.48.13a.11.11,0,0,0-.08.09.12.12,0,0,0,.09.14h0c.5.07,1,.12,1.47.16s1,0,1.45.12,1,.12,1.44.16a6.06,6.06,0,0,1,.71.1l.7.12a23.64,23.64,0,0,1,2.77.63c.46.13.9.3,1.35.45l.66.24.65.28c.87.36,1.7.8,2.53,1.23l1.21.71c.39.25.77.52,1.16.78s.74.57,1.12.84.73.58,1.08.88.69.61,1,.94c.17.15.33.32.48.48l.23.24.2.22,0,0h0l0,0a1.54,1.54,0,0,0,2.26-2.1c-.11-.13-.21-.22-.3-.32s-.14-.13-.2-.2l-.1-.09C1562.76,981.39,1562.57,981.21,1562.37,981Z" transform="translate(0 -5.67)" style="fill:#1c1917"/><path d="M1535.79,1003.46c.13-.78.23-1.56.31-2.36a.2.2,0,0,0-.08-.17.2.2,0,0,0-.28,0c-.47.64-.92,1.29-1.34,2s-.83,1.33-1.22,2-.76,1.36-1.11,2.05a21,21,0,0,0-.91,2.13h0a1.55,1.55,0,0,0,2.89,1.11,18.85,18.85,0,0,0,.75-2.19v0c.2-.73.38-1.47.54-2.23S1535.66,1004.23,1535.79,1003.46Z" transform="translate(0 -5.67)" style="fill:#1c1917"/><path d="M1516.37,1026l-2.64,1.26c-1.64,9.78-4.43,14.89-5.8,16.91a8.89,8.89,0,0,1-.8,1.07l1.11,1.07-1.1-1.08,2.2,2.17a11.3,11.3,0,0,0,1.43-1.88c1.84-2.83,5-9.11,6.46-20.67A1.55,1.55,0,0,1,1516.37,1026Z" transform="translate(0 -5.67)" style="fill:#1c1917"/><path d="M1516.15,1004.46a6.26,6.26,0,0,1-.75,0l-.52-.06a118,118,0,0,1-.62,19.22l.78-.38a1.55,1.55,0,0,1,2.06.73,1.52,1.52,0,0,1,.14.88,121.81,121.81,0,0,0,.73-20.59A9.24,9.24,0,0,1,1516.15,1004.46Z" transform="translate(0 -5.67)" style="fill:#1c1917"/><path d="M1503.53,1018.72c-1.65,5.45.71,11,.82,11.26a1.54,1.54,0,0,0,2.08.78l4-1.9,3.32-1.58,2.64-1.26a1.55,1.55,0,0,0,.86-1.15v0a1.52,1.52,0,0,0-.14-.88,1.55,1.55,0,0,0-2.06-.73l-.78.38-3.23,1.54-4.36,2.08c-.55-2-1.18-5.56.24-8.7a1.58,1.58,0,0,0,0-1.26,1.54,1.54,0,0,0-1-.85c-.33-.11-7.89-2.67-8.65-13.59l0-.37a1.56,1.56,0,0,0-1-1.38,69.14,69.14,0,0,1-17.55-9.89l-.12-.08a1.53,1.53,0,0,0-1.74-.13,1.51,1.51,0,0,0-.43.37,1.55,1.55,0,0,0,.24,2.17c1.54,1.23,3.11,2.35,4.64,3.35a74.07,74.07,0,0,0,13,6.77C1495.14,1013.31,1500.77,1017.32,1503.53,1018.72Z" transform="translate(0 -5.67)" style="fill:#1c1917"/><path d="M1574.27,964.16a8.09,8.09,0,0,0,.12-.84,5.53,5.53,0,0,0-.39-2.54l0-.07,0-.07a.2.2,0,0,0-.27,0v0a11,11,0,0,0-1.29,2.11,20.22,20.22,0,0,0-.88,2.06c-.26.69-.52,1.36-.76,2.08s-.51,1.43-.76,2.34a4.84,4.84,0,0,0,2.33-1.31,8.06,8.06,0,0,0,.79-1,7.17,7.17,0,0,0,.69-1.2A7.89,7.89,0,0,0,1574.27,964.16Z" transform="translate(0 -5.67)" style="fill:#1c1917"/><path d="M1513.21,1004l.35.14.36.09a6.11,6.11,0,0,0,.74.17l.22,0,.52.06a6.26,6.26,0,0,0,.75,0,9.24,9.24,0,0,0,1.82-.22,9.61,9.61,0,0,0,1.08-.32,6.56,6.56,0,0,0,2.48-1.61.19.19,0,0,0,0-.13.19.19,0,0,0-.19-.18h0c-1,0-1.86.07-2.73.12s-1.71.1-2.55.13c-.41,0-.83,0-1.25,0s-.85,0-1.27,0c-.87,0-1.74-.1-2.76-.09h0s0,0,0,.06l0,0A5.81,5.81,0,0,0,1513.21,1004Z" transform="translate(0 -5.67)" style="fill:#1c1917"/><path d="M1508.73,927.8c.17.25.3.47.48.77a1.78,1.78,0,0,1,.12.29c.32-.6.66-1.19,1-1.77a11.75,11.75,0,0,0-1.82.42A3.06,3.06,0,0,1,1508.73,927.8Z" transform="translate(0 -5.67)" style="fill:#1c1917"/><path d="M1506.7,930.35l-.1-.1-.27-.32a1.58,1.58,0,0,1-.54-.49l-.14-.24a.46.46,0,0,0-.07-.07,8.46,8.46,0,0,0-2.61,7.79,1.16,1.16,0,0,0,1.15,1,15.47,15.47,0,0,0,1.83-.16,29.42,29.42,0,0,1,2.39-7A1.5,1.5,0,0,1,1506.7,930.35Z" transform="translate(0 -5.67)" style="fill:#1c1917"/><path d="M1508.52,927.51a11.75,11.75,0,0,1,1.82-.42l.28-.47a13,13,0,0,0-2.35.53C1508.36,927.26,1508.44,927.39,1508.52,927.51Z" transform="translate(0 -5.67)" style="fill:#000072"/><path d="M1503,936.92a8.46,8.46,0,0,1,2.61-7.79c-.1-.11-.21-.2-.31-.3a8.93,8.93,0,0,0-2.72,8.15,1.58,1.58,0,0,0,1.24,1.28,1.28,1.28,0,0,0,.34.06,13.63,13.63,0,0,0,1.74-.15c0-.14.05-.29.08-.43a15.47,15.47,0,0,1-1.83.16A1.16,1.16,0,0,1,1503,936.92Z" transform="translate(0 -5.67)" style="fill:#000072"/><path d="M1508.73,927.8a3.06,3.06,0,0,0-.21-.29c-.08-.12-.16-.25-.25-.36l0-.06,0,0,.11.34.19.55,0,.16a1.54,1.54,0,0,1-1,2,1.47,1.47,0,0,1-1.28-.15l.27.32.1.1a1.5,1.5,0,0,0,1.64.42l.26-.54c.23-.47.48-.92.73-1.37a1.78,1.78,0,0,0-.12-.29C1509,928.27,1508.9,928.05,1508.73,927.8Z" transform="translate(0 -5.67)" style="fill:#1c1917"/><path d="M1505.37,928.69c-.13-.25-.24-.49-.35-.73l-.19-.48a1.31,1.31,0,0,1-.36-.21c-5-4.1-9.9-.06-10.11.11a1.56,1.56,0,0,1-2.4-.51c-.17-.36-.31-.73-.45-1.09-.11.11-.24.21-.36.33a9.75,9.75,0,0,0-1.91,2.86,6.63,6.63,0,0,0-.59,3.36.09.09,0,0,0,0,.06.08.08,0,0,0,.12,0,23.77,23.77,0,0,1,4.33-4.08,18.23,18.23,0,0,1,2.39-1.57c.2-.13.42-.23.63-.35l.32-.16.29-.13a6.45,6.45,0,0,1,1.15-.38,5.41,5.41,0,0,1,2.3,0,7.53,7.53,0,0,1,1.15.35q.57.26,1.14.57a14.75,14.75,0,0,1,2.16,1.63c.21.19.4.39.6.58s.21.19.31.3a.46.46,0,0,1,.07.07Z" transform="translate(0 -5.67)" style="fill:#1c1917"/><path d="M1510.88,912.66l.73.35a1.55,1.55,0,0,1-.08,2.78c-5.15,2.32-4.55,10.07-4.54,10.15a1.54,1.54,0,0,1-2.16,1.54l.19.48c.11.24.22.48.35.73l.28.51.14.24a1.58,1.58,0,0,0,.54.49,1.47,1.47,0,0,0,1.28.15,1.54,1.54,0,0,0,1-2l0-.16-.19-.55-.11-.34-.08-.27c-.12-.4-.22-.82-.31-1.23,0-.17,0-.34-.08-.51s-.09-.49-.12-.73a10.13,10.13,0,0,1-.08-1.22,8.17,8.17,0,0,1,1.16-4.42,8.86,8.86,0,0,1,1.52-1.81,11.53,11.53,0,0,1,1.49-1.11c.17-.11.33-.23.51-.33.72-.39,1.47-.73,2.28-1.09s1.69-.69,2.67-1.14h0a.16.16,0,0,0,.08-.06.19.19,0,0,0-.06-.24,6.44,6.44,0,0,0-3.74-.85,8.25,8.25,0,0,0-2.54.59Z" transform="translate(0 -5.67)" style="fill:#1c1917"/><path d="M1493.64,920.55a13.18,13.18,0,0,0,.47,3.27,10.81,10.81,0,0,1,9.84-.52c.23-2.52,1-6.14,3.72-8.62a33.35,33.35,0,0,0-4-1.21A15.8,15.8,0,0,1,1493.64,920.55Z" transform="translate(0 -5.67)" style="fill:#292524"/><path d="M1503.25,913.38a22.66,22.66,0,0,0-8.2-.45,21.43,21.43,0,0,0-1.41,7.19A15.4,15.4,0,0,0,1503.25,913.38Z" transform="translate(0 -5.67)" style="fill:#dc2626"/><path d="M1503.69,913.47c-.14,0-.29-.06-.44-.09a15.4,15.4,0,0,1-9.61,6.74v.43A15.8,15.8,0,0,0,1503.69,913.47Z" transform="translate(0 -5.67)" style="fill:#000072"/><path d="M1491.51,925.78c.14.36.28.73.45,1.09a1.56,1.56,0,0,0,2.4.51c.21-.17,5.1-4.21,10.11-.11a1.31,1.31,0,0,0,.36.21,1.54,1.54,0,0,0,2.16-1.54c0-.08-.61-7.83,4.54-10.15a1.55,1.55,0,0,0,.08-2.78l-.73-.35a35.12,35.12,0,0,0-7.37-2.4,24.82,24.82,0,0,0-9.87-.22,1.4,1.4,0,0,0-.48.18,1.63,1.63,0,0,0-.62.68,24.38,24.38,0,0,0-2,8.8A16.2,16.2,0,0,0,1491.51,925.78Zm16.16-11.1c-2.67,2.48-3.49,6.1-3.72,8.62a10.81,10.81,0,0,0-9.84.52,13.18,13.18,0,0,1-.47-3.27v-.43a21.43,21.43,0,0,1,1.41-7.19,22.66,22.66,0,0,1,8.2.45c.15,0,.3,0,.44.09A33.35,33.35,0,0,1,1507.67,914.68Z" transform="translate(0 -5.67)" style="fill:#1c1917"/><path d="M1497.68,961.52c.39-.52.79-1,1.13-1.58.16-.29.33-.57.48-.86l.23-.43.2-.47.36-.92c.1-.32.17-.65.26-1l.12-.49c0-.17,0-.33.07-.5,0-.34.09-.66.09-1a9.38,9.38,0,0,0-.64-3.88,7.11,7.11,0,0,0-2.19-3.06.18.18,0,0,0-.14,0,.18.18,0,0,0-.16.21v0a14.57,14.57,0,0,1,.08,3.28,11.43,11.43,0,0,1-.61,2.87c-.06.22-.17.44-.25.66a1.75,1.75,0,0,0-.12.32l-.16.32-.31.62-.36.61-.17.3a3,3,0,0,1-.2.29l-.4.59c-.27.39-.6.76-.88,1.15a18.06,18.06,0,0,1-4.23,3.84,13.26,13.26,0,0,1-5.88,1.87h0a.14.14,0,0,0-.11.06.16.16,0,0,0,0,.23,6.85,6.85,0,0,0,3.46,1.5,9.64,9.64,0,0,0,3.92-.22A12.83,12.83,0,0,0,1497.68,961.52Z" transform="translate(0 -5.67)" style="fill:#1c1917"/><path d="M1529.81,884.44s0,0,0,0v0c0,.11,0,.23,0,.34,6.41,4.06-.56,22.29-5.54,33.28a71,71,0,0,1-6.38,11.22c-2,2.88-4.37,7.8-2.85,13.53a7.88,7.88,0,0,0,1.79,3.27c1-1.07,1.89-2.16,2.78-3.29,1-1.31,2-2.67,3-4.08s1.8-2.87,2.69-4.38h0a.08.08,0,0,1,.08,0,0,0,0,0,1,0,.06q-.11.64-.24,1.29l-.14.64-.18.63-.37,1.27-.46,1.24c-.08.2-.15.41-.23.62l-.27.6c-.18.4-.36.81-.55,1.21-.41.78-.8,1.57-1.26,2.33a38.7,38.7,0,0,1-2.52,3.73,21.53,21.53,0,0,0,9,2.38c.59-.18,1.18-.38,1.76-.61l.74-.84c.47-.54.94-1.09,1.39-1.65.9-1.12,1.8-2.26,2.63-3.44s1.62-2.4,2.35-3.65a38.54,38.54,0,0,0,2-3.9h0a.21.21,0,0,1,.27-.1.2.2,0,0,1,.11.22,26.25,26.25,0,0,1-1.17,4.34,38.93,38.93,0,0,1-1.8,4.14q-.46.9-1,1.8l.25-.19a24.77,24.77,0,0,0,3.3-3,25.52,25.52,0,0,0,2.74-3.54l.31-.47c.09-.16.18-.33.28-.49l.55-1c.33-.68.7-1.34,1-2a30.44,30.44,0,0,0,1.5-4.27h0v0a2.54,2.54,0,0,1,.16-.38,197.25,197.25,0,0,0,12.34-26.59,100.51,100.51,0,0,0,4.14-13.93c.23-1.09.44-2.18.61-3.28-.26-7.28-2-13.46-8-20.09-6.17-6.89-21.94-4.8-31.06-2.86-1,.37-2,.71-3.05,1a22.9,22.9,0,0,1-3.72.76s0,0-.05,0c-.44.45-11,11.56-1,22.7,0,0,4.36,2.66,13.6-4.15l.37-.27Z" transform="translate(0 -5.67)" style="fill:#f0f9ff"/><path d="M1519.19,947.94c-.16.21-.31.43-.48.64-.53.67-1.1,1.32-1.68,1.95a16.39,16.39,0,0,0,2.2.53,20.33,20.33,0,0,0,8.65-.64l.33-.1A21.53,21.53,0,0,1,1519.19,947.94Z" transform="translate(0 -5.67)" style="fill:#0c4a6e"/><path d="M1515.56,947.53l.84-.92.47-.52a7.88,7.88,0,0,1-1.79-3.27c-1.52-5.73.85-10.65,2.85-13.53a71,71,0,0,0,6.38-11.22c5-11,12-29.22,5.54-33.28.19,3.54-.79,6.74-1.85,9.9s-2.16,6.54-3.31,9.79-2.35,6.49-3.65,9.7-2.68,6.39-4.25,9.53a2,2,0,0,1-.16.24l0,0c-.44.55-.9,1.21-1.33,1.83s-.85,1.28-1.25,1.94c-.8,1.31-1.55,2.65-2.21,4a31.51,31.51,0,0,0-1.67,4.19,18.54,18.54,0,0,0-.87,4.26,10.49,10.49,0,0,0,.41,4,8,8,0,0,0,2.06,3.25,7.06,7.06,0,0,0,.76.66,10.1,10.1,0,0,0,.84.62c.2.14.41.26.62.38l.74-.74Z" transform="translate(0 -5.67)" style="fill:#0c4a6e"/><path d="M1554.72,867.33c5.93,6.63,7.7,12.81,8,20.09a35.5,35.5,0,0,0,.27-10.77l-.15-.84a6.74,6.74,0,0,0-.18-.83l-.23-.81c-.08-.27-.14-.54-.25-.82a34.16,34.16,0,0,0-1.29-3.27,22.22,22.22,0,0,0-3.73-5.72,15.42,15.42,0,0,0-2.54-2.17l-.34-.24a4.05,4.05,0,0,0-.35-.21l-.72-.43-.75-.36-.38-.18-.39-.15-.78-.3-.81-.24-.4-.12-.42-.09-.83-.19a22.91,22.91,0,0,0-3.43-.34,42.85,42.85,0,0,0-14,2.45c-2.31.74-4.58,1.62-6.85,2.52l-.45.16C1532.78,862.53,1548.55,860.44,1554.72,867.33Z" transform="translate(0 -5.67)" style="fill:#0c4a6e"/><path d="M1523.06,861.85l-.83.43a25,25,0,0,0-2.44,1.42,17.26,17.26,0,0,0-3,2.41s0,0,0,.06,0,0,0,0,0,0,.05,0a22.9,22.9,0,0,0,3.72-.76c1-.3,2.05-.64,3.05-1l.45-.16c2.27-.9,4.54-1.78,6.85-2.52a42.85,42.85,0,0,1,14-2.45,22.91,22.91,0,0,1,3.43.34l.83.19.42.09.4.12.81.24.78.3.39.15.38.18.75.36.72.43a4.05,4.05,0,0,1,.35.21l.34.24a15.42,15.42,0,0,1,2.54,2.17,22.22,22.22,0,0,1,3.73,5.72,34.16,34.16,0,0,1,1.29,3.27c.11.28.17.55.25.82l.23.81a6.74,6.74,0,0,1,.18.83l.15.84a35.5,35.5,0,0,1-.27,10.77c-.17,1.1-.38,2.19-.61,3.28a100.51,100.51,0,0,1-4.14,13.93,197.25,197.25,0,0,1-12.34,26.59,2.54,2.54,0,0,0-.16.38v0h0a30.44,30.44,0,0,1-1.5,4.27c-.28.7-.65,1.36-1,2l-.55,1c-.1.16-.19.33-.28.49l-.31.47a25.52,25.52,0,0,1-2.74,3.54,24.77,24.77,0,0,1-3.3,3l-.25.19c-.41.72-.82,1.44-1.27,2.13a40.05,40.05,0,0,1-2.62,3.74,1.55,1.55,0,1,1-2.42-1.93l.07-.09,0,0,.67-.74c-.58.23-1.17.43-1.76.61l-.33.1a20.33,20.33,0,0,1-8.65.64,16.39,16.39,0,0,1-2.2-.53l0,.07a25.15,25.15,0,0,1-2,1.88,1.55,1.55,0,0,1-2.09-2.28l0-.05c.31-.31.65-.64,1-1-.21-.12-.42-.24-.62-.38a10.1,10.1,0,0,1-.84-.62,7.06,7.06,0,0,1-.76-.66,8,8,0,0,1-2.06-3.25,10.49,10.49,0,0,1-.41-4,18.54,18.54,0,0,1,.87-4.26,31.51,31.51,0,0,1,1.67-4.19c.66-1.37,1.41-2.71,2.21-4,.4-.66.82-1.3,1.25-1.94s.89-1.28,1.33-1.83l0,0a2,2,0,0,0,.16-.24c1.57-3.14,3-6.32,4.25-9.53s2.49-6.45,3.65-9.7,2.25-6.52,3.31-9.79,2-6.36,1.85-9.9c0-.11,0-.23,0-.34v0s0,0,0,0l0,0c-.13.16-.25.33-.37.5a21.05,21.05,0,0,0-2.32,4c-.5,1.11-.92,2.25-1.32,3.4l-.46,1.36c-1.13,3.23-2.29,6.45-3.51,9.64s-2.46,6.37-3.8,9.5-2.68,6.14-4.21,9.08c-.5.63-.93,1.23-1.38,1.85s-.93,1.36-1.37,2.06l-.42.71-.28.47c-.35.58-.69,1.17-1,1.77-.25.45-.5.9-.73,1.37l-.26.54a29.42,29.42,0,0,0-2.39,7c0,.14,0,.29-.08.43-.1.59-.19,1.19-.24,1.79a14.25,14.25,0,0,0,.56,5.43,11.67,11.67,0,0,0,3,4.76,14.22,14.22,0,0,0,1.4,1.17,17.82,17.82,0,0,0,8.1,3.37,23.77,23.77,0,0,0,10.25-.77,26,26,0,0,0,4.73-1.94c.77-.38,1.49-.83,2.21-1.27s1.41-1,2.07-1.49a27.16,27.16,0,0,0,3.71-3.48,28.53,28.53,0,0,0,3-4.07l.33-.54c.11-.18.21-.37.31-.55l.6-1.11c.35-.77.74-1.52,1-2.31a33.54,33.54,0,0,0,1.45-4.56c1.26-2.1,2.43-4.2,3.58-6.33s2.29-4.42,3.38-6.66c1.92-4,3.71-8,5.32-12.11.22-.54.44-1.08.64-1.62q1-2.71,1.9-5.48c.34-1,.66-2.11,1-3.17.55-1.91,1.06-3.83,1.47-5.78a43.17,43.17,0,0,0,.84-15.37l-.18-1a8.62,8.62,0,0,0-.22-1l-.27-1c-.1-.32-.18-.66-.3-.95-.44-1.22-.92-2.42-1.48-3.6a25.57,25.57,0,0,0-4.43-6.57,18.9,18.9,0,0,0-3.11-2.6l-.42-.29-.44-.26-.89-.5-.92-.43-.46-.22-.48-.17-.95-.35-1-.28-.48-.14-.49-.1-1-.2a26.17,26.17,0,0,0-3.94-.32,36.2,36.2,0,0,0-7.67.85,59.9,59.9,0,0,0-7.31,2.06c-1.63.57-3.24,1.2-4.83,1.86C1524.5,861.24,1523.77,861.53,1523.06,861.85Z" transform="translate(0 -5.67)" style="fill:#1c1917"/><path d="M1538.27,940.68a26.25,26.25,0,0,0,1.17-4.34.2.2,0,0,0-.11-.22.21.21,0,0,0-.27.1h0a38.54,38.54,0,0,1-2,3.9c-.73,1.25-1.52,2.47-2.35,3.65s-1.73,2.32-2.63,3.44c-.45.56-.92,1.11-1.39,1.65l-.74.84-.67.74,0,0-.07.09a1.55,1.55,0,1,0,2.42,1.93,40.05,40.05,0,0,0,2.62-3.74c.45-.69.86-1.41,1.27-2.13s.65-1.2,1-1.8A38.93,38.93,0,0,0,1538.27,940.68Z" transform="translate(0 -5.67)" style="fill:#1c1917"/><path d="M1519.19,947.94a38.7,38.7,0,0,0,2.52-3.73c.46-.76.85-1.55,1.26-2.33.19-.4.37-.81.55-1.21l.27-.6c.08-.21.15-.42.23-.62l.46-1.24.37-1.27.18-.63.14-.64q.13-.64.24-1.29a0,0,0,0,0,0-.06.08.08,0,0,0-.08,0h0c-.89,1.51-1.72,3-2.69,4.38s-1.92,2.77-3,4.08c-.89,1.13-1.83,2.22-2.78,3.29l-.47.52-.84.92-.86.9-.74.74c-.33.34-.67.67-1,1l0,.05a1.55,1.55,0,0,0,2.09,2.28,25.15,25.15,0,0,0,2-1.88l0-.07c.58-.63,1.15-1.28,1.68-1.95C1518.88,948.37,1519,948.15,1519.19,947.94Z" transform="translate(0 -5.67)" style="fill:#1c1917"/></svg>