<svg xmlns="http://www.w3.org/2000/svg" viewBox="0 0 1016.77 291.68">
    <path d="M518.69,447.65c2.21,8.61,5.35,16.16,11.47,22.81,11.51,12.49,28.41,19.73,44.18,25,19.53,6.57,41,10.58,61.39,5.45,16.56-4.17,32.38-14.3,40.62-29.61,9.67-18,7.25-41.19,2.23-60.2-5.19-19.62-17.37-34.83-34.35-45.67-16.2-10.34-35.86-19-55.4-18.7a71.77,71.77,0,0,0-46.55,18.15A64.94,64.94,0,0,0,522.16,399c-3.8,15.55-7.3,32.78-3.47,48.64.82,3.37,11.46,7.48,10.24,2.44-3.06-12.67-.43-27,2.2-39.5,1.91-9.06,4-17.51,9-25.44a67.62,67.62,0,0,1,35.65-27.72c16.53-5.47,33-3.2,48.73,3.68,16.26,7.11,31.36,17.63,39,34.14,7.54,16.28,10.63,37.32,7.65,55-2.81,16.73-13.8,30-28.62,37.81-16.43,8.65-35.41,9.28-53.3,5.44A148.87,148.87,0,0,1,557.8,483c-6.46-3-12.86-6.63-18-11.61-6.14-5.92-8.77-13.19-10.85-21.25C528.07,446.72,517.41,442.64,518.69,447.65Z" transform="translate(-116.62 -274.3)"/>
    <path d="M605.27,464.36c13.21,1.42,26.52-6.75,29.16-20.21.73-3.69-9.86-8-10.33-5.64-2.2,11.23-12.89,20.31-24.59,19.05-2.39-.25-2.7,1.05-1.54,2.82,1.34,2,4.93,3.73,7.3,4Z" transform="translate(-116.62 -274.3)"/>
    <path d="M565.89,405.12v6.05c0,.74,1.44,1.89,1.86,2.24a16.93,16.93,0,0,0,3.9,2.33c.9.38,4.66,2,4.66,0v-6c0-.74-1.43-1.89-1.86-2.23a16.19,16.19,0,0,0-3.89-2.33c-.91-.39-4.67-2-4.67,0Z" transform="translate(-116.62 -274.3)"/>
    <path d="M622.31,402.91v3.78c0,.81,1.31,1.94,1.79,2.36A15.06,15.06,0,0,0,628,411.4c1,.4,4.8,1.92,4.8-.22V407.4c0-.8-1.31-1.94-1.79-2.35a14.53,14.53,0,0,0-3.88-2.35c-1-.41-4.8-1.93-4.8.21Z" transform="translate(-116.62 -274.3)"/>
    <path d="M592.07,502.74q-1,28-3.64,55.9c-.32,3.44,10.24,8.2,10.61,4.24q2.61-27.9,3.64-55.9c.13-3.52-10.47-8.09-10.61-4.24Z" transform="translate(-116.62 -274.3)"/>
    <path d="M174.94,394.57c9.29-23.65,33.34-40.6,58.91-40.7,15-.06,29.79,6.22,42.54,13.67,13,7.56,23.23,17.92,28.84,32a100.52,100.52,0,0,1,6.3,46.6,49.74,49.74,0,0,1-20.09,35c-25.2,18.9-59.76,13.8-86.9,2-9.83-4.29-19.45-10.38-23.69-20.66-2.51-6.09-2.56-12.83-4.75-19-1.8-5.09-12.55-5.67-10.13,1.18a82.44,82.44,0,0,1,1.66,8.19A54.74,54.74,0,0,0,170.86,464c4.42,10.37,13.44,17.91,23.12,23.22a134.58,134.58,0,0,0,51.22,15.35c16.52,1.51,33.41-1,47.92-9.3,12.86-7.38,23-18.63,27.28-33,5-16.52,2.8-36.1-1.84-52.48a75.21,75.21,0,0,0-27.95-40.85c-13.54-10-29.77-17.67-46.3-20.92-32.41-6.39-67.53,11.94-79.7,42.91-2.06,5.24,8.33,10.72,10.33,5.64Z" transform="translate(-116.62 -274.3)"/>
    <path d="M205.89,404.06v6c0,.87,1.19,2,1.73,2.48a13.62,13.62,0,0,0,3.87,2.37c1.09.43,4.94,1.81,4.94-.47v-6c0-.87-1.19-2-1.73-2.48a13.76,13.76,0,0,0-3.87-2.37c-1.09-.43-4.94-1.81-4.94.47Z" transform="translate(-116.62 -274.3)"/>
    <path d="M262.27,401.91v3.78a4.58,4.58,0,0,0,1.57,2.76,11.36,11.36,0,0,0,3.84,2.42c1.33.47,5.26,1.5,5.26-1v-3.78a4.6,4.6,0,0,0-1.58-2.76,11.27,11.27,0,0,0-3.84-2.42c-1.33-.47-5.25-1.5-5.25,1Z" transform="translate(-116.62 -274.3)"/>
    <path d="M231.93,501.92q-1,28-3.64,55.9c-.49,5.18,10.45,9.38,11,3.53q2.61-27.9,3.64-55.9c.19-5.2-10.78-9.31-11-3.53Z" transform="translate(-116.62 -274.3)"/>
    <path d="M227.26,513c-13.38,2.52-27.58,2.14-40.28-3.15a51.33,51.33,0,0,1-26.69-26.58c-10.31-22.9-1-51.52,22.4-61.94,2.56-1.14-6.21-7.91-9.39-6.49A47.62,47.62,0,0,0,147.08,446c-3.68,13.83-.9,28.41,6.48,40.54,16.63,27.34,50.92,39,81.53,33.24,4.2-.79-4.8-7.43-7.83-6.86Z" transform="translate(-116.62 -274.3)"/>
    <path d="M242,520.24c20.09,6.1,31.75,24.85,42.19,41.71,1.49,2.4,4.37,4.33,7.31,4,2.43-.28,4.11-2.56,2.67-4.89-12.68-20.46-27-41.61-51.28-49-7.42-2.26-7,6.31-.89,8.16Z" transform="translate(-116.62 -274.3)"/>
    <path d="M157.88,358.8a51.11,51.11,0,0,0-9.12-16.33c-1.55-1.89-5.18-3.64-7.64-2.81-2.66.9-1.64,3.37-.32,5a38.34,38.34,0,0,1,6.56,12.22c.87,2.62,3.9,4.45,6.5,4.91,1.94.34,4.89-.34,4-3Z" transform="translate(-116.62 -274.3)"/>
    <path d="M139.51,377.25a93.43,93.43,0,0,0-20.17-3.75c-2.54-.19-3.26,2-2.14,3.92,1.42,2.42,4.64,3.79,7.31,4a69.77,69.77,0,0,1,14.83,2.69c1.75.52,5.16,1.22,5.47-1.44.29-2.41-3.43-4.84-5.3-5.4Z" transform="translate(-116.62 -274.3)"/>
    <path d="M136.86,402.51a86.52,86.52,0,0,0-18.29,5.09c-5.79,2.35,2.73,10,7.1,8.2a76.38,76.38,0,0,1,15.94-4.63c7-1.19,0-9.47-4.75-8.66Z" transform="translate(-116.62 -274.3)"/>
    <path d="M225.49,458.94c2.09-6.91,7.12-12.87,14.14-15.11s13.69.35,16.64,7.25c1,2.45,4.07,4.22,6.58,4.74,1.62.34,4.76.17,3.69-2.35-4.42-10.38-15.77-17.64-27-17.94a25,25,0,0,0-24.36,17.78c-1.22,4,9.32,9,10.32,5.63Z" transform="translate(-116.62 -274.3)"/>
    <path d="M886,446.1c2.16,8.39,5.1,15.87,11,22.39,11.24,12.4,27.77,19.67,43.21,25.19,19.42,6.93,40.7,11.22,61.2,6.91,16.74-3.52,33-13.5,41.68-28.57,10.17-17.71,8-41.31,3-60.31-5.12-19.37-16.9-34.3-33.55-45.18-16-10.48-35.5-19.22-54.92-19.8-16.88-.5-33.54,5.78-46.46,16.51a63.64,63.64,0,0,0-21.38,34.44C886,412.94,882.2,430.52,886,446.1c.53,2.21,3.84,3.82,5.72,4.63.61.26,5.2,1.92,4.72-.07-3.13-12.93-.76-27,1.93-39.81,1.86-8.83,3.84-17.26,8.52-25.07a68.13,68.13,0,0,1,34.77-28.45c16.36-6.05,33.23-4.78,49.19,1.93,16.47,6.92,31.61,17.25,39.64,33.7,4.08,8.35,6.32,17.54,7.68,26.7,1.43,9.66,2.2,19.72.61,29.41-2.73,16.57-13.1,30-27.69,38.09-16.09,8.9-34.72,10.23-52.57,6.9a145.85,145.85,0,0,1-32.35-10.25c-6.59-2.94-13.15-6.47-18.44-11.48-6.35-6-9.17-13.4-11.29-21.67-.57-2.22-3.82-3.81-5.72-4.63C890.1,445.78,885.46,444.11,886,446.1Z" transform="translate(-116.62 -274.3)"/>
    <path d="M933.15,404.85v6c0,3.71,10.65,8.16,10.65,4.18V409c0-3.71-10.65-8.15-10.65-4.17Z" transform="translate(-116.62 -274.3)"/>
    <path d="M989.74,402.31v3.78c0,.66,1.58,1.83,1.93,2.11a19.25,19.25,0,0,0,3.91,2.31,9.32,9.32,0,0,0,3.43,1.06c.64,0,1.09,0,1.09-.77V407c0-.67-1.58-1.84-1.93-2.11a19.25,19.25,0,0,0-3.91-2.31,9.09,9.09,0,0,0-3.42-1.06c-.64,0-1.1,0-1.1.76Z" transform="translate(-116.62 -274.3)"/>
    <path d="M959.47,502.22q-1,28-3.65,55.9c-.31,3.28,10.23,8,10.58,4.3Q969,534.54,970,506.53c.13-3.38-10.44-7.94-10.57-4.31Z" transform="translate(-116.62 -274.3)"/>
    <path d="M927.08,448.12c6.84,15.75,24.34,21,40,22.67,7.83.83,16.34,1.95,24-.7s12.14-9.32,16.16-15.86c2.91-4.76-7.37-10.48-10.33-5.64s-6,10-11.33,12.38c-5.71,2.51-12.56,1.36-18.56.77-11.28-1.12-24.72-3.2-29.77-14.85-2.16-5-13-5.44-10.15,1.23Z" transform="translate(-116.62 -274.3)"/>
    <path d="M971.68,531.84c26.37,1.69,54.12-1.73,76.69-16.44a79.69,79.69,0,0,0,24.78-24.93c7.06-11.62,10.51-24.92,13.89-38,.83-3.21-9.8-7.66-10.33-5.63-3.24,12.52-6.54,25.26-13.06,36.55a76.78,76.78,0,0,1-24.75,25.63c-22.23,14.48-49.21,17.86-75.2,16.19-2.66-.17-.12,2.73.58,3.34a13.24,13.24,0,0,0,7.4,3.25Z" transform="translate(-116.62 -274.3)"/>
    <path d="M1079.82,440.65c1.52.05,1.32,1.59,1.09-.13a15.36,15.36,0,0,0-1.39-3.08,21.71,21.71,0,0,1-2-7.88c0-2.34,1.91-9.16,5.56-8,2.23.67,3.31,5.36,3.5,7.28.31,3.06-.27,6.81-3.39,8.13-6.17,2.62,1.82,10.83,6.83,8.71,16.19-6.88,5.16-33.63-10.13-33.6-8.91,0-14.07,8.55-13.42,16.72.64,8,5.43,20.95,15,21.29,7.68.28,4.4-9.19-1.64-9.4Z" transform="translate(-116.62 -274.3)"/>
    <path d="M950.22,523.92c-44.09,4.91-70.77-36-84.16-72.13-1.06-2.87-11.57-7-10-2.83,8.22,22.17,19.76,43.74,37.85,59.43,17.46,15.14,40.78,25,64.14,22.43,2.61-.29.67-2.82-.34-3.77-1.74-1.64-4.95-3.41-7.46-3.13Z" transform="translate(-116.62 -274.3)"/>
    <path d="M856.61,455c8.46-.08,15.39-7,12.33-15.71s-14-13.22-22.59-10.82c-8,2.23-14.33,10.18-11.36,18.61,3.28,9.31,14.39,12.11,23.17,11.85,2.44-.08,3.3-1.71,2.07-3.79a9.46,9.46,0,0,0-7.3-4c-3.94.12-7.75.7-8-4.24-.18-4,2.54-7.54,5.83-9.51,3.68-2.2,8.46-3.19,8.21,2.55a7.79,7.79,0,0,1-7.61,7.28c-2.46,0-3.27,1.74-2.06,3.79a9.45,9.45,0,0,0,7.3,4Z" transform="translate(-116.62 -274.3)"/>
    <path d="M1063.33,360.16c-3.48,8.53,10.38,13.19,16.55,12.85,6.94-.38,12-7.82,7.4-13.78-2.33-3-6.46,1.21-4.16,4.16.69.88-.33,2.3-1,2.87-1.51,1.34-3.74.94-5.51.53-2-.47-8.81-2.21-7.64-5.07,1.43-3.5-4.26-5-5.67-1.56Z" transform="translate(-116.62 -274.3)"/>
    <path d="M1065.1,366.09a5.59,5.59,0,0,0-2.86,6.28c.72,3.28,3.78,4.81,6.72,5.69,6.83,2,15.06,2.39,18.17-5.29,1.43-3.51-4.26-5-5.67-1.57-1.07,2.63-4.6,2.55-6.87,2.17a30.53,30.53,0,0,1-3.55-.84,29.37,29.37,0,0,1-3-1.36c3.39-1.68.41-6.76-3-5.08Z" transform="translate(-116.62 -274.3)"/>
    <path d="M1067,360.51l18.54,2.45c3.74.49,3.71-5.4,0-5.89L1067,354.63c-3.74-.49-3.71,5.39,0,5.88Z" transform="translate(-116.62 -274.3)"/>
    <path d="M1071.32,355c-3.59-7.43-7.28-14.83-10.78-22.31-3.14-6.7-4.87-13.23-2.61-20.5a25.51,25.51,0,0,1,30.52-17.22c13.66,3.25,22.22,15.62,21.17,29.52-.57,7.48-4,15.07-10.37,19.29-5.85,3.89-10.86,7-15,12.9-2.19,3.1,2.91,6,5.08,3a30.65,30.65,0,0,1,8.94-8.41c2.81-1.76,5.75-3.29,8.15-5.63a31.75,31.75,0,0,0,8.43-16.23c2.29-11.52-1-24.22-9.84-32.23-18.11-16.32-48.82-8.35-53.5,16.59-1.26,6.67-.08,12.88,2.63,19,3.74,8.52,8.06,16.81,12.11,25.19,1.65,3.41,6.72.43,5.08-3Z" transform="translate(-116.62 -274.3)"/>
    <path d="M1077.17,355.37a115.23,115.23,0,0,0-3.58-28.39c-.93-3.66-6.61-2.11-5.67,1.57a108.25,108.25,0,0,1,3.37,26.82c0,3.78,5.88,3.79,5.88,0Z" transform="translate(-116.62 -274.3)"/>
    <path d="M1084.93,356.2a87.43,87.43,0,0,1,8.46-29c1.66-3.39-3.41-6.38-5.08-3a96.17,96.17,0,0,0-9.27,32c-.41,3.76,5.48,3.73,5.89,0Z" transform="translate(-116.62 -274.3)"/>
    <path d="M1070.08,337.49a81,81,0,0,1,23.83,0c3.7.55,5.3-5.12,1.56-5.67a90.5,90.5,0,0,0-27,0c-3.73.55-2.15,6.22,1.56,5.68Z" transform="translate(-116.62 -274.3)"/>
    <path d="M1116.76,296.25a19.48,19.48,0,0,1,6.86-5,3,3,0,0,0,2.05-3.62c-.38-1.39-2.14-2.67-3.62-2.06a26.09,26.09,0,0,0-9.45,6.51c-2.54,2.8,1.61,7,4.16,4.16Z" transform="translate(-116.62 -274.3)"/>
    <path d="M1119.42,303.4l11.15-1.2c3.73-.4,3.77-6.29,0-5.88l-11.15,1.2c-3.72.4-3.76,6.28,0,5.88Z" transform="translate(-116.62 -274.3)"/>
    <path d="M1107.72,285.93a19.2,19.2,0,0,1,.72-8c1.12-3.63-4.56-5.18-5.67-1.57a23.36,23.36,0,0,0-.93,9.58,3,3,0,0,0,2.94,2.94c1.45,0,3.12-1.36,2.94-2.94Z" transform="translate(-116.62 -274.3)"/>
    <path d="M591.28,512.17A83.26,83.26,0,0,0,549,520c-4.92,2.35-14.78,6.56-16.22,12.45-1.4,5.73,5,10,9.56,11.82C549.16,547,557,548,564.24,549A150.93,150.93,0,0,0,590,550.69c7.65-.21,15.64-.82,23-2.92,5.3-1.51,10.88-4.4,11.2-10.54.21-3.93-10.48-8.51-10.71-4.05-.26,4.91-6,6.67-10,7.57A98.57,98.57,0,0,1,584.7,543a154.67,154.67,0,0,1-37.07-3.88c-1.15-.25-2.84-.31-3.82-.87a7.08,7.08,0,0,1-1.07-.36l.51-.13c-.37-2.21,4.22-4.74,5.63-5.68a74.8,74.8,0,0,1,14.54-7.53,76,76,0,0,1,33.15-4.73c2.5.19,3.16-1.78,2-3.68-1.41-2.33-4.69-3.79-7.3-4Z" transform="translate(-116.62 -274.3)"/>
    <path d="M602.6,521.09c9.74-.83,19.57,1.14,27.7,6.76,4.19,2.9,8.23,6.67,6.38,12.24-1.76,5.29-6.75,8.34-11.75,10-16.18,5.53-45.26,8.44-49.32-14-.75-4.14-11.61-7.72-10.55-1.88,2.32,12.84,14,22.23,25.94,25.87,13.9,4.21,31.9,2.46,45.06-3.64,5.87-2.72,11.06-7.56,11.85-14.32.86-7.26-4.68-13.08-9.95-17.17a58.37,58.37,0,0,0-40.37-12.05c-6.87.58.69,8.54,5,8.18Z" transform="translate(-116.62 -274.3)"/>
    <path d="M572.64,533.13a15.5,15.5,0,0,0-8.92-4.88,5.62,5.62,0,0,0-4.36.85,1.16,1.16,0,0,0-.46,1.47,5.06,5.06,0,0,0,1.58,2.13,14.76,14.76,0,0,0,2.46,1.7,10.2,10.2,0,0,0,4,1.4l4.17.2c.67,0,1.88.15,2.3-.61s-.3-1.78-.73-2.27a11.13,11.13,0,0,0-3.32-2.59,10.26,10.26,0,0,0-4-1.4l-4.17-.2q3.78,3.35,7.55,6.7a2.9,2.9,0,0,1,1.08-.61l-.78.2c.13,0,.27-.07.41-.09s.76,0,.11,0a9.88,9.88,0,0,1-5.78-3.06,13.32,13.32,0,0,0,3.32,2.59,10.87,10.87,0,0,0,4,1.39c.73.06,1.87.17,2.3-.61s-.27-1.78-.73-2.27Z" transform="translate(-116.62 -274.3)"/>
    <path d="M618.4,529.21l-2.9-1.07a6,6,0,0,0-4,0,3.55,3.55,0,0,0-2,2.5c-1.06,3.35,1.31,7,3.79,9.07,3,2.46,7.58,4,11.29,2.27,2.49-1.14,2.51-4,.85-6s-5.13-3.76-7.77-2.56a4.08,4.08,0,0,1-.54.22q1-.21.51-.15c-.41,0-.19,0,.65,0-.43-.06-.38,0,.16.06s.58.13.16,0c1,.46,1.21.54.66.25l.81.56-.45-.37q1,1,.54.51a3,3,0,0,1-.27-.35c.46.74.56.87.31.39l.21.64a4.71,4.71,0,0,1-.12-.54c0,.2,0,.39,0,.59a9.94,9.94,0,0,1,.2-1.12l-6,2.48,2.9,1.06c2.07.76,5.82.32,6-2.48.23-3-2.49-5.08-5-6Z" transform="translate(-116.62 -274.3)"/>
    <path d="M378.31,485.29a619.82,619.82,0,0,1,79.11-1.6c7.68.34,3.31-8.31-2.1-8.55a642.91,642.91,0,0,0-81.76,1.49c-2.63.22-3.67,2.38-2.55,4.67a8.15,8.15,0,0,0,7.3,4Z" transform="translate(-116.62 -274.3)"/>
    <path d="M730.89,485.64q42-.54,83.94-3.71c6.77-.52-1-8.28-5.14-8q-41.9,3.18-83.93,3.72c-2.51,0-3.35,1.89-2.17,4a9.17,9.17,0,0,0,7.3,4Z" transform="translate(-116.62 -274.3)"/>
</svg>